<svg width="551" height="174" viewBox="0 0 551 174" fill="none" xmlns="http://www.w3.org/2000/svg">
<g filter="url(#filter0_bd_832_2182)">
<rect x="44" y="44" width="463" height="86" rx="26" fill="url(#paint0_linear_832_2182)" fill-opacity="0.9" shape-rendering="crispEdges"/>
<path d="M71.7933 96V78.72H82.1973V81.612H74.6853V85.92H80.7573V88.8H74.6853V96H71.7933ZM87.511 96.36C86.575 96.36 85.783 96.184 85.135 95.832C84.487 95.472 83.995 94.996 83.659 94.404C83.331 93.812 83.167 93.16 83.167 92.448C83.167 91.824 83.271 91.264 83.479 90.768C83.687 90.264 84.007 89.832 84.439 89.472C84.871 89.104 85.431 88.804 86.119 88.572C86.639 88.404 87.247 88.252 87.943 88.116C88.647 87.98 89.407 87.856 90.223 87.744C91.047 87.624 91.907 87.496 92.803 87.36L91.771 87.948C91.779 87.052 91.579 86.392 91.171 85.968C90.763 85.544 90.075 85.332 89.107 85.332C88.523 85.332 87.959 85.468 87.415 85.74C86.871 86.012 86.491 86.48 86.275 87.144L83.635 86.316C83.955 85.22 84.563 84.34 85.459 83.676C86.363 83.012 87.579 82.68 89.107 82.68C90.259 82.68 91.271 82.868 92.143 83.244C93.023 83.62 93.675 84.236 94.099 85.092C94.331 85.548 94.471 86.016 94.519 86.496C94.567 86.968 94.591 87.484 94.591 88.044V96H92.059V93.192L92.479 93.648C91.895 94.584 91.211 95.272 90.427 95.712C89.651 96.144 88.679 96.36 87.511 96.36ZM88.087 94.056C88.743 94.056 89.303 93.94 89.767 93.708C90.231 93.476 90.599 93.192 90.871 92.856C91.151 92.52 91.339 92.204 91.435 91.908C91.587 91.54 91.671 91.12 91.687 90.648C91.711 90.168 91.723 89.78 91.723 89.484L92.611 89.748C91.739 89.884 90.991 90.004 90.367 90.108C89.743 90.212 89.207 90.312 88.759 90.408C88.311 90.496 87.915 90.596 87.571 90.708C87.235 90.828 86.951 90.968 86.719 91.128C86.487 91.288 86.307 91.472 86.179 91.68C86.059 91.888 85.999 92.132 85.999 92.412C85.999 92.732 86.079 93.016 86.239 93.264C86.399 93.504 86.631 93.696 86.935 93.84C87.247 93.984 87.631 94.056 88.087 94.056ZM97.7152 96V83.04H100.271V86.196L99.9592 85.788C100.119 85.356 100.331 84.964 100.595 84.612C100.867 84.252 101.191 83.956 101.567 83.724C101.887 83.508 102.239 83.34 102.623 83.22C103.015 83.092 103.415 83.016 103.823 82.992C104.231 82.96 104.627 82.976 105.011 83.04V85.74C104.627 85.628 104.183 85.592 103.679 85.632C103.183 85.672 102.735 85.812 102.335 86.052C101.935 86.268 101.607 86.544 101.351 86.88C101.103 87.216 100.919 87.6 100.799 88.032C100.679 88.456 100.619 88.916 100.619 89.412V96H97.7152ZM122.865 96V88.128C122.865 87.24 122.645 86.548 122.205 86.052C121.765 85.548 121.169 85.296 120.417 85.296C119.953 85.296 119.537 85.404 119.169 85.62C118.801 85.828 118.509 86.14 118.293 86.556C118.077 86.964 117.969 87.452 117.969 88.02L116.685 87.264C116.677 86.368 116.877 85.58 117.285 84.9C117.701 84.212 118.261 83.676 118.965 83.292C119.669 82.908 120.453 82.716 121.317 82.716C122.749 82.716 123.845 83.148 124.605 84.012C125.373 84.868 125.757 85.996 125.757 87.396V96H122.865ZM107.277 96V83.04H109.833V87.06H110.193V96H107.277ZM115.089 96V88.164C115.089 87.26 114.869 86.556 114.429 86.052C113.989 85.548 113.389 85.296 112.629 85.296C111.893 85.296 111.301 85.548 110.853 86.052C110.413 86.556 110.193 87.212 110.193 88.02L108.897 87.156C108.897 86.316 109.105 85.56 109.521 84.888C109.937 84.216 110.497 83.688 111.201 83.304C111.913 82.912 112.709 82.716 113.589 82.716C114.557 82.716 115.365 82.924 116.013 83.34C116.669 83.748 117.157 84.308 117.477 85.02C117.805 85.724 117.969 86.52 117.969 87.408V96H115.089ZM129.127 81.072V78.42H132.019V81.072H129.127ZM129.127 96V83.04H132.019V96H129.127ZM144.578 96V89.76C144.578 89.352 144.55 88.9 144.494 88.404C144.438 87.908 144.306 87.432 144.098 86.976C143.898 86.512 143.594 86.132 143.186 85.836C142.786 85.54 142.242 85.392 141.554 85.392C141.186 85.392 140.822 85.452 140.462 85.572C140.102 85.692 139.774 85.9 139.478 86.196C139.19 86.484 138.958 86.884 138.782 87.396C138.606 87.9 138.518 88.548 138.518 89.34L136.802 88.608C136.802 87.504 137.014 86.504 137.438 85.608C137.87 84.712 138.502 84 139.334 83.472C140.166 82.936 141.19 82.668 142.406 82.668C143.366 82.668 144.158 82.828 144.782 83.148C145.406 83.468 145.902 83.876 146.27 84.372C146.638 84.868 146.91 85.396 147.086 85.956C147.262 86.516 147.374 87.048 147.422 87.552C147.478 88.048 147.506 88.452 147.506 88.764V96H144.578ZM135.59 96V83.04H138.17V87.06H138.518V96H135.59ZM156.085 102.12C155.365 102.12 154.673 102.008 154.009 101.784C153.353 101.56 152.761 101.236 152.233 100.812C151.705 100.396 151.273 99.892 150.937 99.3L153.601 97.98C153.849 98.452 154.197 98.8 154.645 99.024C155.101 99.256 155.585 99.372 156.097 99.372C156.697 99.372 157.233 99.264 157.705 99.048C158.177 98.84 158.541 98.528 158.797 98.112C159.061 97.704 159.185 97.192 159.169 96.576V92.892H159.529V83.04H162.061V96.624C162.061 96.952 162.045 97.264 162.013 97.56C161.989 97.864 161.945 98.16 161.881 98.448C161.689 99.288 161.321 99.976 160.777 100.512C160.233 101.056 159.557 101.46 158.749 101.724C157.949 101.988 157.061 102.12 156.085 102.12ZM155.833 96.36C154.641 96.36 153.601 96.06 152.713 95.46C151.825 94.86 151.137 94.044 150.649 93.012C150.161 91.98 149.917 90.816 149.917 89.52C149.917 88.208 150.161 87.04 150.649 86.016C151.145 84.984 151.845 84.172 152.749 83.58C153.653 82.98 154.717 82.68 155.941 82.68C157.173 82.68 158.205 82.98 159.037 83.58C159.877 84.172 160.513 84.984 160.945 86.016C161.377 87.048 161.593 88.216 161.593 89.52C161.593 90.808 161.377 91.972 160.945 93.012C160.513 94.044 159.869 94.86 159.013 95.46C158.157 96.06 157.097 96.36 155.833 96.36ZM156.277 93.768C157.053 93.768 157.677 93.592 158.149 93.24C158.629 92.88 158.977 92.38 159.193 91.74C159.417 91.1 159.529 90.36 159.529 89.52C159.529 88.672 159.417 87.932 159.193 87.3C158.977 86.66 158.637 86.164 158.173 85.812C157.709 85.452 157.109 85.272 156.373 85.272C155.597 85.272 154.957 85.464 154.453 85.848C153.949 86.224 153.577 86.736 153.337 87.384C153.097 88.024 152.977 88.736 152.977 89.52C152.977 90.312 153.093 91.032 153.325 91.68C153.565 92.32 153.929 92.828 154.417 93.204C154.905 93.58 155.525 93.768 156.277 93.768ZM170.231 96V78.72H177.083C178.251 78.72 179.207 78.956 179.951 79.428C180.703 79.892 181.259 80.488 181.619 81.216C181.987 81.944 182.171 82.696 182.171 83.472C182.171 84.424 181.943 85.232 181.487 85.896C181.039 86.56 180.427 87.008 179.651 87.24V86.64C180.739 86.888 181.563 87.404 182.123 88.188C182.691 88.972 182.975 89.864 182.975 90.864C182.975 91.888 182.779 92.784 182.387 93.552C181.995 94.32 181.411 94.92 180.635 95.352C179.867 95.784 178.915 96 177.779 96H170.231ZM173.159 93.276H177.419C177.923 93.276 178.375 93.176 178.775 92.976C179.175 92.768 179.487 92.48 179.711 92.112C179.943 91.736 180.059 91.292 180.059 90.78C180.059 90.316 179.959 89.9 179.759 89.532C179.559 89.164 179.267 88.872 178.883 88.656C178.499 88.432 178.039 88.32 177.503 88.32H173.159V93.276ZM173.159 85.62H177.047C177.463 85.62 177.835 85.54 178.163 85.38C178.491 85.22 178.751 84.984 178.943 84.672C179.135 84.36 179.231 83.976 179.231 83.52C179.231 82.92 179.039 82.42 178.655 82.02C178.271 81.62 177.735 81.42 177.047 81.42H173.159V85.62ZM191.095 96.36C189.799 96.36 188.667 96.068 187.699 95.484C186.731 94.9 185.979 94.096 185.443 93.072C184.915 92.04 184.651 90.856 184.651 89.52C184.651 88.16 184.923 86.968 185.467 85.944C186.011 84.92 186.767 84.12 187.735 83.544C188.703 82.968 189.823 82.68 191.095 82.68C192.399 82.68 193.535 82.972 194.503 83.556C195.471 84.14 196.223 84.948 196.759 85.98C197.295 87.004 197.563 88.184 197.563 89.52C197.563 90.864 197.291 92.052 196.747 93.084C196.211 94.108 195.459 94.912 194.491 95.496C193.523 96.072 192.391 96.36 191.095 96.36ZM191.095 93.648C192.247 93.648 193.103 93.264 193.663 92.496C194.223 91.728 194.503 90.736 194.503 89.52C194.503 88.264 194.219 87.264 193.651 86.52C193.083 85.768 192.231 85.392 191.095 85.392C190.319 85.392 189.679 85.568 189.175 85.92C188.679 86.264 188.311 86.748 188.071 87.372C187.831 87.988 187.711 88.704 187.711 89.52C187.711 90.776 187.995 91.78 188.563 92.532C189.139 93.276 189.983 93.648 191.095 93.648ZM205.931 96.36C204.635 96.36 203.503 96.068 202.535 95.484C201.567 94.9 200.815 94.096 200.279 93.072C199.751 92.04 199.487 90.856 199.487 89.52C199.487 88.16 199.759 86.968 200.303 85.944C200.847 84.92 201.603 84.12 202.571 83.544C203.539 82.968 204.659 82.68 205.931 82.68C207.235 82.68 208.371 82.972 209.339 83.556C210.307 84.14 211.059 84.948 211.595 85.98C212.131 87.004 212.399 88.184 212.399 89.52C212.399 90.864 212.127 92.052 211.583 93.084C211.047 94.108 210.295 94.912 209.327 95.496C208.359 96.072 207.227 96.36 205.931 96.36ZM205.931 93.648C207.083 93.648 207.939 93.264 208.499 92.496C209.059 91.728 209.339 90.736 209.339 89.52C209.339 88.264 209.055 87.264 208.487 86.52C207.919 85.768 207.067 85.392 205.931 85.392C205.155 85.392 204.515 85.568 204.011 85.92C203.515 86.264 203.147 86.748 202.907 87.372C202.667 87.988 202.547 88.704 202.547 89.52C202.547 90.776 202.831 91.78 203.399 92.532C203.975 93.276 204.819 93.648 205.931 93.648ZM219.743 96.36C218.143 96.36 216.843 96 215.843 95.28C214.843 94.56 214.235 93.548 214.019 92.244L216.971 91.788C217.123 92.428 217.459 92.932 217.979 93.3C218.499 93.668 219.155 93.852 219.947 93.852C220.643 93.852 221.179 93.716 221.555 93.444C221.939 93.164 222.131 92.784 222.131 92.304C222.131 92.008 222.059 91.772 221.915 91.596C221.779 91.412 221.475 91.236 221.003 91.068C220.531 90.9 219.807 90.688 218.831 90.432C217.743 90.144 216.879 89.836 216.239 89.508C215.599 89.172 215.139 88.776 214.859 88.32C214.579 87.864 214.439 87.312 214.439 86.664C214.439 85.856 214.651 85.152 215.075 84.552C215.499 83.952 216.091 83.492 216.851 83.172C217.611 82.844 218.507 82.68 219.539 82.68C220.547 82.68 221.439 82.836 222.215 83.148C222.999 83.46 223.631 83.904 224.111 84.48C224.591 85.056 224.887 85.732 224.999 86.508L222.047 87.036C221.975 86.484 221.723 86.048 221.291 85.728C220.867 85.408 220.299 85.228 219.587 85.188C218.907 85.148 218.359 85.252 217.943 85.5C217.527 85.74 217.319 86.08 217.319 86.52C217.319 86.768 217.403 86.98 217.571 87.156C217.739 87.332 218.075 87.508 218.579 87.684C219.091 87.86 219.851 88.076 220.859 88.332C221.891 88.596 222.715 88.9 223.331 89.244C223.955 89.58 224.403 89.984 224.675 90.456C224.955 90.928 225.095 91.5 225.095 92.172C225.095 93.476 224.619 94.5 223.667 95.244C222.723 95.988 221.415 96.36 219.743 96.36ZM235.319 96C234.463 96.16 233.623 96.228 232.799 96.204C231.983 96.188 231.251 96.04 230.603 95.76C229.955 95.472 229.463 95.02 229.127 94.404C228.831 93.844 228.675 93.272 228.659 92.688C228.643 92.104 228.635 91.444 228.635 90.708V79.44H231.515V90.54C231.515 91.06 231.519 91.516 231.527 91.908C231.543 92.3 231.627 92.62 231.779 92.868C232.067 93.348 232.527 93.616 233.159 93.672C233.791 93.728 234.511 93.696 235.319 93.576V96ZM226.283 85.308V83.04H235.319V85.308H226.283ZM244.038 96V82.836C244.038 82.508 244.05 82.148 244.074 81.756C244.098 81.356 244.166 80.96 244.278 80.568C244.39 80.176 244.594 79.82 244.89 79.5C245.258 79.092 245.654 78.812 246.078 78.66C246.51 78.5 246.934 78.412 247.35 78.396C247.766 78.372 248.13 78.36 248.442 78.36H250.062V80.712H248.562C248.01 80.712 247.598 80.852 247.326 81.132C247.062 81.404 246.93 81.764 246.93 82.212V96H244.038ZM241.95 85.308V83.04H250.062V85.308H241.95ZM251.981 96V83.04H254.537V86.196L254.225 85.788C254.385 85.356 254.597 84.964 254.861 84.612C255.133 84.252 255.457 83.956 255.833 83.724C256.153 83.508 256.505 83.34 256.889 83.22C257.281 83.092 257.681 83.016 258.089 82.992C258.497 82.96 258.893 82.976 259.277 83.04V85.74C258.893 85.628 258.449 85.592 257.945 85.632C257.449 85.672 257.001 85.812 256.601 86.052C256.201 86.268 255.873 86.544 255.617 86.88C255.369 87.216 255.185 87.6 255.065 88.032C254.945 88.456 254.885 88.916 254.885 89.412V96H251.981ZM267.056 96.36C265.76 96.36 264.628 96.068 263.66 95.484C262.692 94.9 261.94 94.096 261.404 93.072C260.876 92.04 260.612 90.856 260.612 89.52C260.612 88.16 260.884 86.968 261.428 85.944C261.972 84.92 262.728 84.12 263.696 83.544C264.664 82.968 265.784 82.68 267.056 82.68C268.36 82.68 269.496 82.972 270.464 83.556C271.432 84.14 272.184 84.948 272.72 85.98C273.256 87.004 273.524 88.184 273.524 89.52C273.524 90.864 273.252 92.052 272.708 93.084C272.172 94.108 271.42 94.912 270.452 95.496C269.484 96.072 268.352 96.36 267.056 96.36ZM267.056 93.648C268.208 93.648 269.064 93.264 269.624 92.496C270.184 91.728 270.464 90.736 270.464 89.52C270.464 88.264 270.18 87.264 269.612 86.52C269.044 85.768 268.192 85.392 267.056 85.392C266.28 85.392 265.64 85.568 265.136 85.92C264.64 86.264 264.272 86.748 264.032 87.372C263.792 87.988 263.672 88.704 263.672 89.52C263.672 90.776 263.956 91.78 264.524 92.532C265.1 93.276 265.944 93.648 267.056 93.648ZM291.732 96V88.128C291.732 87.24 291.512 86.548 291.072 86.052C290.632 85.548 290.036 85.296 289.284 85.296C288.82 85.296 288.404 85.404 288.036 85.62C287.668 85.828 287.376 86.14 287.16 86.556C286.944 86.964 286.836 87.452 286.836 88.02L285.552 87.264C285.544 86.368 285.744 85.58 286.152 84.9C286.568 84.212 287.128 83.676 287.832 83.292C288.536 82.908 289.32 82.716 290.184 82.716C291.616 82.716 292.712 83.148 293.472 84.012C294.24 84.868 294.624 85.996 294.624 87.396V96H291.732ZM276.144 96V83.04H278.7V87.06H279.06V96H276.144ZM283.956 96V88.164C283.956 87.26 283.736 86.556 283.296 86.052C282.856 85.548 282.256 85.296 281.496 85.296C280.76 85.296 280.168 85.548 279.72 86.052C279.28 86.556 279.06 87.212 279.06 88.02L277.764 87.156C277.764 86.316 277.972 85.56 278.388 84.888C278.804 84.216 279.364 83.688 280.068 83.304C280.78 82.912 281.576 82.716 282.456 82.716C283.424 82.716 284.232 82.924 284.88 83.34C285.536 83.748 286.024 84.308 286.344 85.02C286.672 85.724 286.836 86.52 286.836 87.408V96H283.956ZM302.559 96V78.72H312.963V81.612H305.451V85.92H311.523V88.8H305.451V96H302.559ZM315.121 96V83.04H317.677V86.196L317.365 85.788C317.525 85.356 317.737 84.964 318.001 84.612C318.273 84.252 318.597 83.956 318.973 83.724C319.293 83.508 319.645 83.34 320.029 83.22C320.421 83.092 320.821 83.016 321.229 82.992C321.637 82.96 322.033 82.976 322.417 83.04V85.74C322.033 85.628 321.589 85.592 321.085 85.632C320.589 85.672 320.141 85.812 319.741 86.052C319.341 86.268 319.013 86.544 318.757 86.88C318.509 87.216 318.325 87.6 318.205 88.032C318.085 88.456 318.025 88.916 318.025 89.412V96H315.121ZM330.365 96.36C329.053 96.36 327.901 96.076 326.909 95.508C325.917 94.94 325.141 94.152 324.581 93.144C324.029 92.136 323.753 90.976 323.753 89.664C323.753 88.248 324.025 87.02 324.569 85.98C325.113 84.932 325.869 84.12 326.837 83.544C327.805 82.968 328.925 82.68 330.197 82.68C331.541 82.68 332.681 82.996 333.617 83.628C334.561 84.252 335.261 85.136 335.717 86.28C336.173 87.424 336.345 88.772 336.233 90.324H333.365V89.268C333.357 87.86 333.109 86.832 332.621 86.184C332.133 85.536 331.365 85.212 330.317 85.212C329.133 85.212 328.253 85.58 327.677 86.316C327.101 87.044 326.813 88.112 326.813 89.52C326.813 90.832 327.101 91.848 327.677 92.568C328.253 93.288 329.093 93.648 330.197 93.648C330.909 93.648 331.521 93.492 332.033 93.18C332.553 92.86 332.953 92.4 333.233 91.8L336.089 92.664C335.593 93.832 334.825 94.74 333.785 95.388C332.753 96.036 331.613 96.36 330.365 96.36ZM325.901 90.324V88.14H334.817V90.324H325.901ZM347.523 96V89.76C347.523 89.352 347.495 88.9 347.439 88.404C347.383 87.908 347.251 87.432 347.043 86.976C346.843 86.512 346.539 86.132 346.131 85.836C345.731 85.54 345.187 85.392 344.499 85.392C344.131 85.392 343.767 85.452 343.407 85.572C343.047 85.692 342.719 85.9 342.423 86.196C342.135 86.484 341.903 86.884 341.727 87.396C341.551 87.9 341.463 88.548 341.463 89.34L339.747 88.608C339.747 87.504 339.959 86.504 340.383 85.608C340.815 84.712 341.447 84 342.279 83.472C343.111 82.936 344.135 82.668 345.351 82.668C346.311 82.668 347.103 82.828 347.727 83.148C348.351 83.468 348.847 83.876 349.215 84.372C349.583 84.868 349.855 85.396 350.031 85.956C350.207 86.516 350.319 87.048 350.367 87.552C350.423 88.048 350.451 88.452 350.451 88.764V96H347.523ZM338.535 96V83.04H341.115V87.06H341.463V96H338.535ZM358.586 96.36C356.986 96.36 355.686 96 354.686 95.28C353.686 94.56 353.078 93.548 352.862 92.244L355.814 91.788C355.966 92.428 356.302 92.932 356.822 93.3C357.342 93.668 357.998 93.852 358.79 93.852C359.486 93.852 360.022 93.716 360.398 93.444C360.782 93.164 360.974 92.784 360.974 92.304C360.974 92.008 360.902 91.772 360.758 91.596C360.622 91.412 360.318 91.236 359.846 91.068C359.374 90.9 358.65 90.688 357.674 90.432C356.586 90.144 355.722 89.836 355.082 89.508C354.442 89.172 353.982 88.776 353.702 88.32C353.422 87.864 353.282 87.312 353.282 86.664C353.282 85.856 353.494 85.152 353.918 84.552C354.342 83.952 354.934 83.492 355.694 83.172C356.454 82.844 357.35 82.68 358.382 82.68C359.39 82.68 360.282 82.836 361.058 83.148C361.842 83.46 362.474 83.904 362.954 84.48C363.434 85.056 363.73 85.732 363.842 86.508L360.89 87.036C360.818 86.484 360.566 86.048 360.134 85.728C359.71 85.408 359.142 85.228 358.43 85.188C357.75 85.148 357.202 85.252 356.786 85.5C356.37 85.74 356.162 86.08 356.162 86.52C356.162 86.768 356.246 86.98 356.414 87.156C356.582 87.332 356.918 87.508 357.422 87.684C357.934 87.86 358.694 88.076 359.702 88.332C360.734 88.596 361.558 88.9 362.174 89.244C362.798 89.58 363.246 89.984 363.518 90.456C363.798 90.928 363.938 91.5 363.938 92.172C363.938 93.476 363.462 94.5 362.51 95.244C361.566 95.988 360.258 96.36 358.586 96.36Z" fill="white"/>
<path d="M422.259 92.796V88.356H417.819V86.34H422.259V81.924H424.275V86.34H428.703V88.356H424.275V92.796H422.259ZM437.349 96.36C436.221 96.36 435.221 96.136 434.349 95.688C433.485 95.232 432.805 94.6 432.309 93.792C431.821 92.984 431.577 92.048 431.577 90.984C431.577 89.992 431.809 89.084 432.273 88.26C432.737 87.436 433.429 86.788 434.349 86.316L434.301 87.18C433.565 86.724 432.997 86.156 432.597 85.476C432.205 84.788 432.009 84.02 432.009 83.172C432.009 82.188 432.237 81.336 432.693 80.616C433.149 79.896 433.777 79.34 434.577 78.948C435.385 78.556 436.309 78.36 437.349 78.36C438.389 78.36 439.309 78.556 440.109 78.948C440.909 79.34 441.537 79.896 441.993 80.616C442.449 81.336 442.677 82.188 442.677 83.172C442.677 84.02 442.489 84.784 442.113 85.464C441.737 86.144 441.161 86.716 440.385 87.18L440.349 86.34C441.261 86.788 441.953 87.428 442.425 88.26C442.897 89.084 443.133 89.992 443.133 90.984C443.133 92.048 442.885 92.984 442.389 93.792C441.893 94.6 441.209 95.232 440.337 95.688C439.465 96.136 438.469 96.36 437.349 96.36ZM437.349 93.972C438.277 93.972 439.029 93.72 439.605 93.216C440.181 92.704 440.469 91.96 440.469 90.984C440.469 90.008 440.181 89.264 439.605 88.752C439.037 88.232 438.285 87.972 437.349 87.972C436.413 87.972 435.657 88.232 435.081 88.752C434.513 89.264 434.229 90.008 434.229 90.984C434.229 91.96 434.517 92.704 435.093 93.216C435.669 93.72 436.421 93.972 437.349 93.972ZM437.349 85.572C438.141 85.572 438.781 85.376 439.269 84.984C439.765 84.584 440.013 83.98 440.013 83.172C440.013 82.364 439.765 81.76 439.269 81.36C438.781 80.952 438.141 80.748 437.349 80.748C436.557 80.748 435.913 80.952 435.417 81.36C434.921 81.76 434.673 82.364 434.673 83.172C434.673 83.98 434.921 84.584 435.417 84.984C435.913 85.376 436.557 85.572 437.349 85.572ZM451.786 96.36C450.658 96.36 449.658 96.136 448.786 95.688C447.922 95.232 447.242 94.6 446.746 93.792C446.258 92.984 446.014 92.048 446.014 90.984C446.014 89.992 446.246 89.084 446.71 88.26C447.174 87.436 447.866 86.788 448.786 86.316L448.738 87.18C448.002 86.724 447.434 86.156 447.034 85.476C446.642 84.788 446.446 84.02 446.446 83.172C446.446 82.188 446.674 81.336 447.13 80.616C447.586 79.896 448.214 79.34 449.014 78.948C449.822 78.556 450.746 78.36 451.786 78.36C452.826 78.36 453.746 78.556 454.546 78.948C455.346 79.34 455.974 79.896 456.43 80.616C456.886 81.336 457.114 82.188 457.114 83.172C457.114 84.02 456.926 84.784 456.55 85.464C456.174 86.144 455.598 86.716 454.822 87.18L454.786 86.34C455.698 86.788 456.39 87.428 456.862 88.26C457.334 89.084 457.57 89.992 457.57 90.984C457.57 92.048 457.322 92.984 456.826 93.792C456.33 94.6 455.646 95.232 454.774 95.688C453.902 96.136 452.906 96.36 451.786 96.36ZM451.786 93.972C452.714 93.972 453.466 93.72 454.042 93.216C454.618 92.704 454.906 91.96 454.906 90.984C454.906 90.008 454.618 89.264 454.042 88.752C453.474 88.232 452.722 87.972 451.786 87.972C450.85 87.972 450.094 88.232 449.518 88.752C448.95 89.264 448.666 90.008 448.666 90.984C448.666 91.96 448.954 92.704 449.53 93.216C450.106 93.72 450.858 93.972 451.786 93.972ZM451.786 85.572C452.578 85.572 453.218 85.376 453.706 84.984C454.202 84.584 454.45 83.98 454.45 83.172C454.45 82.364 454.202 81.76 453.706 81.36C453.218 80.952 452.578 80.748 451.786 80.748C450.994 80.748 450.35 80.952 449.854 81.36C449.358 81.76 449.11 82.364 449.11 83.172C449.11 83.98 449.358 84.584 449.854 84.984C450.35 85.376 450.994 85.572 451.786 85.572ZM462.852 96L461.172 94.32L476.784 78.72L478.464 80.412L462.852 96ZM474.864 96.36C474.072 96.36 473.348 96.168 472.692 95.784C472.044 95.392 471.524 94.872 471.132 94.224C470.74 93.568 470.544 92.84 470.544 92.04C470.544 91.256 470.744 90.536 471.144 89.88C471.544 89.224 472.072 88.7 472.728 88.308C473.384 87.916 474.096 87.72 474.864 87.72C475.656 87.72 476.38 87.916 477.036 88.308C477.692 88.692 478.212 89.212 478.596 89.868C478.988 90.516 479.184 91.24 479.184 92.04C479.184 92.84 478.988 93.568 478.596 94.224C478.212 94.872 477.692 95.392 477.036 95.784C476.38 96.168 475.656 96.36 474.864 96.36ZM474.864 94.188C475.256 94.188 475.612 94.092 475.932 93.9C476.26 93.7 476.52 93.436 476.712 93.108C476.912 92.78 477.012 92.424 477.012 92.04C477.012 91.656 476.912 91.3 476.712 90.972C476.52 90.644 476.26 90.384 475.932 90.192C475.612 89.992 475.256 89.892 474.864 89.892C474.48 89.892 474.124 89.992 473.796 90.192C473.476 90.384 473.216 90.644 473.016 90.972C472.824 91.3 472.728 91.656 472.728 92.04C472.728 92.424 472.824 92.78 473.016 93.108C473.216 93.436 473.476 93.7 473.796 93.9C474.124 94.092 474.48 94.188 474.864 94.188ZM464.772 87C463.98 87 463.256 86.808 462.6 86.424C461.944 86.032 461.42 85.512 461.028 84.864C460.644 84.208 460.452 83.48 460.452 82.68C460.452 81.896 460.652 81.176 461.052 80.52C461.452 79.864 461.98 79.34 462.636 78.948C463.292 78.556 464.004 78.36 464.772 78.36C465.564 78.36 466.284 78.556 466.932 78.948C467.588 79.332 468.112 79.852 468.504 80.508C468.896 81.156 469.092 81.88 469.092 82.68C469.092 83.48 468.896 84.208 468.504 84.864C468.112 85.512 467.588 86.032 466.932 86.424C466.284 86.808 465.564 87 464.772 87ZM464.772 84.828C465.156 84.828 465.512 84.732 465.84 84.54C466.168 84.34 466.428 84.076 466.62 83.748C466.82 83.42 466.92 83.064 466.92 82.68C466.92 82.296 466.82 81.94 466.62 81.612C466.428 81.284 466.168 81.024 465.84 80.832C465.512 80.632 465.156 80.532 464.772 80.532C464.388 80.532 464.032 80.632 463.704 80.832C463.384 81.024 463.124 81.284 462.924 81.612C462.724 81.94 462.624 82.296 462.624 82.68C462.624 83.064 462.724 83.42 462.924 83.748C463.124 84.076 463.384 84.34 463.704 84.54C464.024 84.732 464.38 84.828 464.772 84.828Z" fill="white"/>
</g>
<defs>
<filter id="filter0_bd_832_2182" x="0" y="0" width="551" height="174" filterUnits="userSpaceOnUse" color-interpolation-filters="sRGB">
<feFlood flood-opacity="0" result="BackgroundImageFix"/>
<feGaussianBlur in="BackgroundImageFix" stdDeviation="22"/>
<feComposite in2="SourceAlpha" operator="in" result="effect1_backgroundBlur_832_2182"/>
<feColorMatrix in="SourceAlpha" type="matrix" values="0 0 0 0 0 0 0 0 0 0 0 0 0 0 0 0 0 0 127 0" result="hardAlpha"/>
<feOffset/>
<feGaussianBlur stdDeviation="22"/>
<feComposite in2="hardAlpha" operator="out"/>
<feColorMatrix type="matrix" values="0 0 0 0 1 0 0 0 0 0.24 0 0 0 0 0 0 0 0 1 0"/>
<feBlend mode="normal" in2="effect1_backgroundBlur_832_2182" result="effect2_dropShadow_832_2182"/>
<feBlend mode="normal" in="SourceGraphic" in2="effect2_dropShadow_832_2182" result="shape"/>
</filter>
<linearGradient id="paint0_linear_832_2182" x1="507" y1="87" x2="44" y2="87" gradientUnits="userSpaceOnUse">
<stop stop-color="#FF8A00"/>
<stop offset="1" stop-color="#FF5C00"/>
</linearGradient>
</defs>
</svg>
