<svg width="483" height="163" viewBox="0 0 483 163" fill="none" xmlns="http://www.w3.org/2000/svg">
<path d="M305.772 160.451H271.012L304.669 2.20703H353.224L374.08 89.7158H374.521L433.891 2.20703H482.335L448.678 160.451H412.924L422.414 117.083C427.343 94.6449 432.677 72.1699 438.415 49.6582L437.532 49.4375L369.776 152.285H353.224L329.498 49.4375H328.836C326.702 61.8704 322.178 84.4189 315.263 117.083L305.772 160.451Z" fill="url(#paint0_linear_832_3952)"/>
<path d="M192.185 162.658C173.572 162.658 158.895 156.92 148.154 145.443C137.413 133.893 132.043 118.039 132.043 97.8818C132.043 80.0049 135.574 63.6361 142.637 48.7754C149.699 33.8411 159.668 21.9967 172.542 13.2422C185.416 4.41406 199.872 0 215.91 0C234.523 0 249.163 5.81185 259.83 17.4355C270.497 28.9857 275.831 44.9499 275.831 65.3281C275.831 83.4258 272.337 99.8682 265.348 114.655C258.359 129.369 248.464 141.066 235.663 149.747C222.862 158.354 208.369 162.658 192.185 162.658ZM195.164 128.78C203.477 128.78 210.944 125.948 217.565 120.283C224.187 114.545 229.299 106.931 232.904 97.4404C236.509 87.8766 238.312 77.3932 238.312 65.9902C238.312 54.9551 236.252 46.8626 232.132 41.7129C228.012 36.4896 221.685 33.8779 213.151 33.8779C204.397 33.8779 196.635 36.931 189.867 43.0371C183.099 49.0697 178.023 56.7943 174.639 66.2109C171.255 75.6276 169.562 85.7799 169.562 96.668C169.562 107.188 171.806 115.17 176.294 120.614C180.782 126.058 187.072 128.78 195.164 128.78Z" fill="url(#paint1_linear_832_3952)"/>
<path d="M134.658 2.20703L127.926 36.6367L50.9011 35.9746L43.1765 64.8867C51.6367 59.2956 61.7155 56.5 73.4128 56.5C88.4942 56.5 100.302 60.3623 108.836 68.0869C117.369 75.8115 121.636 87.1042 121.636 101.965C121.636 110.646 120.165 118.665 117.222 126.021C114.28 133.378 110.05 139.742 104.532 145.112C99.0879 150.483 92.1726 154.676 83.7858 157.692C75.3991 160.709 66.0192 162.217 55.6462 162.217C37.475 162.217 23.5339 157.729 13.8229 148.754C4.18557 139.705 -0.412409 127.088 0.0289975 110.903L32.5827 109.579C32.2884 116.568 34.3116 122.122 38.652 126.242C43.0661 130.362 49.0251 132.422 56.529 132.422C65.21 132.422 72.1621 129.921 77.3854 124.918C82.6087 119.915 85.2204 113.441 85.2204 105.496C85.2204 98.875 83.1237 93.762 78.9304 90.1572C74.737 86.5524 68.9252 84.75 61.4948 84.75C56.3451 84.75 51.6 85.8903 47.2595 88.1709C42.9925 90.3779 39.4613 93.3942 36.6657 97.2197L5.65693 91.9229L28.9411 2.20703H134.658Z" fill="url(#paint2_linear_832_3952)"/>
<defs>
<linearGradient id="paint0_linear_832_3952" x1="234.781" y1="-7.54883" x2="234.781" y2="178.451" gradientUnits="userSpaceOnUse">
<stop stop-color="#4B2E87"/>
<stop offset="1" stop-color="#8451ED"/>
</linearGradient>
<linearGradient id="paint1_linear_832_3952" x1="234.78" y1="-7.54883" x2="234.78" y2="178.451" gradientUnits="userSpaceOnUse">
<stop stop-color="#4B2E87"/>
<stop offset="1" stop-color="#8451ED"/>
</linearGradient>
<linearGradient id="paint2_linear_832_3952" x1="234.782" y1="-7.54883" x2="234.782" y2="178.451" gradientUnits="userSpaceOnUse">
<stop stop-color="#4B2E87"/>
<stop offset="1" stop-color="#8451ED"/>
</linearGradient>
</defs>
</svg>
