<svg width="262" height="58" viewBox="0 0 262 58" fill="none" xmlns="http://www.w3.org/2000/svg">
<g filter="url(#filter0_d_832_2864)">
<path d="M14.8 43V14.2H26.12C27.9467 14.2 29.48 14.5733 30.72 15.32C31.96 16.0667 32.8933 17.0333 33.52 18.22C34.1467 19.3933 34.46 20.6333 34.46 21.94C34.46 23.5267 34.0667 24.8867 33.28 26.02C32.5067 27.1533 31.46 27.9267 30.14 28.34L30.1 27.36C31.94 27.8133 33.3533 28.7 34.34 30.02C35.3267 31.3267 35.82 32.8533 35.82 34.6C35.82 36.2933 35.48 37.7667 34.8 39.02C34.1333 40.2733 33.1533 41.2533 31.86 41.96C30.58 42.6533 29.0267 43 27.2 43H14.8ZM19.04 39.02H26.56C27.5067 39.02 28.3533 38.84 29.1 38.48C29.86 38.12 30.4533 37.6067 30.88 36.94C31.32 36.26 31.54 35.4533 31.54 34.52C31.54 33.6533 31.3467 32.8733 30.96 32.18C30.5867 31.4733 30.04 30.92 29.32 30.52C28.6133 30.1067 27.78 29.9 26.82 29.9H19.04V39.02ZM19.04 25.96H26.06C26.8333 25.96 27.5267 25.8067 28.14 25.5C28.7667 25.18 29.26 24.7267 29.62 24.14C29.9933 23.54 30.18 22.82 30.18 21.98C30.18 20.86 29.8067 19.94 29.06 19.22C28.3133 18.5 27.3133 18.14 26.06 18.14H19.04V25.96ZM39.8 43V21.4H43.52V26.64L43 25.96C43.2667 25.2667 43.6133 24.6333 44.04 24.06C44.4667 23.4733 44.96 22.9933 45.52 22.62C46.0667 22.22 46.6733 21.9133 47.34 21.7C48.02 21.4733 48.7133 21.34 49.42 21.3C50.1267 21.2467 50.8067 21.28 51.46 21.4V25.32C50.7533 25.1333 49.9667 25.08 49.1 25.16C48.2467 25.24 47.46 25.5133 46.74 25.98C46.06 26.42 45.52 26.9533 45.12 27.58C44.7333 28.2067 44.4533 28.9067 44.28 29.68C44.1067 30.44 44.02 31.2467 44.02 32.1V43H39.8ZM64.2581 43.6C62.0981 43.6 60.2248 43.1133 58.6381 42.14C57.0515 41.1667 55.8248 39.8267 54.9581 38.12C54.1048 36.4 53.6781 34.42 53.6781 32.18C53.6781 29.9267 54.1181 27.9467 54.9981 26.24C55.8781 24.52 57.1115 23.1867 58.6981 22.24C60.2848 21.28 62.1381 20.8 64.2581 20.8C66.4181 20.8 68.2915 21.2867 69.8781 22.26C71.4648 23.2333 72.6915 24.5733 73.5581 26.28C74.4248 27.9867 74.8581 29.9533 74.8581 32.18C74.8581 34.4333 74.4181 36.42 73.5381 38.14C72.6715 39.8467 71.4448 41.1867 69.8581 42.16C68.2715 43.12 66.4048 43.6 64.2581 43.6ZM64.2581 39.66C66.3248 39.66 67.8648 38.9667 68.8781 37.58C69.9048 36.18 70.4181 34.38 70.4181 32.18C70.4181 29.9267 69.8981 28.1267 68.8581 26.78C67.8315 25.42 66.2981 24.74 64.2581 24.74C62.8581 24.74 61.7048 25.06 60.7981 25.7C59.8915 26.3267 59.2181 27.2 58.7781 28.32C58.3381 29.4267 58.1181 30.7133 58.1181 32.18C58.1181 34.4467 58.6381 36.26 59.6781 37.62C60.7181 38.98 62.2448 39.66 64.2581 39.66ZM94.4131 43V32.38C94.4131 31.54 94.3398 30.68 94.1931 29.8C94.0598 28.9067 93.7931 28.08 93.3931 27.32C93.0065 26.56 92.4531 25.9467 91.7331 25.48C91.0265 25.0133 90.0998 24.78 88.9531 24.78C88.2065 24.78 87.4998 24.9067 86.8331 25.16C86.1665 25.4 85.5798 25.7933 85.0731 26.34C84.5798 26.8867 84.1865 27.6067 83.8931 28.5C83.6131 29.3933 83.4731 30.48 83.4731 31.76L80.8731 30.78C80.8731 28.82 81.2398 27.0933 81.9731 25.6C82.7065 24.0933 83.7598 22.92 85.1331 22.08C86.5065 21.24 88.1665 20.82 90.1131 20.82C91.6065 20.82 92.8598 21.06 93.8731 21.54C94.8865 22.02 95.7065 22.6533 96.3331 23.44C96.9731 24.2133 97.4598 25.06 97.7931 25.98C98.1265 26.9 98.3531 27.8 98.4731 28.68C98.5931 29.56 98.6531 30.3333 98.6531 31V43H94.4131ZM79.2331 43V21.4H82.9731V27.64H83.4731V43H79.2331ZM101.863 43V42.34L114.123 25.14H102.983V21.4H120.763V22.08L108.523 39.26H120.163V43H101.863ZM133.13 43.6C130.983 43.6 129.097 43.1333 127.47 42.2C125.857 41.2533 124.597 39.94 123.69 38.26C122.797 36.5667 122.35 34.6067 122.35 32.38C122.35 30.02 122.79 27.9733 123.67 26.24C124.563 24.5067 125.803 23.1667 127.39 22.22C128.977 21.2733 130.823 20.8 132.93 20.8C135.13 20.8 137.003 21.3133 138.55 22.34C140.097 23.3533 141.25 24.8 142.01 26.68C142.783 28.56 143.09 30.7933 142.93 33.38H138.75V31.86C138.723 29.3533 138.243 27.5 137.31 26.3C136.39 25.1 134.983 24.5 133.09 24.5C130.997 24.5 129.423 25.16 128.37 26.48C127.317 27.8 126.79 29.7067 126.79 32.2C126.79 34.5733 127.317 36.4133 128.37 37.72C129.423 39.0133 130.943 39.66 132.93 39.66C134.237 39.66 135.363 39.3667 136.31 38.78C137.27 38.18 138.017 37.3267 138.55 36.22L142.65 37.52C141.81 39.4533 140.537 40.9533 138.83 42.02C137.123 43.0733 135.223 43.6 133.13 43.6ZM125.43 33.38V30.12H140.85V33.38H125.43ZM155.425 43V14.2H167.065C167.345 14.2 167.692 14.2133 168.105 14.24C168.518 14.2533 168.912 14.2933 169.285 14.36C170.885 14.6133 172.218 15.16 173.285 16C174.365 16.84 175.172 17.9 175.705 19.18C176.238 20.46 176.505 21.8733 176.505 23.42C176.505 25.7133 175.918 27.6933 174.745 29.36C173.572 31.0133 171.812 32.0467 169.465 32.46L167.765 32.66H159.605V43H155.425ZM172.265 43L166.585 31.28L170.805 30.2L177.045 43H172.265ZM159.605 28.7H166.905C167.172 28.7 167.465 28.6867 167.785 28.66C168.118 28.6333 168.432 28.5867 168.725 28.52C169.578 28.32 170.265 27.9533 170.785 27.42C171.305 26.8733 171.678 26.2467 171.905 25.54C172.132 24.8333 172.245 24.1267 172.245 23.42C172.245 22.7133 172.132 22.0133 171.905 21.32C171.678 20.6133 171.305 19.9933 170.785 19.46C170.265 18.9133 169.578 18.54 168.725 18.34C168.432 18.26 168.118 18.2067 167.785 18.18C167.465 18.1533 167.172 18.14 166.905 18.14H159.605V28.7ZM187.541 43.6C185.941 43.6 184.601 43.3067 183.521 42.72C182.441 42.12 181.621 41.3333 181.061 40.36C180.514 39.3733 180.241 38.2933 180.241 37.12C180.241 36.0267 180.434 35.0667 180.821 34.24C181.207 33.4133 181.781 32.7133 182.541 32.14C183.301 31.5533 184.234 31.08 185.341 30.72C186.301 30.44 187.387 30.1933 188.601 29.98C189.814 29.7667 191.087 29.5667 192.421 29.38C193.767 29.1933 195.101 29.0067 196.421 28.82L194.901 29.66C194.927 27.9667 194.567 26.7133 193.821 25.9C193.087 25.0733 191.821 24.66 190.021 24.66C188.887 24.66 187.847 24.9267 186.901 25.46C185.954 25.98 185.294 26.8467 184.921 28.06L181.021 26.86C181.554 25.0067 182.567 23.5333 184.061 22.44C185.567 21.3467 187.567 20.8 190.061 20.8C191.994 20.8 193.674 21.1333 195.101 21.8C196.541 22.4533 197.594 23.4933 198.261 24.92C198.607 25.6267 198.821 26.3733 198.901 27.16C198.981 27.9467 199.021 28.7933 199.021 29.7V43H195.321V38.06L196.041 38.7C195.147 40.3533 194.007 41.5867 192.621 42.4C191.247 43.2 189.554 43.6 187.541 43.6ZM188.281 40.18C189.467 40.18 190.487 39.9733 191.341 39.56C192.194 39.1333 192.881 38.5933 193.401 37.94C193.921 37.2867 194.261 36.6067 194.421 35.9C194.647 35.26 194.774 34.54 194.801 33.74C194.841 32.94 194.861 32.3 194.861 31.82L196.221 32.32C194.901 32.52 193.701 32.7 192.621 32.86C191.541 33.02 190.561 33.18 189.681 33.34C188.814 33.4867 188.041 33.6667 187.361 33.88C186.787 34.08 186.274 34.32 185.821 34.6C185.381 34.88 185.027 35.22 184.761 35.62C184.507 36.02 184.381 36.5067 184.381 37.08C184.381 37.64 184.521 38.16 184.801 38.64C185.081 39.1067 185.507 39.48 186.081 39.76C186.654 40.04 187.387 40.18 188.281 40.18ZM219.374 43V32.38C219.374 31.54 219.301 30.68 219.154 29.8C219.021 28.9067 218.754 28.08 218.354 27.32C217.967 26.56 217.414 25.9467 216.694 25.48C215.987 25.0133 215.061 24.78 213.914 24.78C213.167 24.78 212.461 24.9067 211.794 25.16C211.127 25.4 210.541 25.7933 210.034 26.34C209.541 26.8867 209.147 27.6067 208.854 28.5C208.574 29.3933 208.434 30.48 208.434 31.76L205.834 30.78C205.834 28.82 206.201 27.0933 206.934 25.6C207.667 24.0933 208.721 22.92 210.094 22.08C211.467 21.24 213.127 20.82 215.074 20.82C216.567 20.82 217.821 21.06 218.834 21.54C219.847 22.02 220.667 22.6533 221.294 23.44C221.934 24.2133 222.421 25.06 222.754 25.98C223.087 26.9 223.314 27.8 223.434 28.68C223.554 29.56 223.614 30.3333 223.614 31V43H219.374ZM204.194 43V21.4H207.934V27.64H208.434V43H204.194ZM228.803 43L228.823 14.2H233.063V31.8L241.543 21.4H246.863L237.903 32.2L247.783 43H242.103L233.063 32.6V43H228.803Z" fill="white"/>
</g>
<defs>
<filter id="filter0_d_832_2864" x="0.800781" y="0.200195" width="260.984" height="57.3994" filterUnits="userSpaceOnUse" color-interpolation-filters="sRGB">
<feFlood flood-opacity="0" result="BackgroundImageFix"/>
<feColorMatrix in="SourceAlpha" type="matrix" values="0 0 0 0 0 0 0 0 0 0 0 0 0 0 0 0 0 0 127 0" result="hardAlpha"/>
<feOffset/>
<feGaussianBlur stdDeviation="7"/>
<feComposite in2="hardAlpha" operator="out"/>
<feColorMatrix type="matrix" values="0 0 0 0 1 0 0 0 0 1 0 0 0 0 1 0 0 0 0.45 0"/>
<feBlend mode="normal" in2="BackgroundImageFix" result="effect1_dropShadow_832_2864"/>
<feBlend mode="normal" in="SourceGraphic" in2="effect1_dropShadow_832_2864" result="shape"/>
</filter>
</defs>
</svg>
