<svg width="351" height="35" viewBox="0 0 351 35" fill="none" xmlns="http://www.w3.org/2000/svg">
<path d="M0.877422 26V0.079999H11.0654C12.7094 0.079999 14.0894 0.415999 15.2054 1.088C16.3214 1.76 17.1614 2.63 17.7254 3.698C18.2894 4.754 18.5714 5.87 18.5714 7.046C18.5714 8.474 18.2174 9.698 17.5094 10.718C16.8134 11.738 15.8714 12.434 14.6834 12.806L14.6474 11.924C16.3034 12.332 17.5754 13.13 18.4634 14.318C19.3514 15.494 19.7954 16.868 19.7954 18.44C19.7954 19.964 19.4894 21.29 18.8774 22.418C18.2774 23.546 17.3954 24.428 16.2314 25.064C15.0794 25.688 13.6814 26 12.0374 26H0.877422ZM4.69342 22.418H11.4614C12.3134 22.418 13.0754 22.256 13.7474 21.932C14.4314 21.608 14.9654 21.146 15.3494 20.546C15.7454 19.934 15.9434 19.208 15.9434 18.368C15.9434 17.588 15.7694 16.886 15.4214 16.262C15.0854 15.626 14.5934 15.128 13.9454 14.768C13.3094 14.396 12.5594 14.21 11.6954 14.21H4.69342V22.418ZM4.69342 10.664H11.0114C11.7074 10.664 12.3314 10.526 12.8834 10.25C13.4474 9.962 13.8914 9.554 14.2154 9.026C14.5514 8.486 14.7194 7.838 14.7194 7.082C14.7194 6.074 14.3834 5.246 13.7114 4.598C13.0394 3.95 12.1394 3.626 11.0114 3.626H4.69342V10.664ZM30.7034 26.522C29.3594 26.522 28.2314 26.306 27.3194 25.874C26.4074 25.442 25.6634 24.878 25.0874 24.182C24.5234 23.474 24.0914 22.706 23.7914 21.878C23.4914 21.05 23.2874 20.24 23.1794 19.448C23.0714 18.656 23.0174 17.96 23.0174 17.36V6.56H26.8334V16.118C26.8334 16.874 26.8934 17.654 27.0134 18.458C27.1454 19.25 27.3854 19.988 27.7334 20.672C28.0934 21.356 28.5914 21.908 29.2274 22.328C29.8754 22.748 30.7154 22.958 31.7474 22.958C32.4194 22.958 33.0554 22.85 33.6554 22.634C34.2554 22.406 34.7774 22.046 35.2214 21.554C35.6774 21.062 36.0314 20.414 36.2834 19.61C36.5474 18.806 36.6794 17.828 36.6794 16.676L39.0194 17.558C39.0194 19.322 38.6894 20.882 38.0294 22.238C37.3694 23.582 36.4214 24.632 35.1854 25.388C33.9494 26.144 32.4554 26.522 30.7034 26.522ZM37.1294 26V20.384H36.6794V6.56H40.4774V26H37.1294ZM48.1539 34.64L51.9159 24.398L51.9699 27.422L43.4919 6.56H47.4159L53.7519 22.67H52.5999L58.6479 6.56H62.4639L51.7359 34.64H48.1539ZM78.9527 26V3.626H70.3307V0.079999H91.3367V3.626H82.7147V26H78.9527ZM99.7765 26.54C97.8325 26.54 96.1465 26.102 94.7185 25.226C93.2905 24.35 92.1865 23.144 91.4065 21.608C90.6385 20.06 90.2545 18.278 90.2545 16.262C90.2545 14.234 90.6505 12.452 91.4425 10.916C92.2345 9.368 93.3445 8.168 94.7725 7.316C96.2005 6.452 97.8685 6.02 99.7765 6.02C101.72 6.02 103.406 6.458 104.834 7.334C106.262 8.21 107.366 9.416 108.146 10.952C108.926 12.488 109.316 14.258 109.316 16.262C109.316 18.29 108.92 20.078 108.128 21.626C107.348 23.162 106.244 24.368 104.816 25.244C103.388 26.108 101.708 26.54 99.7765 26.54ZM99.7765 22.994C101.636 22.994 103.022 22.37 103.934 21.122C104.858 19.862 105.32 18.242 105.32 16.262C105.32 14.234 104.852 12.614 103.916 11.402C102.992 10.178 101.612 9.566 99.7765 9.566C98.5165 9.566 97.4785 9.854 96.6625 10.43C95.8465 10.994 95.2405 11.78 94.8445 12.788C94.4485 13.784 94.2505 14.942 94.2505 16.262C94.2505 18.302 94.7185 19.934 95.6545 21.158C96.5905 22.382 97.9645 22.994 99.7765 22.994ZM113.254 26L113.272 0.079999H117.088V15.92L124.72 6.56H129.508L121.444 16.28L130.336 26H125.224L117.088 16.64V26H113.254ZM140.421 26.54C138.489 26.54 136.791 26.12 135.327 25.28C133.875 24.428 132.741 23.246 131.925 21.734C131.121 20.21 130.719 18.446 130.719 16.442C130.719 14.318 131.115 12.476 131.907 10.916C132.711 9.356 133.827 8.15 135.255 7.298C136.683 6.446 138.345 6.02 140.241 6.02C142.221 6.02 143.907 6.482 145.299 7.406C146.691 8.318 147.729 9.62 148.413 11.312C149.109 13.004 149.385 15.014 149.241 17.342H145.479V15.974C145.455 13.718 145.023 12.05 144.183 10.97C143.355 9.89 142.089 9.35 140.385 9.35C138.501 9.35 137.085 9.944 136.137 11.132C135.189 12.32 134.715 14.036 134.715 16.28C134.715 18.416 135.189 20.072 136.137 21.248C137.085 22.412 138.453 22.994 140.241 22.994C141.417 22.994 142.431 22.73 143.283 22.202C144.147 21.662 144.819 20.894 145.299 19.898L148.989 21.068C148.233 22.808 147.087 24.158 145.551 25.118C144.015 26.066 142.305 26.54 140.421 26.54ZM133.491 17.342V14.408H147.369V17.342H133.491ZM166.396 26V16.442C166.396 15.686 166.33 14.912 166.198 14.12C166.078 13.316 165.838 12.572 165.478 11.888C165.13 11.204 164.632 10.652 163.984 10.232C163.348 9.812 162.514 9.602 161.482 9.602C160.81 9.602 160.174 9.716 159.574 9.944C158.974 10.16 158.446 10.514 157.99 11.006C157.546 11.498 157.192 12.146 156.928 12.95C156.676 13.754 156.55 14.732 156.55 15.884L154.21 15.002C154.21 13.238 154.54 11.684 155.2 10.34C155.86 8.984 156.808 7.928 158.044 7.172C159.28 6.416 160.774 6.038 162.526 6.038C163.87 6.038 164.998 6.254 165.91 6.686C166.822 7.118 167.56 7.688 168.124 8.396C168.7 9.092 169.138 9.854 169.438 10.682C169.738 11.51 169.942 12.32 170.05 13.112C170.158 13.904 170.212 14.6 170.212 15.2V26H166.396ZM152.734 26V6.56H156.1V12.176H156.55V26H152.734ZM187.598 26.54C186.158 26.54 184.952 26.276 183.98 25.748C183.008 25.208 182.27 24.5 181.766 23.624C181.274 22.736 181.028 21.764 181.028 20.708C181.028 19.724 181.202 18.86 181.55 18.116C181.898 17.372 182.414 16.742 183.098 16.226C183.782 15.698 184.622 15.272 185.618 14.948C186.482 14.696 187.46 14.474 188.552 14.282C189.644 14.09 190.79 13.91 191.99 13.742C193.202 13.574 194.402 13.406 195.59 13.238L194.222 13.994C194.246 12.47 193.922 11.342 193.25 10.61C192.59 9.866 191.45 9.494 189.83 9.494C188.81 9.494 187.874 9.734 187.022 10.214C186.17 10.682 185.576 11.462 185.24 12.554L181.73 11.474C182.21 9.806 183.122 8.48 184.466 7.496C185.822 6.512 187.622 6.02 189.866 6.02C191.606 6.02 193.118 6.32 194.402 6.92C195.698 7.508 196.646 8.444 197.246 9.728C197.558 10.364 197.75 11.036 197.822 11.744C197.894 12.452 197.93 13.214 197.93 14.03V26H194.6V21.554L195.248 22.13C194.444 23.618 193.418 24.728 192.17 25.46C190.934 26.18 189.41 26.54 187.598 26.54ZM188.264 23.462C189.332 23.462 190.25 23.276 191.018 22.904C191.786 22.52 192.404 22.034 192.872 21.446C193.34 20.858 193.646 20.246 193.79 19.61C193.994 19.034 194.108 18.386 194.132 17.666C194.168 16.946 194.186 16.37 194.186 15.938L195.41 16.388C194.222 16.568 193.142 16.73 192.17 16.874C191.198 17.018 190.316 17.162 189.524 17.306C188.744 17.438 188.048 17.6 187.436 17.792C186.92 17.972 186.458 18.188 186.05 18.44C185.654 18.692 185.336 18.998 185.096 19.358C184.868 19.718 184.754 20.156 184.754 20.672C184.754 21.176 184.88 21.644 185.132 22.076C185.384 22.496 185.768 22.832 186.284 23.084C186.8 23.336 187.46 23.462 188.264 23.462ZM216.248 26V16.442C216.248 15.686 216.182 14.912 216.05 14.12C215.93 13.316 215.69 12.572 215.33 11.888C214.982 11.204 214.484 10.652 213.836 10.232C213.2 9.812 212.366 9.602 211.334 9.602C210.662 9.602 210.026 9.716 209.426 9.944C208.826 10.16 208.298 10.514 207.842 11.006C207.398 11.498 207.044 12.146 206.78 12.95C206.528 13.754 206.402 14.732 206.402 15.884L204.062 15.002C204.062 13.238 204.392 11.684 205.052 10.34C205.712 8.984 206.66 7.928 207.896 7.172C209.132 6.416 210.626 6.038 212.378 6.038C213.722 6.038 214.85 6.254 215.762 6.686C216.674 7.118 217.412 7.688 217.976 8.396C218.552 9.092 218.99 9.854 219.29 10.682C219.59 11.51 219.794 12.32 219.902 13.112C220.01 13.904 220.064 14.6 220.064 15.2V26H216.248ZM202.586 26V6.56H205.952V12.176H206.402V26H202.586ZM232.228 26.54C230.416 26.54 228.85 26.09 227.53 25.19C226.222 24.29 225.208 23.066 224.488 21.518C223.78 19.958 223.426 18.206 223.426 16.262C223.426 14.306 223.786 12.56 224.506 11.024C225.226 9.476 226.246 8.258 227.566 7.37C228.898 6.47 230.476 6.02 232.3 6.02C234.136 6.02 235.678 6.47 236.926 7.37C238.186 8.258 239.134 9.476 239.77 11.024C240.418 12.572 240.742 14.318 240.742 16.262C240.742 18.206 240.418 19.952 239.77 21.5C239.122 23.048 238.168 24.278 236.908 25.19C235.648 26.09 234.088 26.54 232.228 26.54ZM232.75 23.138C233.986 23.138 234.994 22.844 235.774 22.256C236.554 21.668 237.124 20.858 237.484 19.826C237.844 18.794 238.024 17.606 238.024 16.262C238.024 14.918 237.838 13.73 237.466 12.698C237.106 11.666 236.542 10.862 235.774 10.286C235.018 9.71 234.052 9.422 232.876 9.422C231.628 9.422 230.602 9.728 229.798 10.34C228.994 10.952 228.394 11.774 227.998 12.806C227.614 13.838 227.422 14.99 227.422 16.262C227.422 17.546 227.614 18.71 227.998 19.754C228.394 20.786 228.982 21.608 229.762 22.22C230.554 22.832 231.55 23.138 232.75 23.138ZM238.024 26V12.014H237.592V0.079999H241.372V26H238.024ZM253.616 26V0.079999H263.804C265.448 0.079999 266.828 0.415999 267.944 1.088C269.06 1.76 269.9 2.63 270.464 3.698C271.028 4.754 271.31 5.87 271.31 7.046C271.31 8.474 270.956 9.698 270.248 10.718C269.552 11.738 268.61 12.434 267.422 12.806L267.386 11.924C269.042 12.332 270.314 13.13 271.202 14.318C272.09 15.494 272.534 16.868 272.534 18.44C272.534 19.964 272.228 21.29 271.616 22.418C271.016 23.546 270.134 24.428 268.97 25.064C267.818 25.688 266.42 26 264.776 26H253.616ZM257.432 22.418H264.2C265.052 22.418 265.814 22.256 266.486 21.932C267.17 21.608 267.704 21.146 268.088 20.546C268.484 19.934 268.682 19.208 268.682 18.368C268.682 17.588 268.508 16.886 268.16 16.262C267.824 15.626 267.332 15.128 266.684 14.768C266.048 14.396 265.298 14.21 264.434 14.21H257.432V22.418ZM257.432 10.664H263.75C264.446 10.664 265.07 10.526 265.622 10.25C266.186 9.962 266.63 9.554 266.954 9.026C267.29 8.486 267.458 7.838 267.458 7.082C267.458 6.074 267.122 5.246 266.45 4.598C265.778 3.95 264.878 3.626 263.75 3.626H257.432V10.664ZM284.558 26.54C282.614 26.54 280.928 26.102 279.5 25.226C278.072 24.35 276.968 23.144 276.188 21.608C275.42 20.06 275.036 18.278 275.036 16.262C275.036 14.234 275.432 12.452 276.224 10.916C277.016 9.368 278.126 8.168 279.554 7.316C280.982 6.452 282.65 6.02 284.558 6.02C286.502 6.02 288.188 6.458 289.616 7.334C291.044 8.21 292.148 9.416 292.928 10.952C293.708 12.488 294.098 14.258 294.098 16.262C294.098 18.29 293.702 20.078 292.91 21.626C292.13 23.162 291.026 24.368 289.598 25.244C288.17 26.108 286.49 26.54 284.558 26.54ZM284.558 22.994C286.418 22.994 287.804 22.37 288.716 21.122C289.64 19.862 290.102 18.242 290.102 16.262C290.102 14.234 289.634 12.614 288.698 11.402C287.774 10.178 286.394 9.566 284.558 9.566C283.298 9.566 282.26 9.854 281.444 10.43C280.628 10.994 280.022 11.78 279.626 12.788C279.23 13.784 279.032 14.942 279.032 16.262C279.032 18.302 279.5 19.934 280.436 21.158C281.372 22.382 282.746 22.994 284.558 22.994ZM306.495 26.54C304.551 26.54 302.865 26.102 301.437 25.226C300.009 24.35 298.905 23.144 298.125 21.608C297.357 20.06 296.973 18.278 296.973 16.262C296.973 14.234 297.369 12.452 298.161 10.916C298.953 9.368 300.063 8.168 301.491 7.316C302.919 6.452 304.587 6.02 306.495 6.02C308.439 6.02 310.125 6.458 311.553 7.334C312.981 8.21 314.085 9.416 314.865 10.952C315.645 12.488 316.035 14.258 316.035 16.262C316.035 18.29 315.639 20.078 314.847 21.626C314.067 23.162 312.963 24.368 311.535 25.244C310.107 26.108 308.427 26.54 306.495 26.54ZM306.495 22.994C308.355 22.994 309.741 22.37 310.653 21.122C311.577 19.862 312.039 18.242 312.039 16.262C312.039 14.234 311.571 12.614 310.635 11.402C309.711 10.178 308.331 9.566 306.495 9.566C305.235 9.566 304.197 9.854 303.381 10.43C302.565 10.994 301.959 11.78 301.563 12.788C301.167 13.784 300.969 14.942 300.969 16.262C300.969 18.302 301.437 19.934 302.373 21.158C303.309 22.382 304.683 22.994 306.495 22.994ZM327.073 26.522C324.709 26.522 322.783 26 321.295 24.956C319.807 23.912 318.895 22.442 318.559 20.546L322.411 19.952C322.651 20.96 323.203 21.758 324.067 22.346C324.943 22.922 326.029 23.21 327.325 23.21C328.501 23.21 329.419 22.97 330.079 22.49C330.751 22.01 331.087 21.35 331.087 20.51C331.087 20.018 330.967 19.622 330.727 19.322C330.499 19.01 330.013 18.716 329.269 18.44C328.525 18.164 327.391 17.822 325.867 17.414C324.199 16.982 322.873 16.52 321.889 16.028C320.917 15.524 320.221 14.942 319.801 14.282C319.393 13.61 319.189 12.8 319.189 11.852C319.189 10.676 319.501 9.65 320.125 8.774C320.749 7.898 321.625 7.22 322.753 6.74C323.893 6.26 325.225 6.02 326.749 6.02C328.237 6.02 329.563 6.254 330.727 6.722C331.891 7.19 332.833 7.856 333.553 8.72C334.273 9.572 334.705 10.574 334.849 11.726L330.997 12.428C330.865 11.492 330.427 10.754 329.683 10.214C328.939 9.674 327.973 9.38 326.785 9.332C325.645 9.284 324.721 9.476 324.013 9.908C323.305 10.328 322.951 10.91 322.951 11.654C322.951 12.086 323.083 12.452 323.347 12.752C323.623 13.052 324.151 13.34 324.931 13.616C325.711 13.892 326.863 14.222 328.387 14.606C330.019 15.026 331.315 15.494 332.275 16.01C333.235 16.514 333.919 17.12 334.327 17.828C334.747 18.524 334.957 19.37 334.957 20.366C334.957 22.286 334.255 23.792 332.851 24.884C331.459 25.976 329.533 26.522 327.073 26.522ZM350.064 26C348.84 26.24 347.64 26.342 346.464 26.306C345.288 26.27 344.238 26.042 343.314 25.622C342.39 25.202 341.694 24.542 341.226 23.642C340.806 22.838 340.578 22.022 340.542 21.194C340.518 20.354 340.506 19.406 340.506 18.35V1.16H344.286V18.17C344.286 18.95 344.292 19.628 344.304 20.204C344.328 20.78 344.454 21.266 344.682 21.662C345.114 22.406 345.798 22.832 346.734 22.94C347.682 23.036 348.792 22.994 350.064 22.814V26ZM336.78 9.584V6.56H350.064V9.584H336.78Z" fill="white"/>
</svg>
