<svg width="373" height="160" viewBox="0 0 373 160" fill="none" xmlns="http://www.w3.org/2000/svg">
<path d="M13.338 27.54C10.746 27.54 8.538 26.976 6.714 25.848C4.89 24.708 3.492 23.124 2.52 21.096C1.56 19.068 1.08 16.716 1.08 14.04C1.08 11.364 1.56 9.012 2.52 6.984C3.492 4.956 4.89 3.378 6.714 2.25C8.538 1.11 10.746 0.539999 13.338 0.539999C16.326 0.539999 18.798 1.296 20.754 2.808C22.722 4.32 24.09 6.354 24.858 8.91L21.042 9.936C20.538 8.124 19.638 6.702 18.342 5.67C17.058 4.638 15.39 4.122 13.338 4.122C11.502 4.122 9.972 4.536 8.748 5.364C7.524 6.192 6.6 7.35 5.976 8.838C5.364 10.326 5.058 12.06 5.058 14.04C5.046 16.02 5.346 17.754 5.958 19.242C6.582 20.73 7.506 21.888 8.73 22.716C9.966 23.544 11.502 23.958 13.338 23.958C15.39 23.958 17.058 23.442 18.342 22.41C19.638 21.366 20.538 19.944 21.042 18.144L24.858 19.17C24.09 21.726 22.722 23.76 20.754 25.272C18.798 26.784 16.326 27.54 13.338 27.54ZM37.2589 27.54C35.3149 27.54 33.6289 27.102 32.2009 26.226C30.7729 25.35 29.6689 24.144 28.8889 22.608C28.1209 21.06 27.7369 19.278 27.7369 17.262C27.7369 15.234 28.1329 13.452 28.9249 11.916C29.7169 10.368 30.8269 9.168 32.2549 8.316C33.6829 7.452 35.3509 7.02 37.2589 7.02C39.2029 7.02 40.8889 7.458 42.3169 8.334C43.7449 9.21 44.8489 10.416 45.6289 11.952C46.4089 13.488 46.7989 15.258 46.7989 17.262C46.7989 19.29 46.4029 21.078 45.6109 22.626C44.8309 24.162 43.7269 25.368 42.2989 26.244C40.8709 27.108 39.1909 27.54 37.2589 27.54ZM37.2589 23.994C39.1189 23.994 40.5049 23.37 41.4169 22.122C42.3409 20.862 42.8029 19.242 42.8029 17.262C42.8029 15.234 42.3349 13.614 41.3989 12.402C40.4749 11.178 39.0949 10.566 37.2589 10.566C35.9989 10.566 34.9609 10.854 34.1449 11.43C33.3289 11.994 32.7229 12.78 32.3269 13.788C31.9309 14.784 31.7329 15.942 31.7329 17.262C31.7329 19.302 32.2009 20.934 33.1369 22.158C34.0729 23.382 35.4469 23.994 37.2589 23.994ZM51.1144 27V0.539999H54.8764V27H51.1144ZM60.6417 27V0.539999H64.4037V27H60.6417ZM78.4311 27.54C76.4991 27.54 74.8011 27.12 73.3371 26.28C71.8851 25.428 70.7511 24.246 69.9351 22.734C69.1311 21.21 68.7291 19.446 68.7291 17.442C68.7291 15.318 69.1251 13.476 69.9171 11.916C70.7211 10.356 71.8371 9.15 73.2651 8.298C74.6931 7.446 76.3551 7.02 78.2511 7.02C80.2311 7.02 81.9171 7.482 83.3091 8.406C84.7011 9.318 85.7391 10.62 86.4231 12.312C87.1191 14.004 87.3951 16.014 87.2511 18.342H83.4891V16.974C83.4651 14.718 83.0331 13.05 82.1931 11.97C81.3651 10.89 80.0991 10.35 78.3951 10.35C76.5111 10.35 75.0951 10.944 74.1471 12.132C73.1991 13.32 72.7251 15.036 72.7251 17.28C72.7251 19.416 73.1991 21.072 74.1471 22.248C75.0951 23.412 76.4631 23.994 78.2511 23.994C79.4271 23.994 80.4411 23.73 81.2931 23.202C82.1571 22.662 82.8291 21.894 83.3091 20.898L86.9991 22.068C86.2431 23.808 85.0971 25.158 83.5611 26.118C82.0251 27.066 80.3151 27.54 78.4311 27.54ZM71.5011 18.342V15.408H85.3791V18.342H71.5011ZM99.6055 27.54C97.6135 27.54 95.9215 27.096 94.5295 26.208C93.1375 25.32 92.0695 24.102 91.3255 22.554C90.5935 21.006 90.2215 19.248 90.2095 17.28C90.2215 15.276 90.6055 13.506 91.3615 11.97C92.1175 10.422 93.1975 9.21 94.6015 8.334C96.0055 7.458 97.6915 7.02 99.6595 7.02C101.784 7.02 103.596 7.548 105.096 8.604C106.608 9.66 107.604 11.106 108.084 12.942L104.34 14.022C103.968 12.93 103.356 12.084 102.504 11.484C101.664 10.872 100.698 10.566 99.6055 10.566C98.3695 10.566 97.3555 10.86 96.5635 11.448C95.7715 12.024 95.1835 12.816 94.7995 13.824C94.4155 14.832 94.2175 15.984 94.2055 17.28C94.2175 19.284 94.6735 20.904 95.5735 22.14C96.4855 23.376 97.8295 23.994 99.6055 23.994C100.818 23.994 101.796 23.718 102.54 23.166C103.296 22.602 103.872 21.798 104.268 20.754L108.084 21.654C107.448 23.55 106.398 25.008 104.934 26.028C103.47 27.036 101.694 27.54 99.6055 27.54ZM122.874 27C121.65 27.24 120.45 27.342 119.274 27.306C118.098 27.27 117.048 27.042 116.124 26.622C115.2 26.202 114.504 25.542 114.036 24.642C113.616 23.838 113.388 23.022 113.352 22.194C113.328 21.354 113.316 20.406 113.316 19.35V2.16H117.096V19.17C117.096 19.95 117.102 20.628 117.114 21.204C117.138 21.78 117.264 22.266 117.492 22.662C117.924 23.406 118.608 23.832 119.544 23.94C120.492 24.036 121.602 23.994 122.874 23.814V27ZM109.59 10.584V7.56H122.874V10.584H109.59ZM157.472 27L157.49 14.886C157.49 13.482 157.13 12.39 156.41 11.61C155.69 10.818 154.742 10.422 153.566 10.422C152.846 10.422 152.186 10.59 151.586 10.926C150.998 11.25 150.518 11.742 150.146 12.402C149.786 13.05 149.606 13.866 149.606 14.85L147.788 13.932C147.764 12.564 148.052 11.364 148.652 10.332C149.264 9.3 150.092 8.502 151.136 7.938C152.18 7.362 153.35 7.074 154.646 7.074C156.746 7.074 158.372 7.704 159.524 8.964C160.676 10.224 161.252 11.898 161.252 13.986L161.234 27H157.472ZM134.162 27V7.56H137.51V13.176H137.942V27H134.162ZM145.826 27L145.844 14.958C145.844 13.542 145.484 12.432 144.764 11.628C144.056 10.824 143.102 10.422 141.902 10.422C140.714 10.422 139.754 10.83 139.022 11.646C138.302 12.462 137.942 13.53 137.942 14.85L136.142 13.698C136.142 12.426 136.448 11.292 137.06 10.296C137.672 9.3 138.5 8.514 139.544 7.938C140.588 7.362 141.77 7.074 143.09 7.074C144.47 7.074 145.646 7.368 146.618 7.956C147.59 8.532 148.328 9.342 148.832 10.386C149.348 11.43 149.606 12.642 149.606 14.022L149.588 27H145.826ZM174.122 27.54C172.178 27.54 170.492 27.102 169.064 26.226C167.636 25.35 166.532 24.144 165.752 22.608C164.984 21.06 164.6 19.278 164.6 17.262C164.6 15.234 164.996 13.452 165.788 11.916C166.58 10.368 167.69 9.168 169.118 8.316C170.546 7.452 172.214 7.02 174.122 7.02C176.066 7.02 177.752 7.458 179.18 8.334C180.608 9.21 181.712 10.416 182.492 11.952C183.272 13.488 183.662 15.258 183.662 17.262C183.662 19.29 183.266 21.078 182.474 22.626C181.694 24.162 180.59 25.368 179.162 26.244C177.734 27.108 176.054 27.54 174.122 27.54ZM174.122 23.994C175.982 23.994 177.368 23.37 178.28 22.122C179.204 20.862 179.666 19.242 179.666 17.262C179.666 15.234 179.198 13.614 178.262 12.402C177.338 11.178 175.958 10.566 174.122 10.566C172.862 10.566 171.824 10.854 171.008 11.43C170.192 11.994 169.586 12.78 169.19 13.788C168.794 14.784 168.596 15.942 168.596 17.262C168.596 19.302 169.064 20.934 170 22.158C170.936 23.382 172.31 23.994 174.122 23.994ZM187.618 27V7.56H190.966V12.276L190.498 11.664C190.738 11.04 191.05 10.47 191.434 9.954C191.818 9.426 192.262 8.994 192.766 8.658C193.258 8.298 193.804 8.022 194.404 7.83C195.016 7.626 195.64 7.506 196.276 7.47C196.912 7.422 197.524 7.452 198.112 7.56V11.088C197.476 10.92 196.768 10.872 195.988 10.944C195.22 11.016 194.512 11.262 193.864 11.682C193.252 12.078 192.766 12.558 192.406 13.122C192.058 13.686 191.806 14.316 191.65 15.012C191.494 15.696 191.416 16.422 191.416 17.19V27H187.618ZM209.81 27.54C207.878 27.54 206.18 27.12 204.716 26.28C203.264 25.428 202.13 24.246 201.314 22.734C200.51 21.21 200.108 19.446 200.108 17.442C200.108 15.318 200.504 13.476 201.296 11.916C202.1 10.356 203.216 9.15 204.644 8.298C206.072 7.446 207.734 7.02 209.63 7.02C211.61 7.02 213.296 7.482 214.688 8.406C216.08 9.318 217.118 10.62 217.802 12.312C218.498 14.004 218.774 16.014 218.63 18.342H214.868V16.974C214.844 14.718 214.412 13.05 213.572 11.97C212.744 10.89 211.478 10.35 209.774 10.35C207.89 10.35 206.474 10.944 205.526 12.132C204.578 13.32 204.104 15.036 204.104 17.28C204.104 19.416 204.578 21.072 205.526 22.248C206.474 23.412 207.842 23.994 209.63 23.994C210.806 23.994 211.82 23.73 212.672 23.202C213.536 22.662 214.208 21.894 214.688 20.898L218.378 22.068C217.622 23.808 216.476 25.158 214.94 26.118C213.404 27.066 211.694 27.54 209.81 27.54ZM202.88 18.342V15.408H216.758V18.342H202.88ZM237.309 27.522C234.945 27.522 233.019 27 231.531 25.956C230.043 24.912 229.131 23.442 228.795 21.546L232.647 20.952C232.887 21.96 233.439 22.758 234.303 23.346C235.179 23.922 236.265 24.21 237.561 24.21C238.737 24.21 239.655 23.97 240.315 23.49C240.987 23.01 241.323 22.35 241.323 21.51C241.323 21.018 241.203 20.622 240.963 20.322C240.735 20.01 240.249 19.716 239.505 19.44C238.761 19.164 237.627 18.822 236.103 18.414C234.435 17.982 233.109 17.52 232.125 17.028C231.153 16.524 230.457 15.942 230.037 15.282C229.629 14.61 229.425 13.8 229.425 12.852C229.425 11.676 229.737 10.65 230.361 9.774C230.985 8.898 231.861 8.22 232.989 7.74C234.129 7.26 235.461 7.02 236.985 7.02C238.473 7.02 239.799 7.254 240.963 7.722C242.127 8.19 243.069 8.856 243.789 9.72C244.509 10.572 244.941 11.574 245.085 12.726L241.233 13.428C241.101 12.492 240.663 11.754 239.919 11.214C239.175 10.674 238.209 10.38 237.021 10.332C235.881 10.284 234.957 10.476 234.249 10.908C233.541 11.328 233.187 11.91 233.187 12.654C233.187 13.086 233.319 13.452 233.583 13.752C233.859 14.052 234.387 14.34 235.167 14.616C235.947 14.892 237.099 15.222 238.623 15.606C240.255 16.026 241.551 16.494 242.511 17.01C243.471 17.514 244.155 18.12 244.563 18.828C244.983 19.524 245.193 20.37 245.193 21.366C245.193 23.286 244.491 24.792 243.087 25.884C241.695 26.976 239.769 27.522 237.309 27.522ZM260.3 27C259.076 27.24 257.876 27.342 256.7 27.306C255.524 27.27 254.474 27.042 253.55 26.622C252.626 26.202 251.93 25.542 251.462 24.642C251.042 23.838 250.814 23.022 250.778 22.194C250.754 21.354 250.742 20.406 250.742 19.35V2.16H254.522V19.17C254.522 19.95 254.528 20.628 254.54 21.204C254.564 21.78 254.69 22.266 254.918 22.662C255.35 23.406 256.034 23.832 256.97 23.94C257.918 24.036 259.028 23.994 260.3 23.814V27ZM247.016 10.584V7.56H260.3V10.584H247.016ZM269.889 27.54C268.449 27.54 267.243 27.276 266.271 26.748C265.299 26.208 264.561 25.5 264.057 24.624C263.565 23.736 263.319 22.764 263.319 21.708C263.319 20.724 263.493 19.86 263.841 19.116C264.189 18.372 264.705 17.742 265.389 17.226C266.073 16.698 266.913 16.272 267.909 15.948C268.773 15.696 269.751 15.474 270.843 15.282C271.935 15.09 273.081 14.91 274.281 14.742C275.493 14.574 276.693 14.406 277.881 14.238L276.513 14.994C276.537 13.47 276.213 12.342 275.541 11.61C274.881 10.866 273.741 10.494 272.121 10.494C271.101 10.494 270.165 10.734 269.313 11.214C268.461 11.682 267.867 12.462 267.531 13.554L264.021 12.474C264.501 10.806 265.413 9.48 266.757 8.496C268.113 7.512 269.913 7.02 272.157 7.02C273.897 7.02 275.409 7.32 276.693 7.92C277.989 8.508 278.937 9.444 279.537 10.728C279.849 11.364 280.041 12.036 280.113 12.744C280.185 13.452 280.221 14.214 280.221 15.03V27H276.891V22.554L277.539 23.13C276.735 24.618 275.709 25.728 274.461 26.46C273.225 27.18 271.701 27.54 269.889 27.54ZM270.555 24.462C271.623 24.462 272.541 24.276 273.309 23.904C274.077 23.52 274.695 23.034 275.163 22.446C275.631 21.858 275.937 21.246 276.081 20.61C276.285 20.034 276.399 19.386 276.423 18.666C276.459 17.946 276.477 17.37 276.477 16.938L277.701 17.388C276.513 17.568 275.433 17.73 274.461 17.874C273.489 18.018 272.607 18.162 271.815 18.306C271.035 18.438 270.339 18.6 269.727 18.792C269.211 18.972 268.749 19.188 268.341 19.44C267.945 19.692 267.627 19.998 267.387 20.358C267.159 20.718 267.045 21.156 267.045 21.672C267.045 22.176 267.171 22.644 267.423 23.076C267.675 23.496 268.059 23.832 268.575 24.084C269.091 24.336 269.751 24.462 270.555 24.462ZM284.895 27V7.56H288.243V12.276L287.775 11.664C288.015 11.04 288.327 10.47 288.711 9.954C289.095 9.426 289.539 8.994 290.043 8.658C290.535 8.298 291.081 8.022 291.681 7.83C292.293 7.626 292.917 7.506 293.553 7.47C294.189 7.422 294.801 7.452 295.389 7.56V11.088C294.753 10.92 294.045 10.872 293.265 10.944C292.497 11.016 291.789 11.262 291.141 11.682C290.529 12.078 290.043 12.558 289.683 13.122C289.335 13.686 289.083 14.316 288.927 15.012C288.771 15.696 288.693 16.422 288.693 17.19V27H284.895ZM306.187 27.54C304.375 27.54 302.809 27.09 301.489 26.19C300.181 25.29 299.167 24.066 298.447 22.518C297.739 20.958 297.385 19.206 297.385 17.262C297.385 15.306 297.745 13.56 298.465 12.024C299.185 10.476 300.205 9.258 301.525 8.37C302.857 7.47 304.435 7.02 306.259 7.02C308.095 7.02 309.637 7.47 310.885 8.37C312.145 9.258 313.093 10.476 313.729 12.024C314.377 13.572 314.701 15.318 314.701 17.262C314.701 19.206 314.377 20.952 313.729 22.5C313.081 24.048 312.127 25.278 310.867 26.19C309.607 27.09 308.047 27.54 306.187 27.54ZM306.709 24.138C307.945 24.138 308.953 23.844 309.733 23.256C310.513 22.668 311.083 21.858 311.443 20.826C311.803 19.794 311.983 18.606 311.983 17.262C311.983 15.918 311.797 14.73 311.425 13.698C311.065 12.666 310.501 11.862 309.733 11.286C308.977 10.71 308.011 10.422 306.835 10.422C305.587 10.422 304.561 10.728 303.757 11.34C302.953 11.952 302.353 12.774 301.957 13.806C301.573 14.838 301.381 15.99 301.381 17.262C301.381 18.546 301.573 19.71 301.957 20.754C302.353 21.786 302.941 22.608 303.721 23.22C304.513 23.832 305.509 24.138 306.709 24.138ZM311.983 27V13.014H311.551V1.08H315.331V27H311.983ZM327.694 27.522C326.35 27.522 325.222 27.306 324.31 26.874C323.398 26.442 322.654 25.878 322.078 25.182C321.514 24.474 321.082 23.706 320.782 22.878C320.482 22.05 320.278 21.24 320.17 20.448C320.062 19.656 320.008 18.96 320.008 18.36V7.56H323.824V17.118C323.824 17.874 323.884 18.654 324.004 19.458C324.136 20.25 324.376 20.988 324.724 21.672C325.084 22.356 325.582 22.908 326.218 23.328C326.866 23.748 327.706 23.958 328.738 23.958C329.41 23.958 330.046 23.85 330.646 23.634C331.246 23.406 331.768 23.046 332.212 22.554C332.668 22.062 333.022 21.414 333.274 20.61C333.538 19.806 333.67 18.828 333.67 17.676L336.01 18.558C336.01 20.322 335.68 21.882 335.02 23.238C334.36 24.582 333.412 25.632 332.176 26.388C330.94 27.144 329.446 27.522 327.694 27.522ZM334.12 27V21.384H333.67V7.56H337.468V27H334.12ZM349.95 27.522C347.586 27.522 345.66 27 344.172 25.956C342.684 24.912 341.772 23.442 341.436 21.546L345.288 20.952C345.528 21.96 346.08 22.758 346.944 23.346C347.82 23.922 348.906 24.21 350.202 24.21C351.378 24.21 352.296 23.97 352.956 23.49C353.628 23.01 353.964 22.35 353.964 21.51C353.964 21.018 353.844 20.622 353.604 20.322C353.376 20.01 352.89 19.716 352.146 19.44C351.402 19.164 350.268 18.822 348.744 18.414C347.076 17.982 345.75 17.52 344.766 17.028C343.794 16.524 343.098 15.942 342.678 15.282C342.27 14.61 342.066 13.8 342.066 12.852C342.066 11.676 342.378 10.65 343.002 9.774C343.626 8.898 344.502 8.22 345.63 7.74C346.77 7.26 348.102 7.02 349.626 7.02C351.114 7.02 352.44 7.254 353.604 7.722C354.768 8.19 355.71 8.856 356.43 9.72C357.15 10.572 357.582 11.574 357.726 12.726L353.874 13.428C353.742 12.492 353.304 11.754 352.56 11.214C351.816 10.674 350.85 10.38 349.662 10.332C348.522 10.284 347.598 10.476 346.89 10.908C346.182 11.328 345.828 11.91 345.828 12.654C345.828 13.086 345.96 13.452 346.224 13.752C346.5 14.052 347.028 14.34 347.808 14.616C348.588 14.892 349.74 15.222 351.264 15.606C352.896 16.026 354.192 16.494 355.152 17.01C356.112 17.514 356.796 18.12 357.204 18.828C357.624 19.524 357.834 20.37 357.834 21.366C357.834 23.286 357.132 24.792 355.728 25.884C354.336 26.976 352.41 27.522 349.95 27.522ZM372.941 27C371.717 27.24 370.517 27.342 369.341 27.306C368.165 27.27 367.115 27.042 366.191 26.622C365.267 26.202 364.571 25.542 364.103 24.642C363.683 23.838 363.455 23.022 363.419 22.194C363.395 21.354 363.383 20.406 363.383 19.35V2.16H367.163V19.17C367.163 19.95 367.169 20.628 367.181 21.204C367.205 21.78 367.331 22.266 367.559 22.662C367.991 23.406 368.675 23.832 369.611 23.94C370.559 24.036 371.669 23.994 372.941 23.814V27ZM359.657 10.584V7.56H372.941V10.584H359.657ZM8.01 71.54C6.57 71.54 5.364 71.276 4.392 70.748C3.42 70.208 2.682 69.5 2.178 68.624C1.686 67.736 1.44 66.764 1.44 65.708C1.44 64.724 1.614 63.86 1.962 63.116C2.31 62.372 2.826 61.742 3.51 61.226C4.194 60.698 5.034 60.272 6.03 59.948C6.894 59.696 7.872 59.474 8.964 59.282C10.056 59.09 11.202 58.91 12.402 58.742C13.614 58.574 14.814 58.406 16.002 58.238L14.634 58.994C14.658 57.47 14.334 56.342 13.662 55.61C13.002 54.866 11.862 54.494 10.242 54.494C9.222 54.494 8.286 54.734 7.434 55.214C6.582 55.682 5.988 56.462 5.652 57.554L2.142 56.474C2.622 54.806 3.534 53.48 4.878 52.496C6.234 51.512 8.034 51.02 10.278 51.02C12.018 51.02 13.53 51.32 14.814 51.92C16.11 52.508 17.058 53.444 17.658 54.728C17.97 55.364 18.162 56.036 18.234 56.744C18.306 57.452 18.342 58.214 18.342 59.03V71H15.012V66.554L15.66 67.13C14.856 68.618 13.83 69.728 12.582 70.46C11.346 71.18 9.822 71.54 8.01 71.54ZM8.676 68.462C9.744 68.462 10.662 68.276 11.43 67.904C12.198 67.52 12.816 67.034 13.284 66.446C13.752 65.858 14.058 65.246 14.202 64.61C14.406 64.034 14.52 63.386 14.544 62.666C14.58 61.946 14.598 61.37 14.598 60.938L15.822 61.388C14.634 61.568 13.554 61.73 12.582 61.874C11.61 62.018 10.728 62.162 9.936 62.306C9.156 62.438 8.46 62.6 7.848 62.792C7.332 62.972 6.87 63.188 6.462 63.44C6.066 63.692 5.748 63.998 5.508 64.358C5.28 64.718 5.166 65.156 5.166 65.672C5.166 66.176 5.292 66.644 5.544 67.076C5.796 67.496 6.18 67.832 6.696 68.084C7.212 68.336 7.872 68.462 8.676 68.462ZM36.6601 71V61.442C36.6601 60.686 36.5941 59.912 36.4621 59.12C36.3421 58.316 36.1021 57.572 35.7421 56.888C35.3941 56.204 34.8961 55.652 34.2481 55.232C33.6121 54.812 32.7781 54.602 31.7461 54.602C31.0741 54.602 30.4381 54.716 29.8381 54.944C29.2381 55.16 28.7101 55.514 28.2541 56.006C27.8101 56.498 27.4561 57.146 27.1921 57.95C26.9401 58.754 26.8141 59.732 26.8141 60.884L24.4741 60.002C24.4741 58.238 24.8041 56.684 25.4641 55.34C26.1241 53.984 27.0721 52.928 28.3081 52.172C29.5441 51.416 31.0381 51.038 32.7901 51.038C34.1341 51.038 35.2621 51.254 36.1741 51.686C37.0861 52.118 37.8241 52.688 38.3881 53.396C38.9641 54.092 39.4021 54.854 39.7021 55.682C40.0021 56.51 40.2061 57.32 40.3141 58.112C40.4221 58.904 40.4761 59.6 40.4761 60.2V71H36.6601ZM22.9981 71V51.56H26.3641V57.176H26.8141V71H22.9981ZM52.6404 71.54C50.8284 71.54 49.2624 71.09 47.9424 70.19C46.6344 69.29 45.6204 68.066 44.9004 66.518C44.1924 64.958 43.8384 63.206 43.8384 61.262C43.8384 59.306 44.1984 57.56 44.9184 56.024C45.6384 54.476 46.6584 53.258 47.9784 52.37C49.3104 51.47 50.8884 51.02 52.7124 51.02C54.5484 51.02 56.0904 51.47 57.3384 52.37C58.5984 53.258 59.5464 54.476 60.1824 56.024C60.8304 57.572 61.1544 59.318 61.1544 61.262C61.1544 63.206 60.8304 64.952 60.1824 66.5C59.5344 68.048 58.5804 69.278 57.3204 70.19C56.0604 71.09 54.5004 71.54 52.6404 71.54ZM53.1624 68.138C54.3984 68.138 55.4064 67.844 56.1864 67.256C56.9664 66.668 57.5364 65.858 57.8964 64.826C58.2564 63.794 58.4364 62.606 58.4364 61.262C58.4364 59.918 58.2504 58.73 57.8784 57.698C57.5184 56.666 56.9544 55.862 56.1864 55.286C55.4304 54.71 54.4644 54.422 53.2884 54.422C52.0404 54.422 51.0144 54.728 50.2104 55.34C49.4064 55.952 48.8064 56.774 48.4104 57.806C48.0264 58.838 47.8344 59.99 47.8344 61.262C47.8344 62.546 48.0264 63.71 48.4104 64.754C48.8064 65.786 49.3944 66.608 50.1744 67.22C50.9664 67.832 51.9624 68.138 53.1624 68.138ZM58.4364 71V57.014H58.0044V45.08H61.7844V71H58.4364ZM85.1518 71C83.9278 71.24 82.7278 71.342 81.5518 71.306C80.3758 71.27 79.3258 71.042 78.4018 70.622C77.4778 70.202 76.7818 69.542 76.3138 68.642C75.8938 67.838 75.6658 67.022 75.6298 66.194C75.6058 65.354 75.5938 64.406 75.5938 63.35V46.16H79.3738V63.17C79.3738 63.95 79.3798 64.628 79.3918 65.204C79.4158 65.78 79.5418 66.266 79.7698 66.662C80.2018 67.406 80.8858 67.832 81.8218 67.94C82.7698 68.036 83.8798 67.994 85.1518 67.814V71ZM71.8678 54.584V51.56H85.1518V54.584H71.8678ZM94.7405 71.54C93.3005 71.54 92.0945 71.276 91.1225 70.748C90.1505 70.208 89.4125 69.5 88.9085 68.624C88.4165 67.736 88.1705 66.764 88.1705 65.708C88.1705 64.724 88.3445 63.86 88.6925 63.116C89.0405 62.372 89.5565 61.742 90.2405 61.226C90.9245 60.698 91.7645 60.272 92.7605 59.948C93.6245 59.696 94.6025 59.474 95.6945 59.282C96.7865 59.09 97.9325 58.91 99.1325 58.742C100.344 58.574 101.544 58.406 102.732 58.238L101.364 58.994C101.388 57.47 101.064 56.342 100.392 55.61C99.7325 54.866 98.5925 54.494 96.9725 54.494C95.9525 54.494 95.0165 54.734 94.1645 55.214C93.3125 55.682 92.7185 56.462 92.3825 57.554L88.8725 56.474C89.3525 54.806 90.2645 53.48 91.6085 52.496C92.9645 51.512 94.7645 51.02 97.0085 51.02C98.7485 51.02 100.26 51.32 101.544 51.92C102.84 52.508 103.788 53.444 104.388 54.728C104.7 55.364 104.892 56.036 104.964 56.744C105.036 57.452 105.072 58.214 105.072 59.03V71H101.742V66.554L102.39 67.13C101.586 68.618 100.56 69.728 99.3125 70.46C98.0765 71.18 96.5525 71.54 94.7405 71.54ZM95.4065 68.462C96.4745 68.462 97.3925 68.276 98.1605 67.904C98.9285 67.52 99.5465 67.034 100.014 66.446C100.482 65.858 100.788 65.246 100.932 64.61C101.136 64.034 101.25 63.386 101.274 62.666C101.31 61.946 101.328 61.37 101.328 60.938L102.552 61.388C101.364 61.568 100.284 61.73 99.3125 61.874C98.3405 62.018 97.4585 62.162 96.6665 62.306C95.8865 62.438 95.1905 62.6 94.5785 62.792C94.0625 62.972 93.6005 63.188 93.1925 63.44C92.7965 63.692 92.4785 63.998 92.2385 64.358C92.0105 64.718 91.8965 65.156 91.8965 65.672C91.8965 66.176 92.0225 66.644 92.2745 67.076C92.5265 67.496 92.9105 67.832 93.4265 68.084C93.9425 68.336 94.6025 68.462 95.4065 68.462ZM109.729 71L109.747 45.08H113.563V60.92L121.195 51.56H125.983L117.919 61.28L126.811 71H121.699L113.563 61.64V71H109.729ZM136.896 71.54C134.964 71.54 133.266 71.12 131.802 70.28C130.35 69.428 129.216 68.246 128.4 66.734C127.596 65.21 127.194 63.446 127.194 61.442C127.194 59.318 127.59 57.476 128.382 55.916C129.186 54.356 130.302 53.15 131.73 52.298C133.158 51.446 134.82 51.02 136.716 51.02C138.696 51.02 140.382 51.482 141.774 52.406C143.166 53.318 144.204 54.62 144.888 56.312C145.584 58.004 145.86 60.014 145.716 62.342H141.954V60.974C141.93 58.718 141.498 57.05 140.658 55.97C139.83 54.89 138.564 54.35 136.86 54.35C134.976 54.35 133.56 54.944 132.612 56.132C131.664 57.32 131.19 59.036 131.19 61.28C131.19 63.416 131.664 65.072 132.612 66.248C133.56 67.412 134.928 67.994 136.716 67.994C137.892 67.994 138.906 67.73 139.758 67.202C140.622 66.662 141.294 65.894 141.774 64.898L145.464 66.068C144.708 67.808 143.562 69.158 142.026 70.118C140.49 71.066 138.78 71.54 136.896 71.54ZM129.966 62.342V59.408H143.844V62.342H129.966ZM162.451 71.54C161.011 71.54 159.805 71.276 158.833 70.748C157.861 70.208 157.123 69.5 156.619 68.624C156.127 67.736 155.881 66.764 155.881 65.708C155.881 64.724 156.055 63.86 156.403 63.116C156.751 62.372 157.267 61.742 157.951 61.226C158.635 60.698 159.475 60.272 160.471 59.948C161.335 59.696 162.313 59.474 163.405 59.282C164.497 59.09 165.643 58.91 166.843 58.742C168.055 58.574 169.255 58.406 170.443 58.238L169.075 58.994C169.099 57.47 168.775 56.342 168.103 55.61C167.443 54.866 166.303 54.494 164.683 54.494C163.663 54.494 162.727 54.734 161.875 55.214C161.023 55.682 160.429 56.462 160.093 57.554L156.583 56.474C157.063 54.806 157.975 53.48 159.319 52.496C160.675 51.512 162.475 51.02 164.719 51.02C166.459 51.02 167.971 51.32 169.255 51.92C170.551 52.508 171.499 53.444 172.099 54.728C172.411 55.364 172.603 56.036 172.675 56.744C172.747 57.452 172.783 58.214 172.783 59.03V71H169.453V66.554L170.101 67.13C169.297 68.618 168.271 69.728 167.023 70.46C165.787 71.18 164.263 71.54 162.451 71.54ZM163.117 68.462C164.185 68.462 165.103 68.276 165.871 67.904C166.639 67.52 167.257 67.034 167.725 66.446C168.193 65.858 168.499 65.246 168.643 64.61C168.847 64.034 168.961 63.386 168.985 62.666C169.021 61.946 169.039 61.37 169.039 60.938L170.263 61.388C169.075 61.568 167.995 61.73 167.023 61.874C166.051 62.018 165.169 62.162 164.377 62.306C163.597 62.438 162.901 62.6 162.289 62.792C161.773 62.972 161.311 63.188 160.903 63.44C160.507 63.692 160.189 63.998 159.949 64.358C159.721 64.718 159.607 65.156 159.607 65.672C159.607 66.176 159.733 66.644 159.985 67.076C160.237 67.496 160.621 67.832 161.137 68.084C161.653 68.336 162.313 68.462 163.117 68.462ZM193.791 71.54C191.931 71.54 190.371 71.09 189.111 70.19C187.851 69.278 186.897 68.048 186.249 66.5C185.601 64.952 185.277 63.206 185.277 61.262C185.277 59.318 185.595 57.572 186.231 56.024C186.879 54.476 187.827 53.258 189.075 52.37C190.335 51.47 191.883 51.02 193.719 51.02C195.543 51.02 197.115 51.47 198.435 52.37C199.767 53.258 200.793 54.476 201.513 56.024C202.233 57.56 202.593 59.306 202.593 61.262C202.593 63.206 202.233 64.958 201.513 66.518C200.805 68.066 199.791 69.29 198.471 70.19C197.163 71.09 195.603 71.54 193.791 71.54ZM184.647 79.64V51.56H187.995V65.546H188.427V79.64H184.647ZM193.269 68.138C194.469 68.138 195.459 67.832 196.239 67.22C197.031 66.608 197.619 65.786 198.003 64.754C198.399 63.71 198.597 62.546 198.597 61.262C198.597 59.99 198.399 58.838 198.003 57.806C197.619 56.774 197.025 55.952 196.221 55.34C195.417 54.728 194.391 54.422 193.143 54.422C191.967 54.422 190.995 54.71 190.227 55.286C189.471 55.862 188.907 56.666 188.535 57.698C188.175 58.73 187.995 59.918 187.995 61.262C187.995 62.606 188.175 63.794 188.535 64.826C188.895 65.858 189.465 66.668 190.245 67.256C191.025 67.844 192.033 68.138 193.269 68.138ZM212.057 71.54C210.617 71.54 209.411 71.276 208.439 70.748C207.467 70.208 206.729 69.5 206.225 68.624C205.733 67.736 205.487 66.764 205.487 65.708C205.487 64.724 205.661 63.86 206.009 63.116C206.357 62.372 206.873 61.742 207.557 61.226C208.241 60.698 209.081 60.272 210.077 59.948C210.941 59.696 211.919 59.474 213.011 59.282C214.103 59.09 215.249 58.91 216.449 58.742C217.661 58.574 218.861 58.406 220.049 58.238L218.681 58.994C218.705 57.47 218.381 56.342 217.709 55.61C217.049 54.866 215.909 54.494 214.289 54.494C213.269 54.494 212.333 54.734 211.481 55.214C210.629 55.682 210.035 56.462 209.699 57.554L206.189 56.474C206.669 54.806 207.581 53.48 208.925 52.496C210.281 51.512 212.081 51.02 214.325 51.02C216.065 51.02 217.577 51.32 218.861 51.92C220.157 52.508 221.105 53.444 221.705 54.728C222.017 55.364 222.209 56.036 222.281 56.744C222.353 57.452 222.389 58.214 222.389 59.03V71H219.059V66.554L219.707 67.13C218.903 68.618 217.877 69.728 216.629 70.46C215.393 71.18 213.869 71.54 212.057 71.54ZM212.723 68.462C213.791 68.462 214.709 68.276 215.477 67.904C216.245 67.52 216.863 67.034 217.331 66.446C217.799 65.858 218.105 65.246 218.249 64.61C218.453 64.034 218.567 63.386 218.591 62.666C218.627 61.946 218.645 61.37 218.645 60.938L219.869 61.388C218.681 61.568 217.601 61.73 216.629 61.874C215.657 62.018 214.775 62.162 213.983 62.306C213.203 62.438 212.507 62.6 211.895 62.792C211.379 62.972 210.917 63.188 210.509 63.44C210.113 63.692 209.795 63.998 209.555 64.358C209.327 64.718 209.213 65.156 209.213 65.672C209.213 66.176 209.339 66.644 209.591 67.076C209.843 67.496 210.227 67.832 210.743 68.084C211.259 68.336 211.919 68.462 212.723 68.462ZM227.063 71V51.56H230.411V56.276L229.943 55.664C230.183 55.04 230.495 54.47 230.879 53.954C231.263 53.426 231.707 52.994 232.211 52.658C232.703 52.298 233.249 52.022 233.849 51.83C234.461 51.626 235.085 51.506 235.721 51.47C236.357 51.422 236.969 51.452 237.557 51.56V55.088C236.921 54.92 236.213 54.872 235.433 54.944C234.665 55.016 233.957 55.262 233.309 55.682C232.697 56.078 232.211 56.558 231.851 57.122C231.503 57.686 231.251 58.316 231.095 59.012C230.939 59.696 230.861 60.422 230.861 61.19V71H227.063ZM252.109 71C250.885 71.24 249.685 71.342 248.509 71.306C247.333 71.27 246.283 71.042 245.359 70.622C244.435 70.202 243.739 69.542 243.271 68.642C242.851 67.838 242.623 67.022 242.587 66.194C242.563 65.354 242.551 64.406 242.551 63.35V46.16H246.331V63.17C246.331 63.95 246.337 64.628 246.349 65.204C246.373 65.78 246.499 66.266 246.727 66.662C247.159 67.406 247.843 67.832 248.779 67.94C249.727 68.036 250.837 67.994 252.109 67.814V71ZM238.825 54.584V51.56H252.109V54.584H238.825ZM2.88 92.374V88.72H6.642V92.374H2.88ZM2.88 115V95.56H6.642V115H2.88ZM25.6913 115V105.442C25.6913 104.686 25.6253 103.912 25.4933 103.12C25.3733 102.316 25.1333 101.572 24.7733 100.888C24.4253 100.204 23.9273 99.652 23.2793 99.232C22.6433 98.812 21.8093 98.602 20.7773 98.602C20.1053 98.602 19.4693 98.716 18.8693 98.944C18.2693 99.16 17.7413 99.514 17.2853 100.006C16.8413 100.498 16.4873 101.146 16.2233 101.95C15.9713 102.754 15.8453 103.732 15.8453 104.884L13.5053 104.002C13.5053 102.238 13.8353 100.684 14.4953 99.34C15.1553 97.984 16.1033 96.928 17.3393 96.172C18.5753 95.416 20.0693 95.038 21.8213 95.038C23.1653 95.038 24.2933 95.254 25.2053 95.686C26.1173 96.118 26.8553 96.688 27.4193 97.396C27.9953 98.092 28.4333 98.854 28.7333 99.682C29.0333 100.51 29.2373 101.32 29.3453 102.112C29.4533 102.904 29.5073 103.6 29.5073 104.2V115H25.6913ZM12.0293 115V95.56H15.3953V101.176H15.8453V115H12.0293ZM49.1248 115.54C47.3128 115.54 45.7468 115.09 44.4268 114.19C43.1188 113.29 42.1048 112.066 41.3848 110.518C40.6768 108.958 40.3228 107.206 40.3228 105.262C40.3228 103.306 40.6828 101.56 41.4028 100.024C42.1228 98.476 43.1428 97.258 44.4628 96.37C45.7948 95.47 47.3728 95.02 49.1968 95.02C51.0328 95.02 52.5748 95.47 53.8228 96.37C55.0828 97.258 56.0308 98.476 56.6668 100.024C57.3148 101.572 57.6388 103.318 57.6388 105.262C57.6388 107.206 57.3148 108.952 56.6668 110.5C56.0188 112.048 55.0648 113.278 53.8048 114.19C52.5448 115.09 50.9848 115.54 49.1248 115.54ZM49.6468 112.138C50.8828 112.138 51.8908 111.844 52.6708 111.256C53.4508 110.668 54.0208 109.858 54.3808 108.826C54.7408 107.794 54.9208 106.606 54.9208 105.262C54.9208 103.918 54.7348 102.73 54.3628 101.698C54.0028 100.666 53.4388 99.862 52.6708 99.286C51.9148 98.71 50.9488 98.422 49.7728 98.422C48.5248 98.422 47.4988 98.728 46.6948 99.34C45.8908 99.952 45.2908 100.774 44.8948 101.806C44.5108 102.838 44.3188 103.99 44.3188 105.262C44.3188 106.546 44.5108 107.71 44.8948 108.754C45.2908 109.786 45.8788 110.608 46.6588 111.22C47.4508 111.832 48.4468 112.138 49.6468 112.138ZM54.9208 115V101.014H54.4888V89.08H58.2688V115H54.9208ZM63.6652 92.374V88.72H67.4272V92.374H63.6652ZM63.6652 115V95.56H67.4272V115H63.6652ZM80.2665 115.522C77.9025 115.522 75.9765 115 74.4885 113.956C73.0005 112.912 72.0885 111.442 71.7525 109.546L75.6045 108.952C75.8445 109.96 76.3965 110.758 77.2605 111.346C78.1365 111.922 79.2225 112.21 80.5185 112.21C81.6945 112.21 82.6125 111.97 83.2725 111.49C83.9445 111.01 84.2805 110.35 84.2805 109.51C84.2805 109.018 84.1605 108.622 83.9205 108.322C83.6925 108.01 83.2065 107.716 82.4625 107.44C81.7185 107.164 80.5845 106.822 79.0605 106.414C77.3925 105.982 76.0665 105.52 75.0825 105.028C74.1105 104.524 73.4145 103.942 72.9945 103.282C72.5865 102.61 72.3825 101.8 72.3825 100.852C72.3825 99.676 72.6945 98.65 73.3185 97.774C73.9425 96.898 74.8185 96.22 75.9465 95.74C77.0865 95.26 78.4185 95.02 79.9425 95.02C81.4305 95.02 82.7565 95.254 83.9205 95.722C85.0845 96.19 86.0265 96.856 86.7465 97.72C87.4665 98.572 87.8985 99.574 88.0425 100.726L84.1905 101.428C84.0585 100.492 83.6205 99.754 82.8765 99.214C82.1325 98.674 81.1665 98.38 79.9785 98.332C78.8385 98.284 77.9145 98.476 77.2065 98.908C76.4985 99.328 76.1445 99.91 76.1445 100.654C76.1445 101.086 76.2765 101.452 76.5405 101.752C76.8165 102.052 77.3445 102.34 78.1245 102.616C78.9045 102.892 80.0565 103.222 81.5805 103.606C83.2125 104.026 84.5085 104.494 85.4685 105.01C86.4285 105.514 87.1125 106.12 87.5205 106.828C87.9405 107.524 88.1505 108.37 88.1505 109.366C88.1505 111.286 87.4485 112.792 86.0445 113.884C84.6525 114.976 82.7265 115.522 80.2665 115.522ZM103.257 115C102.033 115.24 100.833 115.342 99.6573 115.306C98.4813 115.27 97.4313 115.042 96.5073 114.622C95.5833 114.202 94.8873 113.542 94.4193 112.642C93.9993 111.838 93.7713 111.022 93.7353 110.194C93.7113 109.354 93.6993 108.406 93.6993 107.35V90.16H97.4793V107.17C97.4793 107.95 97.4853 108.628 97.4973 109.204C97.5213 109.78 97.6473 110.266 97.8753 110.662C98.3073 111.406 98.9913 111.832 99.9273 111.94C100.875 112.036 101.985 111.994 103.257 111.814V115ZM89.9733 98.584V95.56H103.257V98.584H89.9733ZM107.356 115V95.56H110.704V100.276L110.236 99.664C110.476 99.04 110.788 98.47 111.172 97.954C111.556 97.426 112 96.994 112.504 96.658C112.996 96.298 113.542 96.022 114.142 95.83C114.754 95.626 115.378 95.506 116.014 95.47C116.65 95.422 117.262 95.452 117.85 95.56V99.088C117.214 98.92 116.506 98.872 115.726 98.944C114.958 99.016 114.25 99.262 113.602 99.682C112.99 100.078 112.504 100.558 112.144 101.122C111.796 101.686 111.544 102.316 111.388 103.012C111.232 103.696 111.154 104.422 111.154 105.19V115H107.356ZM121.638 92.374V88.72H125.4V92.374H121.638ZM121.638 115V95.56H125.4V115H121.638ZM139.931 115.54C138.071 115.54 136.511 115.09 135.251 114.19C133.991 113.278 133.037 112.048 132.389 110.5C131.741 108.952 131.417 107.206 131.417 105.262C131.417 103.318 131.735 101.572 132.371 100.024C133.019 98.476 133.967 97.258 135.215 96.37C136.475 95.47 138.023 95.02 139.859 95.02C141.683 95.02 143.255 95.47 144.575 96.37C145.907 97.258 146.933 98.476 147.653 100.024C148.373 101.56 148.733 103.306 148.733 105.262C148.733 107.206 148.373 108.958 147.653 110.518C146.945 112.066 145.931 113.29 144.611 114.19C143.303 115.09 141.743 115.54 139.931 115.54ZM130.787 115V89.08H134.567V101.014H134.135V115H130.787ZM139.409 112.138C140.609 112.138 141.599 111.832 142.379 111.22C143.171 110.608 143.759 109.786 144.143 108.754C144.539 107.71 144.737 106.546 144.737 105.262C144.737 103.99 144.539 102.838 144.143 101.806C143.759 100.774 143.165 99.952 142.361 99.34C141.557 98.728 140.531 98.422 139.283 98.422C138.107 98.422 137.135 98.71 136.367 99.286C135.611 99.862 135.047 100.666 134.675 101.698C134.315 102.73 134.135 103.918 134.135 105.262C134.135 106.606 134.315 107.794 134.675 108.826C135.035 109.858 135.605 110.668 136.385 111.256C137.165 111.844 138.173 112.138 139.409 112.138ZM160.034 115.522C158.69 115.522 157.562 115.306 156.65 114.874C155.738 114.442 154.994 113.878 154.418 113.182C153.854 112.474 153.422 111.706 153.122 110.878C152.822 110.05 152.618 109.24 152.51 108.448C152.402 107.656 152.348 106.96 152.348 106.36V95.56H156.164V105.118C156.164 105.874 156.224 106.654 156.344 107.458C156.476 108.25 156.716 108.988 157.064 109.672C157.424 110.356 157.922 110.908 158.558 111.328C159.206 111.748 160.046 111.958 161.078 111.958C161.75 111.958 162.386 111.85 162.986 111.634C163.586 111.406 164.108 111.046 164.552 110.554C165.008 110.062 165.362 109.414 165.614 108.61C165.878 107.806 166.01 106.828 166.01 105.676L168.35 106.558C168.35 108.322 168.02 109.882 167.36 111.238C166.7 112.582 165.752 113.632 164.516 114.388C163.28 115.144 161.786 115.522 160.034 115.522ZM166.46 115V109.384H166.01V95.56H169.808V115H166.46ZM185.98 115C184.756 115.24 183.556 115.342 182.38 115.306C181.204 115.27 180.154 115.042 179.23 114.622C178.306 114.202 177.61 113.542 177.142 112.642C176.722 111.838 176.494 111.022 176.458 110.194C176.434 109.354 176.422 108.406 176.422 107.35V90.16H180.202V107.17C180.202 107.95 180.208 108.628 180.22 109.204C180.244 109.78 180.37 110.266 180.598 110.662C181.03 111.406 181.714 111.832 182.65 111.94C183.598 112.036 184.708 111.994 185.98 111.814V115ZM172.696 98.584V95.56H185.98V98.584H172.696ZM190.439 92.374V88.72H194.201V92.374H190.439ZM190.439 115V95.56H194.201V115H190.439ZM208.048 115.54C206.104 115.54 204.418 115.102 202.99 114.226C201.562 113.35 200.458 112.144 199.678 110.608C198.91 109.06 198.526 107.278 198.526 105.262C198.526 103.234 198.922 101.452 199.714 99.916C200.506 98.368 201.616 97.168 203.044 96.316C204.472 95.452 206.14 95.02 208.048 95.02C209.992 95.02 211.678 95.458 213.106 96.334C214.534 97.21 215.638 98.416 216.418 99.952C217.198 101.488 217.588 103.258 217.588 105.262C217.588 107.29 217.192 109.078 216.4 110.626C215.62 112.162 214.516 113.368 213.088 114.244C211.66 115.108 209.98 115.54 208.048 115.54ZM208.048 111.994C209.908 111.994 211.294 111.37 212.206 110.122C213.13 108.862 213.592 107.242 213.592 105.262C213.592 103.234 213.124 101.614 212.188 100.402C211.264 99.178 209.884 98.566 208.048 98.566C206.788 98.566 205.75 98.854 204.934 99.43C204.118 99.994 203.512 100.78 203.116 101.788C202.72 102.784 202.522 103.942 202.522 105.262C202.522 107.302 202.99 108.934 203.926 110.158C204.862 111.382 206.236 111.994 208.048 111.994ZM235.187 115V105.442C235.187 104.686 235.121 103.912 234.989 103.12C234.869 102.316 234.629 101.572 234.269 100.888C233.921 100.204 233.423 99.652 232.775 99.232C232.139 98.812 231.305 98.602 230.273 98.602C229.601 98.602 228.965 98.716 228.365 98.944C227.765 99.16 227.237 99.514 226.781 100.006C226.337 100.498 225.983 101.146 225.719 101.95C225.467 102.754 225.341 103.732 225.341 104.884L223.001 104.002C223.001 102.238 223.331 100.684 223.991 99.34C224.651 97.984 225.599 96.928 226.835 96.172C228.071 95.416 229.565 95.038 231.317 95.038C232.661 95.038 233.789 95.254 234.701 95.686C235.613 96.118 236.351 96.688 236.915 97.396C237.491 98.092 237.929 98.854 238.229 99.682C238.529 100.51 238.733 101.32 238.841 102.112C238.949 102.904 239.003 103.6 239.003 104.2V115H235.187ZM221.525 115V95.56H224.891V101.176H225.341V115H221.525ZM259.341 115.54C257.397 115.54 255.711 115.102 254.283 114.226C252.855 113.35 251.751 112.144 250.971 110.608C250.203 109.06 249.819 107.278 249.819 105.262C249.819 103.234 250.215 101.452 251.007 99.916C251.799 98.368 252.909 97.168 254.337 96.316C255.765 95.452 257.433 95.02 259.341 95.02C261.285 95.02 262.971 95.458 264.399 96.334C265.827 97.21 266.931 98.416 267.711 99.952C268.491 101.488 268.881 103.258 268.881 105.262C268.881 107.29 268.485 109.078 267.693 110.626C266.913 112.162 265.809 113.368 264.381 114.244C262.953 115.108 261.273 115.54 259.341 115.54ZM259.341 111.994C261.201 111.994 262.587 111.37 263.499 110.122C264.423 108.862 264.885 107.242 264.885 105.262C264.885 103.234 264.417 101.614 263.481 100.402C262.557 99.178 261.177 98.566 259.341 98.566C258.081 98.566 257.043 98.854 256.227 99.43C255.411 99.994 254.805 100.78 254.409 101.788C254.013 102.784 253.815 103.942 253.815 105.262C253.815 107.302 254.283 108.934 255.219 110.158C256.155 111.382 257.529 111.994 259.341 111.994ZM274.618 115V94.876C274.618 94.384 274.636 93.862 274.672 93.31C274.708 92.746 274.81 92.194 274.978 91.654C275.158 91.102 275.452 90.598 275.86 90.142C276.352 89.602 276.892 89.218 277.48 88.99C278.068 88.762 278.65 88.63 279.226 88.594C279.814 88.558 280.354 88.54 280.846 88.54H283.294V91.636H281.026C280.138 91.636 279.472 91.858 279.028 92.302C278.596 92.734 278.38 93.352 278.38 94.156V115H274.618ZM271.396 98.584V95.56H283.294V98.584H271.396ZM301.054 115.54C299.722 115.54 298.48 115.27 297.328 114.73C296.188 114.178 295.21 113.422 294.394 112.462C293.578 111.49 292.996 110.374 292.648 109.114L296.266 108.142C296.47 108.91 296.818 109.576 297.31 110.14C297.814 110.704 298.402 111.142 299.074 111.454C299.746 111.754 300.442 111.904 301.162 111.904C302.11 111.904 302.968 111.676 303.736 111.22C304.516 110.764 305.128 110.152 305.572 109.384C306.028 108.616 306.256 107.77 306.256 106.846C306.256 105.898 306.022 105.04 305.554 104.272C305.098 103.504 304.48 102.898 303.7 102.454C302.932 101.998 302.086 101.77 301.162 101.77C300.106 101.77 299.212 101.98 298.48 102.4C297.748 102.82 297.178 103.306 296.77 103.858L293.494 102.706L294.286 89.08H308.272V92.626H296.212L297.742 91.204L297.112 101.41L296.374 100.456C297.058 99.772 297.874 99.25 298.822 98.89C299.77 98.53 300.712 98.35 301.648 98.35C303.256 98.35 304.69 98.722 305.95 99.466C307.222 100.21 308.224 101.224 308.956 102.508C309.688 103.78 310.054 105.226 310.054 106.846C310.054 108.454 309.64 109.918 308.812 111.238C307.984 112.546 306.886 113.59 305.518 114.37C304.15 115.15 302.662 115.54 301.054 115.54ZM323.392 115.54C321.628 115.54 320.068 115.156 318.712 114.388C317.356 113.608 316.288 112.54 315.508 111.184C314.74 109.828 314.356 108.268 314.356 106.504V97.576C314.356 95.812 314.74 94.252 315.508 92.896C316.288 91.54 317.356 90.478 318.712 89.71C320.068 88.93 321.628 88.54 323.392 88.54C325.156 88.54 326.716 88.93 328.072 89.71C329.428 90.478 330.49 91.54 331.258 92.896C332.038 94.252 332.428 95.812 332.428 97.576V106.504C332.428 108.268 332.038 109.828 331.258 111.184C330.49 112.54 329.428 113.608 328.072 114.388C326.716 115.156 325.156 115.54 323.392 115.54ZM323.392 111.94C324.352 111.94 325.222 111.712 326.002 111.256C326.794 110.788 327.424 110.164 327.892 109.384C328.36 108.592 328.594 107.71 328.594 106.738V97.306C328.594 96.346 328.36 95.476 327.892 94.696C327.424 93.904 326.794 93.28 326.002 92.824C325.222 92.356 324.352 92.122 323.392 92.122C322.432 92.122 321.556 92.356 320.764 92.824C319.984 93.28 319.36 93.904 318.892 94.696C318.424 95.476 318.19 96.346 318.19 97.306V106.738C318.19 107.71 318.424 108.592 318.892 109.384C319.36 110.164 319.984 110.788 320.764 111.256C321.556 111.712 322.432 111.94 323.392 111.94ZM344.661 115V89.08H348.063L357.459 108.574L366.801 89.08H370.239V114.982H366.675V97.252L358.305 115H356.595L348.207 97.252V115H344.661ZM8.982 159V136.626H0.36V133.08H21.366V136.626H12.744V159H8.982ZM29.7796 159.522C28.4356 159.522 27.3076 159.306 26.3956 158.874C25.4836 158.442 24.7396 157.878 24.1636 157.182C23.5996 156.474 23.1676 155.706 22.8676 154.878C22.5676 154.05 22.3636 153.24 22.2556 152.448C22.1476 151.656 22.0936 150.96 22.0936 150.36V139.56H25.9096V149.118C25.9096 149.874 25.9696 150.654 26.0896 151.458C26.2216 152.25 26.4616 152.988 26.8096 153.672C27.1696 154.356 27.6676 154.908 28.3036 155.328C28.9516 155.748 29.7916 155.958 30.8236 155.958C31.4956 155.958 32.1316 155.85 32.7316 155.634C33.3316 155.406 33.8536 155.046 34.2976 154.554C34.7536 154.062 35.1076 153.414 35.3596 152.61C35.6236 151.806 35.7556 150.828 35.7556 149.676L38.0956 150.558C38.0956 152.322 37.7656 153.882 37.1056 155.238C36.4456 156.582 35.4976 157.632 34.2616 158.388C33.0256 159.144 31.5316 159.522 29.7796 159.522ZM36.2056 159V153.384H35.7556V139.56H39.5536V159H36.2056ZM44.602 159V139.56H47.95V144.276L47.482 143.664C47.722 143.04 48.034 142.47 48.418 141.954C48.802 141.426 49.246 140.994 49.75 140.658C50.242 140.298 50.788 140.022 51.388 139.83C52 139.626 52.624 139.506 53.26 139.47C53.896 139.422 54.508 139.452 55.096 139.56V143.088C54.46 142.92 53.752 142.872 52.972 142.944C52.204 143.016 51.496 143.262 50.848 143.682C50.236 144.078 49.75 144.558 49.39 145.122C49.042 145.686 48.79 146.316 48.634 147.012C48.478 147.696 48.4 148.422 48.4 149.19V159H44.602ZM67.6499 159.54C65.7899 159.54 64.2299 159.09 62.9699 158.19C61.7099 157.278 60.7559 156.048 60.1079 154.5C59.4599 152.952 59.1359 151.206 59.1359 149.262C59.1359 147.318 59.4539 145.572 60.0899 144.024C60.7379 142.476 61.6859 141.258 62.9339 140.37C64.1939 139.47 65.7419 139.02 67.5779 139.02C69.4019 139.02 70.9739 139.47 72.2939 140.37C73.6259 141.258 74.6519 142.476 75.3719 144.024C76.0919 145.56 76.4519 147.306 76.4519 149.262C76.4519 151.206 76.0919 152.958 75.3719 154.518C74.6639 156.066 73.6499 157.29 72.3299 158.19C71.0219 159.09 69.4619 159.54 67.6499 159.54ZM58.5059 159V133.08H62.2859V145.014H61.8539V159H58.5059ZM67.1279 156.138C68.3279 156.138 69.3179 155.832 70.0979 155.22C70.8899 154.608 71.4779 153.786 71.8619 152.754C72.2579 151.71 72.4559 150.546 72.4559 149.262C72.4559 147.99 72.2579 146.838 71.8619 145.806C71.4779 144.774 70.8839 143.952 70.0799 143.34C69.2759 142.728 68.2499 142.422 67.0019 142.422C65.8259 142.422 64.8539 142.71 64.0859 143.286C63.3299 143.862 62.7659 144.666 62.3939 145.698C62.0339 146.73 61.8539 147.918 61.8539 149.262C61.8539 150.606 62.0339 151.794 62.3939 152.826C62.7539 153.858 63.3239 154.668 64.1039 155.256C64.8839 155.844 65.8919 156.138 67.1279 156.138ZM88.8683 159.54C86.9243 159.54 85.2383 159.102 83.8103 158.226C82.3823 157.35 81.2783 156.144 80.4983 154.608C79.7303 153.06 79.3463 151.278 79.3463 149.262C79.3463 147.234 79.7423 145.452 80.5343 143.916C81.3263 142.368 82.4363 141.168 83.8643 140.316C85.2923 139.452 86.9603 139.02 88.8683 139.02C90.8123 139.02 92.4983 139.458 93.9263 140.334C95.3543 141.21 96.4583 142.416 97.2383 143.952C98.0183 145.488 98.4083 147.258 98.4083 149.262C98.4083 151.29 98.0123 153.078 97.2203 154.626C96.4403 156.162 95.3363 157.368 93.9083 158.244C92.4803 159.108 90.8003 159.54 88.8683 159.54ZM88.8683 155.994C90.7283 155.994 92.1143 155.37 93.0263 154.122C93.9503 152.862 94.4123 151.242 94.4123 149.262C94.4123 147.234 93.9443 145.614 93.0083 144.402C92.0843 143.178 90.7043 142.566 88.8683 142.566C87.6083 142.566 86.5703 142.854 85.7543 143.43C84.9383 143.994 84.3323 144.78 83.9363 145.788C83.5403 146.784 83.3423 147.942 83.3423 149.262C83.3423 151.302 83.8103 152.934 84.7463 154.158C85.6823 155.382 87.0563 155.994 88.8683 155.994ZM106.681 159V136.626H98.0592V133.08H119.065V136.626H110.443V159H106.681ZM132.764 159.54C130.172 159.54 127.964 158.976 126.14 157.848C124.316 156.708 122.918 155.124 121.946 153.096C120.986 151.068 120.506 148.716 120.506 146.04C120.506 143.364 120.986 141.012 121.946 138.984C122.918 136.956 124.316 135.378 126.14 134.25C127.964 133.11 130.172 132.54 132.764 132.54C135.344 132.54 137.546 133.11 139.37 134.25C141.206 135.378 142.604 136.956 143.564 138.984C144.524 141.012 145.004 143.364 145.004 146.04C145.004 148.716 144.524 151.068 143.564 153.096C142.604 155.124 141.206 156.708 139.37 157.848C137.546 158.976 135.344 159.54 132.764 159.54ZM132.764 155.958C134.6 155.982 136.124 155.58 137.336 154.752C138.56 153.912 139.478 152.748 140.09 151.26C140.702 149.76 141.008 148.02 141.008 146.04C141.008 144.06 140.702 142.332 140.09 140.856C139.478 139.368 138.56 138.21 137.336 137.382C136.124 136.554 134.6 136.134 132.764 136.122C130.928 136.098 129.398 136.5 128.174 137.328C126.962 138.156 126.05 139.32 125.438 140.82C124.826 142.32 124.514 144.06 124.502 146.04C124.49 148.02 124.79 149.754 125.402 151.242C126.014 152.718 126.932 153.87 128.156 154.698C129.392 155.526 130.928 155.946 132.764 155.958ZM148.594 159V133.08H152.41L165.172 152.34V133.08H168.988V159H165.172L152.41 139.722V159H148.594ZM192.343 159C191.119 159.24 189.919 159.342 188.743 159.306C187.567 159.27 186.517 159.042 185.593 158.622C184.669 158.202 183.973 157.542 183.505 156.642C183.085 155.838 182.857 155.022 182.821 154.194C182.797 153.354 182.785 152.406 182.785 151.35V134.16H186.565V151.17C186.565 151.95 186.571 152.628 186.583 153.204C186.607 153.78 186.733 154.266 186.961 154.662C187.393 155.406 188.077 155.832 189.013 155.94C189.961 156.036 191.071 155.994 192.343 155.814V159ZM179.059 142.584V139.56H192.343V142.584H179.059ZM203.97 159.54C202.026 159.54 200.34 159.102 198.912 158.226C197.484 157.35 196.38 156.144 195.6 154.608C194.832 153.06 194.448 151.278 194.448 149.262C194.448 147.234 194.844 145.452 195.636 143.916C196.428 142.368 197.538 141.168 198.966 140.316C200.394 139.452 202.062 139.02 203.97 139.02C205.914 139.02 207.6 139.458 209.028 140.334C210.456 141.21 211.56 142.416 212.34 143.952C213.12 145.488 213.51 147.258 213.51 149.262C213.51 151.29 213.114 153.078 212.322 154.626C211.542 156.162 210.438 157.368 209.01 158.244C207.582 159.108 205.902 159.54 203.97 159.54ZM203.97 155.994C205.83 155.994 207.216 155.37 208.128 154.122C209.052 152.862 209.514 151.242 209.514 149.262C209.514 147.234 209.046 145.614 208.11 144.402C207.186 143.178 205.806 142.566 203.97 142.566C202.71 142.566 201.672 142.854 200.856 143.43C200.04 143.994 199.434 144.78 199.038 145.788C198.642 146.784 198.444 147.942 198.444 149.262C198.444 151.302 198.912 152.934 199.848 154.158C200.784 155.382 202.158 155.994 203.97 155.994ZM217.447 159L217.465 133.08H221.281V148.92L228.913 139.56H233.701L225.637 149.28L234.529 159H229.417L221.281 149.64V159H217.447ZM244.615 159.54C242.683 159.54 240.985 159.12 239.521 158.28C238.069 157.428 236.935 156.246 236.119 154.734C235.315 153.21 234.913 151.446 234.913 149.442C234.913 147.318 235.309 145.476 236.101 143.916C236.905 142.356 238.021 141.15 239.449 140.298C240.877 139.446 242.539 139.02 244.435 139.02C246.415 139.02 248.101 139.482 249.493 140.406C250.885 141.318 251.923 142.62 252.607 144.312C253.303 146.004 253.579 148.014 253.435 150.342H249.673V148.974C249.649 146.718 249.217 145.05 248.377 143.97C247.549 142.89 246.283 142.35 244.579 142.35C242.695 142.35 241.279 142.944 240.331 144.132C239.383 145.32 238.909 147.036 238.909 149.28C238.909 151.416 239.383 153.072 240.331 154.248C241.279 155.412 242.647 155.994 244.435 155.994C245.611 155.994 246.625 155.73 247.477 155.202C248.341 154.662 249.013 153.894 249.493 152.898L253.183 154.068C252.427 155.808 251.281 157.158 249.745 158.118C248.209 159.066 246.499 159.54 244.615 159.54ZM237.685 150.342V147.408H251.563V150.342H237.685ZM270.59 159V149.442C270.59 148.686 270.524 147.912 270.392 147.12C270.272 146.316 270.032 145.572 269.672 144.888C269.324 144.204 268.826 143.652 268.178 143.232C267.542 142.812 266.708 142.602 265.676 142.602C265.004 142.602 264.368 142.716 263.768 142.944C263.168 143.16 262.64 143.514 262.184 144.006C261.74 144.498 261.386 145.146 261.122 145.95C260.87 146.754 260.744 147.732 260.744 148.884L258.404 148.002C258.404 146.238 258.734 144.684 259.394 143.34C260.054 141.984 261.002 140.928 262.238 140.172C263.474 139.416 264.968 139.038 266.72 139.038C268.064 139.038 269.192 139.254 270.104 139.686C271.016 140.118 271.754 140.688 272.318 141.396C272.894 142.092 273.332 142.854 273.632 143.682C273.932 144.51 274.136 145.32 274.244 146.112C274.352 146.904 274.406 147.6 274.406 148.2V159H270.59ZM256.928 159V139.56H260.294V145.176H260.744V159H256.928ZM286.528 159.522C284.164 159.522 282.238 159 280.75 157.956C279.262 156.912 278.35 155.442 278.014 153.546L281.866 152.952C282.106 153.96 282.658 154.758 283.522 155.346C284.398 155.922 285.484 156.21 286.78 156.21C287.956 156.21 288.874 155.97 289.534 155.49C290.206 155.01 290.542 154.35 290.542 153.51C290.542 153.018 290.422 152.622 290.182 152.322C289.954 152.01 289.468 151.716 288.724 151.44C287.98 151.164 286.846 150.822 285.322 150.414C283.654 149.982 282.328 149.52 281.344 149.028C280.372 148.524 279.676 147.942 279.256 147.282C278.848 146.61 278.644 145.8 278.644 144.852C278.644 143.676 278.956 142.65 279.58 141.774C280.204 140.898 281.08 140.22 282.208 139.74C283.348 139.26 284.68 139.02 286.204 139.02C287.692 139.02 289.018 139.254 290.182 139.722C291.346 140.19 292.288 140.856 293.008 141.72C293.728 142.572 294.16 143.574 294.304 144.726L290.452 145.428C290.32 144.492 289.882 143.754 289.138 143.214C288.394 142.674 287.428 142.38 286.24 142.332C285.1 142.284 284.176 142.476 283.468 142.908C282.76 143.328 282.406 143.91 282.406 144.654C282.406 145.086 282.538 145.452 282.802 145.752C283.078 146.052 283.606 146.34 284.386 146.616C285.166 146.892 286.318 147.222 287.842 147.606C289.474 148.026 290.77 148.494 291.73 149.01C292.69 149.514 293.374 150.12 293.782 150.828C294.202 151.524 294.412 152.37 294.412 153.366C294.412 155.286 293.71 156.792 292.306 157.884C290.914 158.976 288.988 159.522 286.528 159.522Z" fill="white"/>
</svg>
