<svg width="298" height="59" viewBox="0 0 298 59" fill="none" xmlns="http://www.w3.org/2000/svg">
<g filter="url(#filter0_d_832_2916)">
<path d="M14.5969 44V15.2H23.6169C23.8835 15.2 24.3769 15.2067 25.0969 15.22C25.8302 15.2333 26.5302 15.2867 27.1969 15.38C29.4502 15.66 31.3435 16.4667 32.8769 17.8C34.4235 19.1333 35.5902 20.8267 36.3769 22.88C37.1635 24.92 37.5569 27.16 37.5569 29.6C37.5569 32.0533 37.1635 34.3067 36.3769 36.36C35.5902 38.4 34.4235 40.0867 32.8769 41.42C31.3435 42.74 29.4502 43.54 27.1969 43.82C26.5302 43.9133 25.8302 43.9667 25.0969 43.98C24.3769 43.9933 23.8835 44 23.6169 44H14.5969ZM18.8769 40.02H23.6169C24.0702 40.02 24.6102 40.0067 25.2369 39.98C25.8635 39.9533 26.4169 39.9 26.8969 39.82C28.3635 39.54 29.5502 38.9067 30.4569 37.92C31.3769 36.92 32.0502 35.6933 32.4769 34.24C32.9035 32.7867 33.1169 31.24 33.1169 29.6C33.1169 27.9067 32.8969 26.34 32.4569 24.9C32.0169 23.4467 31.3369 22.2333 30.4169 21.26C29.5102 20.2733 28.3369 19.6467 26.8969 19.38C26.4169 19.2867 25.8569 19.2333 25.2169 19.22C24.5902 19.1933 24.0569 19.18 23.6169 19.18H18.8769V40.02ZM42.6141 18.86V14.8H46.7941V18.86H42.6141ZM42.6141 44V22.4H46.7941V44H42.6141ZM58.9 44.6C57.3 44.6 55.96 44.3067 54.88 43.72C53.8 43.12 52.98 42.3333 52.42 41.36C51.8733 40.3733 51.6 39.2933 51.6 38.12C51.6 37.0267 51.7933 36.0667 52.18 35.24C52.5667 34.4133 53.14 33.7133 53.9 33.14C54.66 32.5533 55.5933 32.08 56.7 31.72C57.66 31.44 58.7467 31.1933 59.96 30.98C61.1733 30.7667 62.4467 30.5667 63.78 30.38C65.1267 30.1933 66.46 30.0067 67.78 29.82L66.26 30.66C66.2867 28.9667 65.9267 27.7133 65.18 26.9C64.4467 26.0733 63.18 25.66 61.38 25.66C60.2467 25.66 59.2067 25.9267 58.26 26.46C57.3133 26.98 56.6533 27.8467 56.28 29.06L52.38 27.86C52.9133 26.0067 53.9267 24.5333 55.42 23.44C56.9267 22.3467 58.9267 21.8 61.42 21.8C63.3533 21.8 65.0333 22.1333 66.46 22.8C67.9 23.4533 68.9533 24.4933 69.62 25.92C69.9667 26.6267 70.18 27.3733 70.26 28.16C70.34 28.9467 70.38 29.7933 70.38 30.7V44H66.68V39.06L67.4 39.7C66.5067 41.3533 65.3667 42.5867 63.98 43.4C62.6067 44.2 60.9133 44.6 58.9 44.6ZM59.64 41.18C60.8267 41.18 61.8467 40.9733 62.7 40.56C63.5533 40.1333 64.24 39.5933 64.76 38.94C65.28 38.2867 65.62 37.6067 65.78 36.9C66.0067 36.26 66.1333 35.54 66.16 34.74C66.2 33.94 66.22 33.3 66.22 32.82L67.58 33.32C66.26 33.52 65.06 33.7 63.98 33.86C62.9 34.02 61.92 34.18 61.04 34.34C60.1733 34.4867 59.4 34.6667 58.72 34.88C58.1467 35.08 57.6333 35.32 57.18 35.6C56.74 35.88 56.3867 36.22 56.12 36.62C55.8667 37.02 55.74 37.5067 55.74 38.08C55.74 38.64 55.88 39.16 56.16 39.64C56.44 40.1067 56.8667 40.48 57.44 40.76C58.0133 41.04 58.7467 41.18 59.64 41.18ZM101.453 44L101.473 30.54C101.473 28.98 101.073 27.7667 100.273 26.9C99.4734 26.02 98.4201 25.58 97.1134 25.58C96.3134 25.58 95.5801 25.7667 94.9134 26.14C94.2601 26.5 93.7268 27.0467 93.3134 27.78C92.9134 28.5 92.7134 29.4067 92.7134 30.5L90.6934 29.48C90.6668 27.96 90.9868 26.6267 91.6534 25.48C92.3334 24.3333 93.2534 23.4467 94.4134 22.82C95.5734 22.18 96.8734 21.86 98.3134 21.86C100.647 21.86 102.453 22.56 103.733 23.96C105.013 25.36 105.653 27.22 105.653 29.54L105.633 44H101.453ZM75.5534 44V22.4H79.2734V28.64H79.7534V44H75.5534ZM88.5134 44L88.5334 30.62C88.5334 29.0467 88.1334 27.8133 87.3334 26.92C86.5468 26.0267 85.4868 25.58 84.1534 25.58C82.8334 25.58 81.7668 26.0333 80.9534 26.94C80.1534 27.8467 79.7534 29.0333 79.7534 30.5L77.7534 29.22C77.7534 27.8067 78.0934 26.5467 78.7734 25.44C79.4534 24.3333 80.3734 23.46 81.5334 22.82C82.6934 22.18 84.0068 21.86 85.4734 21.86C87.0068 21.86 88.3134 22.1867 89.3934 22.84C90.4734 23.48 91.2934 24.38 91.8534 25.54C92.4268 26.7 92.7134 28.0467 92.7134 29.58L92.6934 44H88.5134ZM119.953 44.6C117.793 44.6 115.92 44.1133 114.333 43.14C112.747 42.1667 111.52 40.8267 110.653 39.12C109.8 37.4 109.373 35.42 109.373 33.18C109.373 30.9267 109.813 28.9467 110.693 27.24C111.573 25.52 112.807 24.1867 114.393 23.24C115.98 22.28 117.833 21.8 119.953 21.8C122.113 21.8 123.987 22.2867 125.573 23.26C127.16 24.2333 128.387 25.5733 129.253 27.28C130.12 28.9867 130.553 30.9533 130.553 33.18C130.553 35.4333 130.113 37.42 129.233 39.14C128.367 40.8467 127.14 42.1867 125.553 43.16C123.967 44.12 122.1 44.6 119.953 44.6ZM119.953 40.66C122.02 40.66 123.56 39.9667 124.573 38.58C125.6 37.18 126.113 35.38 126.113 33.18C126.113 30.9267 125.593 29.1267 124.553 27.78C123.527 26.42 121.993 25.74 119.953 25.74C118.553 25.74 117.4 26.06 116.493 26.7C115.587 27.3267 114.913 28.2 114.473 29.32C114.033 30.4267 113.813 31.7133 113.813 33.18C113.813 35.4467 114.333 37.26 115.373 38.62C116.413 39.98 117.94 40.66 119.953 40.66ZM150.108 44V33.38C150.108 32.54 150.035 31.68 149.888 30.8C149.755 29.9067 149.488 29.08 149.088 28.32C148.702 27.56 148.148 26.9467 147.428 26.48C146.722 26.0133 145.795 25.78 144.648 25.78C143.902 25.78 143.195 25.9067 142.528 26.16C141.862 26.4 141.275 26.7933 140.768 27.34C140.275 27.8867 139.882 28.6067 139.588 29.5C139.308 30.3933 139.168 31.48 139.168 32.76L136.568 31.78C136.568 29.82 136.935 28.0933 137.668 26.6C138.402 25.0933 139.455 23.92 140.828 23.08C142.202 22.24 143.862 21.82 145.808 21.82C147.302 21.82 148.555 22.06 149.568 22.54C150.582 23.02 151.402 23.6533 152.028 24.44C152.668 25.2133 153.155 26.06 153.488 26.98C153.822 27.9 154.048 28.8 154.168 29.68C154.288 30.56 154.348 31.3333 154.348 32V44H150.108ZM134.928 44V22.4H138.668V28.64H139.168V44H134.928ZM167.864 44.6C165.851 44.6 164.111 44.1 162.644 43.1C161.191 42.1 160.064 40.74 159.264 39.02C158.478 37.2867 158.084 35.34 158.084 33.18C158.084 31.0067 158.484 29.0667 159.284 27.36C160.084 25.64 161.218 24.2867 162.684 23.3C164.164 22.3 165.918 21.8 167.944 21.8C169.984 21.8 171.698 22.3 173.084 23.3C174.484 24.2867 175.538 25.64 176.244 27.36C176.964 29.08 177.324 31.02 177.324 33.18C177.324 35.34 176.964 37.28 176.244 39C175.524 40.72 174.464 42.0867 173.064 43.1C171.664 44.1 169.931 44.6 167.864 44.6ZM168.444 40.82C169.818 40.82 170.938 40.4933 171.804 39.84C172.671 39.1867 173.304 38.2867 173.704 37.14C174.104 35.9933 174.304 34.6733 174.304 33.18C174.304 31.6867 174.098 30.3667 173.684 29.22C173.284 28.0733 172.658 27.18 171.804 26.54C170.964 25.9 169.891 25.58 168.584 25.58C167.198 25.58 166.058 25.92 165.164 26.6C164.271 27.28 163.604 28.1933 163.164 29.34C162.738 30.4867 162.524 31.7667 162.524 33.18C162.524 34.6067 162.738 35.9 163.164 37.06C163.604 38.2067 164.258 39.12 165.124 39.8C166.004 40.48 167.111 40.82 168.444 40.82ZM174.304 44V28.46H173.824V15.2H178.024V44H174.304ZM191.628 44V15.2H203.268C203.548 15.2 203.895 15.2133 204.308 15.24C204.721 15.2533 205.115 15.2933 205.488 15.36C207.088 15.6133 208.421 16.16 209.488 17C210.568 17.84 211.375 18.9 211.908 20.18C212.441 21.46 212.708 22.8733 212.708 24.42C212.708 26.7133 212.121 28.6933 210.948 30.36C209.775 32.0133 208.015 33.0467 205.668 33.46L203.968 33.66H195.808V44H191.628ZM208.468 44L202.788 32.28L207.008 31.2L213.248 44H208.468ZM195.808 29.7H203.108C203.375 29.7 203.668 29.6867 203.988 29.66C204.321 29.6333 204.635 29.5867 204.928 29.52C205.781 29.32 206.468 28.9533 206.988 28.42C207.508 27.8733 207.881 27.2467 208.108 26.54C208.335 25.8333 208.448 25.1267 208.448 24.42C208.448 23.7133 208.335 23.0133 208.108 22.32C207.881 21.6133 207.508 20.9933 206.988 20.46C206.468 19.9133 205.781 19.54 204.928 19.34C204.635 19.26 204.321 19.2067 203.988 19.18C203.668 19.1533 203.375 19.14 203.108 19.14H195.808V29.7ZM223.744 44.6C222.144 44.6 220.804 44.3067 219.724 43.72C218.644 43.12 217.824 42.3333 217.264 41.36C216.717 40.3733 216.444 39.2933 216.444 38.12C216.444 37.0267 216.637 36.0667 217.024 35.24C217.41 34.4133 217.984 33.7133 218.744 33.14C219.504 32.5533 220.437 32.08 221.544 31.72C222.504 31.44 223.59 31.1933 224.804 30.98C226.017 30.7667 227.29 30.5667 228.624 30.38C229.97 30.1933 231.304 30.0067 232.624 29.82L231.104 30.66C231.13 28.9667 230.77 27.7133 230.024 26.9C229.29 26.0733 228.024 25.66 226.224 25.66C225.09 25.66 224.05 25.9267 223.104 26.46C222.157 26.98 221.497 27.8467 221.124 29.06L217.224 27.86C217.757 26.0067 218.77 24.5333 220.264 23.44C221.77 22.3467 223.77 21.8 226.264 21.8C228.197 21.8 229.877 22.1333 231.304 22.8C232.744 23.4533 233.797 24.4933 234.464 25.92C234.81 26.6267 235.024 27.3733 235.104 28.16C235.184 28.9467 235.224 29.7933 235.224 30.7V44H231.524V39.06L232.244 39.7C231.35 41.3533 230.21 42.5867 228.824 43.4C227.45 44.2 225.757 44.6 223.744 44.6ZM224.484 41.18C225.67 41.18 226.69 40.9733 227.544 40.56C228.397 40.1333 229.084 39.5933 229.604 38.94C230.124 38.2867 230.464 37.6067 230.624 36.9C230.85 36.26 230.977 35.54 231.004 34.74C231.044 33.94 231.064 33.3 231.064 32.82L232.424 33.32C231.104 33.52 229.904 33.7 228.824 33.86C227.744 34.02 226.764 34.18 225.884 34.34C225.017 34.4867 224.244 34.6667 223.564 34.88C222.99 35.08 222.477 35.32 222.024 35.6C221.584 35.88 221.23 36.22 220.964 36.62C220.71 37.02 220.584 37.5067 220.584 38.08C220.584 38.64 220.724 39.16 221.004 39.64C221.284 40.1067 221.71 40.48 222.284 40.76C222.857 41.04 223.59 41.18 224.484 41.18ZM255.577 44V33.38C255.577 32.54 255.504 31.68 255.357 30.8C255.224 29.9067 254.957 29.08 254.557 28.32C254.171 27.56 253.617 26.9467 252.897 26.48C252.191 26.0133 251.264 25.78 250.117 25.78C249.371 25.78 248.664 25.9067 247.997 26.16C247.331 26.4 246.744 26.7933 246.237 27.34C245.744 27.8867 245.351 28.6067 245.057 29.5C244.777 30.3933 244.637 31.48 244.637 32.76L242.037 31.78C242.037 29.82 242.404 28.0933 243.137 26.6C243.871 25.0933 244.924 23.92 246.297 23.08C247.671 22.24 249.331 21.82 251.277 21.82C252.771 21.82 254.024 22.06 255.037 22.54C256.051 23.02 256.871 23.6533 257.497 24.44C258.137 25.2133 258.624 26.06 258.957 26.98C259.291 27.9 259.517 28.8 259.637 29.68C259.757 30.56 259.817 31.3333 259.817 32V44H255.577ZM240.397 44V22.4H244.137V28.64H244.637V44H240.397ZM265.007 44L265.027 15.2H269.267V32.8L277.747 22.4H283.067L274.107 33.2L283.987 44H278.307L269.267 33.6V44H265.007Z" fill="white"/>
</g>
<defs>
<filter id="filter0_d_832_2916" x="0.597656" y="0.799805" width="297.391" height="57.7998" filterUnits="userSpaceOnUse" color-interpolation-filters="sRGB">
<feFlood flood-opacity="0" result="BackgroundImageFix"/>
<feColorMatrix in="SourceAlpha" type="matrix" values="0 0 0 0 0 0 0 0 0 0 0 0 0 0 0 0 0 0 127 0" result="hardAlpha"/>
<feOffset/>
<feGaussianBlur stdDeviation="7"/>
<feComposite in2="hardAlpha" operator="out"/>
<feColorMatrix type="matrix" values="0 0 0 0 1 0 0 0 0 1 0 0 0 0 1 0 0 0 0.45 0"/>
<feBlend mode="normal" in2="BackgroundImageFix" result="effect1_dropShadow_832_2916"/>
<feBlend mode="normal" in="SourceGraphic" in2="effect1_dropShadow_832_2916" result="shape"/>
</filter>
</defs>
</svg>
