<svg width="1918" height="64" viewBox="0 0 1918 64" fill="none" xmlns="http://www.w3.org/2000/svg">
<path d="M637.082 53L625.378 12.68H631.51L639.994 43.172L648.478 12.708L654.638 12.68L663.122 43.172L671.606 12.68H677.766L666.034 53H660.21L651.558 22.844L642.906 53H637.082ZM692.54 53.84C689.535 53.84 686.893 53.1867 684.616 51.88C682.357 50.5547 680.593 48.716 679.324 46.364C678.073 43.9933 677.448 41.2493 677.448 38.132C677.448 34.828 678.064 31.9627 679.296 29.536C680.547 27.1093 682.283 25.2333 684.504 23.908C686.725 22.5827 689.311 21.92 692.26 21.92C695.34 21.92 697.963 22.6387 700.128 24.076C702.293 25.4947 703.908 27.52 704.972 30.152C706.055 32.784 706.484 35.9107 706.26 39.532H700.408V37.404C700.371 33.8947 699.699 31.3 698.392 29.62C697.104 27.94 695.135 27.1 692.484 27.1C689.553 27.1 687.351 28.024 685.876 29.872C684.401 31.72 683.664 34.3893 683.664 37.88C683.664 41.2027 684.401 43.7787 685.876 45.608C687.351 47.4187 689.479 48.324 692.26 48.324C694.089 48.324 695.667 47.9133 696.992 47.092C698.336 46.252 699.381 45.0573 700.128 43.508L705.868 45.328C704.692 48.0347 702.909 50.1347 700.52 51.628C698.131 53.1027 695.471 53.84 692.54 53.84ZM681.76 39.532V34.968H703.348V39.532H681.76ZM713.102 53V11.84H718.954V53H713.102ZM740.298 53.84C737.2 53.84 734.568 53.1493 732.402 51.768C730.237 50.3867 728.576 48.492 727.418 46.084C726.28 43.676 725.701 40.9413 725.682 37.88C725.701 34.7627 726.298 32.0093 727.474 29.62C728.65 27.212 730.33 25.3267 732.514 23.964C734.698 22.6013 737.321 21.92 740.382 21.92C743.686 21.92 746.505 22.7413 748.838 24.384C751.19 26.0267 752.74 28.276 753.486 31.132L747.662 32.812C747.084 31.1133 746.132 29.7973 744.806 28.864C743.5 27.912 741.997 27.436 740.298 27.436C738.376 27.436 736.798 27.8933 735.566 28.808C734.334 29.704 733.42 30.936 732.822 32.504C732.225 34.072 731.917 35.864 731.898 37.88C731.917 40.9973 732.626 43.5173 734.026 45.44C735.445 47.3627 737.536 48.324 740.298 48.324C742.184 48.324 743.705 47.8947 744.862 47.036C746.038 46.1587 746.934 44.908 747.55 43.284L753.486 44.684C752.497 47.6333 750.864 49.9013 748.586 51.488C746.309 53.056 743.546 53.84 740.298 53.84ZM771.502 53.84C768.478 53.84 765.856 53.1587 763.634 51.796C761.413 50.4333 759.696 48.5573 758.482 46.168C757.288 43.76 756.69 40.988 756.69 37.852C756.69 34.6973 757.306 31.9253 758.538 29.536C759.77 27.128 761.497 25.2613 763.718 23.936C765.94 22.592 768.534 21.92 771.502 21.92C774.526 21.92 777.149 22.6013 779.37 23.964C781.592 25.3267 783.309 27.2027 784.522 29.592C785.736 31.9813 786.342 34.7347 786.342 37.852C786.342 41.0067 785.726 43.788 784.494 46.196C783.281 48.5853 781.564 50.4613 779.342 51.824C777.121 53.168 774.508 53.84 771.502 53.84ZM771.502 48.324C774.396 48.324 776.552 47.3533 777.97 45.412C779.408 43.452 780.126 40.932 780.126 37.852C780.126 34.6973 779.398 32.1773 777.942 30.292C776.505 28.388 774.358 27.436 771.502 27.436C769.542 27.436 767.928 27.884 766.658 28.78C765.389 29.6573 764.446 30.88 763.83 32.448C763.214 33.9973 762.906 35.7987 762.906 37.852C762.906 41.0253 763.634 43.564 765.09 45.468C766.546 47.372 768.684 48.324 771.502 48.324ZM828.727 53L828.755 34.156C828.755 31.972 828.195 30.2733 827.075 29.06C825.955 27.828 824.481 27.212 822.651 27.212C821.531 27.212 820.505 27.4733 819.571 27.996C818.657 28.5 817.91 29.2653 817.331 30.292C816.771 31.3 816.491 32.5693 816.491 34.1L813.663 32.672C813.626 30.544 814.074 28.6773 815.007 27.072C815.959 25.4667 817.247 24.2253 818.871 23.348C820.495 22.452 822.315 22.004 824.331 22.004C827.598 22.004 830.127 22.984 831.919 24.944C833.711 26.904 834.607 29.508 834.607 32.756L834.579 53H828.727ZM792.467 53V22.76H797.675V31.496H798.347V53H792.467ZM810.611 53L810.639 34.268C810.639 32.0653 810.079 30.3387 808.959 29.088C807.858 27.8373 806.374 27.212 804.507 27.212C802.659 27.212 801.166 27.8467 800.027 29.116C798.907 30.3853 798.347 32.0467 798.347 34.1L795.547 32.308C795.547 30.3293 796.023 28.5653 796.975 27.016C797.927 25.4667 799.215 24.244 800.839 23.348C802.463 22.452 804.302 22.004 806.355 22.004C808.502 22.004 810.331 22.4613 811.843 23.376C813.355 24.272 814.503 25.532 815.287 27.156C816.09 28.78 816.491 30.6653 816.491 32.812L816.463 53H810.611ZM854.907 53.84C851.902 53.84 849.261 53.1867 846.983 51.88C844.725 50.5547 842.961 48.716 841.691 46.364C840.441 43.9933 839.815 41.2493 839.815 38.132C839.815 34.828 840.431 31.9627 841.663 29.536C842.914 27.1093 844.65 25.2333 846.871 23.908C849.093 22.5827 851.678 21.92 854.627 21.92C857.707 21.92 860.33 22.6387 862.495 24.076C864.661 25.4947 866.275 27.52 867.339 30.152C868.422 32.784 868.851 35.9107 868.627 39.532H862.775V37.404C862.738 33.8947 862.066 31.3 860.759 29.62C859.471 27.94 857.502 27.1 854.851 27.1C851.921 27.1 849.718 28.024 848.243 29.872C846.769 31.72 846.031 34.3893 846.031 37.88C846.031 41.2027 846.769 43.7787 848.243 45.608C849.718 47.4187 851.846 48.324 854.627 48.324C856.457 48.324 858.034 47.9133 859.359 47.092C860.703 46.252 861.749 45.0573 862.495 43.508L868.235 45.328C867.059 48.0347 865.277 50.1347 862.887 51.628C860.498 53.1027 857.838 53.84 854.907 53.84ZM844.127 39.532V34.968H865.715V39.532H844.127ZM903.424 53C901.52 53.3733 899.654 53.532 897.824 53.476C895.995 53.42 894.362 53.0653 892.924 52.412C891.487 51.7587 890.404 50.732 889.676 49.332C889.023 48.0813 888.668 46.812 888.612 45.524C888.575 44.2173 888.556 42.7427 888.556 41.1V14.36H894.436V40.82C894.436 42.0333 894.446 43.088 894.464 43.984C894.502 44.88 894.698 45.636 895.052 46.252C895.724 47.4093 896.788 48.072 898.244 48.24C899.719 48.3893 901.446 48.324 903.424 48.044V53ZM882.76 27.464V22.76H903.424V27.464H882.76ZM921.51 53.84C918.486 53.84 915.863 53.1587 913.642 51.796C911.421 50.4333 909.703 48.5573 908.49 46.168C907.295 43.76 906.698 40.988 906.698 37.852C906.698 34.6973 907.314 31.9253 908.546 29.536C909.778 27.128 911.505 25.2613 913.726 23.936C915.947 22.592 918.542 21.92 921.51 21.92C924.534 21.92 927.157 22.6013 929.378 23.964C931.599 25.3267 933.317 27.2027 934.53 29.592C935.743 31.9813 936.35 34.7347 936.35 37.852C936.35 41.0067 935.734 43.788 934.502 46.196C933.289 48.5853 931.571 50.4613 929.35 51.824C927.129 53.168 924.515 53.84 921.51 53.84ZM921.51 48.324C924.403 48.324 926.559 47.3533 927.978 45.412C929.415 43.452 930.134 40.932 930.134 37.852C930.134 34.6973 929.406 32.1773 927.95 30.292C926.513 28.388 924.366 27.436 921.51 27.436C919.55 27.436 917.935 27.884 916.666 28.78C915.397 29.6573 914.454 30.88 913.838 32.448C913.222 33.9973 912.914 35.7987 912.914 37.852C912.914 41.0253 913.642 43.564 915.098 45.468C916.554 47.372 918.691 48.324 921.51 48.324ZM971.018 53C969.114 53.3733 967.247 53.532 965.418 53.476C963.589 53.42 961.955 53.0653 960.518 52.412C959.081 51.7587 957.998 50.732 957.27 49.332C956.617 48.0813 956.262 46.812 956.206 45.524C956.169 44.2173 956.15 42.7427 956.15 41.1V14.36H962.03V40.82C962.03 42.0333 962.039 43.088 962.058 43.984C962.095 44.88 962.291 45.636 962.646 46.252C963.318 47.4093 964.382 48.072 965.838 48.24C967.313 48.3893 969.039 48.324 971.018 48.044V53ZM950.354 27.464V22.76H971.018V27.464H950.354ZM998.618 53V38.132C998.618 36.956 998.515 35.752 998.31 34.52C998.123 33.2693 997.75 32.112 997.19 31.048C996.648 29.984 995.874 29.1253 994.866 28.472C993.876 27.8187 992.579 27.492 990.974 27.492C989.928 27.492 988.939 27.6693 988.006 28.024C987.072 28.36 986.251 28.9107 985.542 29.676C984.851 30.4413 984.3 31.4493 983.89 32.7C983.498 33.9507 983.302 35.472 983.302 37.264L979.662 35.892C979.662 33.148 980.175 30.7307 981.202 28.64C982.228 26.5307 983.703 24.888 985.626 23.712C987.548 22.536 989.872 21.948 992.598 21.948C994.688 21.948 996.443 22.284 997.862 22.956C999.28 23.628 1000.43 24.5147 1001.31 25.616C1002.2 26.6987 1002.88 27.884 1003.35 29.172C1003.82 30.46 1004.13 31.72 1004.3 32.952C1004.47 34.184 1004.55 35.2667 1004.55 36.2V53H998.618ZM977.366 53V12.68H982.602V34.436H983.302V53H977.366ZM1025.26 53.84C1022.25 53.84 1019.61 53.1867 1017.33 51.88C1015.08 50.5547 1013.31 48.716 1012.04 46.364C1010.79 43.9933 1010.17 41.2493 1010.17 38.132C1010.17 34.828 1010.78 31.9627 1012.01 29.536C1013.27 27.1093 1015 25.2333 1017.22 23.908C1019.44 22.5827 1022.03 21.92 1024.98 21.92C1028.06 21.92 1030.68 22.6387 1032.85 24.076C1035.01 25.4947 1036.63 27.52 1037.69 30.152C1038.77 32.784 1039.2 35.9107 1038.98 39.532H1033.13V37.404C1033.09 33.8947 1032.42 31.3 1031.11 29.62C1029.82 27.94 1027.85 27.1 1025.2 27.1C1022.27 27.1 1020.07 28.024 1018.59 29.872C1017.12 31.72 1016.38 34.3893 1016.38 37.88C1016.38 41.2027 1017.12 43.7787 1018.59 45.608C1020.07 47.4187 1022.2 48.324 1024.98 48.324C1026.81 48.324 1028.39 47.9133 1029.71 47.092C1031.05 46.252 1032.1 45.0573 1032.85 43.508L1038.59 45.328C1037.41 48.0347 1035.63 50.1347 1033.24 51.628C1030.85 53.1027 1028.19 53.84 1025.26 53.84ZM1014.48 39.532V34.968H1036.07V39.532H1014.48ZM1056.47 53V12.68H1080.36V18.532H1062.32V29.9H1077V35.78H1062.32V53H1056.47ZM1092.85 53.84C1090.61 53.84 1088.73 53.4293 1087.22 52.608C1085.71 51.768 1084.56 50.6667 1083.78 49.304C1083.01 47.9227 1082.63 46.4107 1082.63 44.768C1082.63 43.2373 1082.9 41.8933 1083.44 40.736C1083.98 39.5787 1084.78 38.5987 1085.85 37.796C1086.91 36.9747 1088.22 36.312 1089.77 35.808C1091.11 35.416 1092.63 35.0707 1094.33 34.772C1096.03 34.4733 1097.81 34.1933 1099.68 33.932C1101.57 33.6707 1103.43 33.4093 1105.28 33.148L1103.15 34.324C1103.19 31.9533 1102.69 30.1987 1101.64 29.06C1100.61 27.9027 1098.84 27.324 1096.32 27.324C1094.73 27.324 1093.28 27.6973 1091.95 28.444C1090.63 29.172 1089.7 30.3853 1089.18 32.084L1083.72 30.404C1084.47 27.8093 1085.89 25.7467 1087.98 24.216C1090.09 22.6853 1092.89 21.92 1096.38 21.92C1099.08 21.92 1101.43 22.3867 1103.43 23.32C1105.45 24.2347 1106.92 25.6907 1107.86 27.688C1108.34 28.6773 1108.64 29.7227 1108.75 30.824C1108.86 31.9253 1108.92 33.1107 1108.92 34.38V53H1103.74V46.084L1104.75 46.98C1103.5 49.2947 1101.9 51.0213 1099.96 52.16C1098.04 53.28 1095.67 53.84 1092.85 53.84ZM1093.88 49.052C1095.55 49.052 1096.97 48.7627 1098.17 48.184C1099.36 47.5867 1100.32 46.8307 1101.05 45.916C1101.78 45.0013 1102.26 44.0493 1102.48 43.06C1102.8 42.164 1102.97 41.156 1103.01 40.036C1103.07 38.916 1103.1 38.02 1103.1 37.348L1105 38.048C1103.15 38.328 1101.47 38.58 1099.96 38.804C1098.45 39.028 1097.08 39.252 1095.84 39.476C1094.63 39.6813 1093.55 39.9333 1092.6 40.232C1091.79 40.512 1091.07 40.848 1090.44 41.24C1089.82 41.632 1089.33 42.108 1088.96 42.668C1088.6 43.228 1088.42 43.9093 1088.42 44.712C1088.42 45.496 1088.62 46.224 1089.01 46.896C1089.4 47.5493 1090 48.072 1090.8 48.464C1091.61 48.856 1092.63 49.052 1093.88 49.052ZM1152.42 53L1152.45 34.156C1152.45 31.972 1151.89 30.2733 1150.77 29.06C1149.65 27.828 1148.18 27.212 1146.35 27.212C1145.23 27.212 1144.2 27.4733 1143.27 27.996C1142.35 28.5 1141.61 29.2653 1141.03 30.292C1140.47 31.3 1140.19 32.5693 1140.19 34.1L1137.36 32.672C1137.32 30.544 1137.77 28.6773 1138.7 27.072C1139.65 25.4667 1140.94 24.2253 1142.57 23.348C1144.19 22.452 1146.01 22.004 1148.03 22.004C1151.29 22.004 1153.82 22.984 1155.61 24.944C1157.41 26.904 1158.3 29.508 1158.3 32.756L1158.27 53H1152.42ZM1116.16 53V22.76H1121.37V31.496H1122.04V53H1116.16ZM1134.31 53L1134.33 34.268C1134.33 32.0653 1133.77 30.3387 1132.65 29.088C1131.55 27.8373 1130.07 27.212 1128.2 27.212C1126.35 27.212 1124.86 27.8467 1123.72 29.116C1122.6 30.3853 1122.04 32.0467 1122.04 34.1L1119.24 32.308C1119.24 30.3293 1119.72 28.5653 1120.67 27.016C1121.62 25.4667 1122.91 24.244 1124.53 23.348C1126.16 22.452 1128 22.004 1130.05 22.004C1132.2 22.004 1134.03 22.4613 1135.54 23.376C1137.05 24.272 1138.2 25.532 1138.98 27.156C1139.79 28.78 1140.19 30.6653 1140.19 32.812L1140.16 53H1134.31ZM1168.37 53V47.316H1174.23V53H1168.37ZM1168.37 42.92V12.68H1174.23V42.92H1168.37ZM1192.17 56.22H1238.17V10.22H1192.17V56.22ZM1247.38 56.22H1293.38V10.22H1247.38V56.22Z" fill="white"/>
</svg>
