<svg width="299" height="64" viewBox="0 0 299 64" fill="none" xmlns="http://www.w3.org/2000/svg">
<rect width="299" height="64" rx="16" fill="#0081D8"/>
<path fill-rule="evenodd" clip-rule="evenodd" d="M45.2194 31.3598C52.8637 28.0293 57.9611 25.8337 60.5116 24.7728C67.7938 21.7439 69.307 21.2178 70.2933 21.2004C70.5102 21.1966 70.9952 21.2503 71.3094 21.5052C71.5747 21.7205 71.6476 22.0113 71.6826 22.2154C71.7175 22.4195 71.761 22.8844 71.7264 23.2477C71.3318 27.394 69.6243 37.4561 68.7556 42.1001C68.388 44.0652 67.6642 44.724 66.9635 44.7885C65.4407 44.9286 64.2844 43.7822 62.8095 42.8153C60.5016 41.3025 59.1978 40.3607 56.9576 38.8845C54.3686 37.1784 56.047 36.2407 57.5224 34.7082C57.9085 34.3072 64.6179 28.2045 64.7478 27.6509C64.764 27.5816 64.7791 27.3236 64.6258 27.1873C64.4724 27.051 64.2461 27.0976 64.0828 27.1347C63.8514 27.1872 60.1645 29.6241 53.0221 34.4454C51.9756 35.164 51.0277 35.5141 50.1784 35.4958C49.2422 35.4755 47.4412 34.9664 46.1023 34.5312C44.4601 33.9974 43.155 33.7151 43.2686 32.8086C43.3278 32.3364 43.9781 31.8535 45.2194 31.3598Z" fill="white"/>
<path d="M93.3718 41.33C92.2352 41.33 91.2085 41.1357 90.2918 40.747C89.3825 40.351 88.6308 39.79 88.0368 39.064C87.4502 38.3307 87.0688 37.4617 86.8928 36.457L89.2908 36.094C89.5328 37.062 90.0388 37.8173 90.8088 38.36C91.5788 38.8953 92.4772 39.163 93.5038 39.163C94.1418 39.163 94.7285 39.064 95.2638 38.866C95.7992 38.6607 96.2282 38.371 96.5508 37.997C96.8808 37.6157 97.0458 37.161 97.0458 36.633C97.0458 36.347 96.9945 36.094 96.8918 35.874C96.7965 35.654 96.6608 35.4633 96.4848 35.302C96.3162 35.1333 96.1072 34.9903 95.8578 34.873C95.6158 34.7483 95.3482 34.642 95.0548 34.554L90.9958 33.355C90.5998 33.2377 90.1965 33.0873 89.7858 32.904C89.3752 32.7133 88.9975 32.4677 88.6528 32.167C88.3155 31.859 88.0405 31.4813 87.8278 31.034C87.6152 30.5793 87.5088 30.0293 87.5088 29.384C87.5088 28.4087 87.7582 27.5837 88.2568 26.909C88.7628 26.227 89.4448 25.7137 90.3028 25.369C91.1608 25.017 92.1215 24.841 93.1848 24.841C94.2555 24.8557 95.2125 25.0463 96.0558 25.413C96.9065 25.7797 97.6105 26.3077 98.1678 26.997C98.7325 27.679 99.1212 28.5077 99.3338 29.483L96.8698 29.901C96.7598 29.307 96.5252 28.7973 96.1658 28.372C95.8065 27.9393 95.3665 27.6093 94.8458 27.382C94.3252 27.1473 93.7605 27.0263 93.1518 27.019C92.5652 27.0043 92.0262 27.0923 91.5348 27.283C91.0508 27.4737 90.6622 27.7413 90.3688 28.086C90.0828 28.4307 89.9398 28.8267 89.9398 29.274C89.9398 29.714 90.0682 30.0697 90.3248 30.341C90.5815 30.6123 90.8968 30.8287 91.2708 30.99C91.6522 31.144 92.0298 31.2723 92.4038 31.375L95.3298 32.2C95.6965 32.3027 96.1108 32.442 96.5728 32.618C97.0422 32.7867 97.4932 33.025 97.9258 33.333C98.3658 33.641 98.7288 34.0517 99.0148 34.565C99.3008 35.071 99.4438 35.709 99.4438 36.479C99.4438 37.2783 99.2825 37.9823 98.9598 38.591C98.6372 39.1923 98.1935 39.6983 97.6288 40.109C97.0715 40.5123 96.4262 40.8167 95.6928 41.022C94.9595 41.2273 94.1858 41.33 93.3718 41.33ZM108.586 41C107.838 41.1467 107.105 41.209 106.386 41.187C105.667 41.165 105.026 41.0257 104.461 40.769C103.896 40.5123 103.471 40.109 103.185 39.559C102.928 39.0677 102.789 38.569 102.767 38.063C102.752 37.5497 102.745 36.9703 102.745 36.325V25.82H105.055V36.215C105.055 36.6917 105.059 37.106 105.066 37.458C105.081 37.81 105.158 38.107 105.297 38.349C105.561 38.8037 105.979 39.064 106.551 39.13C107.13 39.1887 107.809 39.163 108.586 39.053V41ZM100.468 30.968V29.12H108.586V30.968H100.468ZM114.446 41.33C113.566 41.33 112.829 41.1687 112.235 40.846C111.641 40.516 111.19 40.0833 110.882 39.548C110.581 39.0053 110.431 38.4113 110.431 37.766C110.431 37.1647 110.537 36.6367 110.75 36.182C110.962 35.7273 111.278 35.3423 111.696 35.027C112.114 34.7043 112.627 34.444 113.236 34.246C113.764 34.092 114.361 33.9563 115.029 33.839C115.696 33.7217 116.396 33.6117 117.13 33.509C117.87 33.4063 118.604 33.3037 119.33 33.201L118.494 33.663C118.508 32.7317 118.31 32.0423 117.9 31.595C117.496 31.1403 116.8 30.913 115.81 30.913C115.186 30.913 114.614 31.0597 114.094 31.353C113.573 31.639 113.21 32.1157 113.005 32.783L110.86 32.123C111.153 31.1037 111.71 30.2933 112.532 29.692C113.36 29.0907 114.46 28.79 115.832 28.79C116.895 28.79 117.819 28.9733 118.604 29.34C119.396 29.6993 119.975 30.2713 120.342 31.056C120.532 31.4447 120.65 31.8553 120.694 32.288C120.738 32.7207 120.76 33.1863 120.76 33.685V41H118.725V38.283L119.121 38.635C118.629 39.5443 118.002 40.2227 117.24 40.67C116.484 41.11 115.553 41.33 114.446 41.33ZM114.853 39.449C115.505 39.449 116.066 39.3353 116.536 39.108C117.005 38.8733 117.383 38.5763 117.669 38.217C117.955 37.8577 118.142 37.4837 118.23 37.095C118.354 36.743 118.424 36.347 118.439 35.907C118.461 35.467 118.472 35.115 118.472 34.851L119.22 35.126C118.494 35.236 117.834 35.335 117.24 35.423C116.646 35.511 116.107 35.599 115.623 35.687C115.146 35.7677 114.721 35.8667 114.347 35.984C114.031 36.094 113.749 36.226 113.5 36.38C113.258 36.534 113.063 36.721 112.917 36.941C112.777 37.161 112.708 37.4287 112.708 37.744C112.708 38.052 112.785 38.338 112.939 38.602C113.093 38.8587 113.327 39.064 113.643 39.218C113.958 39.372 114.361 39.449 114.853 39.449ZM123.616 41V29.12H125.662V32.002L125.376 31.628C125.523 31.2467 125.714 30.8983 125.948 30.583C126.183 30.2603 126.454 29.9963 126.762 29.791C127.063 29.571 127.397 29.4023 127.763 29.285C128.137 29.1603 128.519 29.087 128.907 29.065C129.296 29.0357 129.67 29.054 130.029 29.12V31.276C129.641 31.1733 129.208 31.144 128.731 31.188C128.262 31.232 127.829 31.3823 127.433 31.639C127.059 31.881 126.762 32.1743 126.542 32.519C126.33 32.8637 126.176 33.2487 126.08 33.674C125.985 34.092 125.937 34.5357 125.937 35.005V41H123.616ZM138.922 41C138.174 41.1467 137.441 41.209 136.722 41.187C136.003 41.165 135.362 41.0257 134.797 40.769C134.232 40.5123 133.807 40.109 133.521 39.559C133.264 39.0677 133.125 38.569 133.103 38.063C133.088 37.5497 133.081 36.9703 133.081 36.325V25.82H135.391V36.215C135.391 36.6917 135.395 37.106 135.402 37.458C135.417 37.81 135.494 38.107 135.633 38.349C135.897 38.8037 136.315 39.064 136.887 39.13C137.466 39.1887 138.145 39.163 138.922 39.053V41ZM130.804 30.968V29.12H138.922V30.968H130.804ZM152.31 41.33C151.247 41.33 150.268 41.1467 149.373 40.78C148.478 40.406 147.701 39.8633 147.041 39.152C146.381 38.4407 145.868 37.5753 145.501 36.556C145.134 35.5367 144.951 34.378 144.951 33.08C144.951 31.3713 145.263 29.9047 145.886 28.68C146.509 27.448 147.375 26.502 148.482 25.842C149.589 25.1747 150.865 24.841 152.31 24.841C154.173 24.841 155.658 25.2737 156.765 26.139C157.88 27.0043 158.639 28.1997 159.042 29.725L156.71 30.143C156.387 29.197 155.867 28.4417 155.148 27.877C154.429 27.3123 153.527 27.0263 152.442 27.019C151.32 27.0117 150.385 27.261 149.637 27.767C148.896 28.273 148.339 28.9843 147.965 29.901C147.591 30.8103 147.4 31.87 147.393 33.08C147.386 34.29 147.569 35.3497 147.943 36.259C148.317 37.161 148.878 37.865 149.626 38.371C150.381 38.877 151.32 39.1337 152.442 39.141C153.344 39.1557 154.118 38.9907 154.763 38.646C155.416 38.294 155.933 37.7807 156.314 37.106C156.695 36.4313 156.941 35.6027 157.051 34.62H153.971V32.772H159.493C159.508 32.904 159.519 33.08 159.526 33.3C159.533 33.5127 159.537 33.6483 159.537 33.707C159.537 35.1737 159.255 36.4827 158.69 37.634C158.125 38.7853 157.304 39.691 156.226 40.351C155.148 41.0037 153.843 41.33 152.31 41.33ZM165.084 41.33C164.204 41.33 163.467 41.1687 162.873 40.846C162.279 40.516 161.828 40.0833 161.52 39.548C161.22 39.0053 161.069 38.4113 161.069 37.766C161.069 37.1647 161.176 36.6367 161.388 36.182C161.601 35.7273 161.916 35.3423 162.334 35.027C162.752 34.7043 163.266 34.444 163.874 34.246C164.402 34.092 165 33.9563 165.667 33.839C166.335 33.7217 167.035 33.6117 167.768 33.509C168.509 33.4063 169.242 33.3037 169.968 33.201L169.132 33.663C169.147 32.7317 168.949 32.0423 168.538 31.595C168.135 31.1403 167.438 30.913 166.448 30.913C165.825 30.913 165.253 31.0597 164.732 31.353C164.212 31.639 163.849 32.1157 163.643 32.783L161.498 32.123C161.792 31.1037 162.349 30.2933 163.17 29.692C163.999 29.0907 165.099 28.79 166.47 28.79C167.534 28.79 168.458 28.9733 169.242 29.34C170.034 29.6993 170.614 30.2713 170.98 31.056C171.171 31.4447 171.288 31.8553 171.332 32.288C171.376 32.7207 171.398 33.1863 171.398 33.685V41H169.363V38.283L169.759 38.635C169.268 39.5443 168.641 40.2227 167.878 40.67C167.123 41.11 166.192 41.33 165.084 41.33ZM165.491 39.449C166.144 39.449 166.705 39.3353 167.174 39.108C167.644 38.8733 168.021 38.5763 168.307 38.217C168.593 37.8577 168.78 37.4837 168.868 37.095C168.993 36.743 169.063 36.347 169.077 35.907C169.099 35.467 169.11 35.115 169.11 34.851L169.858 35.126C169.132 35.236 168.472 35.335 167.878 35.423C167.284 35.511 166.745 35.599 166.261 35.687C165.785 35.7677 165.359 35.8667 164.985 35.984C164.67 36.094 164.388 36.226 164.138 36.38C163.896 36.534 163.702 36.721 163.555 36.941C163.416 37.161 163.346 37.4287 163.346 37.744C163.346 38.052 163.423 38.338 163.577 38.602C163.731 38.8587 163.966 39.064 164.281 39.218C164.597 39.372 165 39.449 165.491 39.449ZM188.489 41L188.5 33.597C188.5 32.739 188.28 32.0717 187.84 31.595C187.4 31.111 186.821 30.869 186.102 30.869C185.662 30.869 185.259 30.9717 184.892 31.177C184.533 31.375 184.239 31.6757 184.012 32.079C183.792 32.475 183.682 32.9737 183.682 33.575L182.571 33.014C182.556 32.178 182.732 31.4447 183.099 30.814C183.473 30.1833 183.979 29.6957 184.617 29.351C185.255 28.999 185.97 28.823 186.762 28.823C188.045 28.823 189.039 29.208 189.743 29.978C190.447 30.748 190.799 31.771 190.799 33.047L190.788 41H188.489ZM174.244 41V29.12H176.29V32.552H176.554V41H174.244ZM181.372 41L181.383 33.641C181.383 32.7757 181.163 32.0973 180.723 31.606C180.29 31.1147 179.707 30.869 178.974 30.869C178.248 30.869 177.661 31.1183 177.214 31.617C176.774 32.1157 176.554 32.7683 176.554 33.575L175.454 32.871C175.454 32.0937 175.641 31.4007 176.015 30.792C176.389 30.1833 176.895 29.703 177.533 29.351C178.171 28.999 178.893 28.823 179.7 28.823C180.543 28.823 181.262 29.0027 181.856 29.362C182.45 29.714 182.901 30.209 183.209 30.847C183.524 31.485 183.682 32.2257 183.682 33.069L183.671 41H181.372ZM198.774 41.33C197.593 41.33 196.556 41.0733 195.661 40.56C194.774 40.0393 194.081 39.317 193.582 38.393C193.091 37.4617 192.845 36.3837 192.845 35.159C192.845 33.861 193.087 32.7353 193.571 31.782C194.062 30.8287 194.744 30.0917 195.617 29.571C196.49 29.0503 197.505 28.79 198.664 28.79C199.874 28.79 200.904 29.0723 201.755 29.637C202.606 30.1943 203.24 30.99 203.658 32.024C204.083 33.058 204.252 34.2863 204.164 35.709H201.865V34.873C201.85 33.4943 201.586 32.475 201.073 31.815C200.567 31.155 199.793 30.825 198.752 30.825C197.601 30.825 196.735 31.188 196.156 31.914C195.577 32.64 195.287 33.6887 195.287 35.06C195.287 36.3653 195.577 37.3773 196.156 38.096C196.735 38.8073 197.571 39.163 198.664 39.163C199.383 39.163 200.002 39.0017 200.523 38.679C201.051 38.349 201.462 37.8797 201.755 37.271L204.01 37.986C203.548 39.0493 202.848 39.8743 201.909 40.461C200.97 41.0403 199.925 41.33 198.774 41.33ZM194.539 35.709V33.916H203.02V35.709H194.539ZM211.036 41V25.16H213.368L221.167 36.93V25.16H223.499V41H221.167L213.368 29.219V41H211.036ZM231.728 41.33C230.54 41.33 229.51 41.0623 228.637 40.527C227.765 39.9917 227.09 39.2547 226.613 38.316C226.144 37.37 225.909 36.281 225.909 35.049C225.909 33.8097 226.151 32.7207 226.635 31.782C227.119 30.836 227.798 30.1027 228.67 29.582C229.543 29.054 230.562 28.79 231.728 28.79C232.916 28.79 233.947 29.0577 234.819 29.593C235.692 30.1283 236.367 30.8653 236.843 31.804C237.32 32.7427 237.558 33.8243 237.558 35.049C237.558 36.2883 237.316 37.381 236.832 38.327C236.356 39.2657 235.681 40.0027 234.808 40.538C233.936 41.066 232.909 41.33 231.728 41.33ZM231.728 39.163C232.865 39.163 233.712 38.7817 234.269 38.019C234.834 37.249 235.116 36.259 235.116 35.049C235.116 33.8097 234.83 32.8197 234.258 32.079C233.694 31.331 232.85 30.957 231.728 30.957C230.958 30.957 230.324 31.133 229.825 31.485C229.327 31.8297 228.956 32.31 228.714 32.926C228.472 33.5347 228.351 34.2423 228.351 35.049C228.351 36.2957 228.637 37.293 229.209 38.041C229.781 38.789 230.621 39.163 231.728 39.163ZM242.076 41L238.446 29.109L240.723 29.12L243.209 37.271L245.717 29.12H247.697L250.205 37.271L252.691 29.12H254.957L251.327 41H249.479L246.707 32.398L243.924 41H242.076Z" fill="white"/>
</svg>
