<svg width="141" height="38" viewBox="0 0 141 38" fill="none" xmlns="http://www.w3.org/2000/svg">
<rect width="141" height="38" rx="10" fill="#0081D8"/>
<path d="M15.2763 24V12.48H19.8043C20.5349 12.48 21.1483 12.6293 21.6443 12.928C22.1403 13.2267 22.5136 13.6133 22.7643 14.088C23.0149 14.5573 23.1403 15.0533 23.1403 15.576C23.1403 16.2107 22.9829 16.7547 22.6683 17.208C22.3589 17.6613 21.9403 17.9707 21.4123 18.136L21.3963 17.744C22.1323 17.9253 22.6976 18.28 23.0923 18.808C23.4869 19.3307 23.6843 19.9413 23.6843 20.64C23.6843 21.3173 23.5483 21.9067 23.2763 22.408C23.0096 22.9093 22.6176 23.3013 22.1003 23.584C21.5883 23.8613 20.9669 24 20.2363 24H15.2763ZM16.9723 22.408H19.9803C20.3589 22.408 20.6976 22.336 20.9963 22.192C21.3003 22.048 21.5376 21.8427 21.7083 21.576C21.8843 21.304 21.9723 20.9813 21.9723 20.608C21.9723 20.2613 21.8949 19.9493 21.7403 19.672C21.5909 19.3893 21.3723 19.168 21.0843 19.008C20.8016 18.8427 20.4683 18.76 20.0843 18.76H16.9723V22.408ZM16.9723 17.184H19.7803C20.0896 17.184 20.3669 17.1227 20.6123 17C20.8629 16.872 21.0603 16.6907 21.2043 16.456C21.3536 16.216 21.4283 15.928 21.4283 15.592C21.4283 15.144 21.2789 14.776 20.9803 14.488C20.6816 14.2 20.2816 14.056 19.7803 14.056H16.9723V17.184ZM28.5323 24.232C27.9349 24.232 27.4336 24.136 27.0283 23.944C26.6229 23.752 26.2923 23.5013 26.0363 23.192C25.7856 22.8773 25.5936 22.536 25.4603 22.168C25.3269 21.8 25.2363 21.44 25.1883 21.088C25.1403 20.736 25.1163 20.4267 25.1163 20.16V15.36H26.8123V19.608C26.8123 19.944 26.8389 20.2907 26.8923 20.648C26.9509 21 27.0576 21.328 27.2123 21.632C27.3723 21.936 27.5936 22.1813 27.8763 22.368C28.1643 22.5547 28.5376 22.648 28.9963 22.648C29.2949 22.648 29.5776 22.6 29.8443 22.504C30.1109 22.4027 30.3429 22.2427 30.5403 22.024C30.7429 21.8053 30.9003 21.5173 31.0123 21.16C31.1296 20.8027 31.1883 20.368 31.1883 19.856L32.2283 20.248C32.2283 21.032 32.0816 21.7253 31.7883 22.328C31.4949 22.9253 31.0736 23.392 30.5243 23.728C29.9749 24.064 29.3109 24.232 28.5323 24.232ZM31.3883 24V21.504H31.1883V15.36H32.8763V24H31.3883ZM36.288 27.84L37.96 23.288L37.984 24.632L34.216 15.36H35.96L38.776 22.52H38.264L40.952 15.36H42.648L37.88 27.84H36.288ZM50.8564 24.24C49.9924 24.24 49.243 24.0453 48.6084 23.656C47.9737 23.2667 47.483 22.7307 47.1364 22.048C46.795 21.36 46.6244 20.568 46.6244 19.672C46.6244 18.7707 46.8004 17.9787 47.1524 17.296C47.5044 16.608 47.9977 16.0747 48.6324 15.696C49.267 15.312 50.0084 15.12 50.8564 15.12C51.7204 15.12 52.4697 15.3147 53.1044 15.704C53.739 16.0933 54.2297 16.6293 54.5764 17.312C54.923 17.9947 55.0964 18.7813 55.0964 19.672C55.0964 20.5733 54.9204 21.368 54.5684 22.056C54.2217 22.7387 53.731 23.2747 53.0964 23.664C52.4617 24.048 51.715 24.24 50.8564 24.24ZM50.8564 22.664C51.683 22.664 52.299 22.3867 52.7044 21.832C53.115 21.272 53.3204 20.552 53.3204 19.672C53.3204 18.7707 53.1124 18.0507 52.6964 17.512C52.2857 16.968 51.6724 16.696 50.8564 16.696C50.2964 16.696 49.835 16.824 49.4724 17.08C49.1097 17.3307 48.8404 17.68 48.6644 18.128C48.4884 18.5707 48.4004 19.0853 48.4004 19.672C48.4004 20.5787 48.6084 21.304 49.0244 21.848C49.4404 22.392 50.051 22.664 50.8564 22.664ZM62.9184 24V19.752C62.9184 19.416 62.889 19.072 62.8304 18.72C62.777 18.3627 62.6704 18.032 62.5104 17.728C62.3557 17.424 62.1344 17.1787 61.8464 16.992C61.5637 16.8053 61.193 16.712 60.7344 16.712C60.4357 16.712 60.153 16.7627 59.8864 16.864C59.6197 16.96 59.385 17.1173 59.1824 17.336C58.985 17.5547 58.8277 17.8427 58.7104 18.2C58.5984 18.5573 58.5424 18.992 58.5424 19.504L57.5024 19.112C57.5024 18.328 57.649 17.6373 57.9424 17.04C58.2357 16.4373 58.657 15.968 59.2064 15.632C59.7557 15.296 60.4197 15.128 61.1984 15.128C61.7957 15.128 62.297 15.224 62.7024 15.416C63.1077 15.608 63.4357 15.8613 63.6864 16.176C63.9424 16.4853 64.137 16.824 64.2704 17.192C64.4037 17.56 64.4944 17.92 64.5424 18.272C64.5904 18.624 64.6144 18.9333 64.6144 19.2V24H62.9184ZM56.8464 24V15.36H58.3424V17.856H58.5424V24H56.8464ZM74.0773 24.24C73.2506 24.24 72.5039 24.0987 71.8373 23.816C71.1759 23.528 70.6293 23.12 70.1973 22.592C69.7706 22.0587 69.4933 21.4267 69.3653 20.696L71.1093 20.432C71.2853 21.136 71.6533 21.6853 72.2133 22.08C72.7733 22.4693 73.4266 22.664 74.1733 22.664C74.6373 22.664 75.0639 22.592 75.4533 22.448C75.8426 22.2987 76.1546 22.088 76.3893 21.816C76.6293 21.5387 76.7493 21.208 76.7493 20.824C76.7493 20.616 76.7119 20.432 76.6373 20.272C76.5679 20.112 76.4693 19.9733 76.3413 19.856C76.2186 19.7333 76.0666 19.6293 75.8853 19.544C75.7093 19.4533 75.5146 19.376 75.3013 19.312L72.3493 18.44C72.0613 18.3547 71.7679 18.2453 71.4693 18.112C71.1706 17.9733 70.8959 17.7947 70.6453 17.576C70.3999 17.352 70.1999 17.0773 70.0453 16.752C69.8906 16.4213 69.8133 16.0213 69.8133 15.552C69.8133 14.8427 69.9946 14.2427 70.3573 13.752C70.7253 13.256 71.2213 12.8827 71.8453 12.632C72.4693 12.376 73.1679 12.248 73.9413 12.248C74.7199 12.2587 75.4159 12.3973 76.0293 12.664C76.6479 12.9307 77.1599 13.3147 77.5653 13.816C77.9759 14.312 78.2586 14.9147 78.4133 15.624L76.6213 15.928C76.5413 15.496 76.3706 15.1253 76.1093 14.816C75.8479 14.5013 75.5279 14.2613 75.1493 14.096C74.7706 13.9253 74.3599 13.8373 73.9173 13.832C73.4906 13.8213 73.0986 13.8853 72.7413 14.024C72.3893 14.1627 72.1066 14.3573 71.8933 14.608C71.6853 14.8587 71.5813 15.1467 71.5813 15.472C71.5813 15.792 71.6746 16.0507 71.8613 16.248C72.0479 16.4453 72.2773 16.6027 72.5493 16.72C72.8266 16.832 73.1013 16.9253 73.3733 17L75.5013 17.6C75.7679 17.6747 76.0693 17.776 76.4053 17.904C76.7466 18.0267 77.0746 18.2 77.3893 18.424C77.7093 18.648 77.9733 18.9467 78.1813 19.32C78.3893 19.688 78.4933 20.152 78.4933 20.712C78.4933 21.2933 78.3759 21.8053 78.1413 22.248C77.9066 22.6853 77.5839 23.0533 77.1733 23.352C76.7679 23.6453 76.2986 23.8667 75.7653 24.016C75.2319 24.1653 74.6693 24.24 74.0773 24.24ZM83.0701 24V14.056H79.2381V12.48H88.5741V14.056H84.7421V24H83.0701ZM94.6624 24.24C93.5104 24.24 92.529 23.9893 91.7184 23.488C90.9077 22.9813 90.2864 22.2773 89.8544 21.376C89.4277 20.4747 89.2144 19.4293 89.2144 18.24C89.2144 17.0507 89.4277 16.0053 89.8544 15.104C90.2864 14.2027 90.9077 13.5013 91.7184 13C92.529 12.4933 93.5104 12.24 94.6624 12.24C95.809 12.24 96.7877 12.4933 97.5984 13C98.4144 13.5013 99.0357 14.2027 99.4624 15.104C99.889 16.0053 100.102 17.0507 100.102 18.24C100.102 19.4293 99.889 20.4747 99.4624 21.376C99.0357 22.2773 98.4144 22.9813 97.5984 23.488C96.7877 23.9893 95.809 24.24 94.6624 24.24ZM94.6624 22.648C95.4784 22.6587 96.1557 22.48 96.6944 22.112C97.2384 21.7387 97.6464 21.2213 97.9184 20.56C98.1904 19.8933 98.3264 19.12 98.3264 18.24C98.3264 17.36 98.1904 16.592 97.9184 15.936C97.6464 15.2747 97.2384 14.76 96.6944 14.392C96.1557 14.024 95.4784 13.8373 94.6624 13.832C93.8464 13.8213 93.1664 14 92.6224 14.368C92.0837 14.736 91.6784 15.2533 91.4064 15.92C91.1344 16.5867 90.9957 17.36 90.9904 18.24C90.985 19.12 91.1184 19.8907 91.3904 20.552C91.6624 21.208 92.0704 21.72 92.6144 22.088C93.1637 22.456 93.8464 22.6427 94.6624 22.648ZM101.698 24V12.48H103.394L109.066 21.04V12.48H110.762V24H109.066L103.394 15.432V24H101.698ZM113.283 24V22.232H115.051V24H113.283ZM118.365 24V15.056C118.365 14.8373 118.373 14.6053 118.389 14.36C118.405 14.1093 118.45 13.864 118.525 13.624C118.605 13.3787 118.736 13.1547 118.917 12.952C119.136 12.712 119.376 12.5413 119.637 12.44C119.898 12.3387 120.157 12.28 120.413 12.264C120.674 12.248 120.914 12.24 121.133 12.24H122.221V13.616H121.213C120.818 13.616 120.522 13.7147 120.325 13.912C120.133 14.104 120.037 14.3787 120.037 14.736V24H118.365ZM116.933 16.704V15.36H122.221V16.704H116.933ZM123.889 13.944V12.32H125.561V13.944H123.889ZM123.889 24V15.36H125.561V24H123.889Z" fill="white"/>
</svg>
