<svg width="299" height="64" viewBox="0 0 299 64" fill="none" xmlns="http://www.w3.org/2000/svg">
<rect width="299" height="64" rx="16" fill="#0081D8"/>
<path fill-rule="evenodd" clip-rule="evenodd" d="M45.7194 31.3598C53.3637 28.0293 58.4611 25.8337 61.0116 24.7728C68.2938 21.7439 69.807 21.2178 70.7933 21.2004C71.0102 21.1966 71.4952 21.2503 71.8094 21.5052C72.0747 21.7205 72.1476 22.0113 72.1826 22.2154C72.2175 22.4195 72.261 22.8844 72.2264 23.2477C71.8318 27.394 70.1243 37.4561 69.2556 42.1001C68.888 44.0652 68.1642 44.724 67.4635 44.7885C65.9407 44.9286 64.7844 43.7822 63.3095 42.8153C61.0016 41.3025 59.6978 40.3607 57.4576 38.8845C54.8686 37.1784 56.547 36.2407 58.0224 34.7082C58.4085 34.3072 65.1179 28.2045 65.2478 27.6509C65.264 27.5816 65.2791 27.3236 65.1258 27.1873C64.9724 27.051 64.7461 27.0976 64.5828 27.1347C64.3514 27.1872 60.6645 29.6241 53.5221 34.4454C52.4756 35.164 51.5277 35.5141 50.6784 35.4958C49.7422 35.4755 47.9412 34.9664 46.6023 34.5312C44.9601 33.9974 43.655 33.7151 43.7686 32.8086C43.8278 32.3364 44.4781 31.8535 45.7194 31.3598Z" fill="white"/>
<path d="M87.8769 41V25.16H94.2789C94.4329 25.16 94.6236 25.1673 94.8509 25.182C95.0782 25.1893 95.2946 25.2113 95.4999 25.248C96.3799 25.3873 97.1132 25.688 97.6999 26.15C98.2939 26.612 98.7376 27.195 99.0309 27.899C99.3242 28.603 99.4709 29.3803 99.4709 30.231C99.4709 31.089 99.3242 31.87 99.0309 32.574C98.7376 33.278 98.2939 33.861 97.6999 34.323C97.1132 34.785 96.3799 35.0857 95.4999 35.225C95.2946 35.2543 95.0746 35.2763 94.8399 35.291C94.6126 35.3057 94.4256 35.313 94.2789 35.313H90.1759V41H87.8769ZM90.1759 33.135H94.1909C94.3376 33.135 94.4989 33.1277 94.6749 33.113C94.8582 33.0983 95.0306 33.0727 95.1919 33.036C95.6612 32.926 96.0389 32.7243 96.3249 32.431C96.6109 32.1303 96.8162 31.7857 96.9409 31.397C97.0656 31.0083 97.1279 30.6197 97.1279 30.231C97.1279 29.8423 97.0656 29.4573 96.9409 29.076C96.8162 28.6873 96.6109 28.3463 96.3249 28.053C96.0389 27.7523 95.6612 27.547 95.1919 27.437C95.0306 27.393 94.8582 27.3637 94.6749 27.349C94.4989 27.3343 94.3376 27.327 94.1909 27.327H90.1759V33.135ZM101.89 41V24.83H104.189V41H101.89ZM110.847 41.33C109.967 41.33 109.23 41.1687 108.636 40.846C108.042 40.516 107.591 40.0833 107.283 39.548C106.982 39.0053 106.832 38.4113 106.832 37.766C106.832 37.1647 106.938 36.6367 107.151 36.182C107.364 35.7273 107.679 35.3423 108.097 35.027C108.515 34.7043 109.028 34.444 109.637 34.246C110.165 34.092 110.763 33.9563 111.43 33.839C112.097 33.7217 112.798 33.6117 113.531 33.509C114.272 33.4063 115.005 33.3037 115.731 33.201L114.895 33.663C114.91 32.7317 114.712 32.0423 114.301 31.595C113.898 31.1403 113.201 30.913 112.211 30.913C111.588 30.913 111.016 31.0597 110.495 31.353C109.974 31.639 109.611 32.1157 109.406 32.783L107.261 32.123C107.554 31.1037 108.112 30.2933 108.933 29.692C109.762 29.0907 110.862 28.79 112.233 28.79C113.296 28.79 114.22 28.9733 115.005 29.34C115.797 29.6993 116.376 30.2713 116.743 31.056C116.934 31.4447 117.051 31.8553 117.095 32.288C117.139 32.7207 117.161 33.1863 117.161 33.685V41H115.126V38.283L115.522 38.635C115.031 39.5443 114.404 40.2227 113.641 40.67C112.886 41.11 111.954 41.33 110.847 41.33ZM111.254 39.449C111.907 39.449 112.468 39.3353 112.937 39.108C113.406 38.8733 113.784 38.5763 114.07 38.217C114.356 37.8577 114.543 37.4837 114.631 37.095C114.756 36.743 114.825 36.347 114.84 35.907C114.862 35.467 114.873 35.115 114.873 34.851L115.621 35.126C114.895 35.236 114.235 35.335 113.641 35.423C113.047 35.511 112.508 35.599 112.024 35.687C111.547 35.7677 111.122 35.8667 110.748 35.984C110.433 36.094 110.15 36.226 109.901 36.38C109.659 36.534 109.465 36.721 109.318 36.941C109.179 37.161 109.109 37.4287 109.109 37.744C109.109 38.052 109.186 38.338 109.34 38.602C109.494 38.8587 109.729 39.064 110.044 39.218C110.359 39.372 110.763 39.449 111.254 39.449ZM120.958 46.28L123.257 40.021L123.29 41.869L118.109 29.12H120.507L124.379 38.965H123.675L127.371 29.12H129.703L123.147 46.28H120.958ZM136.05 27.173V24.94H138.349V27.173H136.05ZM136.05 41V29.12H138.349V41H136.05ZM149.99 41V35.159C149.99 34.697 149.95 34.224 149.869 33.74C149.796 33.2487 149.649 32.794 149.429 32.376C149.217 31.958 148.912 31.6207 148.516 31.364C148.128 31.1073 147.618 30.979 146.987 30.979C146.577 30.979 146.188 31.0487 145.821 31.188C145.455 31.32 145.132 31.5363 144.853 31.837C144.582 32.1377 144.366 32.5337 144.204 33.025C144.05 33.5163 143.973 34.114 143.973 34.818L142.543 34.279C142.543 33.201 142.745 32.2513 143.148 31.43C143.552 30.6013 144.131 29.956 144.886 29.494C145.642 29.032 146.555 28.801 147.625 28.801C148.447 28.801 149.136 28.933 149.693 29.197C150.251 29.461 150.702 29.8093 151.046 30.242C151.398 30.6673 151.666 31.133 151.849 31.639C152.033 32.145 152.157 32.64 152.223 33.124C152.289 33.608 152.322 34.0333 152.322 34.4V41H149.99ZM141.641 41V29.12H143.698V32.552H143.973V41H141.641ZM163.541 41V27.327H158.272V25.16H171.109V27.327H165.84V41H163.541ZM176.376 41.33C175.196 41.33 174.158 41.0733 173.263 40.56C172.376 40.0393 171.683 39.317 171.184 38.393C170.693 37.4617 170.447 36.3837 170.447 35.159C170.447 33.861 170.689 32.7353 171.173 31.782C171.665 30.8287 172.347 30.0917 173.219 29.571C174.092 29.0503 175.108 28.79 176.266 28.79C177.476 28.79 178.507 29.0723 179.357 29.637C180.208 30.1943 180.842 30.99 181.26 32.024C181.686 33.058 181.854 34.2863 181.766 35.709H179.467V34.873C179.453 33.4943 179.189 32.475 178.675 31.815C178.169 31.155 177.396 30.825 176.354 30.825C175.203 30.825 174.338 31.188 173.758 31.914C173.179 32.64 172.889 33.6887 172.889 35.06C172.889 36.3653 173.179 37.3773 173.758 38.096C174.338 38.8073 175.174 39.163 176.266 39.163C176.985 39.163 177.605 39.0017 178.125 38.679C178.653 38.349 179.064 37.8797 179.357 37.271L181.612 37.986C181.15 39.0493 180.45 39.8743 179.511 40.461C178.573 41.0403 177.528 41.33 176.376 41.33ZM172.141 35.709V33.916H180.622V35.709H172.141ZM184.454 41V24.83H186.753V41H184.454ZM195.326 41.33C194.145 41.33 193.107 41.0733 192.213 40.56C191.325 40.0393 190.632 39.317 190.134 38.393C189.642 37.4617 189.397 36.3837 189.397 35.159C189.397 33.861 189.639 32.7353 190.123 31.782C190.614 30.8287 191.296 30.0917 192.169 29.571C193.041 29.0503 194.057 28.79 195.216 28.79C196.426 28.79 197.456 29.0723 198.307 29.637C199.157 30.1943 199.792 30.99 200.21 32.024C200.635 33.058 200.804 34.2863 200.716 35.709H198.417V34.873C198.402 33.4943 198.138 32.475 197.625 31.815C197.119 31.155 196.345 30.825 195.304 30.825C194.152 30.825 193.287 31.188 192.708 31.914C192.128 32.64 191.839 33.6887 191.839 35.06C191.839 36.3653 192.128 37.3773 192.708 38.096C193.287 38.8073 194.123 39.163 195.216 39.163C195.934 39.163 196.554 39.0017 197.075 38.679C197.603 38.349 198.013 37.8797 198.307 37.271L200.562 37.986C200.1 39.0493 199.399 39.8743 198.461 40.461C197.522 41.0403 196.477 41.33 195.326 41.33ZM191.091 35.709V33.916H199.572V35.709H191.091ZM208.079 46.61C207.441 46.61 206.821 46.511 206.22 46.313C205.626 46.115 205.083 45.8217 204.592 45.433C204.1 45.0517 203.693 44.5787 203.371 44.014L205.494 42.936C205.75 43.442 206.117 43.8123 206.594 44.047C207.07 44.2817 207.573 44.399 208.101 44.399C208.753 44.399 209.311 44.2817 209.773 44.047C210.235 43.8197 210.583 43.475 210.818 43.013C211.06 42.551 211.177 41.979 211.17 41.297V37.975H211.445V29.12H213.48V41.319C213.48 41.6343 213.469 41.935 213.447 42.221C213.425 42.507 213.384 42.793 213.326 43.079C213.157 43.8783 212.834 44.5383 212.358 45.059C211.888 45.5797 211.287 45.9683 210.554 46.225C209.828 46.4817 209.003 46.61 208.079 46.61ZM207.903 41.33C206.795 41.33 205.838 41.055 205.032 40.505C204.232 39.955 203.613 39.207 203.173 38.261C202.74 37.3077 202.524 36.237 202.524 35.049C202.524 33.8537 202.744 32.7867 203.184 31.848C203.624 30.902 204.247 30.1577 205.054 29.615C205.868 29.065 206.832 28.79 207.947 28.79C209.069 28.79 210.011 29.065 210.774 29.615C211.544 30.1577 212.123 30.902 212.512 31.848C212.908 32.794 213.106 33.861 213.106 35.049C213.106 36.237 212.908 37.304 212.512 38.25C212.116 39.196 211.533 39.9477 210.763 40.505C209.993 41.055 209.039 41.33 207.903 41.33ZM208.222 39.251C208.977 39.251 209.593 39.0713 210.07 38.712C210.546 38.3527 210.895 37.8577 211.115 37.227C211.335 36.5963 211.445 35.8703 211.445 35.049C211.445 34.2277 211.331 33.5017 211.104 32.871C210.884 32.2403 210.539 31.749 210.07 31.397C209.608 31.045 209.017 30.869 208.299 30.869C207.536 30.869 206.909 31.056 206.418 31.43C205.926 31.804 205.56 32.3063 205.318 32.937C205.083 33.5677 204.966 34.2717 204.966 35.049C204.966 35.8337 205.083 36.545 205.318 37.183C205.56 37.8137 205.919 38.316 206.396 38.69C206.88 39.064 207.488 39.251 208.222 39.251ZM216.568 41V29.12H218.614V32.002L218.328 31.628C218.475 31.2467 218.666 30.8983 218.9 30.583C219.135 30.2603 219.406 29.9963 219.714 29.791C220.015 29.571 220.349 29.4023 220.715 29.285C221.089 29.1603 221.471 29.087 221.859 29.065C222.248 29.0357 222.622 29.054 222.981 29.12V31.276C222.593 31.1733 222.16 31.144 221.683 31.188C221.214 31.232 220.781 31.3823 220.385 31.639C220.011 31.881 219.714 32.1743 219.494 32.519C219.282 32.8637 219.128 33.2487 219.032 33.674C218.937 34.092 218.889 34.5357 218.889 35.005V41H216.568ZM228.109 41.33C227.229 41.33 226.492 41.1687 225.898 40.846C225.304 40.516 224.853 40.0833 224.545 39.548C224.244 39.0053 224.094 38.4113 224.094 37.766C224.094 37.1647 224.2 36.6367 224.413 36.182C224.626 35.7273 224.941 35.3423 225.359 35.027C225.777 34.7043 226.29 34.444 226.899 34.246C227.427 34.092 228.025 33.9563 228.692 33.839C229.359 33.7217 230.06 33.6117 230.793 33.509C231.534 33.4063 232.267 33.3037 232.993 33.201L232.157 33.663C232.172 32.7317 231.974 32.0423 231.563 31.595C231.16 31.1403 230.463 30.913 229.473 30.913C228.85 30.913 228.278 31.0597 227.757 31.353C227.236 31.639 226.873 32.1157 226.668 32.783L224.523 32.123C224.816 31.1037 225.374 30.2933 226.195 29.692C227.024 29.0907 228.124 28.79 229.495 28.79C230.558 28.79 231.482 28.9733 232.267 29.34C233.059 29.6993 233.638 30.2713 234.005 31.056C234.196 31.4447 234.313 31.8553 234.357 32.288C234.401 32.7207 234.423 33.1863 234.423 33.685V41H232.388V38.283L232.784 38.635C232.293 39.5443 231.666 40.2227 230.903 40.67C230.148 41.11 229.216 41.33 228.109 41.33ZM228.516 39.449C229.169 39.449 229.73 39.3353 230.199 39.108C230.668 38.8733 231.046 38.5763 231.332 38.217C231.618 37.8577 231.805 37.4837 231.893 37.095C232.018 36.743 232.087 36.347 232.102 35.907C232.124 35.467 232.135 35.115 232.135 34.851L232.883 35.126C232.157 35.236 231.497 35.335 230.903 35.423C230.309 35.511 229.77 35.599 229.286 35.687C228.809 35.7677 228.384 35.8667 228.01 35.984C227.695 36.094 227.412 36.226 227.163 36.38C226.921 36.534 226.727 36.721 226.58 36.941C226.441 37.161 226.371 37.4287 226.371 37.744C226.371 38.052 226.448 38.338 226.602 38.602C226.756 38.8587 226.991 39.064 227.306 39.218C227.621 39.372 228.025 39.449 228.516 39.449ZM251.513 41L251.524 33.597C251.524 32.739 251.304 32.0717 250.864 31.595C250.424 31.111 249.845 30.869 249.126 30.869C248.686 30.869 248.283 30.9717 247.916 31.177C247.557 31.375 247.264 31.6757 247.036 32.079C246.816 32.475 246.706 32.9737 246.706 33.575L245.595 33.014C245.581 32.178 245.757 31.4447 246.123 30.814C246.497 30.1833 247.003 29.6957 247.641 29.351C248.279 28.999 248.994 28.823 249.786 28.823C251.07 28.823 252.063 29.208 252.767 29.978C253.471 30.748 253.823 31.771 253.823 33.047L253.812 41H251.513ZM237.268 41V29.12H239.314V32.552H239.578V41H237.268ZM244.396 41L244.407 33.641C244.407 32.7757 244.187 32.0973 243.747 31.606C243.315 31.1147 242.732 30.869 241.998 30.869C241.272 30.869 240.686 31.1183 240.238 31.617C239.798 32.1157 239.578 32.7683 239.578 33.575L238.478 32.871C238.478 32.0937 238.665 31.4007 239.039 30.792C239.413 30.1833 239.919 29.703 240.557 29.351C241.195 28.999 241.918 28.823 242.724 28.823C243.568 28.823 244.286 29.0027 244.88 29.362C245.474 29.714 245.925 30.209 246.233 30.847C246.549 31.485 246.706 32.2257 246.706 33.069L246.695 41H244.396Z" fill="white"/>
</svg>
