<svg width="267" height="59" viewBox="0 0 267 59" fill="none" xmlns="http://www.w3.org/2000/svg">
<g filter="url(#filter0_d_832_2899)">
<path d="M27.8417 44.6C25.9084 44.6 24.1284 44.2667 22.5017 43.6C20.8751 42.92 19.4617 41.9333 18.2617 40.64C17.0617 39.3467 16.1284 37.7733 15.4617 35.92C14.7951 34.0667 14.4617 31.96 14.4617 29.6C14.4617 26.4933 15.0284 23.8267 16.1617 21.6C17.2951 19.36 18.8684 17.64 20.8817 16.44C22.8951 15.2267 25.2151 14.62 27.8417 14.62C31.2284 14.62 33.9284 15.4067 35.9417 16.98C37.9684 18.5533 39.3484 20.7267 40.0817 23.5L35.8417 24.26C35.2551 22.54 34.3084 21.1667 33.0017 20.14C31.6951 19.1133 30.0551 18.5933 28.0817 18.58C26.0417 18.5667 24.3417 19.02 22.9817 19.94C21.6351 20.86 20.6217 22.1533 19.9417 23.82C19.2617 25.4733 18.9151 27.4 18.9017 29.6C18.8884 31.8 19.2217 33.7267 19.9017 35.38C20.5817 37.02 21.6017 38.3 22.9617 39.22C24.3351 40.14 26.0417 40.6067 28.0817 40.62C29.7217 40.6467 31.1284 40.3467 32.3017 39.72C33.4884 39.08 34.4284 38.1467 35.1217 36.92C35.8151 35.6933 36.2617 34.1867 36.4617 32.4H30.8617V29.04H40.9017C40.9284 29.28 40.9484 29.6 40.9617 30C40.9751 30.3867 40.9817 30.6333 40.9817 30.74C40.9817 33.4067 40.4684 35.7867 39.4417 37.88C38.4151 39.9733 36.9217 41.62 34.9617 42.82C33.0017 44.0067 30.6284 44.6 27.8417 44.6ZM54.348 44.6C52.188 44.6 50.3146 44.1133 48.728 43.14C47.1413 42.1667 45.9146 40.8267 45.048 39.12C44.1946 37.4 43.768 35.42 43.768 33.18C43.768 30.9267 44.208 28.9467 45.088 27.24C45.968 25.52 47.2013 24.1867 48.788 23.24C50.3746 22.28 52.228 21.8 54.348 21.8C56.508 21.8 58.3813 22.2867 59.968 23.26C61.5546 24.2333 62.7813 25.5733 63.648 27.28C64.5146 28.9867 64.948 30.9533 64.948 33.18C64.948 35.4333 64.508 37.42 63.628 39.14C62.7613 40.8467 61.5346 42.1867 59.948 43.16C58.3613 44.12 56.4946 44.6 54.348 44.6ZM54.348 40.66C56.4146 40.66 57.9546 39.9667 58.968 38.58C59.9946 37.18 60.508 35.38 60.508 33.18C60.508 30.9267 59.988 29.1267 58.948 27.78C57.9213 26.42 56.388 25.74 54.348 25.74C52.948 25.74 51.7946 26.06 50.888 26.7C49.9813 27.3267 49.308 28.2 48.868 29.32C48.428 30.4267 48.208 31.7133 48.208 33.18C48.208 35.4467 48.728 37.26 49.768 38.62C50.808 39.98 52.3346 40.66 54.348 40.66ZM69.743 44V14.6H73.923V44H69.743ZM88.5089 44.6C86.4956 44.6 84.7556 44.1 83.2889 43.1C81.8356 42.1 80.7089 40.74 79.9089 39.02C79.1222 37.2867 78.7289 35.34 78.7289 33.18C78.7289 31.0067 79.1289 29.0667 79.9289 27.36C80.7289 25.64 81.8622 24.2867 83.3289 23.3C84.8089 22.3 86.5622 21.8 88.5889 21.8C90.6289 21.8 92.3422 22.3 93.7289 23.3C95.1289 24.2867 96.1822 25.64 96.8889 27.36C97.6089 29.08 97.9689 31.02 97.9689 33.18C97.9689 35.34 97.6089 37.28 96.8889 39C96.1689 40.72 95.1089 42.0867 93.7089 43.1C92.3089 44.1 90.5756 44.6 88.5089 44.6ZM89.0889 40.82C90.4622 40.82 91.5822 40.4933 92.4489 39.84C93.3156 39.1867 93.9489 38.2867 94.3489 37.14C94.7489 35.9933 94.9489 34.6733 94.9489 33.18C94.9489 31.6867 94.7422 30.3667 94.3289 29.22C93.9289 28.0733 93.3022 27.18 92.4489 26.54C91.6089 25.9 90.5356 25.58 89.2289 25.58C87.8422 25.58 86.7022 25.92 85.8089 26.6C84.9156 27.28 84.2489 28.1933 83.8089 29.34C83.3822 30.4867 83.1689 31.7667 83.1689 33.18C83.1689 34.6067 83.3822 35.9 83.8089 37.06C84.2489 38.2067 84.9022 39.12 85.7689 39.8C86.6489 40.48 87.7556 40.82 89.0889 40.82ZM94.9489 44V28.46H94.4689V15.2H98.6689V44H94.9489ZM113.845 44.6C111.698 44.6 109.812 44.1333 108.185 43.2C106.572 42.2533 105.312 40.94 104.405 39.26C103.512 37.5667 103.065 35.6067 103.065 33.38C103.065 31.02 103.505 28.9733 104.385 27.24C105.278 25.5067 106.518 24.1667 108.105 23.22C109.692 22.2733 111.538 21.8 113.645 21.8C115.845 21.8 117.718 22.3133 119.265 23.34C120.812 24.3533 121.965 25.8 122.725 27.68C123.498 29.56 123.805 31.7933 123.645 34.38H119.465V32.86C119.438 30.3533 118.958 28.5 118.025 27.3C117.105 26.1 115.698 25.5 113.805 25.5C111.712 25.5 110.138 26.16 109.085 27.48C108.032 28.8 107.505 30.7067 107.505 33.2C107.505 35.5733 108.032 37.4133 109.085 38.72C110.138 40.0133 111.658 40.66 113.645 40.66C114.952 40.66 116.078 40.3667 117.025 39.78C117.985 39.18 118.732 38.3267 119.265 37.22L123.365 38.52C122.525 40.4533 121.252 41.9533 119.545 43.02C117.838 44.0733 115.938 44.6 113.845 44.6ZM106.145 34.38V31.12H121.565V34.38H106.145ZM142.706 44V33.38C142.706 32.54 142.633 31.68 142.486 30.8C142.353 29.9067 142.086 29.08 141.686 28.32C141.299 27.56 140.746 26.9467 140.026 26.48C139.319 26.0133 138.393 25.78 137.246 25.78C136.499 25.78 135.793 25.9067 135.126 26.16C134.459 26.4 133.873 26.7933 133.366 27.34C132.873 27.8867 132.479 28.6067 132.186 29.5C131.906 30.3933 131.766 31.48 131.766 32.76L129.166 31.78C129.166 29.82 129.533 28.0933 130.266 26.6C130.999 25.0933 132.053 23.92 133.426 23.08C134.799 22.24 136.459 21.82 138.406 21.82C139.899 21.82 141.153 22.06 142.166 22.54C143.179 23.02 143.999 23.6533 144.626 24.44C145.266 25.2133 145.753 26.06 146.086 26.98C146.419 27.9 146.646 28.8 146.766 29.68C146.886 30.56 146.946 31.3333 146.946 32V44H142.706ZM127.526 44V22.4H131.266V28.64H131.766V44H127.526ZM160.163 44V15.2H171.803C172.083 15.2 172.43 15.2133 172.843 15.24C173.257 15.2533 173.65 15.2933 174.023 15.36C175.623 15.6133 176.957 16.16 178.023 17C179.103 17.84 179.91 18.9 180.443 20.18C180.977 21.46 181.243 22.8733 181.243 24.42C181.243 26.7133 180.657 28.6933 179.483 30.36C178.31 32.0133 176.55 33.0467 174.203 33.46L172.503 33.66H164.343V44H160.163ZM177.003 44L171.323 32.28L175.543 31.2L181.783 44H177.003ZM164.343 29.7H171.643C171.91 29.7 172.203 29.6867 172.523 29.66C172.857 29.6333 173.17 29.5867 173.463 29.52C174.317 29.32 175.003 28.9533 175.523 28.42C176.043 27.8733 176.417 27.2467 176.643 26.54C176.87 25.8333 176.983 25.1267 176.983 24.42C176.983 23.7133 176.87 23.0133 176.643 22.32C176.417 21.6133 176.043 20.9933 175.523 20.46C175.003 19.9133 174.317 19.54 173.463 19.34C173.17 19.26 172.857 19.2067 172.523 19.18C172.203 19.1533 171.91 19.14 171.643 19.14H164.343V29.7ZM192.279 44.6C190.679 44.6 189.339 44.3067 188.259 43.72C187.179 43.12 186.359 42.3333 185.799 41.36C185.252 40.3733 184.979 39.2933 184.979 38.12C184.979 37.0267 185.172 36.0667 185.559 35.24C185.946 34.4133 186.519 33.7133 187.279 33.14C188.039 32.5533 188.972 32.08 190.079 31.72C191.039 31.44 192.126 31.1933 193.339 30.98C194.552 30.7667 195.826 30.5667 197.159 30.38C198.506 30.1933 199.839 30.0067 201.159 29.82L199.639 30.66C199.666 28.9667 199.306 27.7133 198.559 26.9C197.826 26.0733 196.559 25.66 194.759 25.66C193.626 25.66 192.586 25.9267 191.639 26.46C190.692 26.98 190.032 27.8467 189.659 29.06L185.759 27.86C186.292 26.0067 187.306 24.5333 188.799 23.44C190.306 22.3467 192.306 21.8 194.799 21.8C196.732 21.8 198.412 22.1333 199.839 22.8C201.279 23.4533 202.332 24.4933 202.999 25.92C203.346 26.6267 203.559 27.3733 203.639 28.16C203.719 28.9467 203.759 29.7933 203.759 30.7V44H200.059V39.06L200.779 39.7C199.886 41.3533 198.746 42.5867 197.359 43.4C195.986 44.2 194.292 44.6 192.279 44.6ZM193.019 41.18C194.206 41.18 195.226 40.9733 196.079 40.56C196.932 40.1333 197.619 39.5933 198.139 38.94C198.659 38.2867 198.999 37.6067 199.159 36.9C199.386 36.26 199.512 35.54 199.539 34.74C199.579 33.94 199.599 33.3 199.599 32.82L200.959 33.32C199.639 33.52 198.439 33.7 197.359 33.86C196.279 34.02 195.299 34.18 194.419 34.34C193.552 34.4867 192.779 34.6667 192.099 34.88C191.526 35.08 191.012 35.32 190.559 35.6C190.119 35.88 189.766 36.22 189.499 36.62C189.246 37.02 189.119 37.5067 189.119 38.08C189.119 38.64 189.259 39.16 189.539 39.64C189.819 40.1067 190.246 40.48 190.819 40.76C191.392 41.04 192.126 41.18 193.019 41.18ZM224.112 44V33.38C224.112 32.54 224.039 31.68 223.892 30.8C223.759 29.9067 223.492 29.08 223.092 28.32C222.706 27.56 222.152 26.9467 221.432 26.48C220.726 26.0133 219.799 25.78 218.652 25.78C217.906 25.78 217.199 25.9067 216.532 26.16C215.866 26.4 215.279 26.7933 214.772 27.34C214.279 27.8867 213.886 28.6067 213.592 29.5C213.312 30.3933 213.172 31.48 213.172 32.76L210.572 31.78C210.572 29.82 210.939 28.0933 211.672 26.6C212.406 25.0933 213.459 23.92 214.832 23.08C216.206 22.24 217.866 21.82 219.812 21.82C221.306 21.82 222.559 22.06 223.572 22.54C224.586 23.02 225.406 23.6533 226.032 24.44C226.672 25.2133 227.159 26.06 227.492 26.98C227.826 27.9 228.052 28.8 228.172 29.68C228.292 30.56 228.352 31.3333 228.352 32V44H224.112ZM208.932 44V22.4H212.672V28.64H213.172V44H208.932ZM233.542 44L233.562 15.2H237.802V32.8L246.282 22.4H251.602L242.642 33.2L252.522 44H246.842L237.802 33.6V44H233.542Z" fill="white"/>
</g>
<defs>
<filter id="filter0_d_832_2899" x="0.460938" y="0.599609" width="266.062" height="58" filterUnits="userSpaceOnUse" color-interpolation-filters="sRGB">
<feFlood flood-opacity="0" result="BackgroundImageFix"/>
<feColorMatrix in="SourceAlpha" type="matrix" values="0 0 0 0 0 0 0 0 0 0 0 0 0 0 0 0 0 0 127 0" result="hardAlpha"/>
<feOffset/>
<feGaussianBlur stdDeviation="7"/>
<feComposite in2="hardAlpha" operator="out"/>
<feColorMatrix type="matrix" values="0 0 0 0 1 0 0 0 0 1 0 0 0 0 1 0 0 0 0.45 0"/>
<feBlend mode="normal" in2="BackgroundImageFix" result="effect1_dropShadow_832_2899"/>
<feBlend mode="normal" in="SourceGraphic" in2="effect1_dropShadow_832_2899" result="shape"/>
</filter>
</defs>
</svg>
