<svg width="408" height="149" viewBox="0 0 408 149" fill="none" xmlns="http://www.w3.org/2000/svg">
<path d="M354.032 63.3002H340.814L353.61 2.74512H368.22L385.956 42.9885L386.294 42.904C386.379 42.5099 386.632 41.1727 387.054 38.8924C387.477 36.5839 387.913 34.2332 388.363 31.8403C388.842 29.4192 389.278 27.3359 389.672 25.5905L394.782 2.74512H407.999L395.12 63.3002H380.509L362.773 23.0991H362.435C361.112 30.3904 359.634 37.7663 358.001 45.2266L354.032 63.3002Z" fill="white"/>
<path d="M305.169 64.2708C300.974 64.2708 297.145 63.6937 293.683 62.5394C290.22 61.3852 287.222 59.6961 284.688 57.472C282.154 55.248 280.184 52.4328 278.776 49.0264C277.397 45.5919 276.707 41.7069 276.707 37.3715C276.707 32.7545 277.509 28.3206 279.114 24.0696C280.747 19.8187 283.041 16.0463 285.997 12.7525C288.953 9.43056 292.683 6.78427 297.188 4.81362C301.72 2.81483 306.689 1.81543 312.094 1.81543C317.696 1.81543 322.623 2.81483 326.874 4.81362C331.125 6.81242 334.475 9.85284 336.924 13.9349C339.402 18.0169 340.64 22.9154 340.64 28.6303C340.64 32.3182 340.134 35.9076 339.12 39.3984C338.135 42.8611 336.629 46.0986 334.602 49.1109C332.575 52.095 330.168 54.7272 327.381 57.0075C324.594 59.2597 321.286 61.0333 317.457 62.3283C313.628 63.6233 309.532 64.2708 305.169 64.2708ZM306.224 50.7578C309.265 50.7578 312.066 50.1525 314.628 48.942C317.19 47.7314 319.287 46.1408 320.92 44.1702C322.581 42.1714 323.862 39.9474 324.763 37.4982C325.663 35.0489 326.114 32.5575 326.114 30.0238C326.114 25.4913 324.763 21.9019 322.06 19.2556C319.386 16.6093 315.712 15.2862 311.038 15.2862C307.998 15.2862 305.197 15.9055 302.635 17.1442C300.101 18.3829 298.018 20.0157 296.385 22.0427C294.753 24.0415 293.486 26.2796 292.585 28.757C291.684 31.2343 291.233 33.7539 291.233 36.3158C291.233 40.7638 292.557 44.2828 295.203 46.8728C297.877 49.4628 301.551 50.7578 306.224 50.7578Z" fill="white"/>
<path d="M249.797 63.3002H236.157L246.419 16.0892H227.078L229.738 2.74512H282.059L279.399 16.0892H260.101L249.797 63.3002Z" fill="white"/>
<path d="M202.328 64.06C200.019 64.06 197.823 63.8208 195.74 63.3422C193.685 62.8636 191.729 62.1035 189.871 61.0619C188.012 59.9921 186.408 58.683 185.057 57.1346C183.733 55.5863 182.678 53.686 181.889 51.4338C181.101 49.1535 180.707 46.6198 180.707 43.8328C180.707 39.0751 181.805 34.7115 184.001 30.7421C186.197 26.7726 189.336 23.6055 193.418 21.2408C197.5 18.8478 202.117 17.6514 207.269 17.6514C210.281 17.6514 213.082 18.0736 215.672 18.9182C218.262 19.7346 220.556 20.9592 222.555 22.5921C224.554 24.1967 226.116 26.3081 227.242 28.9263C228.397 31.5444 228.974 34.5285 228.974 37.8786C228.974 41.4539 228.312 44.8463 226.989 48.0556C225.694 51.2368 223.892 54.0098 221.584 56.3745C219.304 58.7393 216.488 60.6114 213.138 61.9909C209.816 63.3703 206.213 64.06 202.328 64.06ZM203.384 52.3206C205.044 52.3206 206.579 52.0532 207.986 51.5183C209.394 50.9834 210.562 50.2796 211.491 49.4069C212.448 48.506 213.265 47.4926 213.941 46.3665C214.616 45.2122 215.095 44.0299 215.376 42.8193C215.686 41.6088 215.841 40.3982 215.841 39.1877C215.841 36.1191 214.968 33.7262 213.223 32.0089C211.505 30.2635 209.169 29.3908 206.213 29.3908C204.158 29.3908 202.3 29.799 200.639 30.6154C199.006 31.4037 197.697 32.4453 196.711 33.7403C195.754 35.0353 195.022 36.4429 194.516 37.9631C194.009 39.4551 193.756 40.9754 193.756 42.5237C193.756 45.6204 194.614 48.0274 196.331 49.7447C198.049 51.462 200.399 52.3206 203.384 52.3206Z" fill="white"/>
<path d="M160.567 17.6513C166.085 17.6513 170.449 19.3264 173.658 22.6765C176.867 26.0266 178.472 30.6576 178.472 36.5695C178.472 41.6087 177.487 46.1975 175.516 50.3359C173.545 54.4742 170.674 57.7962 166.901 60.3017C163.129 62.8072 158.808 64.06 153.937 64.06C150.418 64.06 147.505 63.4125 145.196 62.1175C142.888 60.7944 141.297 58.88 140.424 56.3745L138.946 63.2999H125.982L139.411 0H152.291L147.265 23.3521C150.475 19.5516 154.909 17.6513 160.567 17.6513ZM152.713 52.4895C154.74 52.4895 156.57 52.0954 158.202 51.3071C159.835 50.4907 161.158 49.4209 162.172 48.0978C163.214 46.7465 164.002 45.2404 164.537 43.5794C165.072 41.9184 165.339 40.1871 165.339 38.3853C165.339 35.3168 164.494 32.9942 162.805 31.4177C161.116 29.8412 158.794 29.0529 155.838 29.0529C153.839 29.0529 152.023 29.4611 150.39 30.2775C148.757 31.0658 147.434 32.1356 146.421 33.4869C145.407 34.8382 144.633 36.3443 144.098 38.0053C143.563 39.6381 143.296 41.3554 143.296 43.1571C143.296 46.2257 144.141 48.5482 145.83 50.1247C147.519 51.7013 149.813 52.4895 152.713 52.4895Z" fill="white"/>
<path d="M127.367 18.4961H131.97L129.183 31.7135H120.568C116.317 31.7135 113.713 33.853 112.756 38.1322L107.309 63.3001H94.5137L104.015 18.4961H116.134L114.319 26.8995C115.698 24.394 117.5 22.367 119.724 20.8186C121.976 19.2703 124.524 18.4961 127.367 18.4961Z" fill="white"/>
<path d="M78.716 41.426L83.5722 18.4961H96.2829L86.7393 63.3001H74.3242L75.76 56.3747C71.6779 61.4984 66.8358 64.0602 61.2335 64.0602C58.7843 64.0602 56.6166 63.7224 54.7304 63.0467C52.8724 62.3429 51.4225 61.3998 50.3809 60.2175C49.3393 59.0351 48.5088 57.6556 47.8895 56.0791C47.2983 54.5026 47.0167 52.8416 47.0449 51.0962C47.1012 49.3508 47.2842 47.5631 47.5939 45.7332L53.2946 18.4961H66.0898L60.8957 42.9039C60.586 44.03 60.4593 45.1702 60.5157 46.3244C60.6001 47.4505 60.8112 48.478 61.1491 49.4071C61.4869 50.3079 62.1625 51.054 63.176 51.6451C64.2176 52.2082 65.5408 52.4897 67.1455 52.4897C70.1577 52.4897 72.6492 51.5325 74.6198 49.6182C76.5905 47.6757 77.9559 44.945 78.716 41.426Z" fill="white"/>
<path d="M22.7187 63.3002H9.07904L19.3405 16.0892H0L2.66037 2.74512H54.981L52.3206 16.0892H33.0224L22.7187 63.3002Z" fill="white"/>
<path fill-rule="evenodd" clip-rule="evenodd" d="M165.832 147.447H180.987L186.195 123.893H216.459L219.462 109.113H189.198L192.342 94.9898H224.904L227.907 80.1631H180.143L165.832 147.447ZM250.281 96.7258C258.008 96.7258 263.591 98.6808 267.032 102.591C270.504 106.501 271.427 112.131 269.8 119.482L263.747 147.446H249.624L251.079 140.737C247.044 145.773 241.179 148.291 233.484 148.291C229.042 148.291 225.461 147.212 222.739 145.053C220.018 142.864 218.657 139.626 218.657 135.341C218.657 125.894 225.68 120.452 239.724 119.013L255.865 117.371L256.24 115.822C256.709 113.633 256.334 111.834 255.114 110.426C253.926 109.019 251.798 108.315 248.733 108.315C245.887 108.315 243.494 108.956 241.554 110.239C239.646 111.521 238.301 113.32 237.519 115.635L224.522 113.429C226.024 108.268 229.042 104.202 233.578 101.23C238.145 98.2272 243.713 96.7258 250.281 96.7258ZM253.66 128.303L253.847 127.083L240.381 128.725C235.846 129.194 233.578 130.821 233.578 133.605C233.578 134.856 234.078 135.826 235.079 136.514C236.08 137.202 237.535 137.546 239.443 137.546C242.884 137.546 245.933 136.749 248.592 135.153C251.282 133.558 252.971 131.275 253.66 128.303ZM386.373 97.8988C384.215 97.1168 381.759 96.7258 379.007 96.7258C371.124 96.7258 364.884 100.151 360.286 107.001C359.598 103.498 357.877 100.917 355.124 99.2595C352.403 97.5703 349.166 96.7258 345.412 96.7258C338.593 96.7258 333.009 99.541 328.662 105.171L329.741 97.6642H317.213L306.656 147.446H320.873L326.644 119.67C327.301 116.479 328.708 114.024 330.867 112.303C333.056 110.552 335.653 109.676 338.655 109.676C341.565 109.676 343.723 110.536 345.13 112.256C346.538 113.945 346.945 116.198 346.35 119.013L340.392 147.446H354.514L360.473 119.857C361.193 116.604 362.585 114.102 364.649 112.35C366.745 110.567 369.357 109.676 372.485 109.676C375.331 109.676 377.474 110.505 378.913 112.162C380.352 113.789 380.743 116.073 380.086 119.013L373.939 147.446H388.156L394.584 117.558C395.304 113.867 395.444 110.708 395.007 108.08C394.569 105.453 393.568 103.295 392.004 101.605C390.44 99.9163 388.563 98.6808 386.373 97.8988ZM313.048 97.6642H307.934C304.774 97.6642 301.944 98.5244 299.441 100.245C296.97 101.965 294.968 104.217 293.435 107.001L295.453 97.6642H281.987L271.43 147.446H285.647L291.699 119.482C292.763 114.727 295.656 112.35 300.38 112.35H309.951L313.048 97.6642Z" fill="url(#paint0_linear_832_2233)"/>
<defs>
<linearGradient id="paint0_linear_832_2233" x1="165.832" y1="114.227" x2="395.255" y2="114.227" gradientUnits="userSpaceOnUse">
<stop stop-color="#8451ED"/>
<stop offset="1" stop-color="#00ACFF"/>
</linearGradient>
</defs>
</svg>
