<svg width="1110" height="56" viewBox="0 0 1110 56" fill="none" xmlns="http://www.w3.org/2000/svg">
<path d="M0.558125 42V1.68H5.54213V42H0.558125ZM50.0914 42L50.1194 22.652C50.1194 20.3933 49.5128 18.6293 48.2994 17.36C47.1048 16.072 45.5461 15.428 43.6234 15.428C42.5034 15.428 41.4394 15.6893 40.4314 16.212C39.4234 16.716 38.6021 17.5187 37.9674 18.62C37.3328 19.7027 37.0154 21.0933 37.0154 22.792L34.3834 21.728C34.3461 19.5813 34.7848 17.7053 35.6994 16.1C36.6328 14.476 37.9021 13.216 39.5074 12.32C41.1128 11.424 42.9234 10.976 44.9394 10.976C48.0941 10.976 50.5768 11.9373 52.3874 13.86C54.1981 15.764 55.1034 18.3307 55.1034 21.56L55.0754 42H50.0914ZM13.9154 42V11.76H18.3674V19.852H18.9274V42H13.9154ZM32.0314 42L32.0594 22.848C32.0594 20.5333 31.4621 18.7227 30.2674 17.416C29.0728 16.0907 27.4861 15.428 25.5074 15.428C23.5474 15.428 21.9608 16.1 20.7474 17.444C19.5341 18.788 18.9274 20.5707 18.9274 22.792L16.2954 21.224C16.2954 19.264 16.7621 17.5093 17.6954 15.96C18.6288 14.4107 19.8981 13.1973 21.5034 12.32C23.1088 11.424 24.9288 10.976 26.9634 10.976C28.9981 10.976 30.7714 11.4053 32.2834 12.264C33.7954 13.1227 34.9621 14.3547 35.7834 15.96C36.6048 17.5467 37.0154 19.4413 37.0154 21.644L36.9874 42H32.0314ZM76.2846 42.84C73.4472 42.84 71.0579 42.14 69.1166 40.74C67.1752 39.3213 65.7006 37.408 64.6926 35C63.7032 32.5733 63.2086 29.8573 63.2086 26.852C63.2086 23.8093 63.7032 21.084 64.6926 18.676C65.7006 16.268 67.1752 14.3733 69.1166 12.992C71.0766 11.6107 73.4752 10.92 76.3126 10.92C79.1126 10.92 81.5206 11.62 83.5366 13.02C85.5712 14.4013 87.1299 16.296 88.2126 18.704C89.2952 21.112 89.8366 23.828 89.8366 26.852C89.8366 29.876 89.2952 32.592 88.2126 35C87.1299 37.408 85.5712 39.3213 83.5366 40.74C81.5206 42.14 79.1032 42.84 76.2846 42.84ZM62.3686 55.44V11.76H66.8206V34.02H67.3806V55.44H62.3686ZM75.6686 38.276C77.6659 38.276 79.3179 37.772 80.6246 36.764C81.9312 35.756 82.9112 34.3933 83.5646 32.676C84.2179 30.94 84.5446 28.9987 84.5446 26.852C84.5446 24.724 84.2179 22.8013 83.5646 21.084C82.9299 19.3667 81.9406 18.004 80.5966 16.996C79.2712 15.988 77.5819 15.484 75.5286 15.484C73.5686 15.484 71.9446 15.9693 70.6566 16.94C69.3686 17.892 68.4072 19.2267 67.7726 20.944C67.1379 22.6427 66.8206 24.612 66.8206 26.852C66.8206 29.0547 67.1286 31.024 67.7446 32.76C68.3792 34.4773 69.3499 35.8307 70.6566 36.82C71.9632 37.7907 73.6339 38.276 75.6686 38.276ZM95.9747 42V11.76H100.427V19.068L99.6987 18.116C100.053 17.1827 100.511 16.324 101.071 15.54C101.649 14.756 102.293 14.112 103.003 13.608C103.787 12.9733 104.673 12.488 105.663 12.152C106.652 11.816 107.66 11.62 108.687 11.564C109.713 11.4893 110.675 11.5547 111.571 11.76V16.436C110.525 16.156 109.377 16.0813 108.127 16.212C106.876 16.3427 105.719 16.8 104.655 17.584C103.684 18.2747 102.928 19.1147 102.387 20.104C101.864 21.0933 101.5 22.1667 101.295 23.324C101.089 24.4627 100.987 25.6293 100.987 26.824V42H95.9747ZM129.198 42.84C126.193 42.84 123.598 42.1587 121.414 40.796C119.249 39.4333 117.578 37.548 116.402 35.14C115.226 32.732 114.638 29.9693 114.638 26.852C114.638 23.6787 115.236 20.8973 116.43 18.508C117.625 16.1187 119.314 14.2613 121.498 12.936C123.682 11.592 126.249 10.92 129.198 10.92C132.222 10.92 134.826 11.6013 137.01 12.964C139.194 14.308 140.865 16.184 142.022 18.592C143.198 20.9813 143.786 23.7347 143.786 26.852C143.786 30.0067 143.198 32.788 142.022 35.196C140.846 37.5853 139.166 39.4613 136.982 40.824C134.798 42.168 132.204 42.84 129.198 42.84ZM129.198 38.108C132.334 38.108 134.668 37.0627 136.198 34.972C137.729 32.8813 138.494 30.1747 138.494 26.852C138.494 23.436 137.72 20.72 136.17 18.704C134.621 16.6693 132.297 15.652 129.198 15.652C127.089 15.652 125.353 16.128 123.99 17.08C122.628 18.032 121.61 19.348 120.938 21.028C120.266 22.708 119.93 24.6493 119.93 26.852C119.93 30.2493 120.714 32.9747 122.282 35.028C123.85 37.0813 126.156 38.108 129.198 38.108ZM157.034 42L146.058 11.76H151.098L159.582 35.644L168.038 11.76H173.106L162.13 42H157.034ZM190.18 42.84C187.212 42.84 184.618 42.1867 182.396 40.88C180.194 39.5547 178.476 37.716 177.244 35.364C176.012 32.9933 175.396 30.2307 175.396 27.076C175.396 23.772 176.003 20.916 177.216 18.508C178.43 16.0813 180.119 14.2147 182.284 12.908C184.468 11.5827 187.026 10.92 189.956 10.92C192.999 10.92 195.584 11.62 197.712 13.02C199.859 14.42 201.464 16.4173 202.528 19.012C203.611 21.6067 204.078 24.696 203.928 28.28H198.888V26.488C198.832 22.7733 198.076 20.0013 196.62 18.172C195.164 16.324 192.999 15.4 190.124 15.4C187.044 15.4 184.702 16.3893 183.096 18.368C181.491 20.3467 180.688 23.184 180.688 26.88C180.688 30.4453 181.491 33.208 183.096 35.168C184.702 37.128 186.988 38.108 189.956 38.108C191.954 38.108 193.69 37.6507 195.164 36.736C196.639 35.8213 197.796 34.5053 198.636 32.788L203.424 34.44C202.248 37.1093 200.475 39.1813 198.104 40.656C195.752 42.112 193.111 42.84 190.18 42.84ZM179.008 28.28V24.276H201.352V28.28H179.008ZM231.033 42V25.228L217.453 1.68H223.249L233.553 19.516L243.829 1.68H249.625L236.073 25.228V42H231.033ZM261.925 42.84C258.92 42.84 256.325 42.1587 254.141 40.796C251.976 39.4333 250.305 37.548 249.129 35.14C247.953 32.732 247.365 29.9693 247.365 26.852C247.365 23.6787 247.962 20.8973 249.157 18.508C250.352 16.1187 252.041 14.2613 254.225 12.936C256.409 11.592 258.976 10.92 261.925 10.92C264.949 10.92 267.553 11.6013 269.737 12.964C271.921 14.308 273.592 16.184 274.749 18.592C275.925 20.9813 276.513 23.7347 276.513 26.852C276.513 30.0067 275.925 32.788 274.749 35.196C273.573 37.5853 271.893 39.4613 269.709 40.824C267.525 42.168 264.93 42.84 261.925 42.84ZM261.925 38.108C265.061 38.108 267.394 37.0627 268.925 34.972C270.456 32.8813 271.221 30.1747 271.221 26.852C271.221 23.436 270.446 20.72 268.897 18.704C267.348 16.6693 265.024 15.652 261.925 15.652C259.816 15.652 258.08 16.128 256.717 17.08C255.354 18.032 254.337 19.348 253.665 21.028C252.993 22.708 252.657 24.6493 252.657 26.852C252.657 30.2493 253.441 32.9747 255.009 35.028C256.577 37.0813 258.882 38.108 261.925 38.108ZM294.158 42.784C292.216 42.784 290.546 42.476 289.146 41.86C287.764 41.244 286.616 40.4227 285.702 39.396C284.787 38.3693 284.068 37.2307 283.546 35.98C283.023 34.7293 282.65 33.4507 282.426 32.144C282.22 30.8373 282.118 29.6147 282.118 28.476V11.76H287.158V26.908C287.158 28.3267 287.288 29.6987 287.55 31.024C287.811 32.3493 288.25 33.544 288.866 34.608C289.5 35.672 290.34 36.512 291.386 37.128C292.45 37.744 293.775 38.052 295.362 38.052C296.612 38.052 297.751 37.8373 298.778 37.408C299.804 36.9787 300.682 36.344 301.41 35.504C302.138 34.6453 302.698 33.5627 303.09 32.256C303.482 30.9493 303.678 29.428 303.678 27.692L306.954 28.7C306.954 31.612 306.422 34.1227 305.358 36.232C304.312 38.3413 302.828 39.9653 300.906 41.104C299.002 42.224 296.752 42.784 294.158 42.784ZM304.238 42V33.908H303.678V11.76H308.69V42H304.238ZM316.529 42V11.76H320.981V19.068L320.253 18.116C320.608 17.1827 321.065 16.324 321.625 15.54C322.204 14.756 322.848 14.112 323.557 13.608C324.341 12.9733 325.228 12.488 326.217 12.152C327.207 11.816 328.215 11.62 329.241 11.564C330.268 11.4893 331.229 11.5547 332.125 11.76V16.436C331.08 16.156 329.932 16.0813 328.681 16.212C327.431 16.3427 326.273 16.8 325.209 17.584C324.239 18.2747 323.483 19.1147 322.941 20.104C322.419 21.0933 322.055 22.1667 321.849 23.324C321.644 24.4627 321.541 25.6293 321.541 26.824V42H316.529ZM348.631 42V1.68H364.563C364.955 1.68 365.422 1.69866 365.963 1.736C366.504 1.75467 367.027 1.81067 367.531 1.904C369.715 2.24 371.544 2.98666 373.019 4.144C374.512 5.30133 375.632 6.76666 376.379 8.54C377.126 10.2947 377.499 12.2453 377.499 14.392C377.499 17.5093 376.687 20.216 375.063 22.512C373.439 24.7893 371.059 26.2173 367.923 26.796L366.019 27.104H353.615V42H348.631ZM372.627 42L364.675 25.592L369.603 24.08L378.339 42H372.627ZM353.615 22.372H364.395C364.75 22.372 365.151 22.3533 365.599 22.316C366.066 22.2787 366.504 22.2133 366.915 22.12C368.203 21.8213 369.248 21.28 370.051 20.496C370.872 19.6933 371.47 18.76 371.843 17.696C372.216 16.6133 372.403 15.512 372.403 14.392C372.403 13.272 372.216 12.18 371.843 11.116C371.47 10.0333 370.872 9.09067 370.051 8.288C369.248 7.48533 368.203 6.944 366.915 6.664C366.504 6.552 366.066 6.48667 365.599 6.468C365.151 6.43067 364.75 6.412 364.395 6.412H353.615V22.372ZM393.102 42.84C390.843 42.84 388.949 42.4293 387.418 41.608C385.906 40.768 384.758 39.6667 383.974 38.304C383.209 36.9413 382.826 35.448 382.826 33.824C382.826 32.2373 383.125 30.8653 383.722 29.708C384.338 28.532 385.197 27.5613 386.298 26.796C387.399 26.012 388.715 25.396 390.246 24.948C391.683 24.556 393.289 24.22 395.062 23.94C396.854 23.6413 398.665 23.3707 400.494 23.128C402.323 22.8853 404.031 22.652 405.618 22.428L403.826 23.464C403.882 20.776 403.341 18.788 402.202 17.5C401.082 16.212 399.141 15.568 396.378 15.568C394.549 15.568 392.943 15.988 391.562 16.828C390.199 17.6493 389.238 18.9933 388.678 20.86L383.946 19.432C384.674 16.7813 386.083 14.7 388.174 13.188C390.265 11.676 393.018 10.92 396.434 10.92C399.178 10.92 401.53 11.4147 403.49 12.404C405.469 13.3747 406.887 14.8493 407.746 16.828C408.175 17.7613 408.446 18.7787 408.558 19.88C408.67 20.9627 408.726 22.1013 408.726 23.296V42H404.302V34.748L405.338 35.42C404.199 37.8653 402.603 39.7133 400.55 40.964C398.515 42.2147 396.033 42.84 393.102 42.84ZM393.858 38.668C395.65 38.668 397.199 38.3507 398.506 37.716C399.831 37.0627 400.895 36.2133 401.698 35.168C402.501 34.104 403.023 32.9467 403.266 31.696C403.546 30.7627 403.695 29.7267 403.714 28.588C403.751 27.4307 403.77 26.544 403.77 25.928L405.506 26.684C403.882 26.908 402.286 27.1227 400.718 27.328C399.15 27.5333 397.666 27.7573 396.266 28C394.866 28.224 393.606 28.4947 392.486 28.812C391.665 29.0733 390.89 29.4093 390.162 29.82C389.453 30.2307 388.874 30.7627 388.426 31.416C387.997 32.0507 387.782 32.844 387.782 33.796C387.782 34.6173 387.987 35.4013 388.398 36.148C388.827 36.8947 389.481 37.5013 390.358 37.968C391.254 38.4347 392.421 38.668 393.858 38.668ZM437.538 42V26.852C437.538 25.4147 437.407 24.0333 437.146 22.708C436.903 21.3827 436.465 20.1973 435.83 19.152C435.214 18.088 434.374 17.248 433.31 16.632C432.265 16.016 430.939 15.708 429.334 15.708C428.083 15.708 426.945 15.9227 425.918 16.352C424.91 16.7627 424.042 17.3973 423.314 18.256C422.586 19.1147 422.017 20.1973 421.606 21.504C421.214 22.792 421.018 24.3133 421.018 26.068L417.742 25.06C417.742 22.1293 418.265 19.6187 419.31 17.528C420.374 15.4187 421.858 13.804 423.762 12.684C425.685 11.5453 427.943 10.976 430.538 10.976C432.498 10.976 434.169 11.284 435.55 11.9C436.931 12.516 438.079 13.3373 438.994 14.364C439.909 15.372 440.627 16.5107 441.15 17.78C441.673 19.0307 442.037 20.3093 442.242 21.616C442.466 22.904 442.578 24.1267 442.578 25.284V42H437.538ZM415.978 42V11.76H420.458V19.852H421.018V42H415.978ZM449.83 42L449.858 1.68H454.898V26.32L467.582 11.76H474.05L460.694 26.88L475.618 42H468.646L454.898 27.44V42H449.83ZM498.211 42.84C495.953 42.84 494.058 42.4293 492.527 41.608C491.015 40.768 489.867 39.6667 489.083 38.304C488.318 36.9413 487.935 35.448 487.935 33.824C487.935 32.2373 488.234 30.8653 488.831 29.708C489.447 28.532 490.306 27.5613 491.407 26.796C492.509 26.012 493.825 25.396 495.355 24.948C496.793 24.556 498.398 24.22 500.171 23.94C501.963 23.6413 503.774 23.3707 505.603 23.128C507.433 22.8853 509.141 22.652 510.727 22.428L508.935 23.464C508.991 20.776 508.45 18.788 507.311 17.5C506.191 16.212 504.25 15.568 501.487 15.568C499.658 15.568 498.053 15.988 496.671 16.828C495.309 17.6493 494.347 18.9933 493.787 20.86L489.055 19.432C489.783 16.7813 491.193 14.7 493.283 13.188C495.374 11.676 498.127 10.92 501.543 10.92C504.287 10.92 506.639 11.4147 508.599 12.404C510.578 13.3747 511.997 14.8493 512.855 16.828C513.285 17.7613 513.555 18.7787 513.667 19.88C513.779 20.9627 513.835 22.1013 513.835 23.296V42H509.411V34.748L510.447 35.42C509.309 37.8653 507.713 39.7133 505.659 40.964C503.625 42.2147 501.142 42.84 498.211 42.84ZM498.967 38.668C500.759 38.668 502.309 38.3507 503.615 37.716C504.941 37.0627 506.005 36.2133 506.807 35.168C507.61 34.104 508.133 32.9467 508.375 31.696C508.655 30.7627 508.805 29.7267 508.823 28.588C508.861 27.4307 508.879 26.544 508.879 25.928L510.615 26.684C508.991 26.908 507.395 27.1227 505.827 27.328C504.259 27.5333 502.775 27.7573 501.375 28C499.975 28.224 498.715 28.4947 497.595 28.812C496.774 29.0733 495.999 29.4093 495.271 29.82C494.562 30.2307 493.983 30.7627 493.535 31.416C493.106 32.0507 492.891 32.844 492.891 33.796C492.891 34.6173 493.097 35.4013 493.507 36.148C493.937 36.8947 494.59 37.5013 495.467 37.968C496.363 38.4347 497.53 38.668 498.967 38.668ZM542.647 42V26.852C542.647 25.4147 542.517 24.0333 542.255 22.708C542.013 21.3827 541.574 20.1973 540.939 19.152C540.323 18.088 539.483 17.248 538.419 16.632C537.374 16.016 536.049 15.708 534.443 15.708C533.193 15.708 532.054 15.9227 531.027 16.352C530.019 16.7627 529.151 17.3973 528.423 18.256C527.695 19.1147 527.126 20.1973 526.715 21.504C526.323 22.792 526.127 24.3133 526.127 26.068L522.851 25.06C522.851 22.1293 523.374 19.6187 524.419 17.528C525.483 15.4187 526.967 13.804 528.871 12.684C530.794 11.5453 533.053 10.976 535.647 10.976C537.607 10.976 539.278 11.284 540.659 11.9C542.041 12.516 543.189 13.3373 544.103 14.364C545.018 15.372 545.737 16.5107 546.259 17.78C546.782 19.0307 547.146 20.3093 547.351 21.616C547.575 22.904 547.687 24.1267 547.687 25.284V42H542.647ZM521.087 42V11.76H525.567V19.852H526.127V42H521.087ZM566.565 42.84C563.747 42.84 561.329 42.14 559.313 40.74C557.297 39.3213 555.739 37.408 554.637 35C553.555 32.592 553.013 29.876 553.013 26.852C553.013 23.828 553.555 21.112 554.637 18.704C555.739 16.296 557.297 14.4013 559.313 13.02C561.329 11.62 563.737 10.92 566.537 10.92C569.393 10.92 571.792 11.6107 573.733 12.992C575.675 14.3733 577.14 16.268 578.129 18.676C579.137 21.084 579.641 23.8093 579.641 26.852C579.641 29.8573 579.137 32.5733 578.129 35C577.14 37.408 575.675 39.3213 573.733 40.74C571.792 42.14 569.403 42.84 566.565 42.84ZM567.181 38.276C569.216 38.276 570.887 37.7907 572.193 36.82C573.5 35.8307 574.461 34.4773 575.077 32.76C575.712 31.024 576.029 29.0547 576.029 26.852C576.029 24.612 575.712 22.6427 575.077 20.944C574.461 19.2267 573.509 17.892 572.221 16.94C570.933 15.9693 569.3 15.484 567.321 15.484C565.268 15.484 563.569 15.988 562.225 16.996C560.9 18.004 559.911 19.3667 559.257 21.084C558.623 22.8013 558.305 24.724 558.305 26.852C558.305 28.9987 558.632 30.94 559.285 32.676C559.939 34.3933 560.919 35.756 562.225 36.764C563.551 37.772 565.203 38.276 567.181 38.276ZM576.029 42V19.74H575.469V1.68H580.481V42H576.029ZM599.537 42V1.68H623.057V6.664H604.521V19.348H619.697V24.332H604.521V42H599.537ZM635.586 42.84C633.328 42.84 631.433 42.4293 629.902 41.608C628.39 40.768 627.242 39.6667 626.458 38.304C625.693 36.9413 625.31 35.448 625.31 33.824C625.31 32.2373 625.609 30.8653 626.206 29.708C626.822 28.532 627.681 27.5613 628.782 26.796C629.884 26.012 631.2 25.396 632.73 24.948C634.168 24.556 635.773 24.22 637.546 23.94C639.338 23.6413 641.149 23.3707 642.978 23.128C644.808 22.8853 646.516 22.652 648.102 22.428L646.31 23.464C646.366 20.776 645.825 18.788 644.686 17.5C643.566 16.212 641.625 15.568 638.862 15.568C637.033 15.568 635.428 15.988 634.046 16.828C632.684 17.6493 631.722 18.9933 631.162 20.86L626.43 19.432C627.158 16.7813 628.568 14.7 630.658 13.188C632.749 11.676 635.502 10.92 638.918 10.92C641.662 10.92 644.014 11.4147 645.974 12.404C647.953 13.3747 649.372 14.8493 650.23 16.828C650.66 17.7613 650.93 18.7787 651.042 19.88C651.154 20.9627 651.21 22.1013 651.21 23.296V42H646.786V34.748L647.822 35.42C646.684 37.8653 645.088 39.7133 643.034 40.964C641 42.2147 638.517 42.84 635.586 42.84ZM636.342 38.668C638.134 38.668 639.684 38.3507 640.99 37.716C642.316 37.0627 643.38 36.2133 644.182 35.168C644.985 34.104 645.508 32.9467 645.75 31.696C646.03 30.7627 646.18 29.7267 646.198 28.588C646.236 27.4307 646.254 26.544 646.254 25.928L647.99 26.684C646.366 26.908 644.77 27.1227 643.202 27.328C641.634 27.5333 640.15 27.7573 638.75 28C637.35 28.224 636.09 28.4947 634.97 28.812C634.149 29.0733 633.374 29.4093 632.646 29.82C631.937 30.2307 631.358 30.7627 630.91 31.416C630.481 32.0507 630.266 32.844 630.266 33.796C630.266 34.6173 630.472 35.4013 630.882 36.148C631.312 36.8947 631.965 37.5013 632.842 37.968C633.738 38.4347 634.905 38.668 636.342 38.668ZM658.49 42V11.76H662.942V19.068L662.214 18.116C662.569 17.1827 663.026 16.324 663.586 15.54C664.165 14.756 664.809 14.112 665.518 13.608C666.302 12.9733 667.189 12.488 668.178 12.152C669.168 11.816 670.176 11.62 671.202 11.564C672.229 11.4893 673.19 11.5547 674.086 11.76V16.436C673.041 16.156 671.893 16.0813 670.642 16.212C669.392 16.3427 668.234 16.8 667.17 17.584C666.2 18.2747 665.444 19.1147 664.902 20.104C664.38 21.0933 664.016 22.1667 663.81 23.324C663.605 24.4627 663.502 25.6293 663.502 26.824V42H658.49ZM715.529 42L715.557 22.652C715.557 20.3933 714.95 18.6293 713.737 17.36C712.542 16.072 710.984 15.428 709.061 15.428C707.941 15.428 706.877 15.6893 705.869 16.212C704.861 16.716 704.04 17.5187 703.405 18.62C702.77 19.7027 702.453 21.0933 702.453 22.792L699.821 21.728C699.784 19.5813 700.222 17.7053 701.137 16.1C702.07 14.476 703.34 13.216 704.945 12.32C706.55 11.424 708.361 10.976 710.377 10.976C713.532 10.976 716.014 11.9373 717.825 13.86C719.636 15.764 720.541 18.3307 720.541 21.56L720.513 42H715.529ZM679.353 42V11.76H683.805V19.852H684.365V42H679.353ZM697.469 42L697.497 22.848C697.497 20.5333 696.9 18.7227 695.705 17.416C694.51 16.0907 692.924 15.428 690.945 15.428C688.985 15.428 687.398 16.1 686.185 17.444C684.972 18.788 684.365 20.5707 684.365 22.792L681.733 21.224C681.733 19.264 682.2 17.5093 683.133 15.96C684.066 14.4107 685.336 13.1973 686.941 12.32C688.546 11.424 690.366 10.976 692.401 10.976C694.436 10.976 696.209 11.4053 697.721 12.264C699.233 13.1227 700.4 14.3547 701.221 15.96C702.042 17.5467 702.453 19.4413 702.453 21.644L702.425 42H697.469ZM775.193 42L775.221 22.652C775.221 20.3933 774.614 18.6293 773.401 17.36C772.206 16.072 770.648 15.428 768.725 15.428C767.605 15.428 766.541 15.6893 765.533 16.212C764.525 16.716 763.704 17.5187 763.069 18.62C762.434 19.7027 762.117 21.0933 762.117 22.792L759.485 21.728C759.448 19.5813 759.886 17.7053 760.801 16.1C761.734 14.476 763.004 13.216 764.609 12.32C766.214 11.424 768.025 10.976 770.041 10.976C773.196 10.976 775.678 11.9373 777.489 13.86C779.3 15.764 780.205 18.3307 780.205 21.56L780.177 42H775.193ZM739.017 42V11.76H743.469V19.852H744.029V42H739.017ZM757.133 42L757.161 22.848C757.161 20.5333 756.564 18.7227 755.369 17.416C754.174 16.0907 752.588 15.428 750.609 15.428C748.649 15.428 747.062 16.1 745.849 17.444C744.636 18.788 744.029 20.5707 744.029 22.792L741.397 21.224C741.397 19.264 741.864 17.5093 742.797 15.96C743.73 14.4107 745 13.1973 746.605 12.32C748.21 11.424 750.03 10.976 752.065 10.976C754.1 10.976 755.873 11.4053 757.385 12.264C758.897 13.1227 760.064 14.3547 760.885 15.96C761.706 17.5467 762.117 19.4413 762.117 21.644L762.089 42H757.133ZM800.105 42.84C797.099 42.84 794.505 42.1587 792.321 40.796C790.155 39.4333 788.485 37.548 787.309 35.14C786.133 32.732 785.545 29.9693 785.545 26.852C785.545 23.6787 786.142 20.8973 787.337 18.508C788.531 16.1187 790.221 14.2613 792.405 12.936C794.589 11.592 797.155 10.92 800.105 10.92C803.129 10.92 805.733 11.6013 807.917 12.964C810.101 14.308 811.771 16.184 812.929 18.592C814.105 20.9813 814.693 23.7347 814.693 26.852C814.693 30.0067 814.105 32.788 812.929 35.196C811.753 37.5853 810.073 39.4613 807.889 40.824C805.705 42.168 803.11 42.84 800.105 42.84ZM800.105 38.108C803.241 38.108 805.574 37.0627 807.105 34.972C808.635 32.8813 809.401 30.1747 809.401 26.852C809.401 23.436 808.626 20.72 807.077 18.704C805.527 16.6693 803.203 15.652 800.105 15.652C797.995 15.652 796.259 16.128 794.897 17.08C793.534 18.032 792.517 19.348 791.845 21.028C791.173 22.708 790.837 24.6493 790.837 26.852C790.837 30.2493 791.621 32.9747 793.189 35.028C794.757 37.0813 797.062 38.108 800.105 38.108ZM820.858 42V11.76H825.31V19.068L824.582 18.116C824.936 17.1827 825.394 16.324 825.954 15.54C826.532 14.756 827.176 14.112 827.886 13.608C828.67 12.9733 829.556 12.488 830.546 12.152C831.535 11.816 832.543 11.62 833.57 11.564C834.596 11.4893 835.558 11.5547 836.454 11.76V16.436C835.408 16.156 834.26 16.0813 833.01 16.212C831.759 16.3427 830.602 16.8 829.538 17.584C828.567 18.2747 827.811 19.1147 827.27 20.104C826.747 21.0933 826.383 22.1667 826.178 23.324C825.972 24.4627 825.87 25.6293 825.87 26.824V42H820.858ZM854.305 42.84C851.337 42.84 848.743 42.1867 846.521 40.88C844.319 39.5547 842.601 37.716 841.369 35.364C840.137 32.9933 839.521 30.2307 839.521 27.076C839.521 23.772 840.128 20.916 841.341 18.508C842.555 16.0813 844.244 14.2147 846.409 12.908C848.593 11.5827 851.151 10.92 854.081 10.92C857.124 10.92 859.709 11.62 861.837 13.02C863.984 14.42 865.589 16.4173 866.653 19.012C867.736 21.6067 868.203 24.696 868.053 28.28H863.013V26.488C862.957 22.7733 862.201 20.0013 860.745 18.172C859.289 16.324 857.124 15.4 854.249 15.4C851.169 15.4 848.827 16.3893 847.221 18.368C845.616 20.3467 844.813 23.184 844.813 26.88C844.813 30.4453 845.616 33.208 847.221 35.168C848.827 37.128 851.113 38.108 854.081 38.108C856.079 38.108 857.815 37.6507 859.289 36.736C860.764 35.8213 861.921 34.5053 862.761 32.788L867.549 34.44C866.373 37.1093 864.6 39.1813 862.229 40.656C859.877 42.112 857.236 42.84 854.305 42.84ZM843.133 28.28V24.276H865.477V28.28H843.133ZM899.806 42.84C896.95 42.84 894.374 42.3547 892.078 41.384C889.801 40.4133 887.915 39.032 886.422 37.24C884.947 35.4293 883.986 33.292 883.538 30.828L888.69 30.016C889.343 32.5547 890.697 34.5427 892.75 35.98C894.822 37.3987 897.258 38.108 900.058 38.108C901.869 38.108 903.502 37.828 904.958 37.268C906.433 36.6893 907.599 35.868 908.458 34.804C909.317 33.74 909.746 32.48 909.746 31.024C909.746 30.128 909.587 29.3627 909.27 28.728C908.971 28.0747 908.551 27.524 908.01 27.076C907.487 26.6093 906.89 26.2173 906.218 25.9C905.546 25.5827 904.846 25.3213 904.118 25.116L893.842 22.064C892.722 21.728 891.639 21.308 890.594 20.804C889.549 20.2813 888.615 19.6373 887.794 18.872C886.973 18.088 886.319 17.1547 885.834 16.072C885.349 14.9707 885.106 13.6733 885.106 12.18C885.106 9.79066 885.722 7.756 886.954 6.076C888.205 4.37733 889.894 3.08 892.022 2.184C894.15 1.288 896.549 0.849332 899.218 0.867997C901.925 0.886665 904.342 1.372 906.47 2.324C908.617 3.25733 910.39 4.60133 911.79 6.356C913.209 8.11067 914.161 10.2107 914.646 12.656L909.354 13.58C909.074 11.9373 908.449 10.528 907.478 9.352C906.526 8.15733 905.331 7.24267 903.894 6.608C902.457 5.95467 900.879 5.61867 899.162 5.6C897.519 5.58133 896.035 5.84266 894.71 6.384C893.385 6.92533 892.33 7.68133 891.546 8.652C890.762 9.604 890.37 10.7053 890.37 11.956C890.37 13.188 890.725 14.1867 891.434 14.952C892.143 15.6987 893.011 16.296 894.038 16.744C895.083 17.1733 896.101 17.528 897.09 17.808L904.762 20.02C905.639 20.2627 906.647 20.5987 907.786 21.028C908.943 21.4573 910.063 22.064 911.146 22.848C912.229 23.6133 913.125 24.64 913.834 25.928C914.543 27.1973 914.898 28.8027 914.898 30.744C914.898 32.6853 914.506 34.412 913.722 35.924C912.957 37.436 911.883 38.7053 910.502 39.732C909.121 40.74 907.515 41.5053 905.686 42.028C903.857 42.5693 901.897 42.84 899.806 42.84ZM937.656 42C935.864 42.3547 934.09 42.4947 932.336 42.42C930.6 42.364 929.05 42.0187 927.688 41.384C926.325 40.7307 925.289 39.7227 924.58 38.36C923.982 37.1653 923.656 35.9613 923.6 34.748C923.562 33.516 923.544 32.1253 923.544 30.576V3.36H928.528V30.352C928.528 31.584 928.537 32.6387 928.556 33.516C928.593 34.3933 928.789 35.1493 929.144 35.784C929.816 36.9787 930.88 37.6787 932.336 37.884C933.81 38.0893 935.584 38.0333 937.656 37.716V42ZM917.412 15.876V11.76H937.656V15.876H917.412ZM952.391 42.84C950.132 42.84 948.238 42.4293 946.707 41.608C945.195 40.768 944.047 39.6667 943.263 38.304C942.498 36.9413 942.115 35.448 942.115 33.824C942.115 32.2373 942.414 30.8653 943.011 29.708C943.627 28.532 944.486 27.5613 945.587 26.796C946.688 26.012 948.004 25.396 949.535 24.948C950.972 24.556 952.578 24.22 954.351 23.94C956.143 23.6413 957.954 23.3707 959.783 23.128C961.612 22.8853 963.32 22.652 964.907 22.428L963.115 23.464C963.171 20.776 962.63 18.788 961.491 17.5C960.371 16.212 958.43 15.568 955.667 15.568C953.838 15.568 952.232 15.988 950.851 16.828C949.488 17.6493 948.527 18.9933 947.967 20.86L943.235 19.432C943.963 16.7813 945.372 14.7 947.463 13.188C949.554 11.676 952.307 10.92 955.723 10.92C958.467 10.92 960.819 11.4147 962.779 12.404C964.758 13.3747 966.176 14.8493 967.035 16.828C967.464 17.7613 967.735 18.7787 967.847 19.88C967.959 20.9627 968.015 22.1013 968.015 23.296V42H963.591V34.748L964.627 35.42C963.488 37.8653 961.892 39.7133 959.839 40.964C957.804 42.2147 955.322 42.84 952.391 42.84ZM953.147 38.668C954.939 38.668 956.488 38.3507 957.795 37.716C959.12 37.0627 960.184 36.2133 960.987 35.168C961.79 34.104 962.312 32.9467 962.555 31.696C962.835 30.7627 962.984 29.7267 963.003 28.588C963.04 27.4307 963.059 26.544 963.059 25.928L964.795 26.684C963.171 26.908 961.575 27.1227 960.007 27.328C958.439 27.5333 956.955 27.7573 955.555 28C954.155 28.224 952.895 28.4947 951.775 28.812C950.954 29.0733 950.179 29.4093 949.451 29.82C948.742 30.2307 948.163 30.7627 947.715 31.416C947.286 32.0507 947.071 32.844 947.071 33.796C947.071 34.6173 947.276 35.4013 947.687 36.148C948.116 36.8947 948.77 37.5013 949.647 37.968C950.543 38.4347 951.71 38.668 953.147 38.668ZM975.295 42V11.76H979.747V19.068L979.019 18.116C979.374 17.1827 979.831 16.324 980.391 15.54C980.97 14.756 981.614 14.112 982.323 13.608C983.107 12.9733 983.994 12.488 984.983 12.152C985.972 11.816 986.98 11.62 988.007 11.564C989.034 11.4893 989.995 11.5547 990.891 11.76V16.436C989.846 16.156 988.698 16.0813 987.447 16.212C986.196 16.3427 985.039 16.8 983.975 17.584C983.004 18.2747 982.248 19.1147 981.707 20.104C981.184 21.0933 980.82 22.1667 980.615 23.324C980.41 24.4627 980.307 25.6293 980.307 26.824V42H975.295ZM1007.51 42.84C1004.69 42.84 1002.27 42.14 1000.26 40.74C998.243 39.3213 996.684 37.408 995.583 35C994.5 32.592 993.959 29.876 993.959 26.852C993.959 23.828 994.5 21.112 995.583 18.704C996.684 16.296 998.243 14.4013 1000.26 13.02C1002.27 11.62 1004.68 10.92 1007.48 10.92C1010.34 10.92 1012.74 11.6107 1014.68 12.992C1016.62 14.3733 1018.09 16.268 1019.07 18.676C1020.08 21.084 1020.59 23.8093 1020.59 26.852C1020.59 29.8573 1020.08 32.5733 1019.07 35C1018.09 37.408 1016.62 39.3213 1014.68 40.74C1012.74 42.14 1010.35 42.84 1007.51 42.84ZM1008.13 38.276C1010.16 38.276 1011.83 37.7907 1013.14 36.82C1014.45 35.8307 1015.41 34.4773 1016.02 32.76C1016.66 31.024 1016.97 29.0547 1016.97 26.852C1016.97 24.612 1016.66 22.6427 1016.02 20.944C1015.41 19.2267 1014.45 17.892 1013.17 16.94C1011.88 15.9693 1010.25 15.484 1008.27 15.484C1006.21 15.484 1004.51 15.988 1003.17 16.996C1001.85 18.004 1000.86 19.3667 1000.2 21.084C999.568 22.8013 999.251 24.724 999.251 26.852C999.251 28.9987 999.577 30.94 1000.23 32.676C1000.88 34.3933 1001.86 35.756 1003.17 36.764C1004.5 37.772 1006.15 38.276 1008.13 38.276ZM1016.97 42V19.74H1016.41V1.68H1021.43V42H1016.97ZM1040.75 42.784C1038.81 42.784 1037.14 42.476 1035.74 41.86C1034.36 41.244 1033.21 40.4227 1032.3 39.396C1031.38 38.3693 1030.66 37.2307 1030.14 35.98C1029.62 34.7293 1029.24 33.4507 1029.02 32.144C1028.81 30.8373 1028.71 29.6147 1028.71 28.476V11.76H1033.75V26.908C1033.75 28.3267 1033.88 29.6987 1034.14 31.024C1034.4 32.3493 1034.84 33.544 1035.46 34.608C1036.09 35.672 1036.93 36.512 1037.98 37.128C1039.04 37.744 1040.37 38.052 1041.96 38.052C1043.21 38.052 1044.34 37.8373 1045.37 37.408C1046.4 36.9787 1047.28 36.344 1048 35.504C1048.73 34.6453 1049.29 33.5627 1049.68 32.256C1050.08 30.9493 1050.27 29.428 1050.27 27.692L1053.55 28.7C1053.55 31.612 1053.02 34.1227 1051.95 36.232C1050.91 38.3413 1049.42 39.9653 1047.5 41.104C1045.6 42.224 1043.35 42.784 1040.75 42.784ZM1050.83 42V33.908H1050.27V11.76H1055.28V42H1050.83ZM1074.55 42.812C1070.94 42.812 1067.99 42.028 1065.67 40.46C1063.38 38.8733 1061.97 36.6613 1061.44 33.824L1066.54 33.012C1066.95 34.6547 1067.89 35.9613 1069.37 36.932C1070.84 37.884 1072.67 38.36 1074.86 38.36C1076.93 38.36 1078.55 37.9307 1079.73 37.072C1080.9 36.2133 1081.49 35.0467 1081.49 33.572C1081.49 32.7133 1081.3 32.0227 1080.9 31.5C1080.51 30.9587 1079.7 30.4547 1078.47 29.988C1077.25 29.5213 1075.42 28.9613 1072.95 28.308C1070.28 27.5987 1068.18 26.8613 1066.65 26.096C1065.12 25.3307 1064.03 24.444 1063.38 23.436C1062.72 22.428 1062.4 21.2053 1062.4 19.768C1062.4 17.9947 1062.88 16.4453 1063.85 15.12C1064.82 13.776 1066.18 12.74 1067.91 12.012C1069.67 11.284 1071.7 10.92 1074.02 10.92C1076.31 10.92 1078.36 11.284 1080.18 12.012C1081.99 12.74 1083.44 13.776 1084.54 15.12C1085.66 16.4453 1086.33 17.9947 1086.53 19.768L1081.44 20.692C1081.19 19.068 1080.41 17.7893 1079.08 16.856C1077.78 15.9227 1076.09 15.428 1074.02 15.372C1072.06 15.2973 1070.46 15.6427 1069.23 16.408C1068.01 17.1733 1067.41 18.2093 1067.41 19.516C1067.41 20.244 1067.63 20.8693 1068.08 21.392C1068.55 21.9147 1069.4 22.4093 1070.63 22.876C1071.88 23.3427 1073.69 23.8747 1076.06 24.472C1078.73 25.144 1080.83 25.8813 1082.36 26.684C1083.91 27.468 1085.01 28.4013 1085.66 29.484C1086.32 30.548 1086.64 31.864 1086.64 33.432C1086.64 36.344 1085.57 38.64 1083.42 40.32C1081.28 41.9813 1078.32 42.812 1074.55 42.812ZM1109.7 42C1107.91 42.3547 1106.14 42.4947 1104.38 42.42C1102.65 42.364 1101.1 42.0187 1099.73 41.384C1098.37 40.7307 1097.34 39.7227 1096.63 38.36C1096.03 37.1653 1095.7 35.9613 1095.65 34.748C1095.61 33.516 1095.59 32.1253 1095.59 30.576V3.36H1100.57V30.352C1100.57 31.584 1100.58 32.6387 1100.6 33.516C1100.64 34.3933 1100.84 35.1493 1101.19 35.784C1101.86 36.9787 1102.93 37.6787 1104.38 37.884C1105.86 38.0893 1107.63 38.0333 1109.7 37.716V42ZM1089.46 15.876V11.76H1109.7V15.876H1089.46Z" fill="white"/>
</svg>
