<svg width="408" height="71" viewBox="0 0 408 71" fill="none" xmlns="http://www.w3.org/2000/svg">
<path d="M13.8384 14V1.04H15.1614V14H13.8384ZM24.8796 14V9.041C24.8796 8.501 24.8286 8.006 24.7266 7.556C24.6246 7.1 24.4596 6.704 24.2316 6.368C24.0096 6.026 23.7186 5.762 23.3586 5.576C23.0046 5.39 22.5726 5.297 22.0626 5.297C21.5946 5.297 21.1806 5.378 20.8206 5.54C20.4666 5.702 20.1666 5.936 19.9206 6.242C19.6806 6.542 19.4976 6.908 19.3716 7.34C19.2456 7.772 19.1826 8.264 19.1826 8.816L18.2466 8.609C18.2466 7.613 18.4206 6.776 18.7686 6.098C19.1166 5.42 19.5966 4.907 20.2086 4.559C20.8206 4.211 21.5226 4.037 22.3146 4.037C22.8966 4.037 23.4036 4.127 23.8356 4.307C24.2736 4.487 24.6426 4.73 24.9426 5.036C25.2486 5.342 25.4946 5.693 25.6806 6.089C25.8666 6.479 26.0016 6.896 26.0856 7.34C26.1696 7.778 26.2116 8.216 26.2116 8.654V14H24.8796ZM17.8506 14V4.28H19.0476V6.674H19.1826V14H17.8506ZM31.1751 14L27.6471 4.28H28.9881L31.8591 12.272L34.7121 4.28H36.0711L32.5431 14H31.1751ZM37.8677 2.435V0.95H39.1907V2.435H37.8677ZM37.8677 14V4.28H39.1907V14H37.8677ZM47.1809 14C46.6349 14.114 46.0949 14.159 45.5609 14.135C45.0329 14.111 44.5589 13.997 44.1389 13.793C43.7249 13.589 43.4099 13.271 43.1939 12.839C43.0199 12.479 42.9239 12.116 42.9059 11.75C42.8939 11.378 42.8879 10.955 42.8879 10.481V1.58H44.2019V10.427C44.2019 10.835 44.2049 11.177 44.2109 11.453C44.2229 11.723 44.2859 11.963 44.3999 12.173C44.6159 12.575 44.9579 12.815 45.4259 12.893C45.8999 12.971 46.4849 12.953 47.1809 12.839V14ZM40.8089 5.414V4.28H47.1809V5.414H40.8089ZM52.8574 14.27C51.9094 14.27 51.0874 14.06 50.3914 13.64C49.7014 13.22 49.1644 12.629 48.7804 11.867C48.3964 11.105 48.2044 10.211 48.2044 9.185C48.2044 8.123 48.3934 7.205 48.7714 6.431C49.1494 5.657 49.6804 5.06 50.3644 4.64C51.0544 4.22 51.8674 4.01 52.8034 4.01C53.7634 4.01 54.5824 4.232 55.2604 4.676C55.9384 5.114 56.4514 5.744 56.7994 6.566C57.1474 7.388 57.3064 8.369 57.2764 9.509H55.9264V9.041C55.9024 7.781 55.6294 6.83 55.1074 6.188C54.5914 5.546 53.8354 5.225 52.8394 5.225C51.7954 5.225 50.9944 5.564 50.4364 6.242C49.8844 6.92 49.6084 7.886 49.6084 9.14C49.6084 10.364 49.8844 11.315 50.4364 11.993C50.9944 12.665 51.7834 13.001 52.8034 13.001C53.4994 13.001 54.1054 12.842 54.6214 12.524C55.1434 12.2 55.5544 11.735 55.8544 11.129L57.0874 11.606C56.7034 12.452 56.1364 13.109 55.3864 13.577C54.6424 14.039 53.7994 14.27 52.8574 14.27ZM49.1404 9.509V8.402H56.5654V9.509H49.1404ZM74.4692 14L74.4782 7.619C74.4782 6.869 74.2682 6.281 73.8482 5.855C73.4342 5.423 72.9062 5.207 72.2642 5.207C71.8982 5.207 71.5412 5.291 71.1932 5.459C70.8452 5.627 70.5572 5.897 70.3292 6.269C70.1072 6.641 69.9962 7.127 69.9962 7.727L69.2132 7.502C69.1952 6.806 69.3302 6.197 69.6182 5.675C69.9122 5.153 70.3142 4.748 70.8242 4.46C71.3402 4.166 71.9222 4.019 72.5702 4.019C73.5482 4.019 74.3312 4.322 74.9192 4.928C75.5072 5.528 75.8012 6.341 75.8012 7.367L75.7922 14H74.4692ZM62.8682 14V4.28H64.0562V6.674H64.2002V14H62.8682ZM68.6822 14L68.6912 7.709C68.6912 6.935 68.4842 6.326 68.0702 5.882C67.6622 5.432 67.1222 5.207 66.4502 5.207C65.7782 5.207 65.2352 5.438 64.8212 5.9C64.4072 6.356 64.2002 6.965 64.2002 7.727L63.4082 7.295C63.4082 6.671 63.5552 6.113 63.8492 5.621C64.1432 5.123 64.5452 4.733 65.0552 4.451C65.5652 4.163 66.1442 4.019 66.7922 4.019C67.4102 4.019 67.9592 4.151 68.4392 4.415C68.9252 4.679 69.3062 5.063 69.5822 5.567C69.8582 6.071 69.9962 6.683 69.9962 7.403L69.9872 14H68.6822ZM82.1237 14.27C81.1577 14.27 80.3327 14.051 79.6487 13.613C78.9647 13.175 78.4397 12.569 78.0737 11.795C77.7077 11.021 77.5247 10.133 77.5247 9.131C77.5247 8.111 77.7107 7.217 78.0827 6.449C78.4547 5.681 78.9827 5.084 79.6667 4.658C80.3567 4.226 81.1757 4.01 82.1237 4.01C83.0957 4.01 83.9237 4.229 84.6077 4.667C85.2977 5.099 85.8227 5.702 86.1827 6.476C86.5487 7.244 86.7317 8.129 86.7317 9.131C86.7317 10.151 86.5487 11.048 86.1827 11.822C85.8167 12.59 85.2887 13.19 84.5987 13.622C83.9087 14.054 83.0837 14.27 82.1237 14.27ZM82.1237 13.001C83.2037 13.001 84.0077 12.644 84.5357 11.93C85.0637 11.21 85.3277 10.277 85.3277 9.131C85.3277 7.955 85.0607 7.019 84.5267 6.323C83.9987 5.627 83.1977 5.279 82.1237 5.279C81.3977 5.279 80.7977 5.444 80.3237 5.774C79.8557 6.098 79.5047 6.551 79.2707 7.133C79.0427 7.709 78.9287 8.375 78.9287 9.131C78.9287 10.301 79.1987 11.24 79.7387 11.948C80.2787 12.65 81.0737 13.001 82.1237 13.001ZM88.717 14V4.28H89.905V6.62L89.671 6.314C89.779 6.026 89.92 5.762 90.094 5.522C90.268 5.276 90.457 5.075 90.661 4.919C90.913 4.697 91.207 4.529 91.543 4.415C91.879 4.295 92.218 4.226 92.56 4.208C92.902 4.184 93.214 4.208 93.496 4.28V5.522C93.142 5.432 92.755 5.411 92.335 5.459C91.915 5.507 91.528 5.675 91.174 5.963C90.85 6.215 90.607 6.518 90.445 6.872C90.283 7.22 90.175 7.592 90.121 7.988C90.067 8.378 90.04 8.765 90.04 9.149V14H88.717ZM99.1406 14.27C98.1926 14.27 97.3706 14.06 96.6746 13.64C95.9846 13.22 95.4476 12.629 95.0636 11.867C94.6796 11.105 94.4876 10.211 94.4876 9.185C94.4876 8.123 94.6766 7.205 95.0546 6.431C95.4326 5.657 95.9636 5.06 96.6476 4.64C97.3376 4.22 98.1506 4.01 99.0866 4.01C100.047 4.01 100.866 4.232 101.544 4.676C102.222 5.114 102.735 5.744 103.083 6.566C103.431 7.388 103.59 8.369 103.56 9.509H102.21V9.041C102.186 7.781 101.913 6.83 101.391 6.188C100.875 5.546 100.119 5.225 99.1226 5.225C98.0786 5.225 97.2776 5.564 96.7196 6.242C96.1676 6.92 95.8916 7.886 95.8916 9.14C95.8916 10.364 96.1676 11.315 96.7196 11.993C97.2776 12.665 98.0666 13.001 99.0866 13.001C99.7826 13.001 100.389 12.842 100.905 12.524C101.427 12.2 101.838 11.735 102.138 11.129L103.371 11.606C102.987 12.452 102.42 13.109 101.67 13.577C100.926 14.039 100.083 14.27 99.1406 14.27ZM95.4236 9.509V8.402H102.849V9.509H95.4236ZM109.16 14V1.04H116.603V2.363H110.483V6.863H115.523V8.177H110.483V14H109.16ZM118.231 14V4.28H119.419V6.62L119.185 6.314C119.293 6.026 119.434 5.762 119.608 5.522C119.782 5.276 119.971 5.075 120.175 4.919C120.427 4.697 120.721 4.529 121.057 4.415C121.393 4.295 121.732 4.226 122.074 4.208C122.416 4.184 122.728 4.208 123.01 4.28V5.522C122.656 5.432 122.269 5.411 121.849 5.459C121.429 5.507 121.042 5.675 120.688 5.963C120.364 6.215 120.121 6.518 119.959 6.872C119.797 7.22 119.689 7.592 119.635 7.988C119.581 8.378 119.554 8.765 119.554 9.149V14H118.231ZM128.654 14.27C127.706 14.27 126.884 14.06 126.188 13.64C125.498 13.22 124.961 12.629 124.577 11.867C124.193 11.105 124.001 10.211 124.001 9.185C124.001 8.123 124.19 7.205 124.568 6.431C124.946 5.657 125.477 5.06 126.161 4.64C126.851 4.22 127.664 4.01 128.6 4.01C129.56 4.01 130.379 4.232 131.057 4.676C131.735 5.114 132.248 5.744 132.596 6.566C132.944 7.388 133.103 8.369 133.073 9.509H131.723V9.041C131.699 7.781 131.426 6.83 130.904 6.188C130.388 5.546 129.632 5.225 128.636 5.225C127.592 5.225 126.791 5.564 126.233 6.242C125.681 6.92 125.405 7.886 125.405 9.14C125.405 10.364 125.681 11.315 126.233 11.993C126.791 12.665 127.58 13.001 128.6 13.001C129.296 13.001 129.902 12.842 130.418 12.524C130.94 12.2 131.351 11.735 131.651 11.129L132.884 11.606C132.5 12.452 131.933 13.109 131.183 13.577C130.439 14.039 129.596 14.27 128.654 14.27ZM124.937 9.509V8.402H132.362V9.509H124.937ZM141.827 14V9.041C141.827 8.501 141.776 8.006 141.674 7.556C141.572 7.1 141.407 6.704 141.179 6.368C140.957 6.026 140.666 5.762 140.306 5.576C139.952 5.39 139.52 5.297 139.01 5.297C138.542 5.297 138.128 5.378 137.768 5.54C137.414 5.702 137.114 5.936 136.868 6.242C136.628 6.542 136.445 6.908 136.319 7.34C136.193 7.772 136.13 8.264 136.13 8.816L135.194 8.609C135.194 7.613 135.368 6.776 135.716 6.098C136.064 5.42 136.544 4.907 137.156 4.559C137.768 4.211 138.47 4.037 139.262 4.037C139.844 4.037 140.351 4.127 140.783 4.307C141.221 4.487 141.59 4.73 141.89 5.036C142.196 5.342 142.442 5.693 142.628 6.089C142.814 6.479 142.949 6.896 143.033 7.34C143.117 7.778 143.159 8.216 143.159 8.654V14H141.827ZM134.798 14V4.28H135.995V6.674H136.13V14H134.798ZM149.121 14.261C147.981 14.261 147.042 14.015 146.304 13.523C145.572 13.031 145.122 12.347 144.954 11.471L146.304 11.246C146.448 11.798 146.775 12.239 147.285 12.569C147.801 12.893 148.437 13.055 149.193 13.055C149.931 13.055 150.513 12.902 150.939 12.596C151.365 12.284 151.578 11.861 151.578 11.327C151.578 11.027 151.509 10.784 151.371 10.598C151.239 10.406 150.966 10.229 150.552 10.067C150.138 9.905 149.52 9.713 148.698 9.491C147.816 9.251 147.126 9.011 146.628 8.771C146.13 8.531 145.776 8.255 145.566 7.943C145.356 7.625 145.251 7.238 145.251 6.782C145.251 6.23 145.407 5.747 145.719 5.333C146.031 4.913 146.463 4.589 147.015 4.361C147.567 4.127 148.209 4.01 148.941 4.01C149.673 4.01 150.327 4.13 150.903 4.37C151.485 4.604 151.953 4.934 152.307 5.36C152.661 5.786 152.871 6.281 152.937 6.845L151.587 7.088C151.497 6.518 151.212 6.068 150.732 5.738C150.258 5.402 149.655 5.228 148.923 5.216C148.233 5.198 147.672 5.33 147.24 5.612C146.808 5.888 146.592 6.257 146.592 6.719C146.592 6.977 146.67 7.199 146.826 7.385C146.982 7.565 147.264 7.736 147.672 7.898C148.086 8.06 148.674 8.237 149.436 8.429C150.33 8.657 151.032 8.897 151.542 9.149C152.052 9.401 152.415 9.698 152.631 10.04C152.847 10.382 152.955 10.805 152.955 11.309C152.955 12.227 152.613 12.95 151.929 13.478C151.251 14 150.315 14.261 149.121 14.261ZM161.336 14.27C160.604 14.27 159.989 14.138 159.491 13.874C158.999 13.61 158.63 13.259 158.384 12.821C158.138 12.383 158.015 11.906 158.015 11.39C158.015 10.862 158.12 10.412 158.33 10.04C158.546 9.662 158.837 9.353 159.203 9.113C159.575 8.873 160.004 8.69 160.49 8.564C160.982 8.444 161.525 8.339 162.119 8.249C162.719 8.153 163.304 8.072 163.874 8.006C164.45 7.934 164.954 7.865 165.386 7.799L164.918 8.087C164.936 7.127 164.75 6.416 164.36 5.954C163.97 5.492 163.292 5.261 162.326 5.261C161.66 5.261 161.096 5.411 160.634 5.711C160.178 6.011 159.857 6.485 159.671 7.133L158.384 6.755C158.606 5.885 159.053 5.21 159.725 4.73C160.397 4.25 161.27 4.01 162.344 4.01C163.232 4.01 163.985 4.178 164.603 4.514C165.227 4.844 165.668 5.324 165.926 5.954C166.046 6.236 166.124 6.551 166.16 6.899C166.196 7.247 166.214 7.601 166.214 7.961V14H165.035V11.561L165.377 11.705C165.047 12.539 164.534 13.175 163.838 13.613C163.142 14.051 162.308 14.27 161.336 14.27ZM161.489 13.127C162.107 13.127 162.647 13.016 163.109 12.794C163.571 12.572 163.943 12.269 164.225 11.885C164.507 11.495 164.69 11.057 164.774 10.571C164.846 10.259 164.885 9.917 164.891 9.545C164.897 9.167 164.9 8.885 164.9 8.699L165.404 8.96C164.954 9.02 164.465 9.08 163.937 9.14C163.415 9.2 162.899 9.269 162.389 9.347C161.885 9.425 161.429 9.518 161.021 9.626C160.745 9.704 160.478 9.815 160.22 9.959C159.962 10.097 159.749 10.283 159.581 10.517C159.419 10.751 159.338 11.042 159.338 11.39C159.338 11.672 159.407 11.945 159.545 12.209C159.689 12.473 159.917 12.692 160.229 12.866C160.547 13.04 160.967 13.127 161.489 13.127ZM175.577 14V9.041C175.577 8.501 175.526 8.006 175.424 7.556C175.322 7.1 175.157 6.704 174.929 6.368C174.707 6.026 174.416 5.762 174.056 5.576C173.702 5.39 173.27 5.297 172.76 5.297C172.292 5.297 171.878 5.378 171.518 5.54C171.164 5.702 170.864 5.936 170.618 6.242C170.378 6.542 170.195 6.908 170.069 7.34C169.943 7.772 169.88 8.264 169.88 8.816L168.944 8.609C168.944 7.613 169.118 6.776 169.466 6.098C169.814 5.42 170.294 4.907 170.906 4.559C171.518 4.211 172.22 4.037 173.012 4.037C173.594 4.037 174.101 4.127 174.533 4.307C174.971 4.487 175.34 4.73 175.64 5.036C175.946 5.342 176.192 5.693 176.378 6.089C176.564 6.479 176.699 6.896 176.783 7.34C176.867 7.778 176.909 8.216 176.909 8.654V14H175.577ZM168.548 14V4.28H169.745V6.674H169.88V14H168.548ZM182.945 14.27C182.039 14.27 181.265 14.045 180.623 13.595C179.981 13.139 179.489 12.524 179.147 11.75C178.805 10.976 178.634 10.103 178.634 9.131C178.634 8.165 178.802 7.295 179.138 6.521C179.48 5.747 179.969 5.135 180.605 4.685C181.241 4.235 182.003 4.01 182.891 4.01C183.803 4.01 184.571 4.232 185.195 4.676C185.819 5.12 186.29 5.729 186.608 6.503C186.932 7.271 187.094 8.147 187.094 9.131C187.094 10.097 186.935 10.97 186.617 11.75C186.299 12.524 185.831 13.139 185.213 13.595C184.595 14.045 183.839 14.27 182.945 14.27ZM183.08 13.037C183.77 13.037 184.34 12.869 184.79 12.533C185.24 12.197 185.576 11.735 185.798 11.147C186.02 10.553 186.131 9.881 186.131 9.131C186.131 8.369 186.02 7.697 185.798 7.115C185.576 6.527 185.24 6.068 184.79 5.738C184.346 5.408 183.785 5.243 183.107 5.243C182.411 5.243 181.835 5.414 181.379 5.756C180.923 6.098 180.584 6.563 180.362 7.151C180.146 7.739 180.038 8.399 180.038 9.131C180.038 9.869 180.149 10.535 180.371 11.129C180.599 11.717 180.938 12.182 181.388 12.524C181.838 12.866 182.402 13.037 183.08 13.037ZM186.131 14V6.683H185.987V1.04H187.319V14H186.131ZM198.641 14.27C197.729 14.27 196.907 14.111 196.175 13.793C195.443 13.475 194.819 13.022 194.303 12.434C193.793 11.846 193.403 11.138 193.133 10.31C192.863 9.476 192.728 8.546 192.728 7.52C192.728 6.164 192.962 4.982 193.43 3.974C193.904 2.96 194.582 2.174 195.464 1.616C196.346 1.058 197.405 0.778999 198.641 0.778999C200.021 0.778999 201.143 1.103 202.007 1.751C202.877 2.393 203.483 3.257 203.825 4.343L202.493 4.667C202.211 3.875 201.746 3.242 201.098 2.768C200.456 2.294 199.655 2.057 198.695 2.057C197.681 2.051 196.838 2.279 196.166 2.741C195.494 3.197 194.987 3.839 194.645 4.667C194.309 5.489 194.138 6.44 194.132 7.52C194.126 8.6 194.291 9.551 194.627 10.373C194.969 11.189 195.479 11.831 196.157 12.299C196.835 12.761 197.681 12.995 198.695 13.001C199.625 13.001 200.393 12.821 200.999 12.461C201.605 12.101 202.064 11.585 202.376 10.913C202.694 10.241 202.874 9.446 202.916 8.528H199.928V7.394H204.302C204.32 7.532 204.329 7.679 204.329 7.835C204.335 7.985 204.338 8.093 204.338 8.159C204.338 9.329 204.128 10.376 203.708 11.3C203.288 12.218 202.655 12.944 201.809 13.478C200.969 14.006 199.913 14.27 198.641 14.27ZM210.252 14.27C209.304 14.27 208.482 14.06 207.786 13.64C207.096 13.22 206.559 12.629 206.175 11.867C205.791 11.105 205.599 10.211 205.599 9.185C205.599 8.123 205.788 7.205 206.166 6.431C206.544 5.657 207.075 5.06 207.759 4.64C208.449 4.22 209.262 4.01 210.198 4.01C211.158 4.01 211.977 4.232 212.655 4.676C213.333 5.114 213.846 5.744 214.194 6.566C214.542 7.388 214.701 8.369 214.671 9.509H213.321V9.041C213.297 7.781 213.024 6.83 212.502 6.188C211.986 5.546 211.23 5.225 210.234 5.225C209.19 5.225 208.389 5.564 207.831 6.242C207.279 6.92 207.003 7.886 207.003 9.14C207.003 10.364 207.279 11.315 207.831 11.993C208.389 12.665 209.178 13.001 210.198 13.001C210.894 13.001 211.5 12.842 212.016 12.524C212.538 12.2 212.949 11.735 213.249 11.129L214.482 11.606C214.098 12.452 213.531 13.109 212.781 13.577C212.037 14.039 211.194 14.27 210.252 14.27ZM206.535 9.509V8.402H213.96V9.509H206.535ZM221.96 14C221.414 14.114 220.874 14.159 220.34 14.135C219.812 14.111 219.338 13.997 218.918 13.793C218.504 13.589 218.189 13.271 217.973 12.839C217.799 12.479 217.703 12.116 217.685 11.75C217.673 11.378 217.667 10.955 217.667 10.481V1.58H218.981V10.427C218.981 10.835 218.984 11.177 218.99 11.453C219.002 11.723 219.065 11.963 219.179 12.173C219.395 12.575 219.737 12.815 220.205 12.893C220.679 12.971 221.264 12.953 221.96 12.839V14ZM215.588 5.414V4.28H221.96V5.414H215.588ZM239.071 14L239.08 7.619C239.08 6.869 238.87 6.281 238.45 5.855C238.036 5.423 237.508 5.207 236.866 5.207C236.5 5.207 236.143 5.291 235.795 5.459C235.447 5.627 235.159 5.897 234.931 6.269C234.709 6.641 234.598 7.127 234.598 7.727L233.815 7.502C233.797 6.806 233.932 6.197 234.22 5.675C234.514 5.153 234.916 4.748 235.426 4.46C235.942 4.166 236.524 4.019 237.172 4.019C238.15 4.019 238.933 4.322 239.521 4.928C240.109 5.528 240.403 6.341 240.403 7.367L240.394 14H239.071ZM227.47 14V4.28H228.658V6.674H228.802V14H227.47ZM233.284 14L233.293 7.709C233.293 6.935 233.086 6.326 232.672 5.882C232.264 5.432 231.724 5.207 231.052 5.207C230.38 5.207 229.837 5.438 229.423 5.9C229.009 6.356 228.802 6.965 228.802 7.727L228.01 7.295C228.01 6.671 228.157 6.113 228.451 5.621C228.745 5.123 229.147 4.733 229.657 4.451C230.167 4.163 230.746 4.019 231.394 4.019C232.012 4.019 232.561 4.151 233.041 4.415C233.527 4.679 233.908 5.063 234.184 5.567C234.46 6.071 234.598 6.683 234.598 7.403L234.589 14H233.284ZM246.725 14.27C245.759 14.27 244.934 14.051 244.25 13.613C243.566 13.175 243.041 12.569 242.675 11.795C242.309 11.021 242.126 10.133 242.126 9.131C242.126 8.111 242.312 7.217 242.684 6.449C243.056 5.681 243.584 5.084 244.268 4.658C244.958 4.226 245.777 4.01 246.725 4.01C247.697 4.01 248.525 4.229 249.209 4.667C249.899 5.099 250.424 5.702 250.784 6.476C251.15 7.244 251.333 8.129 251.333 9.131C251.333 10.151 251.15 11.048 250.784 11.822C250.418 12.59 249.89 13.19 249.2 13.622C248.51 14.054 247.685 14.27 246.725 14.27ZM246.725 13.001C247.805 13.001 248.609 12.644 249.137 11.93C249.665 11.21 249.929 10.277 249.929 9.131C249.929 7.955 249.662 7.019 249.128 6.323C248.6 5.627 247.799 5.279 246.725 5.279C245.999 5.279 245.399 5.444 244.925 5.774C244.457 6.098 244.106 6.551 243.872 7.133C243.644 7.709 243.53 8.375 243.53 9.131C243.53 10.301 243.8 11.24 244.34 11.948C244.88 12.65 245.675 13.001 246.725 13.001ZM253.319 14V4.28H254.507V6.62L254.273 6.314C254.381 6.026 254.522 5.762 254.696 5.522C254.87 5.276 255.059 5.075 255.263 4.919C255.515 4.697 255.809 4.529 256.145 4.415C256.481 4.295 256.82 4.226 257.162 4.208C257.504 4.184 257.816 4.208 258.098 4.28V5.522C257.744 5.432 257.357 5.411 256.937 5.459C256.517 5.507 256.13 5.675 255.776 5.963C255.452 6.215 255.209 6.518 255.047 6.872C254.885 7.22 254.777 7.592 254.723 7.988C254.669 8.378 254.642 8.765 254.642 9.149V14H253.319ZM263.742 14.27C262.794 14.27 261.972 14.06 261.276 13.64C260.586 13.22 260.049 12.629 259.665 11.867C259.281 11.105 259.089 10.211 259.089 9.185C259.089 8.123 259.278 7.205 259.656 6.431C260.034 5.657 260.565 5.06 261.249 4.64C261.939 4.22 262.752 4.01 263.688 4.01C264.648 4.01 265.467 4.232 266.145 4.676C266.823 5.114 267.336 5.744 267.684 6.566C268.032 7.388 268.191 8.369 268.161 9.509H266.811V9.041C266.787 7.781 266.514 6.83 265.992 6.188C265.476 5.546 264.72 5.225 263.724 5.225C262.68 5.225 261.879 5.564 261.321 6.242C260.769 6.92 260.493 7.886 260.493 9.14C260.493 10.364 260.769 11.315 261.321 11.993C261.879 12.665 262.668 13.001 263.688 13.001C264.384 13.001 264.99 12.842 265.506 12.524C266.028 12.2 266.439 11.735 266.739 11.129L267.972 11.606C267.588 12.452 267.021 13.109 266.271 13.577C265.527 14.039 264.684 14.27 263.742 14.27ZM260.025 9.509V8.402H267.45V9.509H260.025ZM273.762 14V1.04H281.205V2.363H275.085V6.863H280.125V8.177H275.085V14H273.762ZM285.262 14.27C284.53 14.27 283.915 14.138 283.417 13.874C282.925 13.61 282.556 13.259 282.31 12.821C282.064 12.383 281.941 11.906 281.941 11.39C281.941 10.862 282.046 10.412 282.256 10.04C282.472 9.662 282.763 9.353 283.129 9.113C283.501 8.873 283.93 8.69 284.416 8.564C284.908 8.444 285.451 8.339 286.045 8.249C286.645 8.153 287.23 8.072 287.8 8.006C288.376 7.934 288.88 7.865 289.312 7.799L288.844 8.087C288.862 7.127 288.676 6.416 288.286 5.954C287.896 5.492 287.218 5.261 286.252 5.261C285.586 5.261 285.022 5.411 284.56 5.711C284.104 6.011 283.783 6.485 283.597 7.133L282.31 6.755C282.532 5.885 282.979 5.21 283.651 4.73C284.323 4.25 285.196 4.01 286.27 4.01C287.158 4.01 287.911 4.178 288.529 4.514C289.153 4.844 289.594 5.324 289.852 5.954C289.972 6.236 290.05 6.551 290.086 6.899C290.122 7.247 290.14 7.601 290.14 7.961V14H288.961V11.561L289.303 11.705C288.973 12.539 288.46 13.175 287.764 13.613C287.068 14.051 286.234 14.27 285.262 14.27ZM285.415 13.127C286.033 13.127 286.573 13.016 287.035 12.794C287.497 12.572 287.869 12.269 288.151 11.885C288.433 11.495 288.616 11.057 288.7 10.571C288.772 10.259 288.811 9.917 288.817 9.545C288.823 9.167 288.826 8.885 288.826 8.699L289.33 8.96C288.88 9.02 288.391 9.08 287.863 9.14C287.341 9.2 286.825 9.269 286.315 9.347C285.811 9.425 285.355 9.518 284.947 9.626C284.671 9.704 284.404 9.815 284.146 9.959C283.888 10.097 283.675 10.283 283.507 10.517C283.345 10.751 283.264 11.042 283.264 11.39C283.264 11.672 283.333 11.945 283.471 12.209C283.615 12.473 283.843 12.692 284.155 12.866C284.473 13.04 284.893 13.127 285.415 13.127ZM292.483 14V4.28H293.671V6.62L293.437 6.314C293.545 6.026 293.686 5.762 293.86 5.522C294.034 5.276 294.223 5.075 294.427 4.919C294.679 4.697 294.973 4.529 295.309 4.415C295.645 4.295 295.984 4.226 296.326 4.208C296.668 4.184 296.98 4.208 297.262 4.28V5.522C296.908 5.432 296.521 5.411 296.101 5.459C295.681 5.507 295.294 5.675 294.94 5.963C294.616 6.215 294.373 6.518 294.211 6.872C294.049 7.22 293.941 7.592 293.887 7.988C293.833 8.378 293.806 8.765 293.806 9.149V14H292.483ZM310.561 14L310.57 7.619C310.57 6.869 310.36 6.281 309.94 5.855C309.526 5.423 308.998 5.207 308.356 5.207C307.99 5.207 307.633 5.291 307.285 5.459C306.937 5.627 306.649 5.897 306.421 6.269C306.199 6.641 306.088 7.127 306.088 7.727L305.305 7.502C305.287 6.806 305.422 6.197 305.71 5.675C306.004 5.153 306.406 4.748 306.916 4.46C307.432 4.166 308.014 4.019 308.662 4.019C309.64 4.019 310.423 4.322 311.011 4.928C311.599 5.528 311.893 6.341 311.893 7.367L311.884 14H310.561ZM298.96 14V4.28H300.148V6.674H300.292V14H298.96ZM304.774 14L304.783 7.709C304.783 6.935 304.576 6.326 304.162 5.882C303.754 5.432 303.214 5.207 302.542 5.207C301.87 5.207 301.327 5.438 300.913 5.9C300.499 6.356 300.292 6.965 300.292 7.727L299.5 7.295C299.5 6.671 299.647 6.113 299.941 5.621C300.235 5.123 300.637 4.733 301.147 4.451C301.657 4.163 302.236 4.019 302.884 4.019C303.502 4.019 304.051 4.151 304.531 4.415C305.017 4.679 305.398 5.063 305.674 5.567C305.95 6.071 306.088 6.683 306.088 7.403L306.079 14H304.774ZM314.407 2.435V0.95H315.73V2.435H314.407ZM314.407 14V4.28H315.73V14H314.407ZM325.448 14V9.041C325.448 8.501 325.397 8.006 325.295 7.556C325.193 7.1 325.028 6.704 324.8 6.368C324.578 6.026 324.287 5.762 323.927 5.576C323.573 5.39 323.141 5.297 322.631 5.297C322.163 5.297 321.749 5.378 321.389 5.54C321.035 5.702 320.735 5.936 320.489 6.242C320.249 6.542 320.066 6.908 319.94 7.34C319.814 7.772 319.751 8.264 319.751 8.816L318.815 8.609C318.815 7.613 318.989 6.776 319.337 6.098C319.685 5.42 320.165 4.907 320.777 4.559C321.389 4.211 322.091 4.037 322.883 4.037C323.465 4.037 323.972 4.127 324.404 4.307C324.842 4.487 325.211 4.73 325.511 5.036C325.817 5.342 326.063 5.693 326.249 6.089C326.435 6.479 326.57 6.896 326.654 7.34C326.738 7.778 326.78 8.216 326.78 8.654V14H325.448ZM318.419 14V4.28H319.616V6.674H319.751V14H318.419ZM332.976 18.59C332.478 18.59 331.986 18.515 331.5 18.365C331.02 18.221 330.576 17.99 330.168 17.672C329.76 17.36 329.418 16.952 329.142 16.448L330.339 15.782C330.609 16.322 330.987 16.709 331.473 16.943C331.965 17.183 332.466 17.303 332.976 17.303C333.678 17.303 334.245 17.171 334.677 16.907C335.115 16.649 335.433 16.265 335.631 15.755C335.829 15.245 335.925 14.609 335.919 13.847V11.255H336.072V4.28H337.251V13.865C337.251 14.141 337.242 14.405 337.224 14.657C337.212 14.915 337.185 15.167 337.143 15.413C337.029 16.139 336.792 16.736 336.432 17.204C336.078 17.672 335.61 18.02 335.028 18.248C334.452 18.476 333.768 18.59 332.976 18.59ZM332.886 14.27C331.98 14.27 331.206 14.045 330.564 13.595C329.922 13.139 329.43 12.524 329.088 11.75C328.746 10.976 328.575 10.103 328.575 9.131C328.575 8.165 328.743 7.295 329.079 6.521C329.421 5.747 329.91 5.135 330.546 4.685C331.182 4.235 331.944 4.01 332.832 4.01C333.744 4.01 334.512 4.232 335.136 4.676C335.76 5.12 336.231 5.729 336.549 6.503C336.873 7.271 337.035 8.147 337.035 9.131C337.035 10.097 336.876 10.97 336.558 11.75C336.24 12.524 335.772 13.139 335.154 13.595C334.536 14.045 333.78 14.27 332.886 14.27ZM333.021 13.037C333.711 13.037 334.281 12.869 334.731 12.533C335.181 12.197 335.517 11.735 335.739 11.147C335.961 10.553 336.072 9.881 336.072 9.131C336.072 8.369 335.961 7.697 335.739 7.115C335.517 6.527 335.181 6.068 334.731 5.738C334.287 5.408 333.726 5.243 333.048 5.243C332.352 5.243 331.776 5.414 331.32 5.756C330.864 6.098 330.525 6.563 330.303 7.151C330.087 7.739 329.979 8.399 329.979 9.131C329.979 9.869 330.09 10.535 330.312 11.129C330.54 11.717 330.879 12.182 331.329 12.524C331.779 12.866 332.343 13.037 333.021 13.037ZM343.371 14V1.04H348.375C349.101 1.04 349.734 1.19 350.274 1.49C350.814 1.79 351.234 2.195 351.534 2.705C351.834 3.209 351.984 3.767 351.984 4.379C351.984 5.075 351.798 5.696 351.426 6.242C351.054 6.782 350.556 7.157 349.932 7.367L349.914 6.926C350.754 7.166 351.414 7.586 351.894 8.186C352.374 8.786 352.614 9.512 352.614 10.364C352.614 11.114 352.455 11.762 352.137 12.308C351.819 12.848 351.372 13.265 350.796 13.559C350.22 13.853 349.551 14 348.789 14H343.371ZM344.703 12.731H348.465C348.993 12.731 349.467 12.638 349.887 12.452C350.307 12.26 350.637 11.99 350.877 11.642C351.123 11.294 351.246 10.874 351.246 10.382C351.246 9.902 351.135 9.47 350.913 9.086C350.691 8.702 350.388 8.396 350.004 8.168C349.626 7.934 349.194 7.817 348.708 7.817H344.703V12.731ZM344.703 6.566H348.366C348.78 6.566 349.158 6.473 349.5 6.287C349.842 6.095 350.112 5.834 350.31 5.504C350.514 5.174 350.616 4.793 350.616 4.361C350.616 3.749 350.403 3.251 349.977 2.867C349.557 2.483 349.02 2.291 348.366 2.291H344.703V6.566ZM358.469 14.27C357.503 14.27 356.678 14.051 355.994 13.613C355.31 13.175 354.785 12.569 354.419 11.795C354.053 11.021 353.87 10.133 353.87 9.131C353.87 8.111 354.056 7.217 354.428 6.449C354.8 5.681 355.328 5.084 356.012 4.658C356.702 4.226 357.521 4.01 358.469 4.01C359.441 4.01 360.269 4.229 360.953 4.667C361.643 5.099 362.168 5.702 362.528 6.476C362.894 7.244 363.077 8.129 363.077 9.131C363.077 10.151 362.894 11.048 362.528 11.822C362.162 12.59 361.634 13.19 360.944 13.622C360.254 14.054 359.429 14.27 358.469 14.27ZM358.469 13.001C359.549 13.001 360.353 12.644 360.881 11.93C361.409 11.21 361.673 10.277 361.673 9.131C361.673 7.955 361.406 7.019 360.872 6.323C360.344 5.627 359.543 5.279 358.469 5.279C357.743 5.279 357.143 5.444 356.669 5.774C356.201 6.098 355.85 6.551 355.616 7.133C355.388 7.709 355.274 8.375 355.274 9.131C355.274 10.301 355.544 11.24 356.084 11.948C356.624 12.65 357.419 13.001 358.469 13.001ZM369.122 14.27C368.156 14.27 367.331 14.051 366.647 13.613C365.963 13.175 365.438 12.569 365.072 11.795C364.706 11.021 364.523 10.133 364.523 9.131C364.523 8.111 364.709 7.217 365.081 6.449C365.453 5.681 365.981 5.084 366.665 4.658C367.355 4.226 368.174 4.01 369.122 4.01C370.094 4.01 370.922 4.229 371.606 4.667C372.296 5.099 372.821 5.702 373.181 6.476C373.547 7.244 373.73 8.129 373.73 9.131C373.73 10.151 373.547 11.048 373.181 11.822C372.815 12.59 372.287 13.19 371.597 13.622C370.907 14.054 370.082 14.27 369.122 14.27ZM369.122 13.001C370.202 13.001 371.006 12.644 371.534 11.93C372.062 11.21 372.326 10.277 372.326 9.131C372.326 7.955 372.059 7.019 371.525 6.323C370.997 5.627 370.196 5.279 369.122 5.279C368.396 5.279 367.796 5.444 367.322 5.774C366.854 6.098 366.503 6.551 366.269 7.133C366.041 7.709 365.927 8.375 365.927 9.131C365.927 10.301 366.197 11.24 366.737 11.948C367.277 12.65 368.072 13.001 369.122 13.001ZM379.254 14.261C378.114 14.261 377.175 14.015 376.437 13.523C375.705 13.031 375.255 12.347 375.087 11.471L376.437 11.246C376.581 11.798 376.908 12.239 377.418 12.569C377.934 12.893 378.57 13.055 379.326 13.055C380.064 13.055 380.646 12.902 381.072 12.596C381.498 12.284 381.711 11.861 381.711 11.327C381.711 11.027 381.642 10.784 381.504 10.598C381.372 10.406 381.099 10.229 380.685 10.067C380.271 9.905 379.653 9.713 378.831 9.491C377.949 9.251 377.259 9.011 376.761 8.771C376.263 8.531 375.909 8.255 375.699 7.943C375.489 7.625 375.384 7.238 375.384 6.782C375.384 6.23 375.54 5.747 375.852 5.333C376.164 4.913 376.596 4.589 377.148 4.361C377.7 4.127 378.342 4.01 379.074 4.01C379.806 4.01 380.46 4.13 381.036 4.37C381.618 4.604 382.086 4.934 382.44 5.36C382.794 5.786 383.004 6.281 383.07 6.845L381.72 7.088C381.63 6.518 381.345 6.068 380.865 5.738C380.391 5.402 379.788 5.228 379.056 5.216C378.366 5.198 377.805 5.33 377.373 5.612C376.941 5.888 376.725 6.257 376.725 6.719C376.725 6.977 376.803 7.199 376.959 7.385C377.115 7.565 377.397 7.736 377.805 7.898C378.219 8.06 378.807 8.237 379.569 8.429C380.463 8.657 381.165 8.897 381.675 9.149C382.185 9.401 382.548 9.698 382.764 10.04C382.98 10.382 383.088 10.805 383.088 11.309C383.088 12.227 382.746 12.95 382.062 13.478C381.384 14 380.448 14.261 379.254 14.261ZM390.376 14C389.83 14.114 389.29 14.159 388.756 14.135C388.228 14.111 387.754 13.997 387.334 13.793C386.92 13.589 386.605 13.271 386.389 12.839C386.215 12.479 386.119 12.116 386.101 11.75C386.089 11.378 386.083 10.955 386.083 10.481V1.58H387.397V10.427C387.397 10.835 387.4 11.177 387.406 11.453C387.418 11.723 387.481 11.963 387.595 12.173C387.811 12.575 388.153 12.815 388.621 12.893C389.095 12.971 389.68 12.953 390.376 12.839V14ZM384.004 5.414V4.28H390.376V5.414H384.004ZM392.543 14V12.461H394.082V14H392.543ZM0.263906 40V27.04H1.47891L6.57291 37.939L11.6399 27.04H12.8729V39.991H11.6129V29.992L6.99591 40H6.14091L1.53291 29.992V40H0.263906ZM19.4577 40.27C18.4917 40.27 17.6667 40.051 16.9827 39.613C16.2987 39.175 15.7737 38.569 15.4077 37.795C15.0417 37.021 14.8587 36.133 14.8587 35.131C14.8587 34.111 15.0447 33.217 15.4167 32.449C15.7887 31.681 16.3167 31.084 17.0007 30.658C17.6907 30.226 18.5097 30.01 19.4577 30.01C20.4297 30.01 21.2577 30.229 21.9417 30.667C22.6317 31.099 23.1567 31.702 23.5167 32.476C23.8827 33.244 24.0657 34.129 24.0657 35.131C24.0657 36.151 23.8827 37.048 23.5167 37.822C23.1507 38.59 22.6227 39.19 21.9327 39.622C21.2427 40.054 20.4177 40.27 19.4577 40.27ZM19.4577 39.001C20.5377 39.001 21.3417 38.644 21.8697 37.93C22.3977 37.21 22.6617 36.277 22.6617 35.131C22.6617 33.955 22.3947 33.019 21.8607 32.323C21.3327 31.627 20.5317 31.279 19.4577 31.279C18.7317 31.279 18.1317 31.444 17.6577 31.774C17.1897 32.098 16.8387 32.551 16.6047 33.133C16.3767 33.709 16.2627 34.375 16.2627 35.131C16.2627 36.301 16.5327 37.24 17.0727 37.948C17.6127 38.65 18.4077 39.001 19.4577 39.001ZM26.051 40V30.28H27.239V32.62L27.005 32.314C27.113 32.026 27.254 31.762 27.428 31.522C27.602 31.276 27.791 31.075 27.995 30.919C28.247 30.697 28.541 30.529 28.877 30.415C29.213 30.295 29.552 30.226 29.894 30.208C30.236 30.184 30.548 30.208 30.83 30.28V31.522C30.476 31.432 30.089 31.411 29.669 31.459C29.249 31.507 28.862 31.675 28.508 31.963C28.184 32.215 27.941 32.518 27.779 32.872C27.617 33.22 27.509 33.592 27.455 33.988C27.401 34.378 27.374 34.765 27.374 35.149V40H26.051ZM36.4746 40.27C35.5266 40.27 34.7046 40.06 34.0086 39.64C33.3186 39.22 32.7816 38.629 32.3976 37.867C32.0136 37.105 31.8216 36.211 31.8216 35.185C31.8216 34.123 32.0106 33.205 32.3886 32.431C32.7666 31.657 33.2976 31.06 33.9816 30.64C34.6716 30.22 35.4846 30.01 36.4206 30.01C37.3806 30.01 38.1996 30.232 38.8776 30.676C39.5556 31.114 40.0686 31.744 40.4166 32.566C40.7646 33.388 40.9236 34.369 40.8936 35.509H39.5436V35.041C39.5196 33.781 39.2466 32.83 38.7246 32.188C38.2086 31.546 37.4526 31.225 36.4566 31.225C35.4126 31.225 34.6116 31.564 34.0536 32.242C33.5016 32.92 33.2256 33.886 33.2256 35.14C33.2256 36.364 33.5016 37.315 34.0536 37.993C34.6116 38.665 35.4006 39.001 36.4206 39.001C37.1166 39.001 37.7226 38.842 38.2386 38.524C38.7606 38.2 39.1716 37.735 39.4716 37.129L40.7046 37.606C40.3206 38.452 39.7536 39.109 39.0036 39.577C38.2596 40.039 37.4166 40.27 36.4746 40.27ZM32.7576 35.509V34.402H40.1826V35.509H32.7576ZM46.4944 40V27.04H53.9374V28.363H47.8174V32.863H52.8574V34.177H47.8174V40H46.4944ZM57.9941 40.27C57.2621 40.27 56.6471 40.138 56.1491 39.874C55.6571 39.61 55.2881 39.259 55.0421 38.821C54.7961 38.383 54.6731 37.906 54.6731 37.39C54.6731 36.862 54.7781 36.412 54.9881 36.04C55.2041 35.662 55.4951 35.353 55.8611 35.113C56.2331 34.873 56.6621 34.69 57.1481 34.564C57.6401 34.444 58.1831 34.339 58.7771 34.249C59.3771 34.153 59.9621 34.072 60.5321 34.006C61.1081 33.934 61.6121 33.865 62.0441 33.799L61.5761 34.087C61.5941 33.127 61.4081 32.416 61.0181 31.954C60.6281 31.492 59.9501 31.261 58.9841 31.261C58.3181 31.261 57.7541 31.411 57.2921 31.711C56.8361 32.011 56.5151 32.485 56.3291 33.133L55.0421 32.755C55.2641 31.885 55.7111 31.21 56.3831 30.73C57.0551 30.25 57.9281 30.01 59.0021 30.01C59.8901 30.01 60.6431 30.178 61.2611 30.514C61.8851 30.844 62.3261 31.324 62.5841 31.954C62.7041 32.236 62.7821 32.551 62.8181 32.899C62.8541 33.247 62.8721 33.601 62.8721 33.961V40H61.6931V37.561L62.0351 37.705C61.7051 38.539 61.1921 39.175 60.4961 39.613C59.8001 40.051 58.9661 40.27 57.9941 40.27ZM58.1471 39.127C58.7651 39.127 59.3051 39.016 59.7671 38.794C60.2291 38.572 60.6011 38.269 60.8831 37.885C61.1651 37.495 61.3481 37.057 61.4321 36.571C61.5041 36.259 61.5431 35.917 61.5491 35.545C61.5551 35.167 61.5581 34.885 61.5581 34.699L62.0621 34.96C61.6121 35.02 61.1231 35.08 60.5951 35.14C60.0731 35.2 59.5571 35.269 59.0471 35.347C58.5431 35.425 58.0871 35.518 57.6791 35.626C57.4031 35.704 57.1361 35.815 56.8781 35.959C56.6201 36.097 56.4071 36.283 56.2391 36.517C56.0771 36.751 55.9961 37.042 55.9961 37.39C55.9961 37.672 56.0651 37.945 56.2031 38.209C56.3471 38.473 56.5751 38.692 56.8871 38.866C57.2051 39.04 57.6251 39.127 58.1471 39.127ZM65.2151 40V30.28H66.4031V32.62L66.1691 32.314C66.2771 32.026 66.4181 31.762 66.5921 31.522C66.7661 31.276 66.9551 31.075 67.1591 30.919C67.4111 30.697 67.7051 30.529 68.0411 30.415C68.3771 30.295 68.7161 30.226 69.0581 30.208C69.4001 30.184 69.7121 30.208 69.9941 30.28V31.522C69.6401 31.432 69.2531 31.411 68.8331 31.459C68.4131 31.507 68.0261 31.675 67.6721 31.963C67.3481 32.215 67.1051 32.518 66.9431 32.872C66.7811 33.22 66.6731 33.592 66.6191 33.988C66.5651 34.378 66.5381 34.765 66.5381 35.149V40H65.2151ZM83.2934 40L83.3024 33.619C83.3024 32.869 83.0924 32.281 82.6724 31.855C82.2584 31.423 81.7304 31.207 81.0884 31.207C80.7224 31.207 80.3654 31.291 80.0174 31.459C79.6694 31.627 79.3814 31.897 79.1534 32.269C78.9314 32.641 78.8204 33.127 78.8204 33.727L78.0374 33.502C78.0194 32.806 78.1544 32.197 78.4424 31.675C78.7364 31.153 79.1384 30.748 79.6484 30.46C80.1644 30.166 80.7464 30.019 81.3944 30.019C82.3724 30.019 83.1554 30.322 83.7434 30.928C84.3314 31.528 84.6254 32.341 84.6254 33.367L84.6164 40H83.2934ZM71.6924 40V30.28H72.8804V32.674H73.0244V40H71.6924ZM77.5064 40L77.5154 33.709C77.5154 32.935 77.3084 32.326 76.8944 31.882C76.4864 31.432 75.9464 31.207 75.2744 31.207C74.6024 31.207 74.0594 31.438 73.6454 31.9C73.2314 32.356 73.0244 32.965 73.0244 33.727L72.2324 33.295C72.2324 32.671 72.3794 32.113 72.6734 31.621C72.9674 31.123 73.3694 30.733 73.8794 30.451C74.3894 30.163 74.9684 30.019 75.6164 30.019C76.2344 30.019 76.7834 30.151 77.2634 30.415C77.7494 30.679 78.1304 31.063 78.4064 31.567C78.6824 32.071 78.8204 32.683 78.8204 33.403L78.8114 40H77.5064ZM87.1392 28.435V26.95H88.4622V28.435H87.1392ZM87.1392 40V30.28H88.4622V40H87.1392ZM98.1804 40V35.041C98.1804 34.501 98.1294 34.006 98.0274 33.556C97.9254 33.1 97.7604 32.704 97.5324 32.368C97.3104 32.026 97.0194 31.762 96.6594 31.576C96.3054 31.39 95.8734 31.297 95.3634 31.297C94.8954 31.297 94.4814 31.378 94.1214 31.54C93.7674 31.702 93.4674 31.936 93.2214 32.242C92.9814 32.542 92.7984 32.908 92.6724 33.34C92.5464 33.772 92.4834 34.264 92.4834 34.816L91.5474 34.609C91.5474 33.613 91.7214 32.776 92.0694 32.098C92.4174 31.42 92.8974 30.907 93.5094 30.559C94.1214 30.211 94.8234 30.037 95.6154 30.037C96.1974 30.037 96.7044 30.127 97.1364 30.307C97.5744 30.487 97.9434 30.73 98.2434 31.036C98.5494 31.342 98.7954 31.693 98.9814 32.089C99.1674 32.479 99.3024 32.896 99.3864 33.34C99.4704 33.778 99.5124 34.216 99.5124 34.654V40H98.1804ZM91.1514 40V30.28H92.3484V32.674H92.4834V40H91.1514ZM105.709 44.59C105.211 44.59 104.719 44.515 104.233 44.365C103.753 44.221 103.309 43.99 102.901 43.672C102.493 43.36 102.151 42.952 101.875 42.448L103.072 41.782C103.342 42.322 103.72 42.709 104.206 42.943C104.698 43.183 105.199 43.303 105.709 43.303C106.411 43.303 106.978 43.171 107.41 42.907C107.848 42.649 108.166 42.265 108.364 41.755C108.562 41.245 108.658 40.609 108.652 39.847V37.255H108.805V30.28H109.984V39.865C109.984 40.141 109.975 40.405 109.957 40.657C109.945 40.915 109.918 41.167 109.876 41.413C109.762 42.139 109.525 42.736 109.165 43.204C108.811 43.672 108.343 44.02 107.761 44.248C107.185 44.476 106.501 44.59 105.709 44.59ZM105.619 40.27C104.713 40.27 103.939 40.045 103.297 39.595C102.655 39.139 102.163 38.524 101.821 37.75C101.479 36.976 101.308 36.103 101.308 35.131C101.308 34.165 101.476 33.295 101.812 32.521C102.154 31.747 102.643 31.135 103.279 30.685C103.915 30.235 104.677 30.01 105.565 30.01C106.477 30.01 107.245 30.232 107.869 30.676C108.493 31.12 108.964 31.729 109.282 32.503C109.606 33.271 109.768 34.147 109.768 35.131C109.768 36.097 109.609 36.97 109.291 37.75C108.973 38.524 108.505 39.139 107.887 39.595C107.269 40.045 106.513 40.27 105.619 40.27ZM105.754 39.037C106.444 39.037 107.014 38.869 107.464 38.533C107.914 38.197 108.25 37.735 108.472 37.147C108.694 36.553 108.805 35.881 108.805 35.131C108.805 34.369 108.694 33.697 108.472 33.115C108.25 32.527 107.914 32.068 107.464 31.738C107.02 31.408 106.459 31.243 105.781 31.243C105.085 31.243 104.509 31.414 104.053 31.756C103.597 32.098 103.258 32.563 103.036 33.151C102.82 33.739 102.712 34.399 102.712 35.131C102.712 35.869 102.823 36.535 103.045 37.129C103.273 37.717 103.612 38.182 104.062 38.524C104.512 38.866 105.076 39.037 105.754 39.037ZM116.104 40V27.04H121.108C121.834 27.04 122.467 27.19 123.007 27.49C123.547 27.79 123.967 28.195 124.267 28.705C124.567 29.209 124.717 29.767 124.717 30.379C124.717 31.075 124.531 31.696 124.159 32.242C123.787 32.782 123.289 33.157 122.665 33.367L122.647 32.926C123.487 33.166 124.147 33.586 124.627 34.186C125.107 34.786 125.347 35.512 125.347 36.364C125.347 37.114 125.188 37.762 124.87 38.308C124.552 38.848 124.105 39.265 123.529 39.559C122.953 39.853 122.284 40 121.522 40H116.104ZM117.436 38.731H121.198C121.726 38.731 122.2 38.638 122.62 38.452C123.04 38.26 123.37 37.99 123.61 37.642C123.856 37.294 123.979 36.874 123.979 36.382C123.979 35.902 123.868 35.47 123.646 35.086C123.424 34.702 123.121 34.396 122.737 34.168C122.359 33.934 121.927 33.817 121.441 33.817H117.436V38.731ZM117.436 32.566H121.099C121.513 32.566 121.891 32.473 122.233 32.287C122.575 32.095 122.845 31.834 123.043 31.504C123.247 31.174 123.349 30.793 123.349 30.361C123.349 29.749 123.136 29.251 122.71 28.867C122.29 28.483 121.753 28.291 121.099 28.291H117.436V32.566ZM131.202 40.27C130.236 40.27 129.411 40.051 128.727 39.613C128.043 39.175 127.518 38.569 127.152 37.795C126.786 37.021 126.603 36.133 126.603 35.131C126.603 34.111 126.789 33.217 127.161 32.449C127.533 31.681 128.061 31.084 128.745 30.658C129.435 30.226 130.254 30.01 131.202 30.01C132.174 30.01 133.002 30.229 133.686 30.667C134.376 31.099 134.901 31.702 135.261 32.476C135.627 33.244 135.81 34.129 135.81 35.131C135.81 36.151 135.627 37.048 135.261 37.822C134.895 38.59 134.367 39.19 133.677 39.622C132.987 40.054 132.162 40.27 131.202 40.27ZM131.202 39.001C132.282 39.001 133.086 38.644 133.614 37.93C134.142 37.21 134.406 36.277 134.406 35.131C134.406 33.955 134.139 33.019 133.605 32.323C133.077 31.627 132.276 31.279 131.202 31.279C130.476 31.279 129.876 31.444 129.402 31.774C128.934 32.098 128.583 32.551 128.349 33.133C128.121 33.709 128.007 34.375 128.007 35.131C128.007 36.301 128.277 37.24 128.817 37.948C129.357 38.65 130.152 39.001 131.202 39.001ZM141.854 40.27C140.888 40.27 140.063 40.051 139.379 39.613C138.695 39.175 138.17 38.569 137.804 37.795C137.438 37.021 137.255 36.133 137.255 35.131C137.255 34.111 137.441 33.217 137.813 32.449C138.185 31.681 138.713 31.084 139.397 30.658C140.087 30.226 140.906 30.01 141.854 30.01C142.826 30.01 143.654 30.229 144.338 30.667C145.028 31.099 145.553 31.702 145.913 32.476C146.279 33.244 146.462 34.129 146.462 35.131C146.462 36.151 146.279 37.048 145.913 37.822C145.547 38.59 145.019 39.19 144.329 39.622C143.639 40.054 142.814 40.27 141.854 40.27ZM141.854 39.001C142.934 39.001 143.738 38.644 144.266 37.93C144.794 37.21 145.058 36.277 145.058 35.131C145.058 33.955 144.791 33.019 144.257 32.323C143.729 31.627 142.928 31.279 141.854 31.279C141.128 31.279 140.528 31.444 140.054 31.774C139.586 32.098 139.235 32.551 139.001 33.133C138.773 33.709 138.659 34.375 138.659 35.131C138.659 36.301 138.929 37.24 139.469 37.948C140.009 38.65 140.804 39.001 141.854 39.001ZM151.987 40.261C150.847 40.261 149.908 40.015 149.17 39.523C148.438 39.031 147.988 38.347 147.82 37.471L149.17 37.246C149.314 37.798 149.641 38.239 150.151 38.569C150.667 38.893 151.303 39.055 152.059 39.055C152.797 39.055 153.379 38.902 153.805 38.596C154.231 38.284 154.444 37.861 154.444 37.327C154.444 37.027 154.375 36.784 154.237 36.598C154.105 36.406 153.832 36.229 153.418 36.067C153.004 35.905 152.386 35.713 151.564 35.491C150.682 35.251 149.992 35.011 149.494 34.771C148.996 34.531 148.642 34.255 148.432 33.943C148.222 33.625 148.117 33.238 148.117 32.782C148.117 32.23 148.273 31.747 148.585 31.333C148.897 30.913 149.329 30.589 149.881 30.361C150.433 30.127 151.075 30.01 151.807 30.01C152.539 30.01 153.193 30.13 153.769 30.37C154.351 30.604 154.819 30.934 155.173 31.36C155.527 31.786 155.737 32.281 155.803 32.845L154.453 33.088C154.363 32.518 154.078 32.068 153.598 31.738C153.124 31.402 152.521 31.228 151.789 31.216C151.099 31.198 150.538 31.33 150.106 31.612C149.674 31.888 149.458 32.257 149.458 32.719C149.458 32.977 149.536 33.199 149.692 33.385C149.848 33.565 150.13 33.736 150.538 33.898C150.952 34.06 151.54 34.237 152.302 34.429C153.196 34.657 153.898 34.897 154.408 35.149C154.918 35.401 155.281 35.698 155.497 36.04C155.713 36.382 155.821 36.805 155.821 37.309C155.821 38.227 155.479 38.95 154.795 39.478C154.117 40 153.181 40.261 151.987 40.261ZM163.109 40C162.563 40.114 162.023 40.159 161.489 40.135C160.961 40.111 160.487 39.997 160.067 39.793C159.653 39.589 159.338 39.271 159.122 38.839C158.948 38.479 158.852 38.116 158.834 37.75C158.822 37.378 158.816 36.955 158.816 36.481V27.58H160.13V36.427C160.13 36.835 160.133 37.177 160.139 37.453C160.151 37.723 160.214 37.963 160.328 38.173C160.544 38.575 160.886 38.815 161.354 38.893C161.828 38.971 162.413 38.953 163.109 38.839V40ZM156.737 31.414V30.28H163.109V31.414H156.737ZM168.447 34.897V33.763H180.327V34.897H168.447ZM197.868 40L197.877 33.619C197.877 32.869 197.667 32.281 197.247 31.855C196.833 31.423 196.305 31.207 195.663 31.207C195.297 31.207 194.94 31.291 194.592 31.459C194.244 31.627 193.956 31.897 193.728 32.269C193.506 32.641 193.395 33.127 193.395 33.727L192.612 33.502C192.594 32.806 192.729 32.197 193.017 31.675C193.311 31.153 193.713 30.748 194.223 30.46C194.739 30.166 195.321 30.019 195.969 30.019C196.947 30.019 197.73 30.322 198.318 30.928C198.906 31.528 199.2 32.341 199.2 33.367L199.191 40H197.868ZM186.267 40V30.28H187.455V32.674H187.599V40H186.267ZM192.081 40L192.09 33.709C192.09 32.935 191.883 32.326 191.469 31.882C191.061 31.432 190.521 31.207 189.849 31.207C189.177 31.207 188.634 31.438 188.22 31.9C187.806 32.356 187.599 32.965 187.599 33.727L186.807 33.295C186.807 32.671 186.954 32.113 187.248 31.621C187.542 31.123 187.944 30.733 188.454 30.451C188.964 30.163 189.543 30.019 190.191 30.019C190.809 30.019 191.358 30.151 191.838 30.415C192.324 30.679 192.705 31.063 192.981 31.567C193.257 32.071 193.395 32.683 193.395 33.403L193.386 40H192.081ZM205.522 40.27C204.556 40.27 203.731 40.051 203.047 39.613C202.363 39.175 201.838 38.569 201.472 37.795C201.106 37.021 200.923 36.133 200.923 35.131C200.923 34.111 201.109 33.217 201.481 32.449C201.853 31.681 202.381 31.084 203.065 30.658C203.755 30.226 204.574 30.01 205.522 30.01C206.494 30.01 207.322 30.229 208.006 30.667C208.696 31.099 209.221 31.702 209.581 32.476C209.947 33.244 210.13 34.129 210.13 35.131C210.13 36.151 209.947 37.048 209.581 37.822C209.215 38.59 208.687 39.19 207.997 39.622C207.307 40.054 206.482 40.27 205.522 40.27ZM205.522 39.001C206.602 39.001 207.406 38.644 207.934 37.93C208.462 37.21 208.726 36.277 208.726 35.131C208.726 33.955 208.459 33.019 207.925 32.323C207.397 31.627 206.596 31.279 205.522 31.279C204.796 31.279 204.196 31.444 203.722 31.774C203.254 32.098 202.903 32.551 202.669 33.133C202.441 33.709 202.327 34.375 202.327 35.131C202.327 36.301 202.597 37.24 203.137 37.948C203.677 38.65 204.472 39.001 205.522 39.001ZM212.115 40V30.28H213.303V32.62L213.069 32.314C213.177 32.026 213.318 31.762 213.492 31.522C213.666 31.276 213.855 31.075 214.059 30.919C214.311 30.697 214.605 30.529 214.941 30.415C215.277 30.295 215.616 30.226 215.958 30.208C216.3 30.184 216.612 30.208 216.894 30.28V31.522C216.54 31.432 216.153 31.411 215.733 31.459C215.313 31.507 214.926 31.675 214.572 31.963C214.248 32.215 214.005 32.518 213.843 32.872C213.681 33.22 213.573 33.592 213.519 33.988C213.465 34.378 213.438 34.765 213.438 35.149V40H212.115ZM222.539 40.27C221.591 40.27 220.769 40.06 220.073 39.64C219.383 39.22 218.846 38.629 218.462 37.867C218.078 37.105 217.886 36.211 217.886 35.185C217.886 34.123 218.075 33.205 218.453 32.431C218.831 31.657 219.362 31.06 220.046 30.64C220.736 30.22 221.549 30.01 222.485 30.01C223.445 30.01 224.264 30.232 224.942 30.676C225.62 31.114 226.133 31.744 226.481 32.566C226.829 33.388 226.988 34.369 226.958 35.509H225.608V35.041C225.584 33.781 225.311 32.83 224.789 32.188C224.273 31.546 223.517 31.225 222.521 31.225C221.477 31.225 220.676 31.564 220.118 32.242C219.566 32.92 219.29 33.886 219.29 35.14C219.29 36.364 219.566 37.315 220.118 37.993C220.676 38.665 221.465 39.001 222.485 39.001C223.181 39.001 223.787 38.842 224.303 38.524C224.825 38.2 225.236 37.735 225.536 37.129L226.769 37.606C226.385 38.452 225.818 39.109 225.068 39.577C224.324 40.039 223.481 40.27 222.539 40.27ZM218.822 35.509V34.402H226.247V35.509H218.822ZM236.006 40V28.309H231.479V27.04H241.856V28.309H237.329V40H236.006ZM246.12 40.243C245.538 40.243 245.028 40.153 244.59 39.973C244.158 39.793 243.789 39.55 243.483 39.244C243.183 38.938 242.94 38.59 242.754 38.2C242.568 37.804 242.433 37.387 242.349 36.949C242.265 36.505 242.223 36.064 242.223 35.626V30.28H243.555V35.239C243.555 35.773 243.606 36.268 243.708 36.724C243.81 37.18 243.972 37.579 244.194 37.921C244.422 38.257 244.713 38.518 245.067 38.704C245.427 38.89 245.862 38.983 246.372 38.983C246.84 38.983 247.251 38.902 247.605 38.74C247.965 38.578 248.265 38.347 248.505 38.047C248.751 37.741 248.937 37.372 249.063 36.94C249.189 36.502 249.252 36.01 249.252 35.464L250.188 35.671C250.188 36.667 250.014 37.504 249.666 38.182C249.318 38.86 248.838 39.373 248.226 39.721C247.614 40.069 246.912 40.243 246.12 40.243ZM249.387 40V37.606H249.252V30.28H250.575V40H249.387ZM253.09 40V30.28H254.278V32.62L254.044 32.314C254.152 32.026 254.293 31.762 254.467 31.522C254.641 31.276 254.83 31.075 255.034 30.919C255.286 30.697 255.58 30.529 255.916 30.415C256.252 30.295 256.591 30.226 256.933 30.208C257.275 30.184 257.587 30.208 257.869 30.28V31.522C257.515 31.432 257.128 31.411 256.708 31.459C256.288 31.507 255.901 31.675 255.547 31.963C255.223 32.215 254.98 32.518 254.818 32.872C254.656 33.22 254.548 33.592 254.494 33.988C254.44 34.378 254.413 34.765 254.413 35.149V40H253.09ZM263.941 40.27C263.047 40.27 262.291 40.045 261.673 39.595C261.055 39.139 260.587 38.524 260.269 37.75C259.951 36.97 259.792 36.097 259.792 35.131C259.792 34.147 259.951 33.271 260.269 32.503C260.593 31.729 261.067 31.12 261.691 30.676C262.315 30.232 263.083 30.01 263.995 30.01C264.883 30.01 265.645 30.235 266.281 30.685C266.917 31.135 267.403 31.747 267.739 32.521C268.081 33.295 268.252 34.165 268.252 35.131C268.252 36.103 268.081 36.976 267.739 37.75C267.397 38.524 266.905 39.139 266.263 39.595C265.621 40.045 264.847 40.27 263.941 40.27ZM259.567 40V27.04H260.899V32.683H260.755V40H259.567ZM263.806 39.037C264.484 39.037 265.048 38.866 265.498 38.524C265.948 38.182 266.284 37.717 266.506 37.129C266.734 36.535 266.848 35.869 266.848 35.131C266.848 34.399 266.737 33.739 266.515 33.151C266.293 32.563 265.954 32.098 265.498 31.756C265.048 31.414 264.475 31.243 263.779 31.243C263.101 31.243 262.537 31.408 262.087 31.738C261.643 32.068 261.31 32.527 261.088 33.115C260.866 33.697 260.755 34.369 260.755 35.131C260.755 35.881 260.866 36.553 261.088 37.147C261.31 37.735 261.646 38.197 262.096 38.533C262.546 38.869 263.116 39.037 263.806 39.037ZM274.288 40.27C273.322 40.27 272.497 40.051 271.813 39.613C271.129 39.175 270.604 38.569 270.238 37.795C269.872 37.021 269.689 36.133 269.689 35.131C269.689 34.111 269.875 33.217 270.247 32.449C270.619 31.681 271.147 31.084 271.831 30.658C272.521 30.226 273.34 30.01 274.288 30.01C275.26 30.01 276.088 30.229 276.772 30.667C277.462 31.099 277.987 31.702 278.347 32.476C278.713 33.244 278.896 34.129 278.896 35.131C278.896 36.151 278.713 37.048 278.347 37.822C277.981 38.59 277.453 39.19 276.763 39.622C276.073 40.054 275.248 40.27 274.288 40.27ZM274.288 39.001C275.368 39.001 276.172 38.644 276.7 37.93C277.228 37.21 277.492 36.277 277.492 35.131C277.492 33.955 277.225 33.019 276.691 32.323C276.163 31.627 275.362 31.279 274.288 31.279C273.562 31.279 272.962 31.444 272.488 31.774C272.02 32.098 271.669 32.551 271.435 33.133C271.207 33.709 271.093 34.375 271.093 35.131C271.093 36.301 271.363 37.24 271.903 37.948C272.443 38.65 273.238 39.001 274.288 39.001ZM283.256 40V28.309H278.729V27.04H289.106V28.309H284.579V40H283.256ZM295.796 40.27C294.506 40.27 293.417 39.985 292.529 39.415C291.641 38.839 290.969 38.044 290.513 37.03C290.057 36.016 289.829 34.846 289.829 33.52C289.829 32.194 290.057 31.024 290.513 30.01C290.969 28.996 291.641 28.204 292.529 27.634C293.417 27.058 294.506 26.77 295.796 26.77C297.092 26.77 298.181 27.058 299.063 27.634C299.951 28.204 300.623 28.996 301.079 30.01C301.541 31.024 301.772 32.194 301.772 33.52C301.772 34.846 301.541 36.016 301.079 37.03C300.623 38.044 299.951 38.839 299.063 39.415C298.181 39.985 297.092 40.27 295.796 40.27ZM295.796 39.001C296.81 39.001 297.656 38.77 298.334 38.308C299.012 37.846 299.519 37.204 299.855 36.382C300.197 35.554 300.368 34.6 300.368 33.52C300.368 32.44 300.197 31.489 299.855 30.667C299.519 29.845 299.012 29.203 298.334 28.741C297.656 28.279 296.81 28.045 295.796 28.039C294.782 28.039 293.939 28.27 293.267 28.732C292.595 29.194 292.088 29.839 291.746 30.667C291.41 31.489 291.239 32.44 291.233 33.52C291.227 34.6 291.392 35.551 291.728 36.373C292.07 37.189 292.58 37.831 293.258 38.299C293.936 38.761 294.782 38.995 295.796 39.001ZM303.574 40V27.04H304.906L312.043 37.66V27.04H313.375V40H312.043L304.906 29.371V40H303.574ZM324.792 40C324.246 40.114 323.706 40.159 323.172 40.135C322.644 40.111 322.17 39.997 321.75 39.793C321.336 39.589 321.021 39.271 320.805 38.839C320.631 38.479 320.535 38.116 320.517 37.75C320.505 37.378 320.499 36.955 320.499 36.481V27.58H321.813V36.427C321.813 36.835 321.816 37.177 321.822 37.453C321.834 37.723 321.897 37.963 322.011 38.173C322.227 38.575 322.569 38.815 323.037 38.893C323.511 38.971 324.096 38.953 324.792 38.839V40ZM318.42 31.414V30.28H324.792V31.414H318.42ZM330.415 40.27C329.449 40.27 328.624 40.051 327.94 39.613C327.256 39.175 326.731 38.569 326.365 37.795C325.999 37.021 325.816 36.133 325.816 35.131C325.816 34.111 326.002 33.217 326.374 32.449C326.746 31.681 327.274 31.084 327.958 30.658C328.648 30.226 329.467 30.01 330.415 30.01C331.387 30.01 332.215 30.229 332.899 30.667C333.589 31.099 334.114 31.702 334.474 32.476C334.84 33.244 335.023 34.129 335.023 35.131C335.023 36.151 334.84 37.048 334.474 37.822C334.108 38.59 333.58 39.19 332.89 39.622C332.2 40.054 331.375 40.27 330.415 40.27ZM330.415 39.001C331.495 39.001 332.299 38.644 332.827 37.93C333.355 37.21 333.619 36.277 333.619 35.131C333.619 33.955 333.352 33.019 332.818 32.323C332.29 31.627 331.489 31.279 330.415 31.279C329.689 31.279 329.089 31.444 328.615 31.774C328.147 32.098 327.796 32.551 327.562 33.133C327.334 33.709 327.22 34.375 327.22 35.131C327.22 36.301 327.49 37.24 328.03 37.948C328.57 38.65 329.365 39.001 330.415 39.001ZM336.999 40L337.008 27.04H338.34V34.96L342.678 30.28H344.442L339.888 35.14L345.036 40H343.11L338.34 35.32V40H336.999ZM349.875 40.27C348.927 40.27 348.105 40.06 347.409 39.64C346.719 39.22 346.182 38.629 345.798 37.867C345.414 37.105 345.222 36.211 345.222 35.185C345.222 34.123 345.411 33.205 345.789 32.431C346.167 31.657 346.698 31.06 347.382 30.64C348.072 30.22 348.885 30.01 349.821 30.01C350.781 30.01 351.6 30.232 352.278 30.676C352.956 31.114 353.469 31.744 353.817 32.566C354.165 33.388 354.324 34.369 354.294 35.509H352.944V35.041C352.92 33.781 352.647 32.83 352.125 32.188C351.609 31.546 350.853 31.225 349.857 31.225C348.813 31.225 348.012 31.564 347.454 32.242C346.902 32.92 346.626 33.886 346.626 35.14C346.626 36.364 346.902 37.315 347.454 37.993C348.012 38.665 348.801 39.001 349.821 39.001C350.517 39.001 351.123 38.842 351.639 38.524C352.161 38.2 352.572 37.735 352.872 37.129L354.105 37.606C353.721 38.452 353.154 39.109 352.404 39.577C351.66 40.039 350.817 40.27 349.875 40.27ZM346.158 35.509V34.402H353.583V35.509H346.158ZM363.048 40V35.041C363.048 34.501 362.997 34.006 362.895 33.556C362.793 33.1 362.628 32.704 362.4 32.368C362.178 32.026 361.887 31.762 361.527 31.576C361.173 31.39 360.741 31.297 360.231 31.297C359.763 31.297 359.349 31.378 358.989 31.54C358.635 31.702 358.335 31.936 358.089 32.242C357.849 32.542 357.666 32.908 357.54 33.34C357.414 33.772 357.351 34.264 357.351 34.816L356.415 34.609C356.415 33.613 356.589 32.776 356.937 32.098C357.285 31.42 357.765 30.907 358.377 30.559C358.989 30.211 359.691 30.037 360.483 30.037C361.065 30.037 361.572 30.127 362.004 30.307C362.442 30.487 362.811 30.73 363.111 31.036C363.417 31.342 363.663 31.693 363.849 32.089C364.035 32.479 364.17 32.896 364.254 33.34C364.338 33.778 364.38 34.216 364.38 34.654V40H363.048ZM356.019 40V30.28H357.216V32.674H357.351V40H356.019ZM370.342 40.261C369.202 40.261 368.263 40.015 367.525 39.523C366.793 39.031 366.343 38.347 366.175 37.471L367.525 37.246C367.669 37.798 367.996 38.239 368.506 38.569C369.022 38.893 369.658 39.055 370.414 39.055C371.152 39.055 371.734 38.902 372.16 38.596C372.586 38.284 372.799 37.861 372.799 37.327C372.799 37.027 372.73 36.784 372.592 36.598C372.46 36.406 372.187 36.229 371.773 36.067C371.359 35.905 370.741 35.713 369.919 35.491C369.037 35.251 368.347 35.011 367.849 34.771C367.351 34.531 366.997 34.255 366.787 33.943C366.577 33.625 366.472 33.238 366.472 32.782C366.472 32.23 366.628 31.747 366.94 31.333C367.252 30.913 367.684 30.589 368.236 30.361C368.788 30.127 369.43 30.01 370.162 30.01C370.894 30.01 371.548 30.13 372.124 30.37C372.706 30.604 373.174 30.934 373.528 31.36C373.882 31.786 374.092 32.281 374.158 32.845L372.808 33.088C372.718 32.518 372.433 32.068 371.953 31.738C371.479 31.402 370.876 31.228 370.144 31.216C369.454 31.198 368.893 31.33 368.461 31.612C368.029 31.888 367.813 32.257 367.813 32.719C367.813 32.977 367.891 33.199 368.047 33.385C368.203 33.565 368.485 33.736 368.893 33.898C369.307 34.06 369.895 34.237 370.657 34.429C371.551 34.657 372.253 34.897 372.763 35.149C373.273 35.401 373.636 35.698 373.852 36.04C374.068 36.382 374.176 36.805 374.176 37.309C374.176 38.227 373.834 38.95 373.15 39.478C372.472 40 371.536 40.261 370.342 40.261ZM381.162 44.32L383.043 39.217L383.07 40.729L378.813 30.28H380.217L383.709 39.019H383.133L386.355 30.28H387.705L382.485 44.32H381.162ZM392.975 40.27C392.009 40.27 391.184 40.051 390.5 39.613C389.816 39.175 389.291 38.569 388.925 37.795C388.559 37.021 388.376 36.133 388.376 35.131C388.376 34.111 388.562 33.217 388.934 32.449C389.306 31.681 389.834 31.084 390.518 30.658C391.208 30.226 392.027 30.01 392.975 30.01C393.947 30.01 394.775 30.229 395.459 30.667C396.149 31.099 396.674 31.702 397.034 32.476C397.4 33.244 397.583 34.129 397.583 35.131C397.583 36.151 397.4 37.048 397.034 37.822C396.668 38.59 396.14 39.19 395.45 39.622C394.76 40.054 393.935 40.27 392.975 40.27ZM392.975 39.001C394.055 39.001 394.859 38.644 395.387 37.93C395.915 37.21 396.179 36.277 396.179 35.131C396.179 33.955 395.912 33.019 395.378 32.323C394.85 31.627 394.049 31.279 392.975 31.279C392.249 31.279 391.649 31.444 391.175 31.774C390.707 32.098 390.356 32.551 390.122 33.133C389.894 33.709 389.78 34.375 389.78 35.131C389.78 36.301 390.05 37.24 390.59 37.948C391.13 38.65 391.925 39.001 392.975 39.001ZM403.286 40.243C402.704 40.243 402.194 40.153 401.756 39.973C401.324 39.793 400.955 39.55 400.649 39.244C400.349 38.938 400.106 38.59 399.92 38.2C399.734 37.804 399.599 37.387 399.515 36.949C399.431 36.505 399.389 36.064 399.389 35.626V30.28H400.721V35.239C400.721 35.773 400.772 36.268 400.874 36.724C400.976 37.18 401.138 37.579 401.36 37.921C401.588 38.257 401.879 38.518 402.233 38.704C402.593 38.89 403.028 38.983 403.538 38.983C404.006 38.983 404.417 38.902 404.771 38.74C405.131 38.578 405.431 38.347 405.671 38.047C405.917 37.741 406.103 37.372 406.229 36.94C406.355 36.502 406.418 36.01 406.418 35.464L407.354 35.671C407.354 36.667 407.18 37.504 406.832 38.182C406.484 38.86 406.004 39.373 405.392 39.721C404.78 40.069 404.078 40.243 403.286 40.243ZM406.553 40V37.606H406.418V30.28H407.741V40H406.553ZM74.9667 66L71.9967 56.271L73.3197 56.28L75.6237 63.831L77.9367 56.28H79.1427L81.4557 63.831L83.7777 56.28H85.0917L82.1217 66H80.9697L78.5397 58.26L76.1187 66H74.9667ZM86.8931 54.435V52.95H88.2161V54.435H86.8931ZM86.8931 66V56.28H88.2161V66H86.8931ZM91.0943 66V52.77H92.4173V66H91.0943ZM95.2955 66V52.77H96.6185V66H95.2955ZM102.92 66V56.28H104.108V58.62L103.874 58.314C103.982 58.026 104.123 57.762 104.297 57.522C104.471 57.276 104.66 57.075 104.864 56.919C105.116 56.697 105.41 56.529 105.746 56.415C106.082 56.295 106.421 56.226 106.763 56.208C107.105 56.184 107.417 56.208 107.699 56.28V57.522C107.345 57.432 106.958 57.411 106.538 57.459C106.118 57.507 105.731 57.675 105.377 57.963C105.053 58.215 104.81 58.518 104.648 58.872C104.486 59.22 104.378 59.592 104.324 59.988C104.27 60.378 104.243 60.765 104.243 61.149V66H102.92ZM113.344 66.27C112.396 66.27 111.574 66.06 110.878 65.64C110.188 65.22 109.651 64.629 109.267 63.867C108.883 63.105 108.691 62.211 108.691 61.185C108.691 60.123 108.88 59.205 109.258 58.431C109.636 57.657 110.167 57.06 110.851 56.64C111.541 56.22 112.354 56.01 113.29 56.01C114.25 56.01 115.069 56.232 115.747 56.676C116.425 57.114 116.938 57.744 117.286 58.566C117.634 59.388 117.793 60.369 117.763 61.509H116.413V61.041C116.389 59.781 116.116 58.83 115.594 58.188C115.078 57.546 114.322 57.225 113.326 57.225C112.282 57.225 111.481 57.564 110.923 58.242C110.371 58.92 110.095 59.886 110.095 61.14C110.095 62.364 110.371 63.315 110.923 63.993C111.481 64.665 112.27 65.001 113.29 65.001C113.986 65.001 114.592 64.842 115.108 64.524C115.63 64.2 116.041 63.735 116.341 63.129L117.574 63.606C117.19 64.452 116.623 65.109 115.873 65.577C115.129 66.039 114.286 66.27 113.344 66.27ZM109.627 61.509V60.402H117.052V61.509H109.627ZM123.792 66.27C122.814 66.27 121.986 66.051 121.308 65.613C120.63 65.175 120.114 64.572 119.76 63.804C119.412 63.03 119.232 62.142 119.22 61.14C119.232 60.12 119.418 59.226 119.778 58.458C120.138 57.684 120.657 57.084 121.335 56.658C122.013 56.226 122.835 56.01 123.801 56.01C124.785 56.01 125.64 56.25 126.366 56.73C127.098 57.21 127.599 57.867 127.869 58.701L126.573 59.115C126.345 58.533 125.982 58.083 125.484 57.765C124.992 57.441 124.428 57.279 123.792 57.279C123.078 57.279 122.487 57.444 122.019 57.774C121.551 58.098 121.203 58.551 120.975 59.133C120.747 59.715 120.63 60.384 120.624 61.14C120.636 62.304 120.906 63.24 121.434 63.948C121.962 64.65 122.748 65.001 123.792 65.001C124.452 65.001 125.013 64.851 125.475 64.551C125.943 64.245 126.297 63.801 126.537 63.219L127.869 63.615C127.509 64.479 126.981 65.139 126.285 65.595C125.589 66.045 124.758 66.27 123.792 66.27ZM133.576 66.27C132.628 66.27 131.806 66.06 131.11 65.64C130.42 65.22 129.883 64.629 129.499 63.867C129.115 63.105 128.923 62.211 128.923 61.185C128.923 60.123 129.112 59.205 129.49 58.431C129.868 57.657 130.399 57.06 131.083 56.64C131.773 56.22 132.586 56.01 133.522 56.01C134.482 56.01 135.301 56.232 135.979 56.676C136.657 57.114 137.17 57.744 137.518 58.566C137.866 59.388 138.025 60.369 137.995 61.509H136.645V61.041C136.621 59.781 136.348 58.83 135.826 58.188C135.31 57.546 134.554 57.225 133.558 57.225C132.514 57.225 131.713 57.564 131.155 58.242C130.603 58.92 130.327 59.886 130.327 61.14C130.327 62.364 130.603 63.315 131.155 63.993C131.713 64.665 132.502 65.001 133.522 65.001C134.218 65.001 134.824 64.842 135.34 64.524C135.862 64.2 136.273 63.735 136.573 63.129L137.806 63.606C137.422 64.452 136.855 65.109 136.105 65.577C135.361 66.039 134.518 66.27 133.576 66.27ZM129.859 61.509V60.402H137.284V61.509H129.859ZM140.172 54.435V52.95H141.495V54.435H140.172ZM140.172 66V56.28H141.495V66H140.172ZM146.822 66L143.294 56.28H144.635L147.506 64.272L150.359 56.28H151.718L148.19 66H146.822ZM157.096 66.27C156.148 66.27 155.326 66.06 154.63 65.64C153.94 65.22 153.403 64.629 153.019 63.867C152.635 63.105 152.443 62.211 152.443 61.185C152.443 60.123 152.632 59.205 153.01 58.431C153.388 57.657 153.919 57.06 154.603 56.64C155.293 56.22 156.106 56.01 157.042 56.01C158.002 56.01 158.821 56.232 159.499 56.676C160.177 57.114 160.69 57.744 161.038 58.566C161.386 59.388 161.545 60.369 161.515 61.509H160.165V61.041C160.141 59.781 159.868 58.83 159.346 58.188C158.83 57.546 158.074 57.225 157.078 57.225C156.034 57.225 155.233 57.564 154.675 58.242C154.123 58.92 153.847 59.886 153.847 61.14C153.847 62.364 154.123 63.315 154.675 63.993C155.233 64.665 156.022 65.001 157.042 65.001C157.738 65.001 158.344 64.842 158.86 64.524C159.382 64.2 159.793 63.735 160.093 63.129L161.326 63.606C160.942 64.452 160.375 65.109 159.625 65.577C158.881 66.039 158.038 66.27 157.096 66.27ZM153.379 61.509V60.402H160.804V61.509H153.379ZM167.295 54.435V52.95H168.618V54.435H167.295ZM167.295 66V56.28H168.618V66H167.295ZM178.337 66V61.041C178.337 60.501 178.286 60.006 178.184 59.556C178.082 59.1 177.917 58.704 177.689 58.368C177.467 58.026 177.176 57.762 176.816 57.576C176.462 57.39 176.03 57.297 175.52 57.297C175.052 57.297 174.638 57.378 174.278 57.54C173.924 57.702 173.624 57.936 173.378 58.242C173.138 58.542 172.955 58.908 172.829 59.34C172.703 59.772 172.64 60.264 172.64 60.816L171.704 60.609C171.704 59.613 171.878 58.776 172.226 58.098C172.574 57.42 173.054 56.907 173.666 56.559C174.278 56.211 174.98 56.037 175.772 56.037C176.354 56.037 176.861 56.127 177.293 56.307C177.731 56.487 178.1 56.73 178.4 57.036C178.706 57.342 178.952 57.693 179.138 58.089C179.324 58.479 179.459 58.896 179.543 59.34C179.627 59.778 179.669 60.216 179.669 60.654V66H178.337ZM171.308 66V56.28H172.505V58.674H172.64V66H171.308ZM190.9 66C190.354 66.114 189.814 66.159 189.28 66.135C188.752 66.111 188.278 65.997 187.858 65.793C187.444 65.589 187.129 65.271 186.913 64.839C186.739 64.479 186.643 64.116 186.625 63.75C186.613 63.378 186.607 62.955 186.607 62.481V53.58H187.921V62.427C187.921 62.835 187.924 63.177 187.93 63.453C187.942 63.723 188.005 63.963 188.119 64.173C188.335 64.575 188.677 64.815 189.145 64.893C189.619 64.971 190.204 64.953 190.9 64.839V66ZM184.528 57.414V56.28H190.9V57.414H184.528ZM199.835 66V61.041C199.835 60.501 199.784 60.006 199.682 59.556C199.58 59.1 199.415 58.704 199.187 58.368C198.965 58.026 198.674 57.762 198.314 57.576C197.96 57.39 197.528 57.297 197.018 57.297C196.55 57.297 196.136 57.378 195.776 57.54C195.422 57.702 195.122 57.936 194.876 58.242C194.636 58.542 194.453 58.908 194.327 59.34C194.201 59.772 194.138 60.264 194.138 60.816L193.202 60.609C193.202 59.613 193.376 58.776 193.724 58.098C194.072 57.42 194.552 56.907 195.164 56.559C195.776 56.211 196.478 56.037 197.27 56.037C197.852 56.037 198.359 56.127 198.791 56.307C199.229 56.487 199.598 56.73 199.898 57.036C200.204 57.342 200.45 57.693 200.636 58.089C200.822 58.479 200.957 58.896 201.041 59.34C201.125 59.778 201.167 60.216 201.167 60.654V66H199.835ZM192.806 66V53.04H194.003V60.357H194.138V66H192.806ZM207.615 66.27C206.667 66.27 205.845 66.06 205.149 65.64C204.459 65.22 203.922 64.629 203.538 63.867C203.154 63.105 202.962 62.211 202.962 61.185C202.962 60.123 203.151 59.205 203.529 58.431C203.907 57.657 204.438 57.06 205.122 56.64C205.812 56.22 206.625 56.01 207.561 56.01C208.521 56.01 209.34 56.232 210.018 56.676C210.696 57.114 211.209 57.744 211.557 58.566C211.905 59.388 212.064 60.369 212.034 61.509H210.684V61.041C210.66 59.781 210.387 58.83 209.865 58.188C209.349 57.546 208.593 57.225 207.597 57.225C206.553 57.225 205.752 57.564 205.194 58.242C204.642 58.92 204.366 59.886 204.366 61.14C204.366 62.364 204.642 63.315 205.194 63.993C205.752 64.665 206.541 65.001 207.561 65.001C208.257 65.001 208.863 64.842 209.379 64.524C209.901 64.2 210.312 63.735 210.612 63.129L211.845 63.606C211.461 64.452 210.894 65.109 210.144 65.577C209.4 66.039 208.557 66.27 207.615 66.27ZM203.898 61.509V60.402H211.323V61.509H203.898ZM221.748 66.27C220.8 66.27 219.978 66.06 219.282 65.64C218.592 65.22 218.055 64.629 217.671 63.867C217.287 63.105 217.095 62.211 217.095 61.185C217.095 60.123 217.284 59.205 217.662 58.431C218.04 57.657 218.571 57.06 219.255 56.64C219.945 56.22 220.758 56.01 221.694 56.01C222.654 56.01 223.473 56.232 224.151 56.676C224.829 57.114 225.342 57.744 225.69 58.566C226.038 59.388 226.197 60.369 226.167 61.509H224.817V61.041C224.793 59.781 224.52 58.83 223.998 58.188C223.482 57.546 222.726 57.225 221.73 57.225C220.686 57.225 219.885 57.564 219.327 58.242C218.775 58.92 218.499 59.886 218.499 61.14C218.499 62.364 218.775 63.315 219.327 63.993C219.885 64.665 220.674 65.001 221.694 65.001C222.39 65.001 222.996 64.842 223.512 64.524C224.034 64.2 224.445 63.735 224.745 63.129L225.978 63.606C225.594 64.452 225.027 65.109 224.277 65.577C223.533 66.039 222.69 66.27 221.748 66.27ZM218.031 61.509V60.402H225.456V61.509H218.031ZM234.921 66V61.041C234.921 60.501 234.87 60.006 234.768 59.556C234.666 59.1 234.501 58.704 234.273 58.368C234.051 58.026 233.76 57.762 233.4 57.576C233.046 57.39 232.614 57.297 232.104 57.297C231.636 57.297 231.222 57.378 230.862 57.54C230.508 57.702 230.208 57.936 229.962 58.242C229.722 58.542 229.539 58.908 229.413 59.34C229.287 59.772 229.224 60.264 229.224 60.816L228.288 60.609C228.288 59.613 228.462 58.776 228.81 58.098C229.158 57.42 229.638 56.907 230.25 56.559C230.862 56.211 231.564 56.037 232.356 56.037C232.938 56.037 233.445 56.127 233.877 56.307C234.315 56.487 234.684 56.73 234.984 57.036C235.29 57.342 235.536 57.693 235.722 58.089C235.908 58.479 236.043 58.896 236.127 59.34C236.211 59.778 236.253 60.216 236.253 60.654V66H234.921ZM227.892 66V56.28H229.089V58.674H229.224V66H227.892ZM242.289 66.27C241.383 66.27 240.609 66.045 239.967 65.595C239.325 65.139 238.833 64.524 238.491 63.75C238.149 62.976 237.978 62.103 237.978 61.131C237.978 60.165 238.146 59.295 238.482 58.521C238.824 57.747 239.313 57.135 239.949 56.685C240.585 56.235 241.347 56.01 242.235 56.01C243.147 56.01 243.915 56.232 244.539 56.676C245.163 57.12 245.634 57.729 245.952 58.503C246.276 59.271 246.438 60.147 246.438 61.131C246.438 62.097 246.279 62.97 245.961 63.75C245.643 64.524 245.175 65.139 244.557 65.595C243.939 66.045 243.183 66.27 242.289 66.27ZM242.424 65.037C243.114 65.037 243.684 64.869 244.134 64.533C244.584 64.197 244.92 63.735 245.142 63.147C245.364 62.553 245.475 61.881 245.475 61.131C245.475 60.369 245.364 59.697 245.142 59.115C244.92 58.527 244.584 58.068 244.134 57.738C243.69 57.408 243.129 57.243 242.451 57.243C241.755 57.243 241.179 57.414 240.723 57.756C240.267 58.098 239.928 58.563 239.706 59.151C239.49 59.739 239.382 60.399 239.382 61.131C239.382 61.869 239.493 62.535 239.715 63.129C239.943 63.717 240.282 64.182 240.732 64.524C241.182 64.866 241.746 65.037 242.424 65.037ZM245.475 66V58.683H245.331V53.04H246.663V66H245.475ZM256.85 66.27C255.884 66.27 255.059 66.051 254.375 65.613C253.691 65.175 253.166 64.569 252.8 63.795C252.434 63.021 252.251 62.133 252.251 61.131C252.251 60.111 252.437 59.217 252.809 58.449C253.181 57.681 253.709 57.084 254.393 56.658C255.083 56.226 255.902 56.01 256.85 56.01C257.822 56.01 258.65 56.229 259.334 56.667C260.024 57.099 260.549 57.702 260.909 58.476C261.275 59.244 261.458 60.129 261.458 61.131C261.458 62.151 261.275 63.048 260.909 63.822C260.543 64.59 260.015 65.19 259.325 65.622C258.635 66.054 257.81 66.27 256.85 66.27ZM256.85 65.001C257.93 65.001 258.734 64.644 259.262 63.93C259.79 63.21 260.054 62.277 260.054 61.131C260.054 59.955 259.787 59.019 259.253 58.323C258.725 57.627 257.924 57.279 256.85 57.279C256.124 57.279 255.524 57.444 255.05 57.774C254.582 58.098 254.231 58.551 253.997 59.133C253.769 59.709 253.655 60.375 253.655 61.131C253.655 62.301 253.925 63.24 254.465 63.948C255.005 64.65 255.8 65.001 256.85 65.001ZM264.407 66V55.56C264.407 55.308 264.419 55.059 264.443 54.813C264.473 54.567 264.53 54.333 264.614 54.111C264.698 53.883 264.83 53.673 265.01 53.481C265.208 53.265 265.424 53.109 265.658 53.013C265.892 52.911 266.135 52.845 266.387 52.815C266.645 52.785 266.897 52.77 267.143 52.77H268.385V53.886H267.233C266.729 53.886 266.351 54.009 266.099 54.255C265.853 54.501 265.73 54.888 265.73 55.416V66H264.407ZM262.724 57.414V56.28H268.385V57.414H262.724ZM276.209 66.27C275.477 66.27 274.862 66.138 274.364 65.874C273.872 65.61 273.503 65.259 273.257 64.821C273.011 64.383 272.888 63.906 272.888 63.39C272.888 62.862 272.993 62.412 273.203 62.04C273.419 61.662 273.71 61.353 274.076 61.113C274.448 60.873 274.877 60.69 275.363 60.564C275.855 60.444 276.398 60.339 276.992 60.249C277.592 60.153 278.177 60.072 278.747 60.006C279.323 59.934 279.827 59.865 280.259 59.799L279.791 60.087C279.809 59.127 279.623 58.416 279.233 57.954C278.843 57.492 278.165 57.261 277.199 57.261C276.533 57.261 275.969 57.411 275.507 57.711C275.051 58.011 274.73 58.485 274.544 59.133L273.257 58.755C273.479 57.885 273.926 57.21 274.598 56.73C275.27 56.25 276.143 56.01 277.217 56.01C278.105 56.01 278.858 56.178 279.476 56.514C280.1 56.844 280.541 57.324 280.799 57.954C280.919 58.236 280.997 58.551 281.033 58.899C281.069 59.247 281.087 59.601 281.087 59.961V66H279.908V63.561L280.25 63.705C279.92 64.539 279.407 65.175 278.711 65.613C278.015 66.051 277.181 66.27 276.209 66.27ZM276.362 65.127C276.98 65.127 277.52 65.016 277.982 64.794C278.444 64.572 278.816 64.269 279.098 63.885C279.38 63.495 279.563 63.057 279.647 62.571C279.719 62.259 279.758 61.917 279.764 61.545C279.77 61.167 279.773 60.885 279.773 60.699L280.277 60.96C279.827 61.02 279.338 61.08 278.81 61.14C278.288 61.2 277.772 61.269 277.262 61.347C276.758 61.425 276.302 61.518 275.894 61.626C275.618 61.704 275.351 61.815 275.093 61.959C274.835 62.097 274.622 62.283 274.454 62.517C274.292 62.751 274.211 63.042 274.211 63.39C274.211 63.672 274.28 63.945 274.418 64.209C274.562 64.473 274.79 64.692 275.102 64.866C275.42 65.04 275.84 65.127 276.362 65.127ZM290.894 70.59C290.396 70.59 289.904 70.515 289.418 70.365C288.938 70.221 288.494 69.99 288.086 69.672C287.678 69.36 287.336 68.952 287.06 68.448L288.257 67.782C288.527 68.322 288.905 68.709 289.391 68.943C289.883 69.183 290.384 69.303 290.894 69.303C291.596 69.303 292.163 69.171 292.595 68.907C293.033 68.649 293.351 68.265 293.549 67.755C293.747 67.245 293.843 66.609 293.837 65.847V63.255H293.99V56.28H295.169V65.865C295.169 66.141 295.16 66.405 295.142 66.657C295.13 66.915 295.103 67.167 295.061 67.413C294.947 68.139 294.71 68.736 294.35 69.204C293.996 69.672 293.528 70.02 292.946 70.248C292.37 70.476 291.686 70.59 290.894 70.59ZM290.804 66.27C289.898 66.27 289.124 66.045 288.482 65.595C287.84 65.139 287.348 64.524 287.006 63.75C286.664 62.976 286.493 62.103 286.493 61.131C286.493 60.165 286.661 59.295 286.997 58.521C287.339 57.747 287.828 57.135 288.464 56.685C289.1 56.235 289.862 56.01 290.75 56.01C291.662 56.01 292.43 56.232 293.054 56.676C293.678 57.12 294.149 57.729 294.467 58.503C294.791 59.271 294.953 60.147 294.953 61.131C294.953 62.097 294.794 62.97 294.476 63.75C294.158 64.524 293.69 65.139 293.072 65.595C292.454 66.045 291.698 66.27 290.804 66.27ZM290.939 65.037C291.629 65.037 292.199 64.869 292.649 64.533C293.099 64.197 293.435 63.735 293.657 63.147C293.879 62.553 293.99 61.881 293.99 61.131C293.99 60.369 293.879 59.697 293.657 59.115C293.435 58.527 293.099 58.068 292.649 57.738C292.205 57.408 291.644 57.243 290.966 57.243C290.27 57.243 289.694 57.414 289.238 57.756C288.782 58.098 288.443 58.563 288.221 59.151C288.005 59.739 287.897 60.399 287.897 61.131C287.897 61.869 288.008 62.535 288.23 63.129C288.458 63.717 288.797 64.182 289.247 64.524C289.697 64.866 290.261 65.037 290.939 65.037ZM300.467 66.27C299.735 66.27 299.12 66.138 298.622 65.874C298.13 65.61 297.761 65.259 297.515 64.821C297.269 64.383 297.146 63.906 297.146 63.39C297.146 62.862 297.251 62.412 297.461 62.04C297.677 61.662 297.968 61.353 298.334 61.113C298.706 60.873 299.135 60.69 299.621 60.564C300.113 60.444 300.656 60.339 301.25 60.249C301.85 60.153 302.435 60.072 303.005 60.006C303.581 59.934 304.085 59.865 304.517 59.799L304.049 60.087C304.067 59.127 303.881 58.416 303.491 57.954C303.101 57.492 302.423 57.261 301.457 57.261C300.791 57.261 300.227 57.411 299.765 57.711C299.309 58.011 298.988 58.485 298.802 59.133L297.515 58.755C297.737 57.885 298.184 57.21 298.856 56.73C299.528 56.25 300.401 56.01 301.475 56.01C302.363 56.01 303.116 56.178 303.734 56.514C304.358 56.844 304.799 57.324 305.057 57.954C305.177 58.236 305.255 58.551 305.291 58.899C305.327 59.247 305.345 59.601 305.345 59.961V66H304.166V63.561L304.508 63.705C304.178 64.539 303.665 65.175 302.969 65.613C302.273 66.051 301.439 66.27 300.467 66.27ZM300.62 65.127C301.238 65.127 301.778 65.016 302.24 64.794C302.702 64.572 303.074 64.269 303.356 63.885C303.638 63.495 303.821 63.057 303.905 62.571C303.977 62.259 304.016 61.917 304.022 61.545C304.028 61.167 304.031 60.885 304.031 60.699L304.535 60.96C304.085 61.02 303.596 61.08 303.068 61.14C302.546 61.2 302.03 61.269 301.52 61.347C301.016 61.425 300.56 61.518 300.152 61.626C299.876 61.704 299.609 61.815 299.351 61.959C299.093 62.097 298.88 62.283 298.712 62.517C298.55 62.751 298.469 63.042 298.469 63.39C298.469 63.672 298.538 63.945 298.676 64.209C298.82 64.473 299.048 64.692 299.36 64.866C299.678 65.04 300.098 65.127 300.62 65.127ZM319.28 66L319.289 59.619C319.289 58.869 319.079 58.281 318.659 57.855C318.245 57.423 317.717 57.207 317.075 57.207C316.709 57.207 316.352 57.291 316.004 57.459C315.656 57.627 315.368 57.897 315.14 58.269C314.918 58.641 314.807 59.127 314.807 59.727L314.024 59.502C314.006 58.806 314.141 58.197 314.429 57.675C314.723 57.153 315.125 56.748 315.635 56.46C316.151 56.166 316.733 56.019 317.381 56.019C318.359 56.019 319.142 56.322 319.73 56.928C320.318 57.528 320.612 58.341 320.612 59.367L320.603 66H319.28ZM307.679 66V56.28H308.867V58.674H309.011V66H307.679ZM313.493 66L313.502 59.709C313.502 58.935 313.295 58.326 312.881 57.882C312.473 57.432 311.933 57.207 311.261 57.207C310.589 57.207 310.046 57.438 309.632 57.9C309.218 58.356 309.011 58.965 309.011 59.727L308.219 59.295C308.219 58.671 308.366 58.113 308.66 57.621C308.954 57.123 309.356 56.733 309.866 56.451C310.376 56.163 310.955 56.019 311.603 56.019C312.221 56.019 312.77 56.151 313.25 56.415C313.736 56.679 314.117 57.063 314.393 57.567C314.669 58.071 314.807 58.683 314.807 59.403L314.798 66H313.493ZM326.988 66.27C326.04 66.27 325.218 66.06 324.522 65.64C323.832 65.22 323.295 64.629 322.911 63.867C322.527 63.105 322.335 62.211 322.335 61.185C322.335 60.123 322.524 59.205 322.902 58.431C323.28 57.657 323.811 57.06 324.495 56.64C325.185 56.22 325.998 56.01 326.934 56.01C327.894 56.01 328.713 56.232 329.391 56.676C330.069 57.114 330.582 57.744 330.93 58.566C331.278 59.388 331.437 60.369 331.407 61.509H330.057V61.041C330.033 59.781 329.76 58.83 329.238 58.188C328.722 57.546 327.966 57.225 326.97 57.225C325.926 57.225 325.125 57.564 324.567 58.242C324.015 58.92 323.739 59.886 323.739 61.14C323.739 62.364 324.015 63.315 324.567 63.993C325.125 64.665 325.914 65.001 326.934 65.001C327.63 65.001 328.236 64.842 328.752 64.524C329.274 64.2 329.685 63.735 329.985 63.129L331.218 63.606C330.834 64.452 330.267 65.109 329.517 65.577C328.773 66.039 327.93 66.27 326.988 66.27ZM323.271 61.509V60.402H330.696V61.509H323.271ZM333.305 66V64.461H334.844V66H333.305Z" fill="white"/>
</svg>
