<svg width="279" height="36" viewBox="0 0 279 36" fill="none" xmlns="http://www.w3.org/2000/svg">
<path d="M0.674922 27V1.08H4.43692V27H0.674922ZM23.4863 27V17.442C23.4863 16.686 23.4203 15.912 23.2883 15.12C23.1683 14.316 22.9283 13.572 22.5683 12.888C22.2203 12.204 21.7223 11.652 21.0743 11.232C20.4383 10.812 19.6043 10.602 18.5723 10.602C17.9003 10.602 17.2643 10.716 16.6643 10.944C16.0643 11.16 15.5363 11.514 15.0803 12.006C14.6363 12.498 14.2823 13.146 14.0183 13.95C13.7663 14.754 13.6403 15.732 13.6403 16.884L11.3003 16.002C11.3003 14.238 11.6303 12.684 12.2903 11.34C12.9503 9.984 13.8983 8.928 15.1343 8.172C16.3703 7.416 17.8643 7.038 19.6163 7.038C20.9603 7.038 22.0883 7.254 23.0003 7.686C23.9123 8.118 24.6503 8.688 25.2143 9.396C25.7903 10.092 26.2283 10.854 26.5283 11.682C26.8283 12.51 27.0323 13.32 27.1403 14.112C27.2483 14.904 27.3023 15.6 27.3023 16.2V27H23.4863ZM9.82427 27V7.56H13.1903V13.176H13.6403V27H9.82427ZM37.2467 27L30.1907 7.56H33.9887L39.1547 22.284L44.3207 7.56H48.1187L41.0627 27H37.2467ZM51.7218 4.374V0.719999H55.4838V4.374H51.7218ZM51.7218 27V7.56H55.4838V27H51.7218ZM72.0131 27C70.7891 27.24 69.5891 27.342 68.4131 27.306C67.2371 27.27 66.1871 27.042 65.2631 26.622C64.3391 26.202 63.6431 25.542 63.1751 24.642C62.7551 23.838 62.5271 23.022 62.4911 22.194C62.4671 21.354 62.4551 20.406 62.4551 19.35V2.16H66.2351V19.17C66.2351 19.95 66.2411 20.628 66.2531 21.204C66.2771 21.78 66.4031 22.266 66.6311 22.662C67.0631 23.406 67.7471 23.832 68.6831 23.94C69.6311 24.036 70.7411 23.994 72.0131 23.814V27ZM58.7291 10.584V7.56H72.0131V10.584H58.7291ZM83.8197 27.54C81.8877 27.54 80.1897 27.12 78.7257 26.28C77.2737 25.428 76.1397 24.246 75.3237 22.734C74.5197 21.21 74.1177 19.446 74.1177 17.442C74.1177 15.318 74.5137 13.476 75.3057 11.916C76.1097 10.356 77.2257 9.15 78.6537 8.298C80.0817 7.446 81.7437 7.02 83.6397 7.02C85.6197 7.02 87.3057 7.482 88.6977 8.406C90.0897 9.318 91.1277 10.62 91.8117 12.312C92.5077 14.004 92.7837 16.014 92.6397 18.342H88.8777V16.974C88.8537 14.718 88.4217 13.05 87.5817 11.97C86.7537 10.89 85.4877 10.35 83.7837 10.35C81.8997 10.35 80.4837 10.944 79.5357 12.132C78.5877 13.32 78.1137 15.036 78.1137 17.28C78.1137 19.416 78.5877 21.072 79.5357 22.248C80.4837 23.412 81.8517 23.994 83.6397 23.994C84.8157 23.994 85.8297 23.73 86.6817 23.202C87.5457 22.662 88.2177 21.894 88.6977 20.898L92.3877 22.068C91.6317 23.808 90.4857 25.158 88.9497 26.118C87.4137 27.066 85.7037 27.54 83.8197 27.54ZM76.8897 18.342V15.408H90.7677V18.342H76.8897ZM106.513 35.64L110.275 25.398L110.329 28.422L101.851 7.56H105.775L112.111 23.67H110.959L117.007 7.56H120.823L110.095 35.64H106.513ZM131.382 27.54C129.438 27.54 127.752 27.102 126.324 26.226C124.896 25.35 123.792 24.144 123.012 22.608C122.244 21.06 121.86 19.278 121.86 17.262C121.86 15.234 122.256 13.452 123.048 11.916C123.84 10.368 124.95 9.168 126.378 8.316C127.806 7.452 129.474 7.02 131.382 7.02C133.326 7.02 135.012 7.458 136.44 8.334C137.868 9.21 138.972 10.416 139.752 11.952C140.532 13.488 140.922 15.258 140.922 17.262C140.922 19.29 140.526 21.078 139.734 22.626C138.954 24.162 137.85 25.368 136.422 26.244C134.994 27.108 133.314 27.54 131.382 27.54ZM131.382 23.994C133.242 23.994 134.628 23.37 135.54 22.122C136.464 20.862 136.926 19.242 136.926 17.262C136.926 15.234 136.458 13.614 135.522 12.402C134.598 11.178 133.218 10.566 131.382 10.566C130.122 10.566 129.084 10.854 128.268 11.43C127.452 11.994 126.846 12.78 126.45 13.788C126.054 14.784 125.856 15.942 125.856 17.262C125.856 19.302 126.324 20.934 127.26 22.158C128.196 23.382 129.57 23.994 131.382 23.994ZM152.203 27.522C150.859 27.522 149.731 27.306 148.819 26.874C147.907 26.442 147.163 25.878 146.587 25.182C146.023 24.474 145.591 23.706 145.291 22.878C144.991 22.05 144.787 21.24 144.679 20.448C144.571 19.656 144.517 18.96 144.517 18.36V7.56H148.333V17.118C148.333 17.874 148.393 18.654 148.513 19.458C148.645 20.25 148.885 20.988 149.233 21.672C149.593 22.356 150.091 22.908 150.727 23.328C151.375 23.748 152.215 23.958 153.247 23.958C153.919 23.958 154.555 23.85 155.155 23.634C155.755 23.406 156.277 23.046 156.721 22.554C157.177 22.062 157.531 21.414 157.783 20.61C158.047 19.806 158.179 18.828 158.179 17.676L160.519 18.558C160.519 20.322 160.189 21.882 159.529 23.238C158.869 24.582 157.921 25.632 156.685 26.388C155.449 27.144 153.955 27.522 152.203 27.522ZM158.629 27V21.384H158.179V7.56H161.977V27H158.629ZM167.026 27V7.56H170.374V12.276L169.906 11.664C170.146 11.04 170.458 10.47 170.842 9.954C171.226 9.426 171.67 8.994 172.174 8.658C172.666 8.298 173.212 8.022 173.812 7.83C174.424 7.626 175.048 7.506 175.684 7.47C176.32 7.422 176.932 7.452 177.52 7.56V11.088C176.884 10.92 176.176 10.872 175.396 10.944C174.628 11.016 173.92 11.262 173.272 11.682C172.66 12.078 172.174 12.558 171.814 13.122C171.466 13.686 171.214 14.316 171.058 15.012C170.902 15.696 170.824 16.422 170.824 17.19V27H167.026ZM188.155 27V1.08H203.509V4.842H191.917V12.15H201.349V15.93H191.917V27H188.155ZM206.752 27V7.56H210.1V12.276L209.632 11.664C209.872 11.04 210.184 10.47 210.568 9.954C210.952 9.426 211.396 8.994 211.9 8.658C212.392 8.298 212.938 8.022 213.538 7.83C214.15 7.626 214.774 7.506 215.41 7.47C216.046 7.422 216.658 7.452 217.246 7.56V11.088C216.61 10.92 215.902 10.872 215.122 10.944C214.354 11.016 213.646 11.262 212.998 11.682C212.386 12.078 211.9 12.558 211.54 13.122C211.192 13.686 210.94 14.316 210.784 15.012C210.628 15.696 210.55 16.422 210.55 17.19V27H206.752ZM228.945 27.54C227.013 27.54 225.315 27.12 223.851 26.28C222.399 25.428 221.265 24.246 220.449 22.734C219.645 21.21 219.243 19.446 219.243 17.442C219.243 15.318 219.639 13.476 220.431 11.916C221.235 10.356 222.351 9.15 223.779 8.298C225.207 7.446 226.869 7.02 228.765 7.02C230.745 7.02 232.431 7.482 233.823 8.406C235.215 9.318 236.253 10.62 236.937 12.312C237.633 14.004 237.909 16.014 237.765 18.342H234.003V16.974C233.979 14.718 233.547 13.05 232.707 11.97C231.879 10.89 230.613 10.35 228.909 10.35C227.025 10.35 225.609 10.944 224.661 12.132C223.713 13.32 223.239 15.036 223.239 17.28C223.239 19.416 223.713 21.072 224.661 22.248C225.609 23.412 226.977 23.994 228.765 23.994C229.941 23.994 230.955 23.73 231.807 23.202C232.671 22.662 233.343 21.894 233.823 20.898L237.513 22.068C236.757 23.808 235.611 25.158 234.075 26.118C232.539 27.066 230.829 27.54 228.945 27.54ZM222.015 18.342V15.408H235.893V18.342H222.015ZM254.92 27V17.442C254.92 16.686 254.854 15.912 254.722 15.12C254.602 14.316 254.362 13.572 254.002 12.888C253.654 12.204 253.156 11.652 252.508 11.232C251.872 10.812 251.038 10.602 250.006 10.602C249.334 10.602 248.698 10.716 248.098 10.944C247.498 11.16 246.97 11.514 246.514 12.006C246.07 12.498 245.716 13.146 245.452 13.95C245.2 14.754 245.074 15.732 245.074 16.884L242.734 16.002C242.734 14.238 243.064 12.684 243.724 11.34C244.384 9.984 245.332 8.928 246.568 8.172C247.804 7.416 249.298 7.038 251.05 7.038C252.394 7.038 253.522 7.254 254.434 7.686C255.346 8.118 256.084 8.688 256.648 9.396C257.224 10.092 257.662 10.854 257.962 11.682C258.262 12.51 258.466 13.32 258.574 14.112C258.682 14.904 258.736 15.6 258.736 16.2V27H254.92ZM241.258 27V7.56H244.624V13.176H245.074V27H241.258ZM270.858 27.522C268.494 27.522 266.568 27 265.08 25.956C263.592 24.912 262.68 23.442 262.344 21.546L266.196 20.952C266.436 21.96 266.988 22.758 267.852 23.346C268.728 23.922 269.814 24.21 271.11 24.21C272.286 24.21 273.204 23.97 273.864 23.49C274.536 23.01 274.872 22.35 274.872 21.51C274.872 21.018 274.752 20.622 274.512 20.322C274.284 20.01 273.798 19.716 273.054 19.44C272.31 19.164 271.176 18.822 269.652 18.414C267.984 17.982 266.658 17.52 265.674 17.028C264.702 16.524 264.006 15.942 263.586 15.282C263.178 14.61 262.974 13.8 262.974 12.852C262.974 11.676 263.286 10.65 263.91 9.774C264.534 8.898 265.41 8.22 266.538 7.74C267.678 7.26 269.01 7.02 270.534 7.02C272.022 7.02 273.348 7.254 274.512 7.722C275.676 8.19 276.618 8.856 277.338 9.72C278.058 10.572 278.49 11.574 278.634 12.726L274.782 13.428C274.65 12.492 274.212 11.754 273.468 11.214C272.724 10.674 271.758 10.38 270.57 10.332C269.43 10.284 268.506 10.476 267.798 10.908C267.09 11.328 266.736 11.91 266.736 12.654C266.736 13.086 266.868 13.452 267.132 13.752C267.408 14.052 267.936 14.34 268.716 14.616C269.496 14.892 270.648 15.222 272.172 15.606C273.804 16.026 275.1 16.494 276.06 17.01C277.02 17.514 277.704 18.12 278.112 18.828C278.532 19.524 278.742 20.37 278.742 21.366C278.742 23.286 278.04 24.792 276.636 25.884C275.244 26.976 273.318 27.522 270.858 27.522Z" fill="white"/>
</svg>
