<svg width="217" height="28" viewBox="0 0 217 28" fill="none" xmlns="http://www.w3.org/2000/svg">
<path d="M13.1075 27.54C10.5155 27.54 8.30753 26.976 6.48353 25.848C4.65953 24.708 3.26153 23.124 2.28953 21.096C1.32953 19.068 0.849531 16.716 0.849531 14.04C0.849531 11.364 1.32953 9.012 2.28953 6.984C3.26153 4.956 4.65953 3.378 6.48353 2.25C8.30753 1.11 10.5155 0.539999 13.1075 0.539999C15.6875 0.539999 17.8895 1.11 19.7135 2.25C21.5495 3.378 22.9475 4.956 23.9075 6.984C24.8675 9.012 25.3475 11.364 25.3475 14.04C25.3475 16.716 24.8675 19.068 23.9075 21.096C22.9475 23.124 21.5495 24.708 19.7135 25.848C17.8895 26.976 15.6875 27.54 13.1075 27.54ZM13.1075 23.958C14.9435 23.982 16.4675 23.58 17.6795 22.752C18.9035 21.912 19.8215 20.748 20.4335 19.26C21.0455 17.76 21.3515 16.02 21.3515 14.04C21.3515 12.06 21.0455 10.332 20.4335 8.856C19.8215 7.368 18.9035 6.21 17.6795 5.382C16.4675 4.554 14.9435 4.134 13.1075 4.122C11.2715 4.098 9.74153 4.5 8.51753 5.328C7.30553 6.156 6.39353 7.32 5.78153 8.82C5.16953 10.32 4.85753 12.06 4.84553 14.04C4.83353 16.02 5.13353 17.754 5.74553 19.242C6.35753 20.718 7.27553 21.87 8.49953 22.698C9.73553 23.526 11.2715 23.946 13.1075 23.958ZM30.72 27V6.876C30.72 6.384 30.738 5.862 30.774 5.31C30.81 4.746 30.912 4.194 31.08 3.654C31.26 3.102 31.554 2.598 31.962 2.142C32.454 1.602 32.994 1.218 33.582 0.989999C34.17 0.761998 34.752 0.629998 35.328 0.593998C35.916 0.557999 36.456 0.539999 36.948 0.539999H39.396V3.636H37.128C36.24 3.636 35.574 3.858 35.13 4.302C34.698 4.734 34.482 5.352 34.482 6.156V27H30.72ZM27.498 10.584V7.56H39.396V10.584H27.498ZM44.0442 27V6.876C44.0442 6.384 44.0622 5.862 44.0982 5.31C44.1342 4.746 44.2362 4.194 44.4042 3.654C44.5842 3.102 44.8782 2.598 45.2862 2.142C45.7782 1.602 46.3182 1.218 46.9062 0.989999C47.4942 0.761998 48.0762 0.629998 48.6522 0.593998C49.2402 0.557999 49.7802 0.539999 50.2722 0.539999H52.7202V3.636H50.4522C49.5642 3.636 48.8982 3.858 48.4542 4.302C48.0222 4.734 47.8062 5.352 47.8062 6.156V27H44.0442ZM40.8222 10.584V7.56H52.7202V10.584H40.8222ZM56.4738 4.374V0.719999H60.2358V4.374H56.4738ZM56.4738 27V7.56H60.2358V27H56.4738ZM73.9571 27.54C71.9651 27.54 70.2731 27.096 68.8811 26.208C67.4891 25.32 66.4211 24.102 65.6771 22.554C64.9451 21.006 64.5731 19.248 64.5611 17.28C64.5731 15.276 64.9571 13.506 65.7131 11.97C66.4691 10.422 67.5491 9.21 68.9531 8.334C70.3571 7.458 72.0431 7.02 74.0111 7.02C76.1351 7.02 77.9471 7.548 79.4471 8.604C80.9591 9.66 81.9551 11.106 82.4351 12.942L78.6911 14.022C78.3191 12.93 77.7071 12.084 76.8551 11.484C76.0151 10.872 75.0491 10.566 73.9571 10.566C72.7211 10.566 71.7071 10.86 70.9151 11.448C70.1231 12.024 69.5351 12.816 69.1511 13.824C68.7671 14.832 68.5691 15.984 68.5571 17.28C68.5691 19.284 69.0251 20.904 69.9251 22.14C70.8371 23.376 72.1811 23.994 73.9571 23.994C75.1691 23.994 76.1471 23.718 76.8911 23.166C77.6471 22.602 78.2231 21.798 78.6191 20.754L82.4351 21.654C81.7991 23.55 80.7491 25.008 79.2851 26.028C77.8211 27.036 76.0451 27.54 73.9571 27.54ZM85.9347 4.374V0.719999H89.6967V4.374H85.9347ZM85.9347 27V7.56H89.6967V27H85.9347ZM100.592 27.54C99.152 27.54 97.946 27.276 96.974 26.748C96.002 26.208 95.264 25.5 94.76 24.624C94.268 23.736 94.022 22.764 94.022 21.708C94.022 20.724 94.196 19.86 94.544 19.116C94.892 18.372 95.408 17.742 96.092 17.226C96.776 16.698 97.616 16.272 98.612 15.948C99.476 15.696 100.454 15.474 101.546 15.282C102.638 15.09 103.784 14.91 104.984 14.742C106.196 14.574 107.396 14.406 108.584 14.238L107.216 14.994C107.24 13.47 106.916 12.342 106.244 11.61C105.584 10.866 104.444 10.494 102.824 10.494C101.804 10.494 100.868 10.734 100.016 11.214C99.164 11.682 98.57 12.462 98.234 13.554L94.724 12.474C95.204 10.806 96.116 9.48 97.46 8.496C98.816 7.512 100.616 7.02 102.86 7.02C104.6 7.02 106.112 7.32 107.396 7.92C108.692 8.508 109.64 9.444 110.24 10.728C110.552 11.364 110.744 12.036 110.816 12.744C110.888 13.452 110.924 14.214 110.924 15.03V27H107.594V22.554L108.242 23.13C107.438 24.618 106.412 25.728 105.164 26.46C103.928 27.18 102.404 27.54 100.592 27.54ZM101.258 24.462C102.326 24.462 103.244 24.276 104.012 23.904C104.78 23.52 105.398 23.034 105.866 22.446C106.334 21.858 106.64 21.246 106.784 20.61C106.988 20.034 107.102 19.386 107.126 18.666C107.162 17.946 107.18 17.37 107.18 16.938L108.404 17.388C107.216 17.568 106.136 17.73 105.164 17.874C104.192 18.018 103.31 18.162 102.518 18.306C101.738 18.438 101.042 18.6 100.43 18.792C99.914 18.972 99.452 19.188 99.044 19.44C98.648 19.692 98.33 19.998 98.09 20.358C97.862 20.718 97.748 21.156 97.748 21.672C97.748 22.176 97.874 22.644 98.126 23.076C98.378 23.496 98.762 23.832 99.278 24.084C99.794 24.336 100.454 24.462 101.258 24.462ZM115.958 27V0.539999H119.72V27H115.958ZM132.693 27V1.08H136.455V23.454H148.191V27H132.693ZM151.607 4.374V0.719999H155.369V4.374H151.607ZM151.607 27V7.56H155.369V27H151.607ZM174.418 27V17.442C174.418 16.686 174.352 15.912 174.22 15.12C174.1 14.316 173.86 13.572 173.5 12.888C173.152 12.204 172.654 11.652 172.006 11.232C171.37 10.812 170.536 10.602 169.504 10.602C168.832 10.602 168.196 10.716 167.596 10.944C166.996 11.16 166.468 11.514 166.012 12.006C165.568 12.498 165.214 13.146 164.95 13.95C164.698 14.754 164.572 15.732 164.572 16.884L162.232 16.002C162.232 14.238 162.562 12.684 163.222 11.34C163.882 9.984 164.83 8.928 166.066 8.172C167.302 7.416 168.796 7.038 170.548 7.038C171.892 7.038 173.02 7.254 173.932 7.686C174.844 8.118 175.582 8.688 176.146 9.396C176.722 10.092 177.16 10.854 177.46 11.682C177.76 12.51 177.964 13.32 178.072 14.112C178.18 14.904 178.234 15.6 178.234 16.2V27H174.418ZM160.756 27V7.56H164.122V13.176H164.572V27H160.756ZM182.904 27L182.922 1.08H186.738V16.92L194.37 7.56H199.158L191.094 17.28L199.986 27H194.874L186.738 17.64V27H182.904ZM208.884 27.522C206.52 27.522 204.594 27 203.106 25.956C201.618 24.912 200.706 23.442 200.37 21.546L204.222 20.952C204.462 21.96 205.014 22.758 205.878 23.346C206.754 23.922 207.84 24.21 209.136 24.21C210.312 24.21 211.23 23.97 211.89 23.49C212.562 23.01 212.898 22.35 212.898 21.51C212.898 21.018 212.778 20.622 212.538 20.322C212.31 20.01 211.824 19.716 211.08 19.44C210.336 19.164 209.202 18.822 207.678 18.414C206.01 17.982 204.684 17.52 203.7 17.028C202.728 16.524 202.032 15.942 201.612 15.282C201.204 14.61 201 13.8 201 12.852C201 11.676 201.312 10.65 201.936 9.774C202.56 8.898 203.436 8.22 204.564 7.74C205.704 7.26 207.036 7.02 208.56 7.02C210.048 7.02 211.374 7.254 212.538 7.722C213.702 8.19 214.644 8.856 215.364 9.72C216.084 10.572 216.516 11.574 216.66 12.726L212.808 13.428C212.676 12.492 212.238 11.754 211.494 11.214C210.75 10.674 209.784 10.38 208.596 10.332C207.456 10.284 206.532 10.476 205.824 10.908C205.116 11.328 204.762 11.91 204.762 12.654C204.762 13.086 204.894 13.452 205.158 13.752C205.434 14.052 205.962 14.34 206.742 14.616C207.522 14.892 208.674 15.222 210.198 15.606C211.83 16.026 213.126 16.494 214.086 17.01C215.046 17.514 215.73 18.12 216.138 18.828C216.558 19.524 216.768 20.37 216.768 21.366C216.768 23.286 216.066 24.792 214.662 25.884C213.27 26.976 211.344 27.522 208.884 27.522Z" fill="white"/>
</svg>
