<?xml version="1.0" encoding="utf-8"?>
<!-- Generator: Adobe Illustrator 26.0.1, SVG Export Plug-In . SVG Version: 6.00 Build 0)  -->
<svg version="1.1" id="Слой_1" xmlns="http://www.w3.org/2000/svg" xmlns:xlink="http://www.w3.org/1999/xlink" x="0px" y="0px"
	 viewBox="0 0 100 103" style="enable-background:new 0 0 100 103;" xml:space="preserve">
<style type="text/css">
	.st0{fill-rule:evenodd;clip-rule:evenodd;fill:#FFFFFF;}
</style>
<g>
	<path class="st0" d="M63.6,29.4c-7.8,0-14.2,6.3-14.2,14.1s6.4,14.1,14.2,14.1s14.2-6.3,14.2-14.1S71.4,29.4,63.6,29.4z M39.1,43.5
		c0-13.4,11-24.3,24.5-24.3c13.5,0,24.5,10.9,24.5,24.3s-11,24.3-24.5,24.3C50,67.8,39.1,56.9,39.1,43.5z"/>
	<path class="st0" d="M37.8,10.2c-7.8,0-14.2,6.3-14.2,14.1c0,4.9,2.5,9.2,6.3,11.7c2.4,1.6,3,4.7,1.4,7.1c-1.6,2.4-4.8,3-7.2,1.4
		c-6.6-4.3-11-11.8-11-20.3C13.3,10.9,24.2,0,37.8,0C45,0,51.6,3.1,56,8.1c1.9,2.1,1.7,5.3-0.4,7.2c-2.1,1.9-5.4,1.7-7.3-0.4
		C45.7,12,42,10.2,37.8,10.2z"/>
	<path class="st0" d="M63.6,83.8c-15.2,0-22.4,10.7-24.1,15.7c-0.9,2.7-3.8,4.1-6.5,3.2c-2.7-0.9-4.2-3.8-3.3-6.5
		c2.6-7.8,13-22.7,33.9-22.7c21.2,0,30.2,15.2,33.6,22c1.3,2.5,0.2,5.6-2.3,6.9c-2.5,1.3-5.6,0.2-6.9-2.3
		C84.9,94.2,78.5,83.8,63.6,83.8z"/>
	<path class="st0" d="M30.9,56.1c0.7,2.7-0.9,5.5-3.7,6.2C17,65,11.8,73,10.4,77.1c-0.9,2.7-3.8,4.1-6.5,3.2
		c-2.7-0.9-4.2-3.8-3.3-6.5c2.2-6.5,9.6-17.7,24-21.5C27.4,51.7,30.2,53.3,30.9,56.1z"/>
</g>
</svg>
