<svg width="808" height="56" viewBox="0 0 808 56" fill="none" xmlns="http://www.w3.org/2000/svg">
<path d="M16.5561 42.84C13.7001 42.84 11.1241 42.3547 8.82813 41.384C6.55079 40.4133 4.66546 39.032 3.17213 37.24C1.69746 35.4293 0.736125 33.292 0.288125 30.828L5.44013 30.016C6.09346 32.5547 7.44679 34.5427 9.50013 35.98C11.5721 37.3987 14.0081 38.108 16.8081 38.108C18.6188 38.108 20.2521 37.828 21.7081 37.268C23.1828 36.6893 24.3495 35.868 25.2081 34.804C26.0668 33.74 26.4961 32.48 26.4961 31.024C26.4961 30.128 26.3375 29.3627 26.0201 28.728C25.7215 28.0747 25.3015 27.524 24.7601 27.076C24.2375 26.6093 23.6401 26.2173 22.9681 25.9C22.2961 25.5827 21.5961 25.3213 20.8681 25.116L10.5921 22.064C9.47213 21.728 8.38946 21.308 7.34413 20.804C6.29879 20.2813 5.36546 19.6373 4.54413 18.872C3.72279 18.088 3.06946 17.1547 2.58413 16.072C2.09879 14.9707 1.85613 13.6733 1.85613 12.18C1.85613 9.79066 2.47213 7.756 3.70413 6.076C4.95479 4.37733 6.64413 3.08 8.77213 2.184C10.9001 1.288 13.2988 0.849332 15.9681 0.867997C18.6748 0.886665 21.0921 1.372 23.2201 2.324C25.3668 3.25733 27.1401 4.60133 28.5401 6.356C29.9588 8.11067 30.9108 10.2107 31.3961 12.656L26.1041 13.58C25.8241 11.9373 25.1988 10.528 24.2281 9.352C23.2761 8.15733 22.0815 7.24267 20.6441 6.608C19.2068 5.95467 17.6295 5.61867 15.9121 5.6C14.2695 5.58133 12.7855 5.84266 11.4601 6.384C10.1348 6.92533 9.08013 7.68133 8.29613 8.652C7.51213 9.604 7.12013 10.7053 7.12013 11.956C7.12013 13.188 7.47479 14.1867 8.18413 14.952C8.89346 15.6987 9.76146 16.296 10.7881 16.744C11.8335 17.1733 12.8508 17.528 13.8401 17.808L21.5121 20.02C22.3895 20.2627 23.3975 20.5987 24.5361 21.028C25.6935 21.4573 26.8135 22.064 27.8961 22.848C28.9788 23.6133 29.8748 24.64 30.5841 25.928C31.2935 27.1973 31.6481 28.8027 31.6481 30.744C31.6481 32.6853 31.2561 34.412 30.4721 35.924C29.7068 37.436 28.6335 38.7053 27.2521 39.732C25.8708 40.74 24.2655 41.5053 22.4361 42.028C20.6068 42.5693 18.6468 42.84 16.5561 42.84ZM59.0536 42V26.852C59.0536 25.4147 58.9229 24.0333 58.6616 22.708C58.4189 21.3827 57.9802 20.1973 57.3456 19.152C56.7296 18.088 55.8896 17.248 54.8256 16.632C53.7802 16.016 52.4549 15.708 50.8496 15.708C49.5989 15.708 48.4602 15.9227 47.4336 16.352C46.4256 16.7627 45.5576 17.3973 44.8296 18.256C44.1016 19.1147 43.5322 20.1973 43.1216 21.504C42.7296 22.792 42.5336 24.3133 42.5336 26.068L39.2576 25.06C39.2576 22.1293 39.7802 19.6187 40.8256 17.528C41.8896 15.4187 43.3736 13.804 45.2776 12.684C47.2002 11.5453 49.4589 10.976 52.0536 10.976C54.0136 10.976 55.6842 11.284 57.0656 11.9C58.4469 12.516 59.5949 13.3373 60.5096 14.364C61.4242 15.372 62.1429 16.5107 62.6656 17.78C63.1882 19.0307 63.5522 20.3093 63.7576 21.616C63.9816 22.904 64.0936 24.1267 64.0936 25.284V42H59.0536ZM37.4936 42V1.68H41.9736V23.94H42.5336V42H37.4936ZM79.9691 42.84C77.7105 42.84 75.8158 42.4293 74.2851 41.608C72.7731 40.768 71.6251 39.6667 70.8411 38.304C70.0758 36.9413 69.6931 35.448 69.6931 33.824C69.6931 32.2373 69.9918 30.8653 70.5891 29.708C71.2051 28.532 72.0638 27.5613 73.1651 26.796C74.2665 26.012 75.5825 25.396 77.1131 24.948C78.5505 24.556 80.1558 24.22 81.9291 23.94C83.7211 23.6413 85.5318 23.3707 87.3611 23.128C89.1905 22.8853 90.8985 22.652 92.4851 22.428L90.6931 23.464C90.7491 20.776 90.2078 18.788 89.0691 17.5C87.9491 16.212 86.0078 15.568 83.2451 15.568C81.4158 15.568 79.8105 15.988 78.4291 16.828C77.0665 17.6493 76.1051 18.9933 75.5451 20.86L70.8131 19.432C71.5411 16.7813 72.9505 14.7 75.0411 13.188C77.1318 11.676 79.8851 10.92 83.3011 10.92C86.0451 10.92 88.3971 11.4147 90.3571 12.404C92.3358 13.3747 93.7545 14.8493 94.6131 16.828C95.0425 17.7613 95.3131 18.7787 95.4251 19.88C95.5371 20.9627 95.5931 22.1013 95.5931 23.296V42H91.1691V34.748L92.2051 35.42C91.0665 37.8653 89.4705 39.7133 87.4171 40.964C85.3825 42.2147 82.8998 42.84 79.9691 42.84ZM80.7251 38.668C82.5171 38.668 84.0665 38.3507 85.3731 37.716C86.6985 37.0627 87.7625 36.2133 88.5651 35.168C89.3678 34.104 89.8905 32.9467 90.1331 31.696C90.4131 30.7627 90.5625 29.7267 90.5811 28.588C90.6185 27.4307 90.6371 26.544 90.6371 25.928L92.3731 26.684C90.7491 26.908 89.1531 27.1227 87.5851 27.328C86.0171 27.5333 84.5331 27.7573 83.1331 28C81.7331 28.224 80.4731 28.4947 79.3531 28.812C78.5318 29.0733 77.7571 29.4093 77.0291 29.82C76.3198 30.2307 75.7411 30.7627 75.2931 31.416C74.8638 32.0507 74.6491 32.844 74.6491 33.796C74.6491 34.6173 74.8545 35.4013 75.2651 36.148C75.6945 36.8947 76.3478 37.5013 77.2251 37.968C78.1211 38.4347 79.2878 38.668 80.7251 38.668ZM102.873 42V11.76H107.325V19.068L106.597 18.116C106.952 17.1827 107.409 16.324 107.969 15.54C108.548 14.756 109.192 14.112 109.901 13.608C110.685 12.9733 111.572 12.488 112.561 12.152C113.55 11.816 114.558 11.62 115.585 11.564C116.612 11.4893 117.573 11.5547 118.469 11.76V16.436C117.424 16.156 116.276 16.0813 115.025 16.212C113.774 16.3427 112.617 16.8 111.553 17.584C110.582 18.2747 109.826 19.1147 109.285 20.104C108.762 21.0933 108.398 22.1667 108.193 23.324C107.988 24.4627 107.885 25.6293 107.885 26.824V42H102.873ZM136.321 42.84C133.353 42.84 130.758 42.1867 128.537 40.88C126.334 39.5547 124.617 37.716 123.385 35.364C122.153 32.9933 121.537 30.2307 121.537 27.076C121.537 23.772 122.144 20.916 123.357 18.508C124.57 16.0813 126.26 14.2147 128.425 12.908C130.609 11.5827 133.166 10.92 136.097 10.92C139.14 10.92 141.725 11.62 143.853 13.02C146 14.42 147.605 16.4173 148.669 19.012C149.752 21.6067 150.218 24.696 150.069 28.28H145.029V26.488C144.973 22.7733 144.217 20.0013 142.761 18.172C141.305 16.324 139.14 15.4 136.265 15.4C133.185 15.4 130.842 16.3893 129.237 18.368C127.632 20.3467 126.829 23.184 126.829 26.88C126.829 30.4453 127.632 33.208 129.237 35.168C130.842 37.128 133.129 38.108 136.097 38.108C138.094 38.108 139.83 37.6507 141.305 36.736C142.78 35.8213 143.937 34.5053 144.777 32.788L149.565 34.44C148.389 37.1093 146.616 39.1813 144.245 40.656C141.893 42.112 139.252 42.84 136.321 42.84ZM125.149 28.28V24.276H147.493V28.28H125.149ZM178.994 42.784C177.052 42.784 175.382 42.476 173.982 41.86C172.6 41.244 171.452 40.4227 170.538 39.396C169.623 38.3693 168.904 37.2307 168.382 35.98C167.859 34.7293 167.486 33.4507 167.262 32.144C167.056 30.8373 166.954 29.6147 166.954 28.476V11.76H171.994V26.908C171.994 28.3267 172.124 29.6987 172.386 31.024C172.647 32.3493 173.086 33.544 173.702 34.608C174.336 35.672 175.176 36.512 176.222 37.128C177.286 37.744 178.611 38.052 180.198 38.052C181.448 38.052 182.587 37.8373 183.614 37.408C184.64 36.9787 185.518 36.344 186.246 35.504C186.974 34.6453 187.534 33.5627 187.926 32.256C188.318 30.9493 188.514 29.428 188.514 27.692L191.79 28.7C191.79 31.612 191.258 34.1227 190.194 36.232C189.148 38.3413 187.664 39.9653 185.742 41.104C183.838 42.224 181.588 42.784 178.994 42.784ZM189.074 42V33.908H188.514V11.76H193.526V42H189.074ZM222.897 42V26.852C222.897 25.4147 222.767 24.0333 222.505 22.708C222.263 21.3827 221.824 20.1973 221.189 19.152C220.573 18.088 219.733 17.248 218.669 16.632C217.624 16.016 216.299 15.708 214.693 15.708C213.443 15.708 212.304 15.9227 211.277 16.352C210.269 16.7627 209.401 17.3973 208.673 18.256C207.945 19.1147 207.376 20.1973 206.965 21.504C206.573 22.792 206.377 24.3133 206.377 26.068L203.101 25.06C203.101 22.1293 203.624 19.6187 204.669 17.528C205.733 15.4187 207.217 13.804 209.121 12.684C211.044 11.5453 213.303 10.976 215.897 10.976C217.857 10.976 219.528 11.284 220.909 11.9C222.291 12.516 223.439 13.3373 224.353 14.364C225.268 15.372 225.987 16.5107 226.509 17.78C227.032 19.0307 227.396 20.3093 227.601 21.616C227.825 22.904 227.937 24.1267 227.937 25.284V42H222.897ZM201.337 42V11.76H205.817V19.852H206.377V42H201.337ZM235.777 6.412V1.26H240.761V6.412H235.777ZM235.777 42V11.76H240.761V42H235.777ZM261.034 42.84C258.216 42.84 255.798 42.14 253.782 40.74C251.766 39.3213 250.208 37.408 249.106 35C248.024 32.592 247.482 29.876 247.482 26.852C247.482 23.828 248.024 21.112 249.106 18.704C250.208 16.296 251.766 14.4013 253.782 13.02C255.798 11.62 258.206 10.92 261.006 10.92C263.862 10.92 266.261 11.6107 268.202 12.992C270.144 14.3733 271.609 16.268 272.598 18.676C273.606 21.084 274.11 23.8093 274.11 26.852C274.11 29.8573 273.606 32.5733 272.598 35C271.609 37.408 270.144 39.3213 268.202 40.74C266.261 42.14 263.872 42.84 261.034 42.84ZM261.65 38.276C263.685 38.276 265.356 37.7907 266.662 36.82C267.969 35.8307 268.93 34.4773 269.546 32.76C270.181 31.024 270.498 29.0547 270.498 26.852C270.498 24.612 270.181 22.6427 269.546 20.944C268.93 19.2267 267.978 17.892 266.69 16.94C265.402 15.9693 263.769 15.484 261.79 15.484C259.737 15.484 258.038 15.988 256.694 16.996C255.369 18.004 254.38 19.3667 253.726 21.084C253.092 22.8013 252.774 24.724 252.774 26.852C252.774 28.9987 253.101 30.94 253.754 32.676C254.408 34.3933 255.388 35.756 256.694 36.764C258.02 37.772 259.672 38.276 261.65 38.276ZM269.938 55.44V34.02H270.498V11.76H274.95V55.44H269.938ZM294.275 42.784C292.334 42.784 290.663 42.476 289.263 41.86C287.882 41.244 286.734 40.4227 285.819 39.396C284.904 38.3693 284.186 37.2307 283.663 35.98C283.14 34.7293 282.767 33.4507 282.543 32.144C282.338 30.8373 282.235 29.6147 282.235 28.476V11.76H287.275V26.908C287.275 28.3267 287.406 29.6987 287.667 31.024C287.928 32.3493 288.367 33.544 288.983 34.608C289.618 35.672 290.458 36.512 291.503 37.128C292.567 37.744 293.892 38.052 295.479 38.052C296.73 38.052 297.868 37.8373 298.895 37.408C299.922 36.9787 300.799 36.344 301.527 35.504C302.255 34.6453 302.815 33.5627 303.207 32.256C303.599 30.9493 303.795 29.428 303.795 27.692L307.071 28.7C307.071 31.612 306.539 34.1227 305.475 36.232C304.43 38.3413 302.946 39.9653 301.023 41.104C299.119 42.224 296.87 42.784 294.275 42.784ZM304.355 42V33.908H303.795V11.76H308.807V42H304.355ZM329.751 42.84C326.783 42.84 324.188 42.1867 321.967 40.88C319.764 39.5547 318.047 37.716 316.815 35.364C315.583 32.9933 314.967 30.2307 314.967 27.076C314.967 23.772 315.573 20.916 316.787 18.508C318 16.0813 319.689 14.2147 321.855 12.908C324.039 11.5827 326.596 10.92 329.527 10.92C332.569 10.92 335.155 11.62 337.283 13.02C339.429 14.42 341.035 16.4173 342.099 19.012C343.181 21.6067 343.648 24.696 343.499 28.28H338.459V26.488C338.403 22.7733 337.647 20.0013 336.191 18.172C334.735 16.324 332.569 15.4 329.695 15.4C326.615 15.4 324.272 16.3893 322.667 18.368C321.061 20.3467 320.259 23.184 320.259 26.88C320.259 30.4453 321.061 33.208 322.667 35.168C324.272 37.128 326.559 38.108 329.527 38.108C331.524 38.108 333.26 37.6507 334.735 36.736C336.209 35.8213 337.367 34.5053 338.207 32.788L342.995 34.44C341.819 37.1093 340.045 39.1813 337.675 40.656C335.323 42.112 332.681 42.84 329.751 42.84ZM318.579 28.28V24.276H340.923V28.28H318.579ZM358.143 42L371.639 1.68H378.583L392.079 42H386.899L374.271 4.592H375.839L363.323 42H358.143ZM364.639 32.564V27.888H385.583V32.564H364.639ZM397.652 42V1.68H402.636V42H397.652ZM419.448 42L432.944 1.68H439.888L453.384 42H448.204L435.576 4.592H437.144L424.628 42H419.448ZM425.944 32.564V27.888H446.888V32.564H425.944ZM458.397 42V11.76H462.849V19.068L462.121 18.116C462.475 17.1827 462.933 16.324 463.493 15.54C464.071 14.756 464.715 14.112 465.425 13.608C466.209 12.9733 467.095 12.488 468.085 12.152C469.074 11.816 470.082 11.62 471.109 11.564C472.135 11.4893 473.097 11.5547 473.993 11.76V16.436C472.947 16.156 471.799 16.0813 470.549 16.212C469.298 16.3427 468.141 16.8 467.077 17.584C466.106 18.2747 465.35 19.1147 464.809 20.104C464.286 21.0933 463.922 22.1667 463.717 23.324C463.511 24.4627 463.409 25.6293 463.409 26.824V42H458.397ZM496.171 42C494.379 42.3547 492.606 42.4947 490.851 42.42C489.115 42.364 487.566 42.0187 486.203 41.384C484.841 40.7307 483.805 39.7227 483.095 38.36C482.498 37.1653 482.171 35.9613 482.115 34.748C482.078 33.516 482.059 32.1253 482.059 30.576V3.36H487.043V30.352C487.043 31.584 487.053 32.6387 487.071 33.516C487.109 34.3933 487.305 35.1493 487.659 35.784C488.331 36.9787 489.395 37.6787 490.851 37.884C492.326 38.0893 494.099 38.0333 496.171 37.716V42ZM475.927 15.876V11.76H496.171V15.876H475.927ZM513.735 42.812C510.132 42.812 507.173 42.028 504.859 40.46C502.563 38.8733 501.153 36.6613 500.631 33.824L505.727 33.012C506.137 34.6547 507.08 35.9613 508.555 36.932C510.029 37.884 511.859 38.36 514.043 38.36C516.115 38.36 517.739 37.9307 518.915 37.072C520.091 36.2133 520.679 35.0467 520.679 33.572C520.679 32.7133 520.483 32.0227 520.091 31.5C519.699 30.9587 518.887 30.4547 517.655 29.988C516.441 29.5213 514.603 28.9613 512.139 28.308C509.469 27.5987 507.369 26.8613 505.839 26.096C504.308 25.3307 503.216 24.444 502.563 23.436C501.909 22.428 501.583 21.2053 501.583 19.768C501.583 17.9947 502.068 16.4453 503.039 15.12C504.009 13.776 505.363 12.74 507.099 12.012C508.853 11.284 510.888 10.92 513.203 10.92C515.499 10.92 517.552 11.284 519.363 12.012C521.173 12.74 522.629 13.776 523.731 15.12C524.851 16.4453 525.513 17.9947 525.719 19.768L520.623 20.692C520.38 19.068 519.596 17.7893 518.271 16.856C516.964 15.9227 515.275 15.428 513.203 15.372C511.243 15.2973 509.647 15.6427 508.415 16.408C507.201 17.1733 506.595 18.2093 506.595 19.516C506.595 20.244 506.819 20.8693 507.267 21.392C507.733 21.9147 508.583 22.4093 509.815 22.876C511.065 23.3427 512.876 23.8747 515.247 24.472C517.916 25.144 520.016 25.8813 521.547 26.684C523.096 27.468 524.197 28.4013 524.851 29.484C525.504 30.548 525.831 31.864 525.831 33.432C525.831 36.344 524.757 38.64 522.611 40.32C520.464 41.9813 517.505 42.812 513.735 42.812ZM549.657 42L540.417 11.732L545.373 11.76L552.121 33.88L558.925 11.76H563.321L570.097 33.88L576.873 11.76H581.801L572.561 42H568.417L561.109 19.012L553.801 42H549.657ZM587.418 6.412V1.26H592.402V6.412H587.418ZM587.418 42V11.76H592.402V42H587.418ZM617.687 42C615.895 42.3547 614.121 42.4947 612.367 42.42C610.631 42.364 609.081 42.0187 607.719 41.384C606.356 40.7307 605.32 39.7227 604.611 38.36C604.013 37.1653 603.687 35.9613 603.631 34.748C603.593 33.516 603.575 32.1253 603.575 30.576V3.36H608.559V30.352C608.559 31.584 608.568 32.6387 608.587 33.516C608.624 34.3933 608.82 35.1493 609.175 35.784C609.847 36.9787 610.911 37.6787 612.367 37.884C613.841 38.0893 615.615 38.0333 617.687 37.716V42ZM597.443 15.876V11.76H617.687V15.876H597.443ZM645.358 42V26.852C645.358 25.4147 645.228 24.0333 644.966 22.708C644.724 21.3827 644.285 20.1973 643.65 19.152C643.034 18.088 642.194 17.248 641.13 16.632C640.085 16.016 638.76 15.708 637.154 15.708C635.904 15.708 634.765 15.9227 633.738 16.352C632.73 16.7627 631.862 17.3973 631.134 18.256C630.406 19.1147 629.837 20.1973 629.426 21.504C629.034 22.792 628.838 24.3133 628.838 26.068L625.562 25.06C625.562 22.1293 626.085 19.6187 627.13 17.528C628.194 15.4187 629.678 13.804 631.582 12.684C633.505 11.5453 635.764 10.976 638.358 10.976C640.318 10.976 641.989 11.284 643.37 11.9C644.752 12.516 645.9 13.3373 646.814 14.364C647.729 15.372 648.448 16.5107 648.97 17.78C649.493 19.0307 649.857 20.3093 650.062 21.616C650.286 22.904 650.398 24.1267 650.398 25.284V42H645.358ZM623.798 42V1.68H628.278V23.94H628.838V42H623.798ZM668.889 42V1.68H692.409V6.664H673.873V19.348H689.049V24.332H673.873V42H668.889ZM697.436 42V11.76H701.888V19.068L701.16 18.116C701.514 17.1827 701.972 16.324 702.532 15.54C703.11 14.756 703.754 14.112 704.464 13.608C705.248 12.9733 706.134 12.488 707.124 12.152C708.113 11.816 709.121 11.62 710.148 11.564C711.174 11.4893 712.136 11.5547 713.032 11.76V16.436C711.986 16.156 710.838 16.0813 709.588 16.212C708.337 16.3427 707.18 16.8 706.116 17.584C705.145 18.2747 704.389 19.1147 703.848 20.104C703.325 21.0933 702.961 22.1667 702.756 23.324C702.55 24.4627 702.448 25.6293 702.448 26.824V42H697.436ZM730.883 42.84C727.915 42.84 725.321 42.1867 723.099 40.88C720.897 39.5547 719.179 37.716 717.947 35.364C716.715 32.9933 716.099 30.2307 716.099 27.076C716.099 23.772 716.706 20.916 717.919 18.508C719.133 16.0813 720.822 14.2147 722.987 12.908C725.171 11.5827 727.729 10.92 730.659 10.92C733.702 10.92 736.287 11.62 738.415 13.02C740.562 14.42 742.167 16.4173 743.231 19.012C744.314 21.6067 744.781 24.696 744.631 28.28H739.591V26.488C739.535 22.7733 738.779 20.0013 737.323 18.172C735.867 16.324 733.702 15.4 730.827 15.4C727.747 15.4 725.405 16.3893 723.799 18.368C722.194 20.3467 721.391 23.184 721.391 26.88C721.391 30.4453 722.194 33.208 723.799 35.168C725.405 37.128 727.691 38.108 730.659 38.108C732.657 38.108 734.393 37.6507 735.867 36.736C737.342 35.8213 738.499 34.5053 739.339 32.788L744.127 34.44C742.951 37.1093 741.178 39.1813 738.807 40.656C736.455 42.112 733.814 42.84 730.883 42.84ZM719.711 28.28V24.276H742.055V28.28H719.711ZM771.577 42V26.852C771.577 25.4147 771.446 24.0333 771.185 22.708C770.942 21.3827 770.504 20.1973 769.869 19.152C769.253 18.088 768.413 17.248 767.349 16.632C766.304 16.016 764.978 15.708 763.373 15.708C762.122 15.708 760.984 15.9227 759.957 16.352C758.949 16.7627 758.081 17.3973 757.353 18.256C756.625 19.1147 756.056 20.1973 755.645 21.504C755.253 22.792 755.057 24.3133 755.057 26.068L751.781 25.06C751.781 22.1293 752.304 19.6187 753.349 17.528C754.413 15.4187 755.897 13.804 757.801 12.684C759.724 11.5453 761.982 10.976 764.577 10.976C766.537 10.976 768.208 11.284 769.589 11.9C770.97 12.516 772.118 13.3373 773.033 14.364C773.948 15.372 774.666 16.5107 775.189 17.78C775.712 19.0307 776.076 20.3093 776.281 21.616C776.505 22.904 776.617 24.1267 776.617 25.284V42H771.577ZM750.017 42V11.76H754.497V19.852H755.057V42H750.017ZM795.321 42.812C791.718 42.812 788.759 42.028 786.445 40.46C784.149 38.8733 782.739 36.6613 782.217 33.824L787.313 33.012C787.723 34.6547 788.666 35.9613 790.141 36.932C791.615 37.884 793.445 38.36 795.629 38.36C797.701 38.36 799.325 37.9307 800.501 37.072C801.677 36.2133 802.265 35.0467 802.265 33.572C802.265 32.7133 802.069 32.0227 801.677 31.5C801.285 30.9587 800.473 30.4547 799.241 29.988C798.027 29.5213 796.189 28.9613 793.725 28.308C791.055 27.5987 788.955 26.8613 787.425 26.096C785.894 25.3307 784.802 24.444 784.149 23.436C783.495 22.428 783.169 21.2053 783.169 19.768C783.169 17.9947 783.654 16.4453 784.625 15.12C785.595 13.776 786.949 12.74 788.685 12.012C790.439 11.284 792.474 10.92 794.789 10.92C797.085 10.92 799.138 11.284 800.949 12.012C802.759 12.74 804.215 13.776 805.317 15.12C806.437 16.4453 807.099 17.9947 807.305 19.768L802.209 20.692C801.966 19.068 801.182 17.7893 799.857 16.856C798.55 15.9227 796.861 15.428 794.789 15.372C792.829 15.2973 791.233 15.6427 790.001 16.408C788.787 17.1733 788.181 18.2093 788.181 19.516C788.181 20.244 788.405 20.8693 788.853 21.392C789.319 21.9147 790.169 22.4093 791.401 22.876C792.651 23.3427 794.462 23.8747 796.833 24.472C799.502 25.144 801.602 25.8813 803.133 26.684C804.682 27.468 805.783 28.4013 806.437 29.484C807.09 30.548 807.417 31.864 807.417 33.432C807.417 36.344 806.343 38.64 804.197 40.32C802.05 41.9813 799.091 42.812 795.321 42.812Z" fill="white"/>
</svg>
