<svg width="237" height="59" viewBox="0 0 237 59" fill="none" xmlns="http://www.w3.org/2000/svg">
<g filter="url(#filter0_d_832_2882)">
<path d="M26.0525 44.6C23.9858 44.6 22.1192 44.2467 20.4525 43.54C18.7992 42.82 17.4325 41.8 16.3525 40.48C15.2858 39.1467 14.5925 37.5667 14.2725 35.74L18.6325 35.08C19.0725 36.84 19.9925 38.2133 21.3925 39.2C22.7925 40.1733 24.4258 40.66 26.2925 40.66C27.4525 40.66 28.5192 40.48 29.4925 40.12C30.4658 39.7467 31.2458 39.22 31.8325 38.54C32.4325 37.8467 32.7325 37.02 32.7325 36.06C32.7325 35.54 32.6392 35.08 32.4525 34.68C32.2792 34.28 32.0325 33.9333 31.7125 33.64C31.4058 33.3333 31.0258 33.0733 30.5725 32.86C30.1325 32.6333 29.6458 32.44 29.1125 32.28L21.7325 30.1C21.0125 29.8867 20.2792 29.6133 19.5325 29.28C18.7858 28.9333 18.0992 28.4867 17.4725 27.94C16.8592 27.38 16.3592 26.6933 15.9725 25.88C15.5858 25.0533 15.3925 24.0533 15.3925 22.88C15.3925 21.1067 15.8458 19.6067 16.7525 18.38C17.6725 17.14 18.9125 16.2067 20.4725 15.58C22.0325 14.94 23.7792 14.62 25.7125 14.62C27.6592 14.6467 29.3992 14.9933 30.9325 15.66C32.4792 16.3267 33.7592 17.2867 34.7725 18.54C35.7992 19.78 36.5058 21.2867 36.8925 23.06L32.4125 23.82C32.2125 22.74 31.7858 21.8133 31.1325 21.04C30.4792 20.2533 29.6792 19.6533 28.7325 19.24C27.7858 18.8133 26.7592 18.5933 25.6525 18.58C24.5858 18.5533 23.6058 18.7133 22.7125 19.06C21.8325 19.4067 21.1258 19.8933 20.5925 20.52C20.0725 21.1467 19.8125 21.8667 19.8125 22.68C19.8125 23.48 20.0458 24.1267 20.5125 24.62C20.9792 25.1133 21.5525 25.5067 22.2325 25.8C22.9258 26.08 23.6125 26.3133 24.2925 26.5L29.6125 28C30.2792 28.1867 31.0325 28.44 31.8725 28.76C32.7258 29.0667 33.5458 29.5 34.3325 30.06C35.1325 30.62 35.7925 31.3667 36.3125 32.3C36.8325 33.22 37.0925 34.38 37.0925 35.78C37.0925 37.2333 36.7992 38.5133 36.2125 39.62C35.6258 40.7133 34.8192 41.6333 33.7925 42.38C32.7792 43.1133 31.6058 43.6667 30.2725 44.04C28.9392 44.4133 27.5325 44.6 26.0525 44.6ZM41.7547 18.86V14.8H45.9347V18.86H41.7547ZM41.7547 44V22.4H45.9347V44H41.7547ZM52.3406 44V14.6H56.5206V44H52.3406ZM68.3666 44L60.5266 22.4H64.7466L70.4866 38.76L76.2266 22.4H80.4466L72.6066 44H68.3666ZM92.8488 44.6C90.7021 44.6 88.8154 44.1333 87.1888 43.2C85.5754 42.2533 84.3154 40.94 83.4087 39.26C82.5154 37.5667 82.0688 35.6067 82.0688 33.38C82.0688 31.02 82.5088 28.9733 83.3888 27.24C84.2821 25.5067 85.5221 24.1667 87.1088 23.22C88.6954 22.2733 90.5421 21.8 92.6488 21.8C94.8488 21.8 96.7221 22.3133 98.2688 23.34C99.8154 24.3533 100.969 25.8 101.729 27.68C102.502 29.56 102.809 31.7933 102.649 34.38H98.4688V32.86C98.4421 30.3533 97.9621 28.5 97.0288 27.3C96.1088 26.1 94.7021 25.5 92.8088 25.5C90.7154 25.5 89.1421 26.16 88.0888 27.48C87.0354 28.8 86.5088 30.7067 86.5088 33.2C86.5088 35.5733 87.0354 37.4133 88.0888 38.72C89.1421 40.0133 90.6621 40.66 92.6488 40.66C93.9554 40.66 95.0821 40.3667 96.0288 39.78C96.9888 39.18 97.7354 38.3267 98.2688 37.22L102.369 38.52C101.529 40.4533 100.255 41.9533 98.5488 43.02C96.8421 44.0733 94.9421 44.6 92.8488 44.6ZM85.1488 34.38V31.12H100.569V34.38H85.1488ZM107.136 44V22.4H110.856V27.64L110.336 26.96C110.603 26.2667 110.949 25.6333 111.376 25.06C111.803 24.4733 112.296 23.9933 112.856 23.62C113.403 23.22 114.009 22.9133 114.676 22.7C115.356 22.4733 116.049 22.34 116.756 22.3C117.463 22.2467 118.143 22.28 118.796 22.4V26.32C118.089 26.1333 117.303 26.08 116.436 26.16C115.583 26.24 114.796 26.5133 114.076 26.98C113.396 27.42 112.856 27.9533 112.456 28.58C112.069 29.2067 111.789 29.9067 111.616 30.68C111.443 31.44 111.356 32.2467 111.356 33.1V44H107.136ZM130.613 44V15.2H142.253C142.533 15.2 142.879 15.2133 143.293 15.24C143.706 15.2533 144.099 15.2933 144.473 15.36C146.073 15.6133 147.406 16.16 148.472 17C149.553 17.84 150.359 18.9 150.893 20.18C151.426 21.46 151.693 22.8733 151.693 24.42C151.693 26.7133 151.106 28.6933 149.933 30.36C148.759 32.0133 146.999 33.0467 144.653 33.46L142.953 33.66H134.793V44H130.613ZM147.453 44L141.773 32.28L145.993 31.2L152.233 44H147.453ZM134.793 29.7H142.093C142.359 29.7 142.653 29.6867 142.973 29.66C143.306 29.6333 143.619 29.5867 143.913 29.52C144.766 29.32 145.453 28.9533 145.973 28.42C146.493 27.8733 146.866 27.2467 147.093 26.54C147.319 25.8333 147.433 25.1267 147.433 24.42C147.433 23.7133 147.319 23.0133 147.093 22.32C146.866 21.6133 146.493 20.9933 145.973 20.46C145.453 19.9133 144.766 19.54 143.913 19.34C143.619 19.26 143.306 19.2067 142.973 19.18C142.653 19.1533 142.359 19.14 142.093 19.14H134.793V29.7ZM162.728 44.6C161.128 44.6 159.788 44.3067 158.708 43.72C157.628 43.12 156.808 42.3333 156.248 41.36C155.701 40.3733 155.428 39.2933 155.428 38.12C155.428 37.0267 155.621 36.0667 156.008 35.24C156.395 34.4133 156.968 33.7133 157.728 33.14C158.488 32.5533 159.421 32.08 160.528 31.72C161.488 31.44 162.575 31.1933 163.788 30.98C165.001 30.7667 166.275 30.5667 167.608 30.38C168.955 30.1933 170.288 30.0067 171.608 29.82L170.088 30.66C170.115 28.9667 169.755 27.7133 169.008 26.9C168.275 26.0733 167.008 25.66 165.208 25.66C164.075 25.66 163.035 25.9267 162.088 26.46C161.141 26.98 160.481 27.8467 160.108 29.06L156.208 27.86C156.741 26.0067 157.755 24.5333 159.248 23.44C160.755 22.3467 162.755 21.8 165.248 21.8C167.181 21.8 168.861 22.1333 170.288 22.8C171.728 23.4533 172.781 24.4933 173.448 25.92C173.795 26.6267 174.008 27.3733 174.088 28.16C174.168 28.9467 174.208 29.7933 174.208 30.7V44H170.508V39.06L171.228 39.7C170.335 41.3533 169.195 42.5867 167.808 43.4C166.435 44.2 164.741 44.6 162.728 44.6ZM163.468 41.18C164.655 41.18 165.675 40.9733 166.528 40.56C167.381 40.1333 168.068 39.5933 168.588 38.94C169.108 38.2867 169.448 37.6067 169.608 36.9C169.835 36.26 169.961 35.54 169.988 34.74C170.028 33.94 170.048 33.3 170.048 32.82L171.408 33.32C170.088 33.52 168.888 33.7 167.808 33.86C166.728 34.02 165.748 34.18 164.868 34.34C164.001 34.4867 163.228 34.6667 162.548 34.88C161.975 35.08 161.461 35.32 161.008 35.6C160.568 35.88 160.215 36.22 159.948 36.62C159.695 37.02 159.568 37.5067 159.568 38.08C159.568 38.64 159.708 39.16 159.988 39.64C160.268 40.1067 160.695 40.48 161.268 40.76C161.841 41.04 162.575 41.18 163.468 41.18ZM194.562 44V33.38C194.562 32.54 194.488 31.68 194.342 30.8C194.208 29.9067 193.942 29.08 193.542 28.32C193.155 27.56 192.602 26.9467 191.882 26.48C191.175 26.0133 190.248 25.78 189.102 25.78C188.355 25.78 187.648 25.9067 186.982 26.16C186.315 26.4 185.728 26.7933 185.222 27.34C184.728 27.8867 184.335 28.6067 184.042 29.5C183.762 30.3933 183.622 31.48 183.622 32.76L181.022 31.78C181.022 29.82 181.388 28.0933 182.122 26.6C182.855 25.0933 183.908 23.92 185.282 23.08C186.655 22.24 188.315 21.82 190.262 21.82C191.755 21.82 193.008 22.06 194.022 22.54C195.035 23.02 195.855 23.6533 196.482 24.44C197.122 25.2133 197.608 26.06 197.942 26.98C198.275 27.9 198.502 28.8 198.622 29.68C198.742 30.56 198.802 31.3333 198.802 32V44H194.562ZM179.382 44V22.4H183.122V28.64H183.622V44H179.382ZM203.991 44L204.011 15.2H208.251V32.8L216.731 22.4H222.051L213.091 33.2L222.971 44H217.291L208.251 33.6V44H203.991Z" fill="white"/>
</g>
<defs>
<filter id="filter0_d_832_2882" x="0.273438" y="0.599609" width="236.699" height="58" filterUnits="userSpaceOnUse" color-interpolation-filters="sRGB">
<feFlood flood-opacity="0" result="BackgroundImageFix"/>
<feColorMatrix in="SourceAlpha" type="matrix" values="0 0 0 0 0 0 0 0 0 0 0 0 0 0 0 0 0 0 127 0" result="hardAlpha"/>
<feOffset/>
<feGaussianBlur stdDeviation="7"/>
<feComposite in2="hardAlpha" operator="out"/>
<feColorMatrix type="matrix" values="0 0 0 0 1 0 0 0 0 1 0 0 0 0 1 0 0 0 0.45 0"/>
<feBlend mode="normal" in2="BackgroundImageFix" result="effect1_dropShadow_832_2882"/>
<feBlend mode="normal" in="SourceGraphic" in2="effect1_dropShadow_832_2882" result="shape"/>
</filter>
</defs>
</svg>
