<svg width="43" height="55" viewBox="0 0 43 55" fill="none" xmlns="http://www.w3.org/2000/svg">
<path fill-rule="evenodd" clip-rule="evenodd" d="M37.3807 0.205687C38.1757 -0.391776 39.2607 0.411403 38.9215 1.34623L30.2634 25.2042H42.0026C42.9632 25.2042 43.3713 26.4265 42.6034 27.0036L5.62391 54.7944C4.82891 55.3919 3.74387 54.5887 4.08312 53.6539L12.7412 29.7959H1.00194C0.0414195 29.7959 -0.366692 28.5736 0.401164 27.9965L37.3807 0.205687ZM24.5397 28.4693C24.3152 29.1188 24.7976 29.7959 25.4848 29.7959L31.3329 29.7959L12.2948 44.1035L14.3251 38.5088L18.4649 26.5308C18.6894 25.8813 18.2069 25.2042 17.5197 25.2042H11.6717L30.7098 10.8967L28.6795 16.4914L24.5397 28.4693Z" fill="white"/>
</svg>
