<svg width="92" height="103" viewBox="0 0 92 103" fill="none" xmlns="http://www.w3.org/2000/svg">
<g filter="url(#filter0_d_832_2172)">
<path fill-rule="evenodd" clip-rule="evenodd" d="M62.2869 23.2037C63.0819 22.6063 64.167 23.4094 63.8277 24.3443L55.1696 48.2022H66.9089C67.8694 48.2022 68.2775 49.4246 67.5097 50.0016L30.5302 77.7925C29.7352 78.3899 28.6501 77.5868 28.9894 76.6519L37.6474 52.794H25.9082C24.9477 52.794 24.5396 51.5716 25.3074 50.9946L62.2869 23.2037ZM49.4459 51.4673C49.2215 52.1168 49.7039 52.794 50.3911 52.794L56.2391 52.794L37.201 67.1015L39.2313 61.5068L43.3711 49.5289C43.5956 48.8794 43.1132 48.2022 42.426 48.2022H36.578L55.6161 33.8947L53.5857 39.4894L49.4459 51.4673Z" fill="white"/>
</g>
<defs>
<filter id="filter0_d_832_2172" x="0.90625" y="-0.00195312" width="91.0039" height="103" filterUnits="userSpaceOnUse" color-interpolation-filters="sRGB">
<feFlood flood-opacity="0" result="BackgroundImageFix"/>
<feColorMatrix in="SourceAlpha" type="matrix" values="0 0 0 0 0 0 0 0 0 0 0 0 0 0 0 0 0 0 127 0" result="hardAlpha"/>
<feOffset dy="1"/>
<feGaussianBlur stdDeviation="12"/>
<feComposite in2="hardAlpha" operator="out"/>
<feColorMatrix type="matrix" values="0 0 0 0 1 0 0 0 0 1 0 0 0 0 1 0 0 0 0.45 0"/>
<feBlend mode="normal" in2="BackgroundImageFix" result="effect1_dropShadow_832_2172"/>
<feBlend mode="normal" in="SourceGraphic" in2="effect1_dropShadow_832_2172" result="shape"/>
</filter>
</defs>
</svg>
