<?xml version="1.0" encoding="utf-8"?>
<!-- Generator: Adobe Illustrator 26.0.1, SVG Export Plug-In . SVG Version: 6.00 Build 0)  -->
<svg version="1.1" id="Слой_1" xmlns="http://www.w3.org/2000/svg" xmlns:xlink="http://www.w3.org/1999/xlink" x="0px" y="0px"
	 viewBox="0 0 100 103" style="enable-background:new 0 0 100 103;" xml:space="preserve">
<style type="text/css">
	.st0{fill-rule:evenodd;clip-rule:evenodd;fill:#FFFFFF;}
</style>
<path class="st0" d="M74.3,1c1.5-1.1,3.5,0.4,2.9,2.1L61,47.7h22c1.8,0,2.6,2.3,1.1,3.4l-69.2,52c-1.5,1.1-3.5-0.4-2.9-2.1
	l16.2-44.6h-22c-1.8,0-2.6-2.3-1.1-3.4L74.3,1z M50.3,53.8c-0.4,1.2,0.5,2.5,1.8,2.5H63L27.4,83.1l3.8-10.5l7.7-22.4
	c0.4-1.2-0.5-2.5-1.8-2.5H26.2L61.8,21L58,31.4L50.3,53.8z"/>
</svg>
