<svg width="133" height="15" viewBox="0 0 133 15" fill="none" xmlns="http://www.w3.org/2000/svg">
<path d="M4.69138 14V3.074H0.497383V1.04H11.0544V3.074H6.86038V14H4.69138ZM15.2419 14.279C14.5219 14.279 13.9279 14.159 13.4599 13.919C12.9919 13.679 12.6199 13.373 12.3439 13.001C12.0679 12.629 11.8639 12.233 11.7319 11.813C11.5999 11.393 11.5129 10.997 11.4709 10.625C11.4349 10.247 11.4169 9.941 11.4169 9.707V4.28H13.6129V8.96C13.6129 9.26 13.6339 9.599 13.6759 9.977C13.7179 10.349 13.8139 10.709 13.9639 11.057C14.1199 11.399 14.3479 11.681 14.6479 11.903C14.9539 12.125 15.3649 12.236 15.8809 12.236C16.1569 12.236 16.4299 12.191 16.6999 12.101C16.9699 12.011 17.2129 11.858 17.4289 11.642C17.6509 11.42 17.8279 11.117 17.9599 10.733C18.0919 10.349 18.1579 9.863 18.1579 9.275L19.4449 9.824C19.4449 10.652 19.2829 11.402 18.9589 12.074C18.6409 12.746 18.1699 13.283 17.5459 13.685C16.9219 14.081 16.1539 14.279 15.2419 14.279ZM18.4189 14V10.985H18.1579V4.28H20.3359V14H18.4189ZM22.8645 14V4.28H24.7815V6.647L24.5475 6.341C24.6675 6.017 24.8265 5.723 25.0245 5.459C25.2285 5.189 25.4715 4.967 25.7535 4.793C25.9935 4.631 26.2575 4.505 26.5455 4.415C26.8395 4.319 27.1395 4.262 27.4455 4.244C27.7515 4.22 28.0485 4.232 28.3365 4.28V6.305C28.0485 6.221 27.7155 6.194 27.3375 6.224C26.9655 6.254 26.6295 6.359 26.3295 6.539C26.0295 6.701 25.7835 6.908 25.5915 7.16C25.4055 7.412 25.2675 7.7 25.1775 8.024C25.0875 8.342 25.0425 8.687 25.0425 9.059V14H22.8645ZM34.7249 14.27C33.7769 14.27 32.9819 14.045 32.3399 13.595C31.6979 13.145 31.2149 12.533 30.8909 11.759C30.5669 10.979 30.4049 10.106 30.4049 9.14C30.4049 8.162 30.5669 7.286 30.8909 6.512C31.2149 5.738 31.6889 5.129 32.3129 4.685C32.9429 4.235 33.7199 4.01 34.6439 4.01C35.5619 4.01 36.3569 4.235 37.0289 4.685C37.7069 5.129 38.2319 5.738 38.6039 6.512C38.9759 7.28 39.1619 8.156 39.1619 9.14C39.1619 10.112 38.9789 10.985 38.6129 11.759C38.2469 12.533 37.7309 13.145 37.0649 13.595C36.3989 14.045 35.6189 14.27 34.7249 14.27ZM30.0359 14V1.04H32.2229V7.178H31.9529V14H30.0359ZM34.3919 12.326C34.9559 12.326 35.4209 12.185 35.7869 11.903C36.1529 11.621 36.4229 11.24 36.5969 10.76C36.7769 10.274 36.8669 9.734 36.8669 9.14C36.8669 8.552 36.7769 8.018 36.5969 7.538C36.4169 7.052 36.1379 6.668 35.7599 6.386C35.3819 6.098 34.9019 5.954 34.3199 5.954C33.7679 5.954 33.3179 6.089 32.9699 6.359C32.6219 6.623 32.3639 6.995 32.1959 7.475C32.0339 7.949 31.9529 8.504 31.9529 9.14C31.9529 9.77 32.0339 10.325 32.1959 10.805C32.3639 11.285 32.6249 11.66 32.9789 11.93C33.3389 12.194 33.8099 12.326 34.3919 12.326ZM45.4387 14.27C44.4667 14.27 43.6177 14.051 42.8917 13.613C42.1657 13.175 41.6017 12.572 41.1997 11.804C40.8037 11.03 40.6057 10.142 40.6057 9.14C40.6057 8.12 40.8097 7.226 41.2177 6.458C41.6257 5.69 42.1927 5.09 42.9187 4.658C43.6447 4.226 44.4847 4.01 45.4387 4.01C46.4167 4.01 47.2687 4.229 47.9947 4.667C48.7207 5.105 49.2847 5.711 49.6867 6.485C50.0887 7.253 50.2897 8.138 50.2897 9.14C50.2897 10.148 50.0857 11.039 49.6777 11.813C49.2757 12.581 48.7117 13.184 47.9857 13.622C47.2597 14.054 46.4107 14.27 45.4387 14.27ZM45.4387 12.236C46.3027 12.236 46.9447 11.948 47.3647 11.372C47.7847 10.796 47.9947 10.052 47.9947 9.14C47.9947 8.198 47.7817 7.448 47.3557 6.89C46.9297 6.326 46.2907 6.044 45.4387 6.044C44.8567 6.044 44.3767 6.176 43.9987 6.44C43.6267 6.698 43.3507 7.061 43.1707 7.529C42.9907 7.991 42.9007 8.528 42.9007 9.14C42.9007 10.082 43.1137 10.835 43.5397 11.399C43.9717 11.957 44.6047 12.236 45.4387 12.236ZM54.3144 14V3.074H50.1204V1.04H60.6774V3.074H56.4834V14H54.3144ZM67.5974 14.27C66.3014 14.27 65.1914 13.988 64.2674 13.424C63.3434 12.854 62.6324 12.062 62.1344 11.048C61.6424 10.034 61.3964 8.858 61.3964 7.52C61.3964 6.182 61.6424 5.006 62.1344 3.992C62.6324 2.978 63.3434 2.189 64.2674 1.625C65.1914 1.055 66.3014 0.77 67.5974 0.77C68.8934 0.77 70.0034 1.055 70.9274 1.625C71.8574 2.189 72.5684 2.978 73.0604 3.992C73.5584 5.006 73.8074 6.182 73.8074 7.52C73.8074 8.858 73.5584 10.034 73.0604 11.048C72.5684 12.062 71.8574 12.854 70.9274 13.424C70.0034 13.988 68.8934 14.27 67.5974 14.27ZM67.5974 12.227C68.4674 12.233 69.1904 12.041 69.7664 11.651C70.3484 11.261 70.7834 10.712 71.0714 10.004C71.3654 9.296 71.5124 8.468 71.5124 7.52C71.5124 6.572 71.3654 5.75 71.0714 5.054C70.7834 4.352 70.3484 3.806 69.7664 3.416C69.1904 3.026 68.4674 2.825 67.5974 2.813C66.7274 2.807 66.0044 2.999 65.4284 3.389C64.8524 3.779 64.4174 4.328 64.1234 5.036C63.8354 5.744 63.6914 6.572 63.6914 7.52C63.6914 8.468 63.8354 9.293 64.1234 9.995C64.4114 10.691 64.8434 11.234 65.4194 11.624C66.0014 12.014 66.7274 12.215 67.5974 12.227ZM75.5989 14V1.04H77.7949L83.8069 10.175V1.04H86.0029V14H83.8069L77.7949 4.865V14H75.5989ZM92.1223 14V1.04H99.9253V3.209H94.2913V6.44H98.8453V8.6H94.2913V14H92.1223ZM103.911 14.27C103.209 14.27 102.615 14.138 102.129 13.874C101.643 13.604 101.274 13.247 101.022 12.803C100.776 12.359 100.653 11.87 100.653 11.336C100.653 10.868 100.731 10.448 100.887 10.076C101.043 9.698 101.283 9.374 101.607 9.104C101.931 8.828 102.351 8.603 102.867 8.429C103.257 8.303 103.713 8.189 104.235 8.087C104.763 7.985 105.333 7.892 105.945 7.808C106.563 7.718 107.208 7.622 107.88 7.52L107.106 7.961C107.112 7.289 106.962 6.794 106.656 6.476C106.35 6.158 105.834 5.999 105.108 5.999C104.67 5.999 104.247 6.101 103.839 6.305C103.431 6.509 103.146 6.86 102.984 7.358L101.004 6.737C101.244 5.915 101.7 5.255 102.372 4.757C103.05 4.259 103.962 4.01 105.108 4.01C105.972 4.01 106.731 4.151 107.385 4.433C108.045 4.715 108.534 5.177 108.852 5.819C109.026 6.161 109.131 6.512 109.167 6.872C109.203 7.226 109.221 7.613 109.221 8.033V14H107.322V11.894L107.637 12.236C107.199 12.938 106.686 13.454 106.098 13.784C105.516 14.108 104.787 14.27 103.911 14.27ZM104.343 12.542C104.835 12.542 105.255 12.455 105.603 12.281C105.951 12.107 106.227 11.894 106.431 11.642C106.641 11.39 106.782 11.153 106.854 10.931C106.968 10.655 107.031 10.34 107.043 9.986C107.061 9.626 107.07 9.335 107.07 9.113L107.736 9.311C107.082 9.413 106.521 9.503 106.053 9.581C105.585 9.659 105.183 9.734 104.847 9.806C104.511 9.872 104.214 9.947 103.956 10.031C103.704 10.121 103.491 10.226 103.317 10.346C103.143 10.466 103.008 10.604 102.912 10.76C102.822 10.916 102.777 11.099 102.777 11.309C102.777 11.549 102.837 11.762 102.957 11.948C103.077 12.128 103.251 12.272 103.479 12.38C103.713 12.488 104.001 12.542 104.343 12.542ZM111.564 14V4.28H113.481V6.647L113.247 6.341C113.367 6.017 113.526 5.723 113.724 5.459C113.928 5.189 114.171 4.967 114.453 4.793C114.693 4.631 114.957 4.505 115.245 4.415C115.539 4.319 115.839 4.262 116.145 4.244C116.451 4.22 116.748 4.232 117.036 4.28V6.305C116.748 6.221 116.415 6.194 116.037 6.224C115.665 6.254 115.329 6.359 115.029 6.539C114.729 6.701 114.483 6.908 114.291 7.16C114.105 7.412 113.967 7.7 113.877 8.024C113.787 8.342 113.742 8.687 113.742 9.059V14H111.564ZM130.426 14V8.096C130.426 7.43 130.261 6.911 129.931 6.539C129.601 6.161 129.154 5.972 128.59 5.972C128.242 5.972 127.93 6.053 127.654 6.215C127.378 6.371 127.159 6.605 126.997 6.917C126.835 7.223 126.754 7.589 126.754 8.015L125.791 7.448C125.785 6.776 125.935 6.185 126.241 5.675C126.553 5.159 126.973 4.757 127.501 4.469C128.029 4.181 128.617 4.037 129.265 4.037C130.339 4.037 131.161 4.361 131.731 5.009C132.307 5.651 132.595 6.497 132.595 7.547V14H130.426ZM118.735 14V4.28H120.652V7.295H120.922V14H118.735ZM124.594 14V8.123C124.594 7.445 124.429 6.917 124.099 6.539C123.769 6.161 123.319 5.972 122.749 5.972C122.197 5.972 121.753 6.161 121.417 6.539C121.087 6.917 120.922 7.409 120.922 8.015L119.95 7.367C119.95 6.737 120.106 6.17 120.418 5.666C120.73 5.162 121.15 4.766 121.678 4.478C122.212 4.184 122.809 4.037 123.469 4.037C124.195 4.037 124.801 4.193 125.287 4.505C125.779 4.811 126.145 5.231 126.385 5.765C126.631 6.293 126.754 6.89 126.754 7.556V14H124.594Z" fill="#0098FE"/>
</svg>
