<svg width="180" height="15" viewBox="0 0 180 15" fill="none" xmlns="http://www.w3.org/2000/svg">
<path d="M4.42576 14V3.074H0.231758V1.04H10.7888V3.074H6.59476V14H4.42576ZM14.9763 14.279C14.2563 14.279 13.6623 14.159 13.1943 13.919C12.7263 13.679 12.3543 13.373 12.0783 13.001C11.8023 12.629 11.5983 12.233 11.4663 11.813C11.3343 11.393 11.2473 10.997 11.2053 10.625C11.1693 10.247 11.1513 9.941 11.1513 9.707V4.28H13.3473V8.96C13.3473 9.26 13.3683 9.599 13.4103 9.977C13.4523 10.349 13.5483 10.709 13.6983 11.057C13.8543 11.399 14.0823 11.681 14.3823 11.903C14.6883 12.125 15.0993 12.236 15.6153 12.236C15.8913 12.236 16.1643 12.191 16.4343 12.101C16.7043 12.011 16.9473 11.858 17.1633 11.642C17.3853 11.42 17.5623 11.117 17.6943 10.733C17.8263 10.349 17.8923 9.863 17.8923 9.275L19.1793 9.824C19.1793 10.652 19.0173 11.402 18.6933 12.074C18.3753 12.746 17.9043 13.283 17.2803 13.685C16.6563 14.081 15.8883 14.279 14.9763 14.279ZM18.1533 14V10.985H17.8923V4.28H20.0703V14H18.1533ZM22.5989 14V4.28H24.5159V6.647L24.2819 6.341C24.4019 6.017 24.5609 5.723 24.7589 5.459C24.9629 5.189 25.2059 4.967 25.4879 4.793C25.7279 4.631 25.9919 4.505 26.2799 4.415C26.5739 4.319 26.8739 4.262 27.1799 4.244C27.4859 4.22 27.7829 4.232 28.0709 4.28V6.305C27.7829 6.221 27.4499 6.194 27.0719 6.224C26.6999 6.254 26.3639 6.359 26.0639 6.539C25.7639 6.701 25.5179 6.908 25.3259 7.16C25.1399 7.412 25.0019 7.7 24.9119 8.024C24.8219 8.342 24.7769 8.687 24.7769 9.059V14H22.5989ZM34.4593 14.27C33.5113 14.27 32.7163 14.045 32.0743 13.595C31.4323 13.145 30.9493 12.533 30.6253 11.759C30.3013 10.979 30.1393 10.106 30.1393 9.14C30.1393 8.162 30.3013 7.286 30.6253 6.512C30.9493 5.738 31.4233 5.129 32.0473 4.685C32.6773 4.235 33.4543 4.01 34.3783 4.01C35.2963 4.01 36.0913 4.235 36.7633 4.685C37.4413 5.129 37.9663 5.738 38.3383 6.512C38.7103 7.28 38.8963 8.156 38.8963 9.14C38.8963 10.112 38.7133 10.985 38.3473 11.759C37.9813 12.533 37.4653 13.145 36.7993 13.595C36.1333 14.045 35.3533 14.27 34.4593 14.27ZM29.7703 14V1.04H31.9573V7.178H31.6873V14H29.7703ZM34.1263 12.326C34.6903 12.326 35.1553 12.185 35.5213 11.903C35.8873 11.621 36.1573 11.24 36.3313 10.76C36.5113 10.274 36.6013 9.734 36.6013 9.14C36.6013 8.552 36.5113 8.018 36.3313 7.538C36.1513 7.052 35.8723 6.668 35.4943 6.386C35.1163 6.098 34.6363 5.954 34.0543 5.954C33.5023 5.954 33.0523 6.089 32.7043 6.359C32.3563 6.623 32.0983 6.995 31.9303 7.475C31.7683 7.949 31.6873 8.504 31.6873 9.14C31.6873 9.77 31.7683 10.325 31.9303 10.805C32.0983 11.285 32.3593 11.66 32.7133 11.93C33.0733 12.194 33.5443 12.326 34.1263 12.326ZM45.1731 14.27C44.2011 14.27 43.3521 14.051 42.6261 13.613C41.9001 13.175 41.3361 12.572 40.9341 11.804C40.5381 11.03 40.3401 10.142 40.3401 9.14C40.3401 8.12 40.5441 7.226 40.9521 6.458C41.3601 5.69 41.9271 5.09 42.6531 4.658C43.3791 4.226 44.2191 4.01 45.1731 4.01C46.1511 4.01 47.0031 4.229 47.7291 4.667C48.4551 5.105 49.0191 5.711 49.4211 6.485C49.8231 7.253 50.0241 8.138 50.0241 9.14C50.0241 10.148 49.8201 11.039 49.4121 11.813C49.0101 12.581 48.4461 13.184 47.7201 13.622C46.9941 14.054 46.1451 14.27 45.1731 14.27ZM45.1731 12.236C46.0371 12.236 46.6791 11.948 47.0991 11.372C47.5191 10.796 47.7291 10.052 47.7291 9.14C47.7291 8.198 47.5161 7.448 47.0901 6.89C46.6641 6.326 46.0251 6.044 45.1731 6.044C44.5911 6.044 44.1111 6.176 43.7331 6.44C43.3611 6.698 43.0851 7.061 42.9051 7.529C42.7251 7.991 42.6351 8.528 42.6351 9.14C42.6351 10.082 42.8481 10.835 43.2741 11.399C43.7061 11.957 44.3391 12.236 45.1731 12.236ZM54.0488 14V3.074H49.8548V1.04H60.4118V3.074H56.2178V14H54.0488ZM67.3318 14.27C66.0358 14.27 64.9258 13.988 64.0018 13.424C63.0778 12.854 62.3668 12.062 61.8688 11.048C61.3768 10.034 61.1308 8.858 61.1308 7.52C61.1308 6.182 61.3768 5.006 61.8688 3.992C62.3668 2.978 63.0778 2.189 64.0018 1.625C64.9258 1.055 66.0358 0.77 67.3318 0.77C68.6278 0.77 69.7378 1.055 70.6618 1.625C71.5918 2.189 72.3028 2.978 72.7948 3.992C73.2928 5.006 73.5418 6.182 73.5418 7.52C73.5418 8.858 73.2928 10.034 72.7948 11.048C72.3028 12.062 71.5918 12.854 70.6618 13.424C69.7378 13.988 68.6278 14.27 67.3318 14.27ZM67.3318 12.227C68.2018 12.233 68.9248 12.041 69.5008 11.651C70.0828 11.261 70.5178 10.712 70.8058 10.004C71.0998 9.296 71.2468 8.468 71.2468 7.52C71.2468 6.572 71.0998 5.75 70.8058 5.054C70.5178 4.352 70.0828 3.806 69.5008 3.416C68.9248 3.026 68.2018 2.825 67.3318 2.813C66.4618 2.807 65.7388 2.999 65.1628 3.389C64.5868 3.779 64.1518 4.328 63.8578 5.036C63.5698 5.744 63.4258 6.572 63.4258 7.52C63.4258 8.468 63.5698 9.293 63.8578 9.995C64.1458 10.691 64.5778 11.234 65.1538 11.624C65.7358 12.014 66.4618 12.215 67.3318 12.227ZM75.3332 14V1.04H77.5292L83.5412 10.175V1.04H85.7372V14H83.5412L77.5292 4.865V14H75.3332ZM91.8567 14V1.04H93.8097L98.2917 10.22L102.774 1.04H104.727V14H102.702V5.693L98.7237 14H97.8597L93.8907 5.693V14H91.8567ZM111.674 14.27C110.69 14.27 109.826 14.057 109.082 13.631C108.338 13.205 107.756 12.614 107.336 11.858C106.922 11.102 106.715 10.232 106.715 9.248C106.715 8.186 106.919 7.265 107.327 6.485C107.735 5.699 108.302 5.09 109.028 4.658C109.754 4.226 110.594 4.01 111.548 4.01C112.556 4.01 113.411 4.247 114.113 4.721C114.821 5.189 115.346 5.852 115.688 6.71C116.03 7.568 116.159 8.579 116.075 9.743H113.924V8.951C113.918 7.895 113.732 7.124 113.366 6.638C113 6.152 112.424 5.909 111.638 5.909C110.75 5.909 110.09 6.185 109.658 6.737C109.226 7.283 109.01 8.084 109.01 9.14C109.01 10.124 109.226 10.886 109.658 11.426C110.09 11.966 110.72 12.236 111.548 12.236C112.082 12.236 112.541 12.119 112.925 11.885C113.315 11.645 113.615 11.3 113.825 10.85L115.967 11.498C115.595 12.374 115.019 13.055 114.239 13.541C113.465 14.027 112.61 14.27 111.674 14.27ZM108.326 9.743V8.105H115.013V9.743H108.326ZM129.493 14V8.096C129.493 7.43 129.328 6.911 128.998 6.539C128.668 6.161 128.221 5.972 127.657 5.972C127.309 5.972 126.997 6.053 126.721 6.215C126.445 6.371 126.226 6.605 126.064 6.917C125.902 7.223 125.821 7.589 125.821 8.015L124.858 7.448C124.852 6.776 125.002 6.185 125.308 5.675C125.62 5.159 126.04 4.757 126.568 4.469C127.096 4.181 127.684 4.037 128.332 4.037C129.406 4.037 130.228 4.361 130.798 5.009C131.374 5.651 131.662 6.497 131.662 7.547V14H129.493ZM117.802 14V4.28H119.719V7.295H119.989V14H117.802ZM123.661 14V8.123C123.661 7.445 123.496 6.917 123.166 6.539C122.836 6.161 122.386 5.972 121.816 5.972C121.264 5.972 120.82 6.161 120.484 6.539C120.154 6.917 119.989 7.409 119.989 8.015L119.017 7.367C119.017 6.737 119.173 6.17 119.485 5.666C119.797 5.162 120.217 4.766 120.745 4.478C121.279 4.184 121.876 4.037 122.536 4.037C123.262 4.037 123.868 4.193 124.354 4.505C124.846 4.811 125.212 5.231 125.452 5.765C125.698 6.293 125.821 6.89 125.821 7.556V14H123.661ZM138.27 14.27C137.286 14.27 136.422 14.057 135.678 13.631C134.934 13.205 134.352 12.614 133.932 11.858C133.518 11.102 133.311 10.232 133.311 9.248C133.311 8.186 133.515 7.265 133.923 6.485C134.331 5.699 134.898 5.09 135.624 4.658C136.35 4.226 137.19 4.01 138.144 4.01C139.152 4.01 140.007 4.247 140.709 4.721C141.417 5.189 141.942 5.852 142.284 6.71C142.626 7.568 142.755 8.579 142.671 9.743H140.52V8.951C140.514 7.895 140.328 7.124 139.962 6.638C139.596 6.152 139.02 5.909 138.234 5.909C137.346 5.909 136.686 6.185 136.254 6.737C135.822 7.283 135.606 8.084 135.606 9.14C135.606 10.124 135.822 10.886 136.254 11.426C136.686 11.966 137.316 12.236 138.144 12.236C138.678 12.236 139.137 12.119 139.521 11.885C139.911 11.645 140.211 11.3 140.421 10.85L142.563 11.498C142.191 12.374 141.615 13.055 140.835 13.541C140.061 14.027 139.206 14.27 138.27 14.27ZM134.922 9.743V8.105H141.609V9.743H134.922ZM148.9 14.27C147.898 14.27 147.043 14.048 146.335 13.604C145.627 13.154 145.084 12.542 144.706 11.768C144.334 10.994 144.145 10.118 144.139 9.14C144.145 8.144 144.34 7.262 144.724 6.494C145.114 5.72 145.666 5.114 146.38 4.676C147.094 4.232 147.943 4.01 148.927 4.01C150.031 4.01 150.964 4.289 151.726 4.847C152.494 5.399 152.995 6.155 153.229 7.115L151.069 7.7C150.901 7.178 150.622 6.773 150.232 6.485C149.842 6.191 149.398 6.044 148.9 6.044C148.336 6.044 147.871 6.179 147.505 6.449C147.139 6.713 146.869 7.079 146.695 7.547C146.521 8.015 146.434 8.546 146.434 9.14C146.434 10.064 146.641 10.811 147.055 11.381C147.469 11.951 148.084 12.236 148.9 12.236C149.476 12.236 149.929 12.104 150.259 11.84C150.595 11.576 150.847 11.195 151.015 10.697L153.229 11.192C152.929 12.182 152.404 12.944 151.654 13.478C150.904 14.006 149.986 14.27 148.9 14.27ZM159.062 14.27C158.09 14.27 157.241 14.051 156.515 13.613C155.789 13.175 155.225 12.572 154.823 11.804C154.427 11.03 154.229 10.142 154.229 9.14C154.229 8.12 154.433 7.226 154.841 6.458C155.249 5.69 155.816 5.09 156.542 4.658C157.268 4.226 158.108 4.01 159.062 4.01C160.04 4.01 160.892 4.229 161.618 4.667C162.344 5.105 162.908 5.711 163.31 6.485C163.712 7.253 163.913 8.138 163.913 9.14C163.913 10.148 163.709 11.039 163.301 11.813C162.899 12.581 162.335 13.184 161.609 13.622C160.883 14.054 160.034 14.27 159.062 14.27ZM159.062 12.236C159.926 12.236 160.568 11.948 160.988 11.372C161.408 10.796 161.618 10.052 161.618 9.14C161.618 8.198 161.405 7.448 160.979 6.89C160.553 6.326 159.914 6.044 159.062 6.044C158.48 6.044 158 6.176 157.622 6.44C157.25 6.698 156.974 7.061 156.794 7.529C156.614 7.991 156.524 8.528 156.524 9.14C156.524 10.082 156.737 10.835 157.163 11.399C157.595 11.957 158.228 12.236 159.062 12.236ZM166.076 2.804V0.815H168.245V2.804H166.076ZM166.076 14V4.28H168.245V14H166.076ZM177.664 14V9.32C177.664 9.014 177.643 8.675 177.601 8.303C177.559 7.931 177.46 7.574 177.304 7.232C177.154 6.884 176.926 6.599 176.62 6.377C176.32 6.155 175.912 6.044 175.396 6.044C175.12 6.044 174.847 6.089 174.577 6.179C174.307 6.269 174.061 6.425 173.839 6.647C173.623 6.863 173.449 7.163 173.317 7.547C173.185 7.925 173.119 8.411 173.119 9.005L171.832 8.456C171.832 7.628 171.991 6.878 172.309 6.206C172.633 5.534 173.107 5 173.731 4.604C174.355 4.202 175.123 4.001 176.035 4.001C176.755 4.001 177.349 4.121 177.817 4.361C178.285 4.601 178.657 4.907 178.933 5.279C179.209 5.651 179.413 6.047 179.545 6.467C179.677 6.887 179.761 7.286 179.797 7.664C179.839 8.036 179.86 8.339 179.86 8.573V14H177.664ZM170.923 14V4.28H172.858V7.295H173.119V14H170.923Z" fill="white"/>
</svg>
