<svg width="131" height="15" viewBox="0 0 131 15" fill="none" xmlns="http://www.w3.org/2000/svg">
<path d="M4.80155 14V2.813H0.490547V1.04H10.9935V2.813H6.68255V14H4.80155ZM15.2003 14.261C14.5283 14.261 13.9643 14.153 13.5083 13.937C13.0523 13.721 12.6803 13.439 12.3923 13.091C12.1103 12.737 11.8943 12.353 11.7443 11.939C11.5943 11.525 11.4923 11.12 11.4383 10.724C11.3843 10.328 11.3573 9.98 11.3573 9.68V4.28H13.2653V9.059C13.2653 9.437 13.2953 9.827 13.3553 10.229C13.4213 10.625 13.5413 10.994 13.7153 11.336C13.8953 11.678 14.1443 11.954 14.4623 12.164C14.7863 12.374 15.2063 12.479 15.7223 12.479C16.0583 12.479 16.3763 12.425 16.6763 12.317C16.9763 12.203 17.2373 12.023 17.4593 11.777C17.6873 11.531 17.8643 11.207 17.9903 10.805C18.1223 10.403 18.1883 9.914 18.1883 9.338L19.3583 9.779C19.3583 10.661 19.1933 11.441 18.8633 12.119C18.5333 12.791 18.0593 13.316 17.4413 13.694C16.8233 14.072 16.0763 14.261 15.2003 14.261ZM18.4133 14V11.192H18.1883V4.28H20.0873V14H18.4133ZM22.6116 14V4.28H24.2856V6.638L24.0516 6.332C24.1716 6.02 24.3276 5.735 24.5196 5.477C24.7116 5.213 24.9336 4.997 25.1856 4.829C25.4316 4.649 25.7046 4.511 26.0046 4.415C26.3106 4.313 26.6226 4.253 26.9406 4.235C27.2586 4.211 27.5646 4.226 27.8586 4.28V6.044C27.5406 5.96 27.1866 5.936 26.7966 5.972C26.4126 6.008 26.0586 6.131 25.7346 6.341C25.4286 6.539 25.1856 6.779 25.0056 7.061C24.8316 7.343 24.7056 7.658 24.6276 8.006C24.5496 8.348 24.5106 8.711 24.5106 9.095V14H22.6116ZM34.1355 14.27C33.2055 14.27 32.4255 14.045 31.7955 13.595C31.1655 13.139 30.6885 12.524 30.3645 11.75C30.0405 10.976 29.8785 10.103 29.8785 9.131C29.8785 8.159 30.0375 7.286 30.3555 6.512C30.6795 5.738 31.1535 5.129 31.7775 4.685C32.4075 4.235 33.1815 4.01 34.0995 4.01C35.0115 4.01 35.7975 4.235 36.4575 4.685C37.1235 5.129 37.6365 5.738 37.9965 6.512C38.3565 7.28 38.5365 8.153 38.5365 9.131C38.5365 10.103 38.3565 10.979 37.9965 11.759C37.6425 12.533 37.1355 13.145 36.4755 13.595C35.8215 14.045 35.0415 14.27 34.1355 14.27ZM29.5635 14V1.04H31.4535V7.007H31.2375V14H29.5635ZM33.8745 12.569C34.4745 12.569 34.9695 12.416 35.3595 12.11C35.7555 11.804 36.0495 11.393 36.2415 10.877C36.4395 10.355 36.5385 9.773 36.5385 9.131C36.5385 8.495 36.4395 7.919 36.2415 7.403C36.0495 6.887 35.7525 6.476 35.3505 6.17C34.9485 5.864 34.4355 5.711 33.8115 5.711C33.2235 5.711 32.7375 5.855 32.3535 6.143C31.9755 6.431 31.6935 6.833 31.5075 7.349C31.3275 7.865 31.2375 8.459 31.2375 9.131C31.2375 9.803 31.3275 10.397 31.5075 10.913C31.6875 11.429 31.9725 11.834 32.3625 12.128C32.7525 12.422 33.2565 12.569 33.8745 12.569ZM44.7447 14.27C43.7727 14.27 42.9297 14.051 42.2157 13.613C41.5017 13.175 40.9497 12.572 40.5597 11.804C40.1757 11.03 39.9837 10.139 39.9837 9.131C39.9837 8.117 40.1817 7.226 40.5777 6.458C40.9737 5.684 41.5287 5.084 42.2427 4.658C42.9567 4.226 43.7907 4.01 44.7447 4.01C45.7167 4.01 46.5597 4.229 47.2737 4.667C47.9877 5.105 48.5397 5.708 48.9297 6.476C49.3197 7.244 49.5147 8.129 49.5147 9.131C49.5147 10.145 49.3167 11.039 48.9207 11.813C48.5307 12.581 47.9787 13.184 47.2647 13.622C46.5507 14.054 45.7107 14.27 44.7447 14.27ZM44.7447 12.497C45.6747 12.497 46.3677 12.185 46.8237 11.561C47.2857 10.931 47.5167 10.121 47.5167 9.131C47.5167 8.117 47.2827 7.307 46.8147 6.701C46.3527 6.089 45.6627 5.783 44.7447 5.783C44.1147 5.783 43.5957 5.927 43.1877 6.215C42.7797 6.497 42.4767 6.89 42.2787 7.394C42.0807 7.892 41.9817 8.471 41.9817 9.131C41.9817 10.151 42.2157 10.967 42.6837 11.579C43.1517 12.191 43.8387 12.497 44.7447 12.497ZM53.6512 14V2.813H49.3402V1.04H59.8432V2.813H55.5322V14H53.6512ZM66.6924 14.27C65.3964 14.27 64.2924 13.988 63.3804 13.424C62.4684 12.854 61.7694 12.062 61.2834 11.048C60.8034 10.034 60.5634 8.858 60.5634 7.52C60.5634 6.182 60.8034 5.006 61.2834 3.992C61.7694 2.978 62.4684 2.189 63.3804 1.625C64.2924 1.055 65.3964 0.77 66.6924 0.77C67.9824 0.77 69.0834 1.055 69.9954 1.625C70.9134 2.189 71.6124 2.978 72.0924 3.992C72.5724 5.006 72.8124 6.182 72.8124 7.52C72.8124 8.858 72.5724 10.034 72.0924 11.048C71.6124 12.062 70.9134 12.854 69.9954 13.424C69.0834 13.988 67.9824 14.27 66.6924 14.27ZM66.6924 12.479C67.6104 12.491 68.3724 12.29 68.9784 11.876C69.5904 11.456 70.0494 10.874 70.3554 10.13C70.6614 9.38 70.8144 8.51 70.8144 7.52C70.8144 6.53 70.6614 5.666 70.3554 4.928C70.0494 4.184 69.5904 3.605 68.9784 3.191C68.3724 2.777 67.6104 2.567 66.6924 2.561C65.7744 2.549 65.0094 2.75 64.3974 3.164C63.7914 3.578 63.3354 4.16 63.0294 4.91C62.7234 5.66 62.5674 6.53 62.5614 7.52C62.5554 8.51 62.7054 9.377 63.0114 10.121C63.3174 10.859 63.7764 11.435 64.3884 11.849C65.0064 12.263 65.7744 12.473 66.6924 12.479ZM74.6077 14V1.04H76.5157L82.8967 10.67V1.04H84.8047V14H82.8967L76.5157 4.361V14H74.6077ZM90.9202 14V1.04H98.5972V2.921H92.8012V6.575H97.5172V8.465H92.8012V14H90.9202ZM102.612 14.27C101.892 14.27 101.289 14.138 100.803 13.874C100.317 13.604 99.9484 13.25 99.6964 12.812C99.4504 12.368 99.3274 11.882 99.3274 11.354C99.3274 10.862 99.4144 10.43 99.5884 10.058C99.7624 9.686 100.02 9.371 100.362 9.113C100.704 8.849 101.124 8.636 101.622 8.474C102.054 8.348 102.543 8.237 103.089 8.141C103.635 8.045 104.208 7.955 104.808 7.871C105.414 7.787 106.014 7.703 106.608 7.619L105.924 7.997C105.936 7.235 105.774 6.671 105.438 6.305C105.108 5.933 104.538 5.747 103.728 5.747C103.218 5.747 102.75 5.867 102.324 6.107C101.898 6.341 101.601 6.731 101.433 7.277L99.6784 6.737C99.9184 5.903 100.374 5.24 101.046 4.748C101.724 4.256 102.624 4.01 103.746 4.01C104.616 4.01 105.372 4.16 106.014 4.46C106.662 4.754 107.136 5.222 107.436 5.864C107.592 6.182 107.688 6.518 107.724 6.872C107.76 7.226 107.778 7.607 107.778 8.015V14H106.113V11.777L106.437 12.065C106.035 12.809 105.522 13.364 104.898 13.73C104.28 14.09 103.518 14.27 102.612 14.27ZM102.945 12.731C103.479 12.731 103.938 12.638 104.322 12.452C104.706 12.26 105.015 12.017 105.249 11.723C105.483 11.429 105.636 11.123 105.708 10.805C105.81 10.517 105.867 10.193 105.879 9.833C105.897 9.473 105.906 9.185 105.906 8.969L106.518 9.194C105.924 9.284 105.384 9.365 104.898 9.437C104.412 9.509 103.971 9.581 103.575 9.653C103.185 9.719 102.837 9.8 102.531 9.896C102.273 9.986 102.042 10.094 101.838 10.22C101.64 10.346 101.481 10.499 101.361 10.679C101.247 10.859 101.19 11.078 101.19 11.336C101.19 11.588 101.253 11.822 101.379 12.038C101.505 12.248 101.697 12.416 101.955 12.542C102.213 12.668 102.543 12.731 102.945 12.731ZM110.115 14V4.28H111.789V6.638L111.555 6.332C111.675 6.02 111.831 5.735 112.023 5.477C112.215 5.213 112.437 4.997 112.689 4.829C112.935 4.649 113.208 4.511 113.508 4.415C113.814 4.313 114.126 4.253 114.444 4.235C114.762 4.211 115.068 4.226 115.362 4.28V6.044C115.044 5.96 114.69 5.936 114.3 5.972C113.916 6.008 113.562 6.131 113.238 6.341C112.932 6.539 112.689 6.779 112.509 7.061C112.335 7.343 112.209 7.658 112.131 8.006C112.053 8.348 112.014 8.711 112.014 9.095V14H110.115ZM128.722 14L128.731 7.943C128.731 7.241 128.551 6.695 128.191 6.305C127.831 5.909 127.357 5.711 126.769 5.711C126.409 5.711 126.079 5.795 125.779 5.963C125.485 6.125 125.245 6.371 125.059 6.701C124.879 7.025 124.789 7.433 124.789 7.925L123.88 7.466C123.868 6.782 124.012 6.182 124.312 5.666C124.618 5.15 125.032 4.751 125.554 4.469C126.076 4.181 126.661 4.037 127.309 4.037C128.359 4.037 129.172 4.352 129.748 4.982C130.324 5.612 130.612 6.449 130.612 7.493L130.603 14H128.722ZM117.067 14V4.28H118.741V7.088H118.957V14H117.067ZM122.899 14L122.908 7.979C122.908 7.271 122.728 6.716 122.368 6.314C122.014 5.912 121.537 5.711 120.937 5.711C120.343 5.711 119.863 5.915 119.497 6.323C119.137 6.731 118.957 7.265 118.957 7.925L118.057 7.349C118.057 6.713 118.21 6.146 118.516 5.648C118.822 5.15 119.236 4.757 119.758 4.469C120.28 4.181 120.871 4.037 121.531 4.037C122.221 4.037 122.809 4.184 123.295 4.478C123.781 4.766 124.15 5.171 124.402 5.693C124.66 6.215 124.789 6.821 124.789 7.511L124.78 14H122.899Z" fill="white"/>
</svg>
