<svg width="397" height="71" viewBox="0 0 397 71" fill="none" xmlns="http://www.w3.org/2000/svg">
<path d="M13.8239 14.27C12.8339 14.27 11.9579 14.066 11.1959 13.658C10.4399 13.25 9.84586 12.674 9.41386 11.93C8.98186 11.186 8.76586 10.316 8.76586 9.32V1.049L10.0979 1.04V9.149C10.0979 9.821 10.2119 10.403 10.4399 10.895C10.6679 11.381 10.9649 11.783 11.3309 12.101C11.7029 12.413 12.1079 12.644 12.5459 12.794C12.9839 12.944 13.4099 13.019 13.8239 13.019C14.2439 13.019 14.6729 12.944 15.1109 12.794C15.5489 12.644 15.9509 12.413 16.3169 12.101C16.6829 11.783 16.9799 11.381 17.2079 10.895C17.4359 10.403 17.5499 9.821 17.5499 9.149V1.04H18.8819V9.32C18.8819 10.316 18.6659 11.186 18.2339 11.93C17.8019 12.668 17.2049 13.244 16.4429 13.658C15.6869 14.066 14.8139 14.27 13.8239 14.27ZM25.7695 14.27C24.8755 14.27 24.1195 14.045 23.5015 13.595C22.8835 13.139 22.4155 12.524 22.0975 11.75C21.7795 10.97 21.6205 10.097 21.6205 9.131C21.6205 8.147 21.7795 7.271 22.0975 6.503C22.4215 5.729 22.8955 5.12 23.5195 4.676C24.1435 4.232 24.9115 4.01 25.8235 4.01C26.7115 4.01 27.4735 4.235 28.1095 4.685C28.7455 5.135 29.2315 5.747 29.5675 6.521C29.9095 7.295 30.0805 8.165 30.0805 9.131C30.0805 10.103 29.9095 10.976 29.5675 11.75C29.2255 12.524 28.7335 13.139 28.0915 13.595C27.4495 14.045 26.6755 14.27 25.7695 14.27ZM21.3955 18.32V4.28H22.5835V11.597H22.7275V18.32H21.3955ZM25.6345 13.037C26.3125 13.037 26.8765 12.866 27.3265 12.524C27.7765 12.182 28.1125 11.717 28.3345 11.129C28.5625 10.535 28.6765 9.869 28.6765 9.131C28.6765 8.399 28.5655 7.739 28.3435 7.151C28.1215 6.563 27.7825 6.098 27.3265 5.756C26.8765 5.414 26.3035 5.243 25.6075 5.243C24.9295 5.243 24.3655 5.408 23.9155 5.738C23.4715 6.068 23.1385 6.527 22.9165 7.115C22.6945 7.697 22.5835 8.369 22.5835 9.131C22.5835 9.881 22.6945 10.553 22.9165 11.147C23.1385 11.735 23.4745 12.197 23.9245 12.533C24.3745 12.869 24.9445 13.037 25.6345 13.037ZM35.9179 18.59C35.4199 18.59 34.9279 18.515 34.4419 18.365C33.9619 18.221 33.5179 17.99 33.1099 17.672C32.7019 17.36 32.3599 16.952 32.0839 16.448L33.2809 15.782C33.5509 16.322 33.9289 16.709 34.4149 16.943C34.9069 17.183 35.4079 17.303 35.9179 17.303C36.6199 17.303 37.1869 17.171 37.6189 16.907C38.0569 16.649 38.3749 16.265 38.5729 15.755C38.7709 15.245 38.8669 14.609 38.8609 13.847V11.255H39.0139V4.28H40.1929V13.865C40.1929 14.141 40.1839 14.405 40.1659 14.657C40.1539 14.915 40.1269 15.167 40.0849 15.413C39.9709 16.139 39.7339 16.736 39.3739 17.204C39.0199 17.672 38.5519 18.02 37.9699 18.248C37.3939 18.476 36.7099 18.59 35.9179 18.59ZM35.8279 14.27C34.9219 14.27 34.1479 14.045 33.5059 13.595C32.8639 13.139 32.3719 12.524 32.0299 11.75C31.6879 10.976 31.5169 10.103 31.5169 9.131C31.5169 8.165 31.6849 7.295 32.0209 6.521C32.3629 5.747 32.8519 5.135 33.4879 4.685C34.1239 4.235 34.8859 4.01 35.7739 4.01C36.6859 4.01 37.4539 4.232 38.0779 4.676C38.7019 5.12 39.1729 5.729 39.4909 6.503C39.8149 7.271 39.9769 8.147 39.9769 9.131C39.9769 10.097 39.8179 10.97 39.4999 11.75C39.1819 12.524 38.7139 13.139 38.0959 13.595C37.4779 14.045 36.7219 14.27 35.8279 14.27ZM35.9629 13.037C36.6529 13.037 37.2229 12.869 37.6729 12.533C38.1229 12.197 38.4589 11.735 38.6809 11.147C38.9029 10.553 39.0139 9.881 39.0139 9.131C39.0139 8.369 38.9029 7.697 38.6809 7.115C38.4589 6.527 38.1229 6.068 37.6729 5.738C37.2289 5.408 36.6679 5.243 35.9899 5.243C35.2939 5.243 34.7179 5.414 34.2619 5.756C33.8059 6.098 33.4669 6.563 33.2449 7.151C33.0289 7.739 32.9209 8.399 32.9209 9.131C32.9209 9.869 33.0319 10.535 33.2539 11.129C33.4819 11.717 33.8209 12.182 34.2709 12.524C34.7209 12.866 35.2849 13.037 35.9629 13.037ZM42.7092 14V4.28H43.8972V6.62L43.6632 6.314C43.7712 6.026 43.9122 5.762 44.0862 5.522C44.2602 5.276 44.4492 5.075 44.6532 4.919C44.9052 4.697 45.1992 4.529 45.5352 4.415C45.8712 4.295 46.2102 4.226 46.5522 4.208C46.8942 4.184 47.2062 4.208 47.4882 4.28V5.522C47.1342 5.432 46.7472 5.411 46.3272 5.459C45.9072 5.507 45.5202 5.675 45.1662 5.963C44.8422 6.215 44.5992 6.518 44.4372 6.872C44.2752 7.22 44.1672 7.592 44.1132 7.988C44.0592 8.378 44.0322 8.765 44.0322 9.149V14H42.7092ZM51.625 14.27C50.893 14.27 50.278 14.138 49.78 13.874C49.288 13.61 48.919 13.259 48.673 12.821C48.427 12.383 48.304 11.906 48.304 11.39C48.304 10.862 48.409 10.412 48.619 10.04C48.835 9.662 49.126 9.353 49.492 9.113C49.864 8.873 50.293 8.69 50.779 8.564C51.271 8.444 51.814 8.339 52.408 8.249C53.008 8.153 53.593 8.072 54.163 8.006C54.739 7.934 55.243 7.865 55.675 7.799L55.207 8.087C55.225 7.127 55.039 6.416 54.649 5.954C54.259 5.492 53.581 5.261 52.615 5.261C51.949 5.261 51.385 5.411 50.923 5.711C50.467 6.011 50.146 6.485 49.96 7.133L48.673 6.755C48.895 5.885 49.342 5.21 50.014 4.73C50.686 4.25 51.559 4.01 52.633 4.01C53.521 4.01 54.274 4.178 54.892 4.514C55.516 4.844 55.957 5.324 56.215 5.954C56.335 6.236 56.413 6.551 56.449 6.899C56.485 7.247 56.503 7.601 56.503 7.961V14H55.324V11.561L55.666 11.705C55.336 12.539 54.823 13.175 54.127 13.613C53.431 14.051 52.597 14.27 51.625 14.27ZM51.778 13.127C52.396 13.127 52.936 13.016 53.398 12.794C53.86 12.572 54.232 12.269 54.514 11.885C54.796 11.495 54.979 11.057 55.063 10.571C55.135 10.259 55.174 9.917 55.18 9.545C55.186 9.167 55.189 8.885 55.189 8.699L55.693 8.96C55.243 9.02 54.754 9.08 54.226 9.14C53.704 9.2 53.188 9.269 52.678 9.347C52.174 9.425 51.718 9.518 51.31 9.626C51.034 9.704 50.767 9.815 50.509 9.959C50.251 10.097 50.038 10.283 49.87 10.517C49.708 10.751 49.627 11.042 49.627 11.39C49.627 11.672 49.696 11.945 49.834 12.209C49.978 12.473 50.206 12.692 50.518 12.866C50.836 13.04 51.256 13.127 51.778 13.127ZM62.6169 14.27C61.7109 14.27 60.9369 14.045 60.2949 13.595C59.6529 13.139 59.1609 12.524 58.8189 11.75C58.4769 10.976 58.3059 10.103 58.3059 9.131C58.3059 8.165 58.4739 7.295 58.8099 6.521C59.1519 5.747 59.6409 5.135 60.2769 4.685C60.9129 4.235 61.6749 4.01 62.5629 4.01C63.4749 4.01 64.2429 4.232 64.8669 4.676C65.4909 5.12 65.9619 5.729 66.2799 6.503C66.6039 7.271 66.7659 8.147 66.7659 9.131C66.7659 10.097 66.6069 10.97 66.2889 11.75C65.9709 12.524 65.5029 13.139 64.8849 13.595C64.2669 14.045 63.5109 14.27 62.6169 14.27ZM62.7519 13.037C63.4419 13.037 64.0119 12.869 64.4619 12.533C64.9119 12.197 65.2479 11.735 65.4699 11.147C65.6919 10.553 65.8029 9.881 65.8029 9.131C65.8029 8.369 65.6919 7.697 65.4699 7.115C65.2479 6.527 64.9119 6.068 64.4619 5.738C64.0179 5.408 63.4569 5.243 62.7789 5.243C62.0829 5.243 61.5069 5.414 61.0509 5.756C60.5949 6.098 60.2559 6.563 60.0339 7.151C59.8179 7.739 59.7099 8.399 59.7099 9.131C59.7099 9.869 59.8209 10.535 60.0429 11.129C60.2709 11.717 60.6099 12.182 61.0599 12.524C61.5099 12.866 62.0739 13.037 62.7519 13.037ZM65.8029 14V6.683H65.6589V1.04H66.9909V14H65.8029ZM73.6289 14.27C72.6809 14.27 71.8589 14.06 71.1629 13.64C70.4729 13.22 69.9359 12.629 69.5519 11.867C69.1679 11.105 68.9759 10.211 68.9759 9.185C68.9759 8.123 69.1649 7.205 69.5429 6.431C69.9209 5.657 70.4519 5.06 71.1359 4.64C71.8259 4.22 72.6389 4.01 73.5749 4.01C74.5349 4.01 75.3539 4.232 76.0319 4.676C76.7099 5.114 77.2229 5.744 77.5709 6.566C77.9189 7.388 78.0779 8.369 78.0479 9.509H76.6979V9.041C76.6739 7.781 76.4009 6.83 75.8789 6.188C75.3629 5.546 74.6069 5.225 73.6109 5.225C72.5669 5.225 71.7659 5.564 71.2079 6.242C70.6559 6.92 70.3799 7.886 70.3799 9.14C70.3799 10.364 70.6559 11.315 71.2079 11.993C71.7659 12.665 72.5549 13.001 73.5749 13.001C74.2709 13.001 74.8769 12.842 75.3929 12.524C75.9149 12.2 76.3259 11.735 76.6259 11.129L77.8589 11.606C77.4749 12.452 76.9079 13.109 76.1579 13.577C75.4139 14.039 74.5709 14.27 73.6289 14.27ZM69.9119 9.509V8.402H77.3369V9.509H69.9119ZM85.0347 18.32L86.9157 13.217L86.9427 14.729L82.6857 4.28H84.0897L87.5817 13.019H87.0057L90.2277 4.28H91.5777L86.3577 18.32H85.0347ZM96.8483 14.27C95.8823 14.27 95.0573 14.051 94.3733 13.613C93.6893 13.175 93.1643 12.569 92.7983 11.795C92.4323 11.021 92.2493 10.133 92.2493 9.131C92.2493 8.111 92.4353 7.217 92.8073 6.449C93.1793 5.681 93.7073 5.084 94.3913 4.658C95.0813 4.226 95.9003 4.01 96.8483 4.01C97.8203 4.01 98.6483 4.229 99.3323 4.667C100.022 5.099 100.547 5.702 100.907 6.476C101.273 7.244 101.456 8.129 101.456 9.131C101.456 10.151 101.273 11.048 100.907 11.822C100.541 12.59 100.013 13.19 99.3233 13.622C98.6333 14.054 97.8083 14.27 96.8483 14.27ZM96.8483 13.001C97.9283 13.001 98.7323 12.644 99.2603 11.93C99.7883 11.21 100.052 10.277 100.052 9.131C100.052 7.955 99.7853 7.019 99.2513 6.323C98.7233 5.627 97.9223 5.279 96.8483 5.279C96.1223 5.279 95.5223 5.444 95.0483 5.774C94.5803 6.098 94.2293 6.551 93.9953 7.133C93.7673 7.709 93.6533 8.375 93.6533 9.131C93.6533 10.301 93.9233 11.24 94.4633 11.948C95.0033 12.65 95.7983 13.001 96.8483 13.001ZM107.159 14.243C106.577 14.243 106.067 14.153 105.629 13.973C105.197 13.793 104.828 13.55 104.522 13.244C104.222 12.938 103.979 12.59 103.793 12.2C103.607 11.804 103.472 11.387 103.388 10.949C103.304 10.505 103.262 10.064 103.262 9.626V4.28H104.594V9.239C104.594 9.773 104.645 10.268 104.747 10.724C104.849 11.18 105.011 11.579 105.233 11.921C105.461 12.257 105.752 12.518 106.106 12.704C106.466 12.89 106.901 12.983 107.411 12.983C107.879 12.983 108.29 12.902 108.644 12.74C109.004 12.578 109.304 12.347 109.544 12.047C109.79 11.741 109.976 11.372 110.102 10.94C110.228 10.502 110.291 10.01 110.291 9.464L111.227 9.671C111.227 10.667 111.053 11.504 110.705 12.182C110.357 12.86 109.877 13.373 109.265 13.721C108.653 14.069 107.951 14.243 107.159 14.243ZM110.426 14V11.606H110.291V4.28H111.614V14H110.426ZM114.129 14V4.28H115.317V6.62L115.083 6.314C115.191 6.026 115.332 5.762 115.506 5.522C115.68 5.276 115.869 5.075 116.073 4.919C116.325 4.697 116.619 4.529 116.955 4.415C117.291 4.295 117.63 4.226 117.972 4.208C118.314 4.184 118.626 4.208 118.908 4.28V5.522C118.554 5.432 118.167 5.411 117.747 5.459C117.327 5.507 116.94 5.675 116.586 5.963C116.262 6.215 116.019 6.518 115.857 6.872C115.695 7.22 115.587 7.592 115.533 7.988C115.479 8.378 115.452 8.765 115.452 9.149V14H114.129ZM127.846 14.261C126.706 14.261 125.767 14.015 125.029 13.523C124.297 13.031 123.847 12.347 123.679 11.471L125.029 11.246C125.173 11.798 125.5 12.239 126.01 12.569C126.526 12.893 127.162 13.055 127.918 13.055C128.656 13.055 129.238 12.902 129.664 12.596C130.09 12.284 130.303 11.861 130.303 11.327C130.303 11.027 130.234 10.784 130.096 10.598C129.964 10.406 129.691 10.229 129.277 10.067C128.863 9.905 128.245 9.713 127.423 9.491C126.541 9.251 125.851 9.011 125.353 8.771C124.855 8.531 124.501 8.255 124.291 7.943C124.081 7.625 123.976 7.238 123.976 6.782C123.976 6.23 124.132 5.747 124.444 5.333C124.756 4.913 125.188 4.589 125.74 4.361C126.292 4.127 126.934 4.01 127.666 4.01C128.398 4.01 129.052 4.13 129.628 4.37C130.21 4.604 130.678 4.934 131.032 5.36C131.386 5.786 131.596 6.281 131.662 6.845L130.312 7.088C130.222 6.518 129.937 6.068 129.457 5.738C128.983 5.402 128.38 5.228 127.648 5.216C126.958 5.198 126.397 5.33 125.965 5.612C125.533 5.888 125.317 6.257 125.317 6.719C125.317 6.977 125.395 7.199 125.551 7.385C125.707 7.565 125.989 7.736 126.397 7.898C126.811 8.06 127.399 8.237 128.161 8.429C129.055 8.657 129.757 8.897 130.267 9.149C130.777 9.401 131.14 9.698 131.356 10.04C131.572 10.382 131.68 10.805 131.68 11.309C131.68 12.227 131.338 12.95 130.654 13.478C129.976 14 129.04 14.261 127.846 14.261ZM140.696 14V9.041C140.696 8.501 140.645 8.006 140.543 7.556C140.441 7.1 140.276 6.704 140.048 6.368C139.826 6.026 139.535 5.762 139.175 5.576C138.821 5.39 138.389 5.297 137.879 5.297C137.411 5.297 136.997 5.378 136.637 5.54C136.283 5.702 135.983 5.936 135.737 6.242C135.497 6.542 135.314 6.908 135.188 7.34C135.062 7.772 134.999 8.264 134.999 8.816L134.063 8.609C134.063 7.613 134.237 6.776 134.585 6.098C134.933 5.42 135.413 4.907 136.025 4.559C136.637 4.211 137.339 4.037 138.131 4.037C138.713 4.037 139.22 4.127 139.652 4.307C140.09 4.487 140.459 4.73 140.759 5.036C141.065 5.342 141.311 5.693 141.497 6.089C141.683 6.479 141.818 6.896 141.902 7.34C141.986 7.778 142.028 8.216 142.028 8.654V14H140.696ZM133.667 14V1.04H134.864V8.357H134.999V14H133.667ZM144.544 2.435V0.95H145.867V2.435H144.544ZM144.544 14V4.28H145.867V14H144.544ZM152.93 14.27C152.036 14.27 151.28 14.045 150.662 13.595C150.044 13.139 149.576 12.524 149.258 11.75C148.94 10.97 148.781 10.097 148.781 9.131C148.781 8.147 148.94 7.271 149.258 6.503C149.582 5.729 150.056 5.12 150.68 4.676C151.304 4.232 152.072 4.01 152.984 4.01C153.872 4.01 154.634 4.235 155.27 4.685C155.906 5.135 156.392 5.747 156.728 6.521C157.07 7.295 157.241 8.165 157.241 9.131C157.241 10.103 157.07 10.976 156.728 11.75C156.386 12.524 155.894 13.139 155.252 13.595C154.61 14.045 153.836 14.27 152.93 14.27ZM148.556 18.32V4.28H149.744V11.597H149.888V18.32H148.556ZM152.795 13.037C153.473 13.037 154.037 12.866 154.487 12.524C154.937 12.182 155.273 11.717 155.495 11.129C155.723 10.535 155.837 9.869 155.837 9.131C155.837 8.399 155.726 7.739 155.504 7.151C155.282 6.563 154.943 6.098 154.487 5.756C154.037 5.414 153.464 5.243 152.768 5.243C152.09 5.243 151.526 5.408 151.076 5.738C150.632 6.068 150.299 6.527 150.077 7.115C149.855 7.697 149.744 8.369 149.744 9.131C149.744 9.881 149.855 10.553 150.077 11.147C150.299 11.735 150.635 12.197 151.085 12.533C151.535 12.869 152.105 13.037 152.795 13.037ZM167.186 14.27C166.292 14.27 165.536 14.045 164.918 13.595C164.3 13.139 163.832 12.524 163.514 11.75C163.196 10.97 163.037 10.097 163.037 9.131C163.037 8.147 163.196 7.271 163.514 6.503C163.838 5.729 164.312 5.12 164.936 4.676C165.56 4.232 166.328 4.01 167.24 4.01C168.128 4.01 168.89 4.235 169.526 4.685C170.162 5.135 170.648 5.747 170.984 6.521C171.326 7.295 171.497 8.165 171.497 9.131C171.497 10.103 171.326 10.976 170.984 11.75C170.642 12.524 170.15 13.139 169.508 13.595C168.866 14.045 168.092 14.27 167.186 14.27ZM162.812 14V1.04H164.144V6.683H164V14H162.812ZM167.051 13.037C167.729 13.037 168.293 12.866 168.743 12.524C169.193 12.182 169.529 11.717 169.751 11.129C169.979 10.535 170.093 9.869 170.093 9.131C170.093 8.399 169.982 7.739 169.76 7.151C169.538 6.563 169.199 6.098 168.743 5.756C168.293 5.414 167.72 5.243 167.024 5.243C166.346 5.243 165.782 5.408 165.332 5.738C164.888 6.068 164.555 6.527 164.333 7.115C164.111 7.697 164 8.369 164 9.131C164 9.881 164.111 10.553 164.333 11.147C164.555 11.735 164.891 12.197 165.341 12.533C165.791 12.869 166.361 13.037 167.051 13.037ZM177.19 14.243C176.608 14.243 176.098 14.153 175.66 13.973C175.228 13.793 174.859 13.55 174.553 13.244C174.253 12.938 174.01 12.59 173.824 12.2C173.638 11.804 173.503 11.387 173.419 10.949C173.335 10.505 173.293 10.064 173.293 9.626V4.28H174.625V9.239C174.625 9.773 174.676 10.268 174.778 10.724C174.88 11.18 175.042 11.579 175.264 11.921C175.492 12.257 175.783 12.518 176.137 12.704C176.497 12.89 176.932 12.983 177.442 12.983C177.91 12.983 178.321 12.902 178.675 12.74C179.035 12.578 179.335 12.347 179.575 12.047C179.821 11.741 180.007 11.372 180.133 10.94C180.259 10.502 180.322 10.01 180.322 9.464L181.258 9.671C181.258 10.667 181.084 11.504 180.736 12.182C180.388 12.86 179.908 13.373 179.296 13.721C178.684 14.069 177.982 14.243 177.19 14.243ZM180.457 14V11.606H180.322V4.28H181.645V14H180.457ZM185.546 18.32L187.427 13.217L187.454 14.729L183.197 4.28H184.601L188.093 13.019H187.517L190.739 4.28H192.089L186.869 18.32H185.546ZM193.833 2.435V0.95H195.156V2.435H193.833ZM193.833 14V4.28H195.156V14H193.833ZM204.874 14V9.041C204.874 8.501 204.823 8.006 204.721 7.556C204.619 7.1 204.454 6.704 204.226 6.368C204.004 6.026 203.713 5.762 203.353 5.576C202.999 5.39 202.567 5.297 202.057 5.297C201.589 5.297 201.175 5.378 200.815 5.54C200.461 5.702 200.161 5.936 199.915 6.242C199.675 6.542 199.492 6.908 199.366 7.34C199.24 7.772 199.177 8.264 199.177 8.816L198.241 8.609C198.241 7.613 198.415 6.776 198.763 6.098C199.111 5.42 199.591 4.907 200.203 4.559C200.815 4.211 201.517 4.037 202.309 4.037C202.891 4.037 203.398 4.127 203.83 4.307C204.268 4.487 204.637 4.73 204.937 5.036C205.243 5.342 205.489 5.693 205.675 6.089C205.861 6.479 205.996 6.896 206.08 7.34C206.164 7.778 206.206 8.216 206.206 8.654V14H204.874ZM197.845 14V4.28H199.042V6.674H199.177V14H197.845ZM212.402 18.59C211.904 18.59 211.412 18.515 210.926 18.365C210.446 18.221 210.002 17.99 209.594 17.672C209.186 17.36 208.844 16.952 208.568 16.448L209.765 15.782C210.035 16.322 210.413 16.709 210.899 16.943C211.391 17.183 211.892 17.303 212.402 17.303C213.104 17.303 213.671 17.171 214.103 16.907C214.541 16.649 214.859 16.265 215.057 15.755C215.255 15.245 215.351 14.609 215.345 13.847V11.255H215.498V4.28H216.677V13.865C216.677 14.141 216.668 14.405 216.65 14.657C216.638 14.915 216.611 15.167 216.569 15.413C216.455 16.139 216.218 16.736 215.858 17.204C215.504 17.672 215.036 18.02 214.454 18.248C213.878 18.476 213.194 18.59 212.402 18.59ZM212.312 14.27C211.406 14.27 210.632 14.045 209.99 13.595C209.348 13.139 208.856 12.524 208.514 11.75C208.172 10.976 208.001 10.103 208.001 9.131C208.001 8.165 208.169 7.295 208.505 6.521C208.847 5.747 209.336 5.135 209.972 4.685C210.608 4.235 211.37 4.01 212.258 4.01C213.17 4.01 213.938 4.232 214.562 4.676C215.186 5.12 215.657 5.729 215.975 6.503C216.299 7.271 216.461 8.147 216.461 9.131C216.461 10.097 216.302 10.97 215.984 11.75C215.666 12.524 215.198 13.139 214.58 13.595C213.962 14.045 213.206 14.27 212.312 14.27ZM212.447 13.037C213.137 13.037 213.707 12.869 214.157 12.533C214.607 12.197 214.943 11.735 215.165 11.147C215.387 10.553 215.498 9.881 215.498 9.131C215.498 8.369 215.387 7.697 215.165 7.115C214.943 6.527 214.607 6.068 214.157 5.738C213.713 5.408 213.152 5.243 212.474 5.243C211.778 5.243 211.202 5.414 210.746 5.756C210.29 6.098 209.951 6.563 209.729 7.151C209.513 7.739 209.405 8.399 209.405 9.131C209.405 9.869 209.516 10.535 209.738 11.129C209.966 11.717 210.305 12.182 210.755 12.524C211.205 12.866 211.769 13.037 212.447 13.037ZM226.244 14V2.309H221.717V1.04H232.094V2.309H227.567V14H226.244ZM236.155 14.27C235.189 14.27 234.364 14.051 233.68 13.613C232.996 13.175 232.471 12.569 232.105 11.795C231.739 11.021 231.556 10.133 231.556 9.131C231.556 8.111 231.742 7.217 232.114 6.449C232.486 5.681 233.014 5.084 233.698 4.658C234.388 4.226 235.207 4.01 236.155 4.01C237.127 4.01 237.955 4.229 238.639 4.667C239.329 5.099 239.854 5.702 240.214 6.476C240.58 7.244 240.763 8.129 240.763 9.131C240.763 10.151 240.58 11.048 240.214 11.822C239.848 12.59 239.32 13.19 238.63 13.622C237.94 14.054 237.115 14.27 236.155 14.27ZM236.155 13.001C237.235 13.001 238.039 12.644 238.567 11.93C239.095 11.21 239.359 10.277 239.359 9.131C239.359 7.955 239.092 7.019 238.558 6.323C238.03 5.627 237.229 5.279 236.155 5.279C235.429 5.279 234.829 5.444 234.355 5.774C233.887 6.098 233.536 6.551 233.302 7.133C233.074 7.709 232.96 8.375 232.96 9.131C232.96 10.301 233.23 11.24 233.77 11.948C234.31 12.65 235.105 13.001 236.155 13.001ZM242.739 14L242.748 1.04H244.08V8.96L248.418 4.28H250.182L245.628 9.14L250.776 14H248.85L244.08 9.32V14H242.739ZM255.615 14.27C254.667 14.27 253.845 14.06 253.149 13.64C252.459 13.22 251.922 12.629 251.538 11.867C251.154 11.105 250.962 10.211 250.962 9.185C250.962 8.123 251.151 7.205 251.529 6.431C251.907 5.657 252.438 5.06 253.122 4.64C253.812 4.22 254.625 4.01 255.561 4.01C256.521 4.01 257.34 4.232 258.018 4.676C258.696 5.114 259.209 5.744 259.557 6.566C259.905 7.388 260.064 8.369 260.034 9.509H258.684V9.041C258.66 7.781 258.387 6.83 257.865 6.188C257.349 5.546 256.593 5.225 255.597 5.225C254.553 5.225 253.752 5.564 253.194 6.242C252.642 6.92 252.366 7.886 252.366 9.14C252.366 10.364 252.642 11.315 253.194 11.993C253.752 12.665 254.541 13.001 255.561 13.001C256.257 13.001 256.863 12.842 257.379 12.524C257.901 12.2 258.312 11.735 258.612 11.129L259.845 11.606C259.461 12.452 258.894 13.109 258.144 13.577C257.4 14.039 256.557 14.27 255.615 14.27ZM251.898 9.509V8.402H259.323V9.509H251.898ZM268.788 14V9.041C268.788 8.501 268.737 8.006 268.635 7.556C268.533 7.1 268.368 6.704 268.14 6.368C267.918 6.026 267.627 5.762 267.267 5.576C266.913 5.39 266.481 5.297 265.971 5.297C265.503 5.297 265.089 5.378 264.729 5.54C264.375 5.702 264.075 5.936 263.829 6.242C263.589 6.542 263.406 6.908 263.28 7.34C263.154 7.772 263.091 8.264 263.091 8.816L262.155 8.609C262.155 7.613 262.329 6.776 262.677 6.098C263.025 5.42 263.505 4.907 264.117 4.559C264.729 4.211 265.431 4.037 266.223 4.037C266.805 4.037 267.312 4.127 267.744 4.307C268.182 4.487 268.551 4.73 268.851 5.036C269.157 5.342 269.403 5.693 269.589 6.089C269.775 6.479 269.91 6.896 269.994 7.34C270.078 7.778 270.12 8.216 270.12 8.654V14H268.788ZM261.759 14V4.28H262.956V6.674H263.091V14H261.759ZM276.082 14.261C274.942 14.261 274.003 14.015 273.265 13.523C272.533 13.031 272.083 12.347 271.915 11.471L273.265 11.246C273.409 11.798 273.736 12.239 274.246 12.569C274.762 12.893 275.398 13.055 276.154 13.055C276.892 13.055 277.474 12.902 277.9 12.596C278.326 12.284 278.539 11.861 278.539 11.327C278.539 11.027 278.47 10.784 278.332 10.598C278.2 10.406 277.927 10.229 277.513 10.067C277.099 9.905 276.481 9.713 275.659 9.491C274.777 9.251 274.087 9.011 273.589 8.771C273.091 8.531 272.737 8.255 272.527 7.943C272.317 7.625 272.212 7.238 272.212 6.782C272.212 6.23 272.368 5.747 272.68 5.333C272.992 4.913 273.424 4.589 273.976 4.361C274.528 4.127 275.17 4.01 275.902 4.01C276.634 4.01 277.288 4.13 277.864 4.37C278.446 4.604 278.914 4.934 279.268 5.36C279.622 5.786 279.832 6.281 279.898 6.845L278.548 7.088C278.458 6.518 278.173 6.068 277.693 5.738C277.219 5.402 276.616 5.228 275.884 5.216C275.194 5.198 274.633 5.33 274.201 5.612C273.769 5.888 273.553 6.257 273.553 6.719C273.553 6.977 273.631 7.199 273.787 7.385C273.943 7.565 274.225 7.736 274.633 7.898C275.047 8.06 275.635 8.237 276.397 8.429C277.291 8.657 277.993 8.897 278.503 9.149C279.013 9.401 279.376 9.698 279.592 10.04C279.808 10.382 279.916 10.805 279.916 11.309C279.916 12.227 279.574 12.95 278.89 13.478C278.212 14 277.276 14.261 276.082 14.261ZM282.164 14V12.461H283.703V14H282.164ZM290.086 14V1.04H295.09C295.816 1.04 296.449 1.19 296.989 1.49C297.529 1.79 297.949 2.195 298.249 2.705C298.549 3.209 298.699 3.767 298.699 4.379C298.699 5.075 298.513 5.696 298.141 6.242C297.769 6.782 297.271 7.157 296.647 7.367L296.629 6.926C297.469 7.166 298.129 7.586 298.609 8.186C299.089 8.786 299.329 9.512 299.329 10.364C299.329 11.114 299.17 11.762 298.852 12.308C298.534 12.848 298.087 13.265 297.511 13.559C296.935 13.853 296.266 14 295.504 14H290.086ZM291.418 12.731H295.18C295.708 12.731 296.182 12.638 296.602 12.452C297.022 12.26 297.352 11.99 297.592 11.642C297.838 11.294 297.961 10.874 297.961 10.382C297.961 9.902 297.85 9.47 297.628 9.086C297.406 8.702 297.103 8.396 296.719 8.168C296.341 7.934 295.909 7.817 295.423 7.817H291.418V12.731ZM291.418 6.566H295.081C295.495 6.566 295.873 6.473 296.215 6.287C296.557 6.095 296.827 5.834 297.025 5.504C297.229 5.174 297.331 4.793 297.331 4.361C297.331 3.749 297.118 3.251 296.692 2.867C296.272 2.483 295.735 2.291 295.081 2.291H291.418V6.566ZM305.238 14.27C304.29 14.27 303.468 14.06 302.772 13.64C302.082 13.22 301.545 12.629 301.161 11.867C300.777 11.105 300.585 10.211 300.585 9.185C300.585 8.123 300.774 7.205 301.152 6.431C301.53 5.657 302.061 5.06 302.745 4.64C303.435 4.22 304.248 4.01 305.184 4.01C306.144 4.01 306.963 4.232 307.641 4.676C308.319 5.114 308.832 5.744 309.18 6.566C309.528 7.388 309.687 8.369 309.657 9.509H308.307V9.041C308.283 7.781 308.01 6.83 307.488 6.188C306.972 5.546 306.216 5.225 305.22 5.225C304.176 5.225 303.375 5.564 302.817 6.242C302.265 6.92 301.989 7.886 301.989 9.14C301.989 10.364 302.265 11.315 302.817 11.993C303.375 12.665 304.164 13.001 305.184 13.001C305.88 13.001 306.486 12.842 307.002 12.524C307.524 12.2 307.935 11.735 308.235 11.129L309.468 11.606C309.084 12.452 308.517 13.109 307.767 13.577C307.023 14.039 306.18 14.27 305.238 14.27ZM301.521 9.509V8.402H308.946V9.509H301.521ZM315.687 14.27C314.709 14.27 313.881 14.051 313.203 13.613C312.525 13.175 312.009 12.572 311.655 11.804C311.307 11.03 311.127 10.142 311.115 9.14C311.127 8.12 311.313 7.226 311.673 6.458C312.033 5.684 312.552 5.084 313.23 4.658C313.908 4.226 314.73 4.01 315.696 4.01C316.68 4.01 317.535 4.25 318.261 4.73C318.993 5.21 319.494 5.867 319.764 6.701L318.468 7.115C318.24 6.533 317.877 6.083 317.379 5.765C316.887 5.441 316.323 5.279 315.687 5.279C314.973 5.279 314.382 5.444 313.914 5.774C313.446 6.098 313.098 6.551 312.87 7.133C312.642 7.715 312.525 8.384 312.519 9.14C312.531 10.304 312.801 11.24 313.329 11.948C313.857 12.65 314.643 13.001 315.687 13.001C316.347 13.001 316.908 12.851 317.37 12.551C317.838 12.245 318.192 11.801 318.432 11.219L319.764 11.615C319.404 12.479 318.876 13.139 318.18 13.595C317.484 14.045 316.653 14.27 315.687 14.27ZM325.417 14.27C324.451 14.27 323.626 14.051 322.942 13.613C322.258 13.175 321.733 12.569 321.367 11.795C321.001 11.021 320.818 10.133 320.818 9.131C320.818 8.111 321.004 7.217 321.376 6.449C321.748 5.681 322.276 5.084 322.96 4.658C323.65 4.226 324.469 4.01 325.417 4.01C326.389 4.01 327.217 4.229 327.901 4.667C328.591 5.099 329.116 5.702 329.476 6.476C329.842 7.244 330.025 8.129 330.025 9.131C330.025 10.151 329.842 11.048 329.476 11.822C329.11 12.59 328.582 13.19 327.892 13.622C327.202 14.054 326.377 14.27 325.417 14.27ZM325.417 13.001C326.497 13.001 327.301 12.644 327.829 11.93C328.357 11.21 328.621 10.277 328.621 9.131C328.621 7.955 328.354 7.019 327.82 6.323C327.292 5.627 326.491 5.279 325.417 5.279C324.691 5.279 324.091 5.444 323.617 5.774C323.149 6.098 322.798 6.551 322.564 7.133C322.336 7.709 322.222 8.375 322.222 9.131C322.222 10.301 322.492 11.24 323.032 11.948C323.572 12.65 324.367 13.001 325.417 13.001ZM343.602 14L343.611 7.619C343.611 6.869 343.401 6.281 342.981 5.855C342.567 5.423 342.039 5.207 341.397 5.207C341.031 5.207 340.674 5.291 340.326 5.459C339.978 5.627 339.69 5.897 339.462 6.269C339.24 6.641 339.129 7.127 339.129 7.727L338.346 7.502C338.328 6.806 338.463 6.197 338.751 5.675C339.045 5.153 339.447 4.748 339.957 4.46C340.473 4.166 341.055 4.019 341.703 4.019C342.681 4.019 343.464 4.322 344.052 4.928C344.64 5.528 344.934 6.341 344.934 7.367L344.925 14H343.602ZM332.001 14V4.28H333.189V6.674H333.333V14H332.001ZM337.815 14L337.824 7.709C337.824 6.935 337.617 6.326 337.203 5.882C336.795 5.432 336.255 5.207 335.583 5.207C334.911 5.207 334.368 5.438 333.954 5.9C333.54 6.356 333.333 6.965 333.333 7.727L332.541 7.295C332.541 6.671 332.688 6.113 332.982 5.621C333.276 5.123 333.678 4.733 334.188 4.451C334.698 4.163 335.277 4.019 335.925 4.019C336.543 4.019 337.092 4.151 337.572 4.415C338.058 4.679 338.439 5.063 338.715 5.567C338.991 6.071 339.129 6.683 339.129 7.403L339.12 14H337.815ZM351.311 14.27C350.363 14.27 349.541 14.06 348.845 13.64C348.155 13.22 347.618 12.629 347.234 11.867C346.85 11.105 346.658 10.211 346.658 9.185C346.658 8.123 346.847 7.205 347.225 6.431C347.603 5.657 348.134 5.06 348.818 4.64C349.508 4.22 350.321 4.01 351.257 4.01C352.217 4.01 353.036 4.232 353.714 4.676C354.392 5.114 354.905 5.744 355.253 6.566C355.601 7.388 355.76 8.369 355.73 9.509H354.38V9.041C354.356 7.781 354.083 6.83 353.561 6.188C353.045 5.546 352.289 5.225 351.293 5.225C350.249 5.225 349.448 5.564 348.89 6.242C348.338 6.92 348.062 7.886 348.062 9.14C348.062 10.364 348.338 11.315 348.89 11.993C349.448 12.665 350.237 13.001 351.257 13.001C351.953 13.001 352.559 12.842 353.075 12.524C353.597 12.2 354.008 11.735 354.308 11.129L355.541 11.606C355.157 12.452 354.59 13.109 353.84 13.577C353.096 14.039 352.253 14.27 351.311 14.27ZM347.594 9.509V8.402H355.019V9.509H347.594ZM366.622 14C366.076 14.114 365.536 14.159 365.002 14.135C364.474 14.111 364 13.997 363.58 13.793C363.166 13.589 362.851 13.271 362.635 12.839C362.461 12.479 362.365 12.116 362.347 11.75C362.335 11.378 362.329 10.955 362.329 10.481V1.58H363.643V10.427C363.643 10.835 363.646 11.177 363.652 11.453C363.664 11.723 363.727 11.963 363.841 12.173C364.057 12.575 364.399 12.815 364.867 12.893C365.341 12.971 365.926 12.953 366.622 12.839V14ZM360.25 5.414V4.28H366.622V5.414H360.25ZM375.557 14V9.041C375.557 8.501 375.506 8.006 375.404 7.556C375.302 7.1 375.137 6.704 374.909 6.368C374.687 6.026 374.396 5.762 374.036 5.576C373.682 5.39 373.25 5.297 372.74 5.297C372.272 5.297 371.858 5.378 371.498 5.54C371.144 5.702 370.844 5.936 370.598 6.242C370.358 6.542 370.175 6.908 370.049 7.34C369.923 7.772 369.86 8.264 369.86 8.816L368.924 8.609C368.924 7.613 369.098 6.776 369.446 6.098C369.794 5.42 370.274 4.907 370.886 4.559C371.498 4.211 372.2 4.037 372.992 4.037C373.574 4.037 374.081 4.127 374.513 4.307C374.951 4.487 375.32 4.73 375.62 5.036C375.926 5.342 376.172 5.693 376.358 6.089C376.544 6.479 376.679 6.896 376.763 7.34C376.847 7.778 376.889 8.216 376.889 8.654V14H375.557ZM368.528 14V1.04H369.725V8.357H369.86V14H368.528ZM383.338 14.27C382.39 14.27 381.568 14.06 380.872 13.64C380.182 13.22 379.645 12.629 379.261 11.867C378.877 11.105 378.685 10.211 378.685 9.185C378.685 8.123 378.874 7.205 379.252 6.431C379.63 5.657 380.161 5.06 380.845 4.64C381.535 4.22 382.348 4.01 383.284 4.01C384.244 4.01 385.063 4.232 385.741 4.676C386.419 5.114 386.932 5.744 387.28 6.566C387.628 7.388 387.787 8.369 387.757 9.509H386.407V9.041C386.383 7.781 386.11 6.83 385.588 6.188C385.072 5.546 384.316 5.225 383.32 5.225C382.276 5.225 381.475 5.564 380.917 6.242C380.365 6.92 380.089 7.886 380.089 9.14C380.089 10.364 380.365 11.315 380.917 11.993C381.475 12.665 382.264 13.001 383.284 13.001C383.98 13.001 384.586 12.842 385.102 12.524C385.624 12.2 386.035 11.735 386.335 11.129L387.568 11.606C387.184 12.452 386.617 13.109 385.867 13.577C385.123 14.039 384.28 14.27 383.338 14.27ZM379.621 9.509V8.402H387.046V9.509H379.621ZM0.372305 40V27.04H7.81531V28.363H1.6953V32.863H6.73531V34.177H1.6953V40H0.372305ZM11.8721 40.27C11.1401 40.27 10.5251 40.138 10.0271 39.874C9.53505 39.61 9.16605 39.259 8.92005 38.821C8.67405 38.383 8.55105 37.906 8.55105 37.39C8.55105 36.862 8.65605 36.412 8.86605 36.04C9.08205 35.662 9.37305 35.353 9.73905 35.113C10.1111 34.873 10.5401 34.69 11.0261 34.564C11.5181 34.444 12.0611 34.339 12.6551 34.249C13.2551 34.153 13.8401 34.072 14.4101 34.006C14.9861 33.934 15.4901 33.865 15.9221 33.799L15.4541 34.087C15.4721 33.127 15.2861 32.416 14.8961 31.954C14.5061 31.492 13.8281 31.261 12.8621 31.261C12.1961 31.261 11.6321 31.411 11.1701 31.711C10.7141 32.011 10.3931 32.485 10.2071 33.133L8.92005 32.755C9.14205 31.885 9.58905 31.21 10.2611 30.73C10.9331 30.25 11.8061 30.01 12.8801 30.01C13.7681 30.01 14.5211 30.178 15.1391 30.514C15.7631 30.844 16.2041 31.324 16.4621 31.954C16.5821 32.236 16.6601 32.551 16.6961 32.899C16.7321 33.247 16.7501 33.601 16.7501 33.961V40H15.5711V37.561L15.9131 37.705C15.5831 38.539 15.0701 39.175 14.3741 39.613C13.6781 40.051 12.8441 40.27 11.8721 40.27ZM12.0251 39.127C12.6431 39.127 13.1831 39.016 13.6451 38.794C14.1071 38.572 14.4791 38.269 14.7611 37.885C15.0431 37.495 15.2261 37.057 15.3101 36.571C15.3821 36.259 15.4211 35.917 15.4271 35.545C15.4331 35.167 15.4361 34.885 15.4361 34.699L15.9401 34.96C15.4901 35.02 15.0011 35.08 14.4731 35.14C13.9511 35.2 13.4351 35.269 12.9251 35.347C12.4211 35.425 11.9651 35.518 11.5571 35.626C11.2811 35.704 11.0141 35.815 10.7561 35.959C10.4981 36.097 10.2851 36.283 10.1171 36.517C9.95505 36.751 9.87405 37.042 9.87405 37.39C9.87405 37.672 9.94305 37.945 10.0811 38.209C10.2251 38.473 10.4531 38.692 10.7651 38.866C11.0831 39.04 11.5031 39.127 12.0251 39.127ZM19.093 40V30.28H20.281V32.62L20.047 32.314C20.155 32.026 20.296 31.762 20.47 31.522C20.644 31.276 20.833 31.075 21.037 30.919C21.289 30.697 21.583 30.529 21.919 30.415C22.255 30.295 22.594 30.226 22.936 30.208C23.278 30.184 23.59 30.208 23.872 30.28V31.522C23.518 31.432 23.131 31.411 22.711 31.459C22.291 31.507 21.904 31.675 21.55 31.963C21.226 32.215 20.983 32.518 20.821 32.872C20.659 33.22 20.551 33.592 20.497 33.988C20.443 34.378 20.416 34.765 20.416 35.149V40H19.093ZM37.1713 40L37.1803 33.619C37.1803 32.869 36.9703 32.281 36.5503 31.855C36.1363 31.423 35.6083 31.207 34.9663 31.207C34.6003 31.207 34.2433 31.291 33.8953 31.459C33.5473 31.627 33.2593 31.897 33.0313 32.269C32.8093 32.641 32.6983 33.127 32.6983 33.727L31.9153 33.502C31.8973 32.806 32.0323 32.197 32.3203 31.675C32.6143 31.153 33.0163 30.748 33.5263 30.46C34.0423 30.166 34.6243 30.019 35.2723 30.019C36.2503 30.019 37.0333 30.322 37.6213 30.928C38.2093 31.528 38.5033 32.341 38.5033 33.367L38.4943 40H37.1713ZM25.5703 40V30.28H26.7583V32.674H26.9023V40H25.5703ZM31.3843 40L31.3933 33.709C31.3933 32.935 31.1863 32.326 30.7723 31.882C30.3643 31.432 29.8243 31.207 29.1523 31.207C28.4803 31.207 27.9373 31.438 27.5233 31.9C27.1093 32.356 26.9023 32.965 26.9023 33.727L26.1103 33.295C26.1103 32.671 26.2573 32.113 26.5513 31.621C26.8453 31.123 27.2473 30.733 27.7573 30.451C28.2673 30.163 28.8463 30.019 29.4943 30.019C30.1123 30.019 30.6613 30.151 31.1413 30.415C31.6273 30.679 32.0083 31.063 32.2843 31.567C32.5603 32.071 32.6983 32.683 32.6983 33.403L32.6893 40H31.3843ZM41.0171 28.435V26.95H42.3401V28.435H41.0171ZM41.0171 40V30.28H42.3401V40H41.0171ZM52.0583 40V35.041C52.0583 34.501 52.0073 34.006 51.9053 33.556C51.8033 33.1 51.6383 32.704 51.4103 32.368C51.1883 32.026 50.8973 31.762 50.5373 31.576C50.1833 31.39 49.7513 31.297 49.2413 31.297C48.7733 31.297 48.3593 31.378 47.9993 31.54C47.6453 31.702 47.3453 31.936 47.0993 32.242C46.8593 32.542 46.6763 32.908 46.5503 33.34C46.4243 33.772 46.3613 34.264 46.3613 34.816L45.4253 34.609C45.4253 33.613 45.5993 32.776 45.9473 32.098C46.2953 31.42 46.7753 30.907 47.3873 30.559C47.9993 30.211 48.7013 30.037 49.4933 30.037C50.0753 30.037 50.5823 30.127 51.0143 30.307C51.4523 30.487 51.8213 30.73 52.1213 31.036C52.4273 31.342 52.6733 31.693 52.8593 32.089C53.0453 32.479 53.1803 32.896 53.2643 33.34C53.3483 33.778 53.3903 34.216 53.3903 34.654V40H52.0583ZM45.0293 40V30.28H46.2263V32.674H46.3613V40H45.0293ZM59.5868 44.59C59.0888 44.59 58.5968 44.515 58.1108 44.365C57.6308 44.221 57.1868 43.99 56.7788 43.672C56.3708 43.36 56.0288 42.952 55.7528 42.448L56.9498 41.782C57.2198 42.322 57.5978 42.709 58.0838 42.943C58.5758 43.183 59.0768 43.303 59.5868 43.303C60.2888 43.303 60.8558 43.171 61.2878 42.907C61.7258 42.649 62.0438 42.265 62.2418 41.755C62.4398 41.245 62.5358 40.609 62.5298 39.847V37.255H62.6828V30.28H63.8618V39.865C63.8618 40.141 63.8528 40.405 63.8348 40.657C63.8228 40.915 63.7958 41.167 63.7538 41.413C63.6398 42.139 63.4028 42.736 63.0428 43.204C62.6888 43.672 62.2208 44.02 61.6388 44.248C61.0628 44.476 60.3788 44.59 59.5868 44.59ZM59.4968 40.27C58.5908 40.27 57.8168 40.045 57.1748 39.595C56.5328 39.139 56.0408 38.524 55.6988 37.75C55.3568 36.976 55.1858 36.103 55.1858 35.131C55.1858 34.165 55.3538 33.295 55.6898 32.521C56.0318 31.747 56.5208 31.135 57.1568 30.685C57.7928 30.235 58.5548 30.01 59.4428 30.01C60.3548 30.01 61.1228 30.232 61.7468 30.676C62.3708 31.12 62.8418 31.729 63.1598 32.503C63.4838 33.271 63.6458 34.147 63.6458 35.131C63.6458 36.097 63.4868 36.97 63.1688 37.75C62.8508 38.524 62.3828 39.139 61.7648 39.595C61.1468 40.045 60.3908 40.27 59.4968 40.27ZM59.6318 39.037C60.3218 39.037 60.8918 38.869 61.3418 38.533C61.7918 38.197 62.1278 37.735 62.3498 37.147C62.5718 36.553 62.6828 35.881 62.6828 35.131C62.6828 34.369 62.5718 33.697 62.3498 33.115C62.1278 32.527 61.7918 32.068 61.3418 31.738C60.8978 31.408 60.3368 31.243 59.6588 31.243C58.9628 31.243 58.3868 31.414 57.9308 31.756C57.4748 32.098 57.1358 32.563 56.9138 33.151C56.6978 33.739 56.5898 34.399 56.5898 35.131C56.5898 35.869 56.7008 36.535 56.9228 37.129C57.1508 37.717 57.4898 38.182 57.9398 38.524C58.3898 38.866 58.9538 39.037 59.6318 39.037ZM70.1617 40V27.04H71.4847V38.731H77.6407V40H70.1617ZM83.288 40.27C82.34 40.27 81.518 40.06 80.822 39.64C80.132 39.22 79.595 38.629 79.211 37.867C78.827 37.105 78.635 36.211 78.635 35.185C78.635 34.123 78.824 33.205 79.202 32.431C79.58 31.657 80.111 31.06 80.795 30.64C81.485 30.22 82.298 30.01 83.234 30.01C84.194 30.01 85.013 30.232 85.691 30.676C86.369 31.114 86.882 31.744 87.23 32.566C87.578 33.388 87.737 34.369 87.707 35.509H86.357V35.041C86.333 33.781 86.06 32.83 85.538 32.188C85.022 31.546 84.266 31.225 83.27 31.225C82.226 31.225 81.425 31.564 80.867 32.242C80.315 32.92 80.039 33.886 80.039 35.14C80.039 36.364 80.315 37.315 80.867 37.993C81.425 38.665 82.214 39.001 83.234 39.001C83.93 39.001 84.536 38.842 85.052 38.524C85.574 38.2 85.985 37.735 86.285 37.129L87.518 37.606C87.134 38.452 86.567 39.109 85.817 39.577C85.073 40.039 84.23 40.27 83.288 40.27ZM79.571 35.509V34.402H86.996V35.509H79.571ZM92.3096 40.27C91.5776 40.27 90.9626 40.138 90.4646 39.874C89.9726 39.61 89.6036 39.259 89.3576 38.821C89.1116 38.383 88.9886 37.906 88.9886 37.39C88.9886 36.862 89.0936 36.412 89.3036 36.04C89.5196 35.662 89.8106 35.353 90.1766 35.113C90.5486 34.873 90.9776 34.69 91.4636 34.564C91.9556 34.444 92.4986 34.339 93.0926 34.249C93.6926 34.153 94.2776 34.072 94.8476 34.006C95.4236 33.934 95.9276 33.865 96.3596 33.799L95.8916 34.087C95.9096 33.127 95.7236 32.416 95.3336 31.954C94.9436 31.492 94.2656 31.261 93.2996 31.261C92.6336 31.261 92.0696 31.411 91.6076 31.711C91.1516 32.011 90.8306 32.485 90.6446 33.133L89.3576 32.755C89.5796 31.885 90.0266 31.21 90.6986 30.73C91.3706 30.25 92.2436 30.01 93.3176 30.01C94.2056 30.01 94.9586 30.178 95.5766 30.514C96.2006 30.844 96.6416 31.324 96.8996 31.954C97.0196 32.236 97.0976 32.551 97.1336 32.899C97.1696 33.247 97.1876 33.601 97.1876 33.961V40H96.0086V37.561L96.3506 37.705C96.0206 38.539 95.5076 39.175 94.8116 39.613C94.1156 40.051 93.2816 40.27 92.3096 40.27ZM92.4626 39.127C93.0806 39.127 93.6206 39.016 94.0826 38.794C94.5446 38.572 94.9166 38.269 95.1986 37.885C95.4806 37.495 95.6636 37.057 95.7476 36.571C95.8196 36.259 95.8586 35.917 95.8646 35.545C95.8706 35.167 95.8736 34.885 95.8736 34.699L96.3776 34.96C95.9276 35.02 95.4386 35.08 94.9106 35.14C94.3886 35.2 93.8726 35.269 93.3626 35.347C92.8586 35.425 92.4026 35.518 91.9946 35.626C91.7186 35.704 91.4516 35.815 91.1936 35.959C90.9356 36.097 90.7226 36.283 90.5546 36.517C90.3926 36.751 90.3116 37.042 90.3116 37.39C90.3116 37.672 90.3806 37.945 90.5186 38.209C90.6626 38.473 90.8906 38.692 91.2026 38.866C91.5206 39.04 91.9406 39.127 92.4626 39.127ZM103.302 40.27C102.396 40.27 101.622 40.045 100.98 39.595C100.338 39.139 99.8455 38.524 99.5035 37.75C99.1615 36.976 98.9905 36.103 98.9905 35.131C98.9905 34.165 99.1585 33.295 99.4945 32.521C99.8365 31.747 100.326 31.135 100.962 30.685C101.598 30.235 102.36 30.01 103.248 30.01C104.16 30.01 104.928 30.232 105.552 30.676C106.176 31.12 106.647 31.729 106.965 32.503C107.289 33.271 107.451 34.147 107.451 35.131C107.451 36.097 107.292 36.97 106.974 37.75C106.656 38.524 106.188 39.139 105.57 39.595C104.952 40.045 104.196 40.27 103.302 40.27ZM103.437 39.037C104.127 39.037 104.697 38.869 105.147 38.533C105.597 38.197 105.933 37.735 106.155 37.147C106.377 36.553 106.488 35.881 106.488 35.131C106.488 34.369 106.377 33.697 106.155 33.115C105.933 32.527 105.597 32.068 105.147 31.738C104.703 31.408 104.142 31.243 103.464 31.243C102.768 31.243 102.192 31.414 101.736 31.756C101.28 32.098 100.941 32.563 100.719 33.151C100.503 33.739 100.395 34.399 100.395 35.131C100.395 35.869 100.506 36.535 100.728 37.129C100.956 37.717 101.295 38.182 101.745 38.524C102.195 38.866 102.759 39.037 103.437 39.037ZM106.488 40V32.683H106.344V27.04H107.676V40H106.488ZM114.313 40.27C113.365 40.27 112.543 40.06 111.847 39.64C111.157 39.22 110.62 38.629 110.236 37.867C109.852 37.105 109.66 36.211 109.66 35.185C109.66 34.123 109.849 33.205 110.227 32.431C110.605 31.657 111.136 31.06 111.82 30.64C112.51 30.22 113.323 30.01 114.259 30.01C115.219 30.01 116.038 30.232 116.716 30.676C117.394 31.114 117.907 31.744 118.255 32.566C118.603 33.388 118.762 34.369 118.732 35.509H117.382V35.041C117.358 33.781 117.085 32.83 116.563 32.188C116.047 31.546 115.291 31.225 114.295 31.225C113.251 31.225 112.45 31.564 111.892 32.242C111.34 32.92 111.064 33.886 111.064 35.14C111.064 36.364 111.34 37.315 111.892 37.993C112.45 38.665 113.239 39.001 114.259 39.001C114.955 39.001 115.561 38.842 116.077 38.524C116.599 38.2 117.01 37.735 117.31 37.129L118.543 37.606C118.159 38.452 117.592 39.109 116.842 39.577C116.098 40.039 115.255 40.27 114.313 40.27ZM110.596 35.509V34.402H118.021V35.509H110.596ZM120.73 40V30.28H121.918V32.62L121.684 32.314C121.792 32.026 121.933 31.762 122.107 31.522C122.281 31.276 122.47 31.075 122.674 30.919C122.926 30.697 123.22 30.529 123.556 30.415C123.892 30.295 124.231 30.226 124.573 30.208C124.915 30.184 125.227 30.208 125.509 30.28V31.522C125.155 31.432 124.768 31.411 124.348 31.459C123.928 31.507 123.541 31.675 123.187 31.963C122.863 32.215 122.62 32.518 122.458 32.872C122.296 33.22 122.188 33.592 122.134 33.988C122.08 34.378 122.053 34.765 122.053 35.149V40H120.73ZM133.601 40.27C132.869 40.27 132.254 40.138 131.756 39.874C131.264 39.61 130.895 39.259 130.649 38.821C130.403 38.383 130.28 37.906 130.28 37.39C130.28 36.862 130.385 36.412 130.595 36.04C130.811 35.662 131.102 35.353 131.468 35.113C131.84 34.873 132.269 34.69 132.755 34.564C133.247 34.444 133.79 34.339 134.384 34.249C134.984 34.153 135.569 34.072 136.139 34.006C136.715 33.934 137.219 33.865 137.651 33.799L137.183 34.087C137.201 33.127 137.015 32.416 136.625 31.954C136.235 31.492 135.557 31.261 134.591 31.261C133.925 31.261 133.361 31.411 132.899 31.711C132.443 32.011 132.122 32.485 131.936 33.133L130.649 32.755C130.871 31.885 131.318 31.21 131.99 30.73C132.662 30.25 133.535 30.01 134.609 30.01C135.497 30.01 136.25 30.178 136.868 30.514C137.492 30.844 137.933 31.324 138.191 31.954C138.311 32.236 138.389 32.551 138.425 32.899C138.461 33.247 138.479 33.601 138.479 33.961V40H137.3V37.561L137.642 37.705C137.312 38.539 136.799 39.175 136.103 39.613C135.407 40.051 134.573 40.27 133.601 40.27ZM133.754 39.127C134.372 39.127 134.912 39.016 135.374 38.794C135.836 38.572 136.208 38.269 136.49 37.885C136.772 37.495 136.955 37.057 137.039 36.571C137.111 36.259 137.15 35.917 137.156 35.545C137.162 35.167 137.165 34.885 137.165 34.699L137.669 34.96C137.219 35.02 136.73 35.08 136.202 35.14C135.68 35.2 135.164 35.269 134.654 35.347C134.15 35.425 133.694 35.518 133.286 35.626C133.01 35.704 132.743 35.815 132.485 35.959C132.227 36.097 132.014 36.283 131.846 36.517C131.684 36.751 131.603 37.042 131.603 37.39C131.603 37.672 131.672 37.945 131.81 38.209C131.954 38.473 132.182 38.692 132.494 38.866C132.812 39.04 133.232 39.127 133.754 39.127ZM152.414 40L152.423 33.619C152.423 32.869 152.213 32.281 151.793 31.855C151.379 31.423 150.851 31.207 150.209 31.207C149.843 31.207 149.486 31.291 149.138 31.459C148.79 31.627 148.502 31.897 148.274 32.269C148.052 32.641 147.941 33.127 147.941 33.727L147.158 33.502C147.14 32.806 147.275 32.197 147.563 31.675C147.857 31.153 148.259 30.748 148.769 30.46C149.285 30.166 149.867 30.019 150.515 30.019C151.493 30.019 152.276 30.322 152.864 30.928C153.452 31.528 153.746 32.341 153.746 33.367L153.737 40H152.414ZM140.813 40V30.28H142.001V32.674H142.145V40H140.813ZM146.627 40L146.636 33.709C146.636 32.935 146.429 32.326 146.015 31.882C145.607 31.432 145.067 31.207 144.395 31.207C143.723 31.207 143.18 31.438 142.766 31.9C142.352 32.356 142.145 32.965 142.145 33.727L141.353 33.295C141.353 32.671 141.5 32.113 141.794 31.621C142.088 31.123 142.49 30.733 143 30.451C143.51 30.163 144.089 30.019 144.737 30.019C145.355 30.019 145.904 30.151 146.384 30.415C146.87 30.679 147.251 31.063 147.527 31.567C147.803 32.071 147.941 32.683 147.941 33.403L147.932 40H146.627ZM160.068 40.27C159.102 40.27 158.277 40.051 157.593 39.613C156.909 39.175 156.384 38.569 156.018 37.795C155.652 37.021 155.469 36.133 155.469 35.131C155.469 34.111 155.655 33.217 156.027 32.449C156.399 31.681 156.927 31.084 157.611 30.658C158.301 30.226 159.12 30.01 160.068 30.01C161.04 30.01 161.868 30.229 162.552 30.667C163.242 31.099 163.767 31.702 164.127 32.476C164.493 33.244 164.676 34.129 164.676 35.131C164.676 36.151 164.493 37.048 164.127 37.822C163.761 38.59 163.233 39.19 162.543 39.622C161.853 40.054 161.028 40.27 160.068 40.27ZM160.068 39.001C161.148 39.001 161.952 38.644 162.48 37.93C163.008 37.21 163.272 36.277 163.272 35.131C163.272 33.955 163.005 33.019 162.471 32.323C161.943 31.627 161.142 31.279 160.068 31.279C159.342 31.279 158.742 31.444 158.268 31.774C157.8 32.098 157.449 32.551 157.215 33.133C156.987 33.709 156.873 34.375 156.873 35.131C156.873 36.301 157.143 37.24 157.683 37.948C158.223 38.65 159.018 39.001 160.068 39.001ZM173.681 40V35.041C173.681 34.501 173.63 34.006 173.528 33.556C173.426 33.1 173.261 32.704 173.033 32.368C172.811 32.026 172.52 31.762 172.16 31.576C171.806 31.39 171.374 31.297 170.864 31.297C170.396 31.297 169.982 31.378 169.622 31.54C169.268 31.702 168.968 31.936 168.722 32.242C168.482 32.542 168.299 32.908 168.173 33.34C168.047 33.772 167.984 34.264 167.984 34.816L167.048 34.609C167.048 33.613 167.222 32.776 167.57 32.098C167.918 31.42 168.398 30.907 169.01 30.559C169.622 30.211 170.324 30.037 171.116 30.037C171.698 30.037 172.205 30.127 172.637 30.307C173.075 30.487 173.444 30.73 173.744 31.036C174.05 31.342 174.296 31.693 174.482 32.089C174.668 32.479 174.803 32.896 174.887 33.34C174.971 33.778 175.013 34.216 175.013 34.654V40H173.681ZM166.652 40V30.28H167.849V32.674H167.984V40H166.652ZM181.21 44.59C180.712 44.59 180.22 44.515 179.734 44.365C179.254 44.221 178.81 43.99 178.402 43.672C177.994 43.36 177.652 42.952 177.376 42.448L178.573 41.782C178.843 42.322 179.221 42.709 179.707 42.943C180.199 43.183 180.7 43.303 181.21 43.303C181.912 43.303 182.479 43.171 182.911 42.907C183.349 42.649 183.667 42.265 183.865 41.755C184.063 41.245 184.159 40.609 184.153 39.847V37.255H184.306V30.28H185.485V39.865C185.485 40.141 185.476 40.405 185.458 40.657C185.446 40.915 185.419 41.167 185.377 41.413C185.263 42.139 185.026 42.736 184.666 43.204C184.312 43.672 183.844 44.02 183.262 44.248C182.686 44.476 182.002 44.59 181.21 44.59ZM181.12 40.27C180.214 40.27 179.44 40.045 178.798 39.595C178.156 39.139 177.664 38.524 177.322 37.75C176.98 36.976 176.809 36.103 176.809 35.131C176.809 34.165 176.977 33.295 177.313 32.521C177.655 31.747 178.144 31.135 178.78 30.685C179.416 30.235 180.178 30.01 181.066 30.01C181.978 30.01 182.746 30.232 183.37 30.676C183.994 31.12 184.465 31.729 184.783 32.503C185.107 33.271 185.269 34.147 185.269 35.131C185.269 36.097 185.11 36.97 184.792 37.75C184.474 38.524 184.006 39.139 183.388 39.595C182.77 40.045 182.014 40.27 181.12 40.27ZM181.255 39.037C181.945 39.037 182.515 38.869 182.965 38.533C183.415 38.197 183.751 37.735 183.973 37.147C184.195 36.553 184.306 35.881 184.306 35.131C184.306 34.369 184.195 33.697 183.973 33.115C183.751 32.527 183.415 32.068 182.965 31.738C182.521 31.408 181.96 31.243 181.282 31.243C180.586 31.243 180.01 31.414 179.554 31.756C179.098 32.098 178.759 32.563 178.537 33.151C178.321 33.739 178.213 34.399 178.213 35.131C178.213 35.869 178.324 36.535 178.546 37.129C178.774 37.717 179.113 38.182 179.563 38.524C180.013 38.866 180.577 39.037 181.255 39.037ZM192.991 44.32L194.872 39.217L194.899 40.729L190.642 30.28H192.046L195.538 39.019H194.962L198.184 30.28H199.534L194.314 44.32H192.991ZM204.804 40.27C203.838 40.27 203.013 40.051 202.329 39.613C201.645 39.175 201.12 38.569 200.754 37.795C200.388 37.021 200.205 36.133 200.205 35.131C200.205 34.111 200.391 33.217 200.763 32.449C201.135 31.681 201.663 31.084 202.347 30.658C203.037 30.226 203.856 30.01 204.804 30.01C205.776 30.01 206.604 30.229 207.288 30.667C207.978 31.099 208.503 31.702 208.863 32.476C209.229 33.244 209.412 34.129 209.412 35.131C209.412 36.151 209.229 37.048 208.863 37.822C208.497 38.59 207.969 39.19 207.279 39.622C206.589 40.054 205.764 40.27 204.804 40.27ZM204.804 39.001C205.884 39.001 206.688 38.644 207.216 37.93C207.744 37.21 208.008 36.277 208.008 35.131C208.008 33.955 207.741 33.019 207.207 32.323C206.679 31.627 205.878 31.279 204.804 31.279C204.078 31.279 203.478 31.444 203.004 31.774C202.536 32.098 202.185 32.551 201.951 33.133C201.723 33.709 201.609 34.375 201.609 35.131C201.609 36.301 201.879 37.24 202.419 37.948C202.959 38.65 203.754 39.001 204.804 39.001ZM215.115 40.243C214.533 40.243 214.023 40.153 213.585 39.973C213.153 39.793 212.784 39.55 212.478 39.244C212.178 38.938 211.935 38.59 211.749 38.2C211.563 37.804 211.428 37.387 211.344 36.949C211.26 36.505 211.218 36.064 211.218 35.626V30.28H212.55V35.239C212.55 35.773 212.601 36.268 212.703 36.724C212.805 37.18 212.967 37.579 213.189 37.921C213.417 38.257 213.708 38.518 214.062 38.704C214.422 38.89 214.857 38.983 215.367 38.983C215.835 38.983 216.246 38.902 216.6 38.74C216.96 38.578 217.26 38.347 217.5 38.047C217.746 37.741 217.932 37.372 218.058 36.94C218.184 36.502 218.247 36.01 218.247 35.464L219.183 35.671C219.183 36.667 219.009 37.504 218.661 38.182C218.313 38.86 217.833 39.373 217.221 39.721C216.609 40.069 215.907 40.243 215.115 40.243ZM218.382 40V37.606H218.247V30.28H219.57V40H218.382ZM222.085 40V30.28H223.273V32.62L223.039 32.314C223.147 32.026 223.288 31.762 223.462 31.522C223.636 31.276 223.825 31.075 224.029 30.919C224.281 30.697 224.575 30.529 224.911 30.415C225.247 30.295 225.586 30.226 225.928 30.208C226.27 30.184 226.582 30.208 226.864 30.28V31.522C226.51 31.432 226.123 31.411 225.703 31.459C225.283 31.507 224.896 31.675 224.542 31.963C224.218 32.215 223.975 32.518 223.813 32.872C223.651 33.22 223.543 33.592 223.489 33.988C223.435 34.378 223.408 34.765 223.408 35.149V40H222.085ZM232.175 40V27.04H239.618V28.363H233.498V32.863H238.538V34.177H233.498V40H232.175ZM241.245 40V30.28H242.433V32.62L242.199 32.314C242.307 32.026 242.448 31.762 242.622 31.522C242.796 31.276 242.985 31.075 243.189 30.919C243.441 30.697 243.735 30.529 244.071 30.415C244.407 30.295 244.746 30.226 245.088 30.208C245.43 30.184 245.742 30.208 246.024 30.28V31.522C245.67 31.432 245.283 31.411 244.863 31.459C244.443 31.507 244.056 31.675 243.702 31.963C243.378 32.215 243.135 32.518 242.973 32.872C242.811 33.22 242.703 33.592 242.649 33.988C242.595 34.378 242.568 34.765 242.568 35.149V40H241.245ZM251.669 40.27C250.721 40.27 249.899 40.06 249.203 39.64C248.513 39.22 247.976 38.629 247.592 37.867C247.208 37.105 247.016 36.211 247.016 35.185C247.016 34.123 247.205 33.205 247.583 32.431C247.961 31.657 248.492 31.06 249.176 30.64C249.866 30.22 250.679 30.01 251.615 30.01C252.575 30.01 253.394 30.232 254.072 30.676C254.75 31.114 255.263 31.744 255.611 32.566C255.959 33.388 256.118 34.369 256.088 35.509H254.738V35.041C254.714 33.781 254.441 32.83 253.919 32.188C253.403 31.546 252.647 31.225 251.651 31.225C250.607 31.225 249.806 31.564 249.248 32.242C248.696 32.92 248.42 33.886 248.42 35.14C248.42 36.364 248.696 37.315 249.248 37.993C249.806 38.665 250.595 39.001 251.615 39.001C252.311 39.001 252.917 38.842 253.433 38.524C253.955 38.2 254.366 37.735 254.666 37.129L255.899 37.606C255.515 38.452 254.948 39.109 254.198 39.577C253.454 40.039 252.611 40.27 251.669 40.27ZM247.952 35.509V34.402H255.377V35.509H247.952ZM264.842 40V35.041C264.842 34.501 264.791 34.006 264.689 33.556C264.587 33.1 264.422 32.704 264.194 32.368C263.972 32.026 263.681 31.762 263.321 31.576C262.967 31.39 262.535 31.297 262.025 31.297C261.557 31.297 261.143 31.378 260.783 31.54C260.429 31.702 260.129 31.936 259.883 32.242C259.643 32.542 259.46 32.908 259.334 33.34C259.208 33.772 259.145 34.264 259.145 34.816L258.209 34.609C258.209 33.613 258.383 32.776 258.731 32.098C259.079 31.42 259.559 30.907 260.171 30.559C260.783 30.211 261.485 30.037 262.277 30.037C262.859 30.037 263.366 30.127 263.798 30.307C264.236 30.487 264.605 30.73 264.905 31.036C265.211 31.342 265.457 31.693 265.643 32.089C265.829 32.479 265.964 32.896 266.048 33.34C266.132 33.778 266.174 34.216 266.174 34.654V40H264.842ZM257.813 40V30.28H259.01V32.674H259.145V40H257.813ZM272.136 40.261C270.996 40.261 270.057 40.015 269.319 39.523C268.587 39.031 268.137 38.347 267.969 37.471L269.319 37.246C269.463 37.798 269.79 38.239 270.3 38.569C270.816 38.893 271.452 39.055 272.208 39.055C272.946 39.055 273.528 38.902 273.954 38.596C274.38 38.284 274.593 37.861 274.593 37.327C274.593 37.027 274.524 36.784 274.386 36.598C274.254 36.406 273.981 36.229 273.567 36.067C273.153 35.905 272.535 35.713 271.713 35.491C270.831 35.251 270.141 35.011 269.643 34.771C269.145 34.531 268.791 34.255 268.581 33.943C268.371 33.625 268.266 33.238 268.266 32.782C268.266 32.23 268.422 31.747 268.734 31.333C269.046 30.913 269.478 30.589 270.03 30.361C270.582 30.127 271.224 30.01 271.956 30.01C272.688 30.01 273.342 30.13 273.918 30.37C274.5 30.604 274.968 30.934 275.322 31.36C275.676 31.786 275.886 32.281 275.952 32.845L274.602 33.088C274.512 32.518 274.227 32.068 273.747 31.738C273.273 31.402 272.67 31.228 271.938 31.216C271.248 31.198 270.687 31.33 270.255 31.612C269.823 31.888 269.607 32.257 269.607 32.719C269.607 32.977 269.685 33.199 269.841 33.385C269.997 33.565 270.279 33.736 270.687 33.898C271.101 34.06 271.689 34.237 272.451 34.429C273.345 34.657 274.047 34.897 274.557 35.149C275.067 35.401 275.43 35.698 275.646 36.04C275.862 36.382 275.97 36.805 275.97 37.309C275.97 38.227 275.628 38.95 274.944 39.478C274.266 40 273.33 40.261 272.136 40.261ZM278.218 40V38.461H279.757V40H278.218ZM286.32 40V27.04H287.643V40H286.32ZM297.361 40V35.041C297.361 34.501 297.31 34.006 297.208 33.556C297.106 33.1 296.941 32.704 296.713 32.368C296.491 32.026 296.2 31.762 295.84 31.576C295.486 31.39 295.054 31.297 294.544 31.297C294.076 31.297 293.662 31.378 293.302 31.54C292.948 31.702 292.648 31.936 292.402 32.242C292.162 32.542 291.979 32.908 291.853 33.34C291.727 33.772 291.664 34.264 291.664 34.816L290.728 34.609C290.728 33.613 290.902 32.776 291.25 32.098C291.598 31.42 292.078 30.907 292.69 30.559C293.302 30.211 294.004 30.037 294.796 30.037C295.378 30.037 295.885 30.127 296.317 30.307C296.755 30.487 297.124 30.73 297.424 31.036C297.73 31.342 297.976 31.693 298.162 32.089C298.348 32.479 298.483 32.896 298.567 33.34C298.651 33.778 298.693 34.216 298.693 34.654V40H297.361ZM290.332 40V30.28H291.529V32.674H291.664V40H290.332ZM304.99 40.27C304.012 40.27 303.184 40.051 302.506 39.613C301.828 39.175 301.312 38.572 300.958 37.804C300.61 37.03 300.43 36.142 300.418 35.14C300.43 34.12 300.616 33.226 300.976 32.458C301.336 31.684 301.855 31.084 302.533 30.658C303.211 30.226 304.033 30.01 304.999 30.01C305.983 30.01 306.838 30.25 307.564 30.73C308.296 31.21 308.797 31.867 309.067 32.701L307.771 33.115C307.543 32.533 307.18 32.083 306.682 31.765C306.19 31.441 305.626 31.279 304.99 31.279C304.276 31.279 303.685 31.444 303.217 31.774C302.749 32.098 302.401 32.551 302.173 33.133C301.945 33.715 301.828 34.384 301.822 35.14C301.834 36.304 302.104 37.24 302.632 37.948C303.16 38.65 303.946 39.001 304.99 39.001C305.65 39.001 306.211 38.851 306.673 38.551C307.141 38.245 307.495 37.801 307.735 37.219L309.067 37.615C308.707 38.479 308.179 39.139 307.483 39.595C306.787 40.045 305.956 40.27 304.99 40.27ZM310.925 40V30.28H312.113V32.62L311.879 32.314C311.987 32.026 312.128 31.762 312.302 31.522C312.476 31.276 312.665 31.075 312.869 30.919C313.121 30.697 313.415 30.529 313.751 30.415C314.087 30.295 314.426 30.226 314.768 30.208C315.11 30.184 315.422 30.208 315.704 30.28V31.522C315.35 31.432 314.963 31.411 314.543 31.459C314.123 31.507 313.736 31.675 313.382 31.963C313.058 32.215 312.815 32.518 312.653 32.872C312.491 33.22 312.383 33.592 312.329 33.988C312.275 34.378 312.248 34.765 312.248 35.149V40H310.925ZM321.349 40.27C320.401 40.27 319.579 40.06 318.883 39.64C318.193 39.22 317.656 38.629 317.272 37.867C316.888 37.105 316.696 36.211 316.696 35.185C316.696 34.123 316.885 33.205 317.263 32.431C317.641 31.657 318.172 31.06 318.856 30.64C319.546 30.22 320.359 30.01 321.295 30.01C322.255 30.01 323.074 30.232 323.752 30.676C324.43 31.114 324.943 31.744 325.291 32.566C325.639 33.388 325.798 34.369 325.768 35.509H324.418V35.041C324.394 33.781 324.121 32.83 323.599 32.188C323.083 31.546 322.327 31.225 321.331 31.225C320.287 31.225 319.486 31.564 318.928 32.242C318.376 32.92 318.1 33.886 318.1 35.14C318.1 36.364 318.376 37.315 318.928 37.993C319.486 38.665 320.275 39.001 321.295 39.001C321.991 39.001 322.597 38.842 323.113 38.524C323.635 38.2 324.046 37.735 324.346 37.129L325.579 37.606C325.195 38.452 324.628 39.109 323.878 39.577C323.134 40.039 322.291 40.27 321.349 40.27ZM317.632 35.509V34.402H325.057V35.509H317.632ZM330.37 40.27C329.638 40.27 329.023 40.138 328.525 39.874C328.033 39.61 327.664 39.259 327.418 38.821C327.172 38.383 327.049 37.906 327.049 37.39C327.049 36.862 327.154 36.412 327.364 36.04C327.58 35.662 327.871 35.353 328.237 35.113C328.609 34.873 329.038 34.69 329.524 34.564C330.016 34.444 330.559 34.339 331.153 34.249C331.753 34.153 332.338 34.072 332.908 34.006C333.484 33.934 333.988 33.865 334.42 33.799L333.952 34.087C333.97 33.127 333.784 32.416 333.394 31.954C333.004 31.492 332.326 31.261 331.36 31.261C330.694 31.261 330.13 31.411 329.668 31.711C329.212 32.011 328.891 32.485 328.705 33.133L327.418 32.755C327.64 31.885 328.087 31.21 328.759 30.73C329.431 30.25 330.304 30.01 331.378 30.01C332.266 30.01 333.019 30.178 333.637 30.514C334.261 30.844 334.702 31.324 334.96 31.954C335.08 32.236 335.158 32.551 335.194 32.899C335.23 33.247 335.248 33.601 335.248 33.961V40H334.069V37.561L334.411 37.705C334.081 38.539 333.568 39.175 332.872 39.613C332.176 40.051 331.342 40.27 330.37 40.27ZM330.523 39.127C331.141 39.127 331.681 39.016 332.143 38.794C332.605 38.572 332.977 38.269 333.259 37.885C333.541 37.495 333.724 37.057 333.808 36.571C333.88 36.259 333.919 35.917 333.925 35.545C333.931 35.167 333.934 34.885 333.934 34.699L334.438 34.96C333.988 35.02 333.499 35.08 332.971 35.14C332.449 35.2 331.933 35.269 331.423 35.347C330.919 35.425 330.463 35.518 330.055 35.626C329.779 35.704 329.512 35.815 329.254 35.959C328.996 36.097 328.783 36.283 328.615 36.517C328.453 36.751 328.372 37.042 328.372 37.39C328.372 37.672 328.441 37.945 328.579 38.209C328.723 38.473 328.951 38.692 329.263 38.866C329.581 39.04 330.001 39.127 330.523 39.127ZM341.218 40.261C340.078 40.261 339.139 40.015 338.401 39.523C337.669 39.031 337.219 38.347 337.051 37.471L338.401 37.246C338.545 37.798 338.872 38.239 339.382 38.569C339.898 38.893 340.534 39.055 341.29 39.055C342.028 39.055 342.61 38.902 343.036 38.596C343.462 38.284 343.675 37.861 343.675 37.327C343.675 37.027 343.606 36.784 343.468 36.598C343.336 36.406 343.063 36.229 342.649 36.067C342.235 35.905 341.617 35.713 340.795 35.491C339.913 35.251 339.223 35.011 338.725 34.771C338.227 34.531 337.873 34.255 337.663 33.943C337.453 33.625 337.348 33.238 337.348 32.782C337.348 32.23 337.504 31.747 337.816 31.333C338.128 30.913 338.56 30.589 339.112 30.361C339.664 30.127 340.306 30.01 341.038 30.01C341.77 30.01 342.424 30.13 343 30.37C343.582 30.604 344.05 30.934 344.404 31.36C344.758 31.786 344.968 32.281 345.034 32.845L343.684 33.088C343.594 32.518 343.309 32.068 342.829 31.738C342.355 31.402 341.752 31.228 341.02 31.216C340.33 31.198 339.769 31.33 339.337 31.612C338.905 31.888 338.689 32.257 338.689 32.719C338.689 32.977 338.767 33.199 338.923 33.385C339.079 33.565 339.361 33.736 339.769 33.898C340.183 34.06 340.771 34.237 341.533 34.429C342.427 34.657 343.129 34.897 343.639 35.149C344.149 35.401 344.512 35.698 344.728 36.04C344.944 36.382 345.052 36.805 345.052 37.309C345.052 38.227 344.71 38.95 344.026 39.478C343.348 40 342.412 40.261 341.218 40.261ZM351.161 40.27C350.213 40.27 349.391 40.06 348.695 39.64C348.005 39.22 347.468 38.629 347.084 37.867C346.7 37.105 346.508 36.211 346.508 35.185C346.508 34.123 346.697 33.205 347.075 32.431C347.453 31.657 347.984 31.06 348.668 30.64C349.358 30.22 350.171 30.01 351.107 30.01C352.067 30.01 352.886 30.232 353.564 30.676C354.242 31.114 354.755 31.744 355.103 32.566C355.451 33.388 355.61 34.369 355.58 35.509H354.23V35.041C354.206 33.781 353.933 32.83 353.411 32.188C352.895 31.546 352.139 31.225 351.143 31.225C350.099 31.225 349.298 31.564 348.74 32.242C348.188 32.92 347.912 33.886 347.912 35.14C347.912 36.364 348.188 37.315 348.74 37.993C349.298 38.665 350.087 39.001 351.107 39.001C351.803 39.001 352.409 38.842 352.925 38.524C353.447 38.2 353.858 37.735 354.158 37.129L355.391 37.606C355.007 38.452 354.44 39.109 353.69 39.577C352.946 40.039 352.103 40.27 351.161 40.27ZM347.444 35.509V34.402H354.869V35.509H347.444ZM362.567 44.32L364.448 39.217L364.475 40.729L360.218 30.28H361.622L365.114 39.019H364.538L367.76 30.28H369.11L363.89 44.32H362.567ZM374.381 40.27C373.415 40.27 372.59 40.051 371.906 39.613C371.222 39.175 370.697 38.569 370.331 37.795C369.965 37.021 369.782 36.133 369.782 35.131C369.782 34.111 369.968 33.217 370.34 32.449C370.712 31.681 371.24 31.084 371.924 30.658C372.614 30.226 373.433 30.01 374.381 30.01C375.353 30.01 376.181 30.229 376.865 30.667C377.555 31.099 378.08 31.702 378.44 32.476C378.806 33.244 378.989 34.129 378.989 35.131C378.989 36.151 378.806 37.048 378.44 37.822C378.074 38.59 377.546 39.19 376.856 39.622C376.166 40.054 375.341 40.27 374.381 40.27ZM374.381 39.001C375.461 39.001 376.265 38.644 376.793 37.93C377.321 37.21 377.585 36.277 377.585 35.131C377.585 33.955 377.318 33.019 376.784 32.323C376.256 31.627 375.455 31.279 374.381 31.279C373.655 31.279 373.055 31.444 372.581 31.774C372.113 32.098 371.762 32.551 371.528 33.133C371.3 33.709 371.186 34.375 371.186 35.131C371.186 36.301 371.456 37.24 371.996 37.948C372.536 38.65 373.331 39.001 374.381 39.001ZM384.691 40.243C384.109 40.243 383.599 40.153 383.161 39.973C382.729 39.793 382.36 39.55 382.054 39.244C381.754 38.938 381.511 38.59 381.325 38.2C381.139 37.804 381.004 37.387 380.92 36.949C380.836 36.505 380.794 36.064 380.794 35.626V30.28H382.126V35.239C382.126 35.773 382.177 36.268 382.279 36.724C382.381 37.18 382.543 37.579 382.765 37.921C382.993 38.257 383.284 38.518 383.638 38.704C383.998 38.89 384.433 38.983 384.943 38.983C385.411 38.983 385.822 38.902 386.176 38.74C386.536 38.578 386.836 38.347 387.076 38.047C387.322 37.741 387.508 37.372 387.634 36.94C387.76 36.502 387.823 36.01 387.823 35.464L388.759 35.671C388.759 36.667 388.585 37.504 388.237 38.182C387.889 38.86 387.409 39.373 386.797 39.721C386.185 40.069 385.483 40.243 384.691 40.243ZM387.958 40V37.606H387.823V30.28H389.146V40H387.958ZM391.661 40V30.28H392.849V32.62L392.615 32.314C392.723 32.026 392.864 31.762 393.038 31.522C393.212 31.276 393.401 31.075 393.605 30.919C393.857 30.697 394.151 30.529 394.487 30.415C394.823 30.295 395.162 30.226 395.504 30.208C395.846 30.184 396.158 30.208 396.44 30.28V31.522C396.086 31.432 395.699 31.411 395.279 31.459C394.859 31.507 394.472 31.675 394.118 31.963C393.794 32.215 393.551 32.518 393.389 32.872C393.227 33.22 393.119 33.592 393.065 33.988C393.011 34.378 392.984 34.765 392.984 35.149V40H391.661ZM46.9522 66.27C45.9742 66.27 45.1462 66.051 44.4682 65.613C43.7902 65.175 43.2742 64.572 42.9202 63.804C42.5722 63.03 42.3922 62.142 42.3802 61.14C42.3922 60.12 42.5782 59.226 42.9382 58.458C43.2982 57.684 43.8172 57.084 44.4952 56.658C45.1732 56.226 45.9952 56.01 46.9612 56.01C47.9452 56.01 48.8002 56.25 49.5262 56.73C50.2582 57.21 50.7592 57.867 51.0292 58.701L49.7332 59.115C49.5052 58.533 49.1422 58.083 48.6442 57.765C48.1522 57.441 47.5882 57.279 46.9522 57.279C46.2382 57.279 45.6472 57.444 45.1792 57.774C44.7112 58.098 44.3632 58.551 44.1352 59.133C43.9072 59.715 43.7902 60.384 43.7842 61.14C43.7962 62.304 44.0662 63.24 44.5942 63.948C45.1222 64.65 45.9082 65.001 46.9522 65.001C47.6122 65.001 48.1732 64.851 48.6352 64.551C49.1032 64.245 49.4572 63.801 49.6972 63.219L51.0292 63.615C50.6692 64.479 50.1412 65.139 49.4452 65.595C48.7492 66.045 47.9182 66.27 46.9522 66.27ZM59.907 66V61.041C59.907 60.501 59.856 60.006 59.754 59.556C59.652 59.1 59.487 58.704 59.259 58.368C59.037 58.026 58.746 57.762 58.386 57.576C58.032 57.39 57.6 57.297 57.09 57.297C56.622 57.297 56.208 57.378 55.848 57.54C55.494 57.702 55.194 57.936 54.948 58.242C54.708 58.542 54.525 58.908 54.399 59.34C54.273 59.772 54.21 60.264 54.21 60.816L53.274 60.609C53.274 59.613 53.448 58.776 53.796 58.098C54.144 57.42 54.624 56.907 55.236 56.559C55.848 56.211 56.55 56.037 57.342 56.037C57.924 56.037 58.431 56.127 58.863 56.307C59.301 56.487 59.67 56.73 59.97 57.036C60.276 57.342 60.522 57.693 60.708 58.089C60.894 58.479 61.029 58.896 61.113 59.34C61.197 59.778 61.239 60.216 61.239 60.654V66H59.907ZM52.878 66V53.04H54.075V60.357H54.21V66H52.878ZM66.3555 66.27C65.6235 66.27 65.0085 66.138 64.5105 65.874C64.0185 65.61 63.6495 65.259 63.4035 64.821C63.1575 64.383 63.0345 63.906 63.0345 63.39C63.0345 62.862 63.1395 62.412 63.3495 62.04C63.5655 61.662 63.8565 61.353 64.2225 61.113C64.5945 60.873 65.0235 60.69 65.5095 60.564C66.0015 60.444 66.5445 60.339 67.1385 60.249C67.7385 60.153 68.3235 60.072 68.8935 60.006C69.4695 59.934 69.9735 59.865 70.4055 59.799L69.9375 60.087C69.9555 59.127 69.7695 58.416 69.3795 57.954C68.9895 57.492 68.3115 57.261 67.3455 57.261C66.6795 57.261 66.1155 57.411 65.6535 57.711C65.1975 58.011 64.8765 58.485 64.6905 59.133L63.4035 58.755C63.6255 57.885 64.0725 57.21 64.7445 56.73C65.4165 56.25 66.2895 56.01 67.3635 56.01C68.2515 56.01 69.0045 56.178 69.6225 56.514C70.2465 56.844 70.6875 57.324 70.9455 57.954C71.0655 58.236 71.1435 58.551 71.1795 58.899C71.2155 59.247 71.2335 59.601 71.2335 59.961V66H70.0545V63.561L70.3965 63.705C70.0665 64.539 69.5535 65.175 68.8575 65.613C68.1615 66.051 67.3275 66.27 66.3555 66.27ZM66.5085 65.127C67.1265 65.127 67.6665 65.016 68.1285 64.794C68.5905 64.572 68.9625 64.269 69.2445 63.885C69.5265 63.495 69.7095 63.057 69.7935 62.571C69.8655 62.259 69.9045 61.917 69.9105 61.545C69.9165 61.167 69.9195 60.885 69.9195 60.699L70.4235 60.96C69.9735 61.02 69.4845 61.08 68.9565 61.14C68.4345 61.2 67.9185 61.269 67.4085 61.347C66.9045 61.425 66.4485 61.518 66.0405 61.626C65.7645 61.704 65.4975 61.815 65.2395 61.959C64.9815 62.097 64.7685 62.283 64.6005 62.517C64.4385 62.751 64.3575 63.042 64.3575 63.39C64.3575 63.672 64.4265 63.945 64.5645 64.209C64.7085 64.473 64.9365 64.692 65.2485 64.866C65.5665 65.04 65.9865 65.127 66.5085 65.127ZM80.5964 66V61.041C80.5964 60.501 80.5454 60.006 80.4434 59.556C80.3414 59.1 80.1764 58.704 79.9484 58.368C79.7264 58.026 79.4354 57.762 79.0754 57.576C78.7214 57.39 78.2894 57.297 77.7794 57.297C77.3114 57.297 76.8974 57.378 76.5374 57.54C76.1834 57.702 75.8834 57.936 75.6374 58.242C75.3974 58.542 75.2144 58.908 75.0884 59.34C74.9624 59.772 74.8994 60.264 74.8994 60.816L73.9634 60.609C73.9634 59.613 74.1374 58.776 74.4854 58.098C74.8334 57.42 75.3134 56.907 75.9254 56.559C76.5374 56.211 77.2394 56.037 78.0314 56.037C78.6134 56.037 79.1204 56.127 79.5524 56.307C79.9904 56.487 80.3594 56.73 80.6594 57.036C80.9654 57.342 81.2114 57.693 81.3974 58.089C81.5834 58.479 81.7184 58.896 81.8024 59.34C81.8864 59.778 81.9284 60.216 81.9284 60.654V66H80.5964ZM73.5674 66V56.28H74.7644V58.674H74.8994V66H73.5674ZM88.2256 66.27C87.2476 66.27 86.4196 66.051 85.7416 65.613C85.0636 65.175 84.5476 64.572 84.1936 63.804C83.8456 63.03 83.6656 62.142 83.6536 61.14C83.6656 60.12 83.8516 59.226 84.2116 58.458C84.5716 57.684 85.0906 57.084 85.7686 56.658C86.4466 56.226 87.2686 56.01 88.2346 56.01C89.2186 56.01 90.0736 56.25 90.7996 56.73C91.5316 57.21 92.0326 57.867 92.3026 58.701L91.0066 59.115C90.7786 58.533 90.4156 58.083 89.9176 57.765C89.4256 57.441 88.8616 57.279 88.2256 57.279C87.5116 57.279 86.9206 57.444 86.4526 57.774C85.9846 58.098 85.6366 58.551 85.4086 59.133C85.1806 59.715 85.0636 60.384 85.0576 61.14C85.0696 62.304 85.3396 63.24 85.8676 63.948C86.3956 64.65 87.1816 65.001 88.2256 65.001C88.8856 65.001 89.4466 64.851 89.9086 64.551C90.3766 64.245 90.7306 63.801 90.9706 63.219L92.3026 63.615C91.9426 64.479 91.4146 65.139 90.7186 65.595C90.0226 66.045 89.1916 66.27 88.2256 66.27ZM98.0097 66.27C97.0617 66.27 96.2397 66.06 95.5437 65.64C94.8537 65.22 94.3167 64.629 93.9327 63.867C93.5487 63.105 93.3567 62.211 93.3567 61.185C93.3567 60.123 93.5457 59.205 93.9237 58.431C94.3017 57.657 94.8327 57.06 95.5167 56.64C96.2067 56.22 97.0197 56.01 97.9557 56.01C98.9157 56.01 99.7347 56.232 100.413 56.676C101.091 57.114 101.604 57.744 101.952 58.566C102.3 59.388 102.459 60.369 102.429 61.509H101.079V61.041C101.055 59.781 100.782 58.83 100.26 58.188C99.7437 57.546 98.9877 57.225 97.9917 57.225C96.9477 57.225 96.1467 57.564 95.5887 58.242C95.0367 58.92 94.7607 59.886 94.7607 61.14C94.7607 62.364 95.0367 63.315 95.5887 63.993C96.1467 64.665 96.9357 65.001 97.9557 65.001C98.6517 65.001 99.2577 64.842 99.7737 64.524C100.296 64.2 100.707 63.735 101.007 63.129L102.24 63.606C101.856 64.452 101.289 65.109 100.539 65.577C99.7947 66.039 98.9517 66.27 98.0097 66.27ZM94.2927 61.509V60.402H101.718V61.509H94.2927ZM113.322 66C112.776 66.114 112.236 66.159 111.702 66.135C111.174 66.111 110.7 65.997 110.28 65.793C109.866 65.589 109.551 65.271 109.335 64.839C109.161 64.479 109.065 64.116 109.047 63.75C109.035 63.378 109.029 62.955 109.029 62.481V53.58H110.343V62.427C110.343 62.835 110.346 63.177 110.352 63.453C110.364 63.723 110.427 63.963 110.541 64.173C110.757 64.575 111.099 64.815 111.567 64.893C112.041 64.971 112.626 64.953 113.322 64.839V66ZM106.95 57.414V56.28H113.322V57.414H106.95ZM118.944 66.27C117.978 66.27 117.153 66.051 116.469 65.613C115.785 65.175 115.26 64.569 114.894 63.795C114.528 63.021 114.345 62.133 114.345 61.131C114.345 60.111 114.531 59.217 114.903 58.449C115.275 57.681 115.803 57.084 116.487 56.658C117.177 56.226 117.996 56.01 118.944 56.01C119.916 56.01 120.744 56.229 121.428 56.667C122.118 57.099 122.643 57.702 123.003 58.476C123.369 59.244 123.552 60.129 123.552 61.131C123.552 62.151 123.369 63.048 123.003 63.822C122.637 64.59 122.109 65.19 121.419 65.622C120.729 66.054 119.904 66.27 118.944 66.27ZM118.944 65.001C120.024 65.001 120.828 64.644 121.356 63.93C121.884 63.21 122.148 62.277 122.148 61.131C122.148 59.955 121.881 59.019 121.347 58.323C120.819 57.627 120.018 57.279 118.944 57.279C118.218 57.279 117.618 57.444 117.144 57.774C116.676 58.098 116.325 58.551 116.091 59.133C115.863 59.709 115.749 60.375 115.749 61.131C115.749 62.301 116.019 63.24 116.559 63.948C117.099 64.65 117.894 65.001 118.944 65.001ZM133.002 70.59C132.504 70.59 132.012 70.515 131.526 70.365C131.046 70.221 130.602 69.99 130.194 69.672C129.786 69.36 129.444 68.952 129.168 68.448L130.365 67.782C130.635 68.322 131.013 68.709 131.499 68.943C131.991 69.183 132.492 69.303 133.002 69.303C133.704 69.303 134.271 69.171 134.703 68.907C135.141 68.649 135.459 68.265 135.657 67.755C135.855 67.245 135.951 66.609 135.945 65.847V63.255H136.098V56.28H137.277V65.865C137.277 66.141 137.268 66.405 137.25 66.657C137.238 66.915 137.211 67.167 137.169 67.413C137.055 68.139 136.818 68.736 136.458 69.204C136.104 69.672 135.636 70.02 135.054 70.248C134.478 70.476 133.794 70.59 133.002 70.59ZM132.912 66.27C132.006 66.27 131.232 66.045 130.59 65.595C129.948 65.139 129.456 64.524 129.114 63.75C128.772 62.976 128.601 62.103 128.601 61.131C128.601 60.165 128.769 59.295 129.105 58.521C129.447 57.747 129.936 57.135 130.572 56.685C131.208 56.235 131.97 56.01 132.858 56.01C133.77 56.01 134.538 56.232 135.162 56.676C135.786 57.12 136.257 57.729 136.575 58.503C136.899 59.271 137.061 60.147 137.061 61.131C137.061 62.097 136.902 62.97 136.584 63.75C136.266 64.524 135.798 65.139 135.18 65.595C134.562 66.045 133.806 66.27 132.912 66.27ZM133.047 65.037C133.737 65.037 134.307 64.869 134.757 64.533C135.207 64.197 135.543 63.735 135.765 63.147C135.987 62.553 136.098 61.881 136.098 61.131C136.098 60.369 135.987 59.697 135.765 59.115C135.543 58.527 135.207 58.068 134.757 57.738C134.313 57.408 133.752 57.243 133.074 57.243C132.378 57.243 131.802 57.414 131.346 57.756C130.89 58.098 130.551 58.563 130.329 59.151C130.113 59.739 130.005 60.399 130.005 61.131C130.005 61.869 130.116 62.535 130.338 63.129C130.566 63.717 130.905 64.182 131.355 64.524C131.805 64.866 132.369 65.037 133.047 65.037ZM143.906 66.27C142.958 66.27 142.136 66.06 141.44 65.64C140.75 65.22 140.213 64.629 139.829 63.867C139.445 63.105 139.253 62.211 139.253 61.185C139.253 60.123 139.442 59.205 139.82 58.431C140.198 57.657 140.729 57.06 141.413 56.64C142.103 56.22 142.916 56.01 143.852 56.01C144.812 56.01 145.631 56.232 146.309 56.676C146.987 57.114 147.5 57.744 147.848 58.566C148.196 59.388 148.355 60.369 148.325 61.509H146.975V61.041C146.951 59.781 146.678 58.83 146.156 58.188C145.64 57.546 144.884 57.225 143.888 57.225C142.844 57.225 142.043 57.564 141.485 58.242C140.933 58.92 140.657 59.886 140.657 61.14C140.657 62.364 140.933 63.315 141.485 63.993C142.043 64.665 142.832 65.001 143.852 65.001C144.548 65.001 145.154 64.842 145.67 64.524C146.192 64.2 146.603 63.735 146.903 63.129L148.136 63.606C147.752 64.452 147.185 65.109 146.435 65.577C145.691 66.039 144.848 66.27 143.906 66.27ZM140.189 61.509V60.402H147.614V61.509H140.189ZM155.615 66C155.069 66.114 154.529 66.159 153.995 66.135C153.467 66.111 152.993 65.997 152.573 65.793C152.159 65.589 151.844 65.271 151.628 64.839C151.454 64.479 151.358 64.116 151.34 63.75C151.328 63.378 151.322 62.955 151.322 62.481V53.58H152.636V62.427C152.636 62.835 152.639 63.177 152.645 63.453C152.657 63.723 152.72 63.963 152.834 64.173C153.05 64.575 153.392 64.815 153.86 64.893C154.334 64.971 154.919 64.953 155.615 64.839V66ZM149.243 57.414V56.28H155.615V57.414H149.243ZM172.725 66L172.734 59.619C172.734 58.869 172.524 58.281 172.104 57.855C171.69 57.423 171.162 57.207 170.52 57.207C170.154 57.207 169.797 57.291 169.449 57.459C169.101 57.627 168.813 57.897 168.585 58.269C168.363 58.641 168.252 59.127 168.252 59.727L167.469 59.502C167.451 58.806 167.586 58.197 167.874 57.675C168.168 57.153 168.57 56.748 169.08 56.46C169.596 56.166 170.178 56.019 170.826 56.019C171.804 56.019 172.587 56.322 173.175 56.928C173.763 57.528 174.057 58.341 174.057 59.367L174.048 66H172.725ZM161.124 66V56.28H162.312V58.674H162.456V66H161.124ZM166.938 66L166.947 59.709C166.947 58.935 166.74 58.326 166.326 57.882C165.918 57.432 165.378 57.207 164.706 57.207C164.034 57.207 163.491 57.438 163.077 57.9C162.663 58.356 162.456 58.965 162.456 59.727L161.664 59.295C161.664 58.671 161.811 58.113 162.105 57.621C162.399 57.123 162.801 56.733 163.311 56.451C163.821 56.163 164.4 56.019 165.048 56.019C165.666 56.019 166.215 56.151 166.695 56.415C167.181 56.679 167.562 57.063 167.838 57.567C168.114 58.071 168.252 58.683 168.252 59.403L168.243 66H166.938ZM180.38 66.27C179.414 66.27 178.589 66.051 177.905 65.613C177.221 65.175 176.696 64.569 176.33 63.795C175.964 63.021 175.781 62.133 175.781 61.131C175.781 60.111 175.967 59.217 176.339 58.449C176.711 57.681 177.239 57.084 177.923 56.658C178.613 56.226 179.432 56.01 180.38 56.01C181.352 56.01 182.18 56.229 182.864 56.667C183.554 57.099 184.079 57.702 184.439 58.476C184.805 59.244 184.988 60.129 184.988 61.131C184.988 62.151 184.805 63.048 184.439 63.822C184.073 64.59 183.545 65.19 182.855 65.622C182.165 66.054 181.34 66.27 180.38 66.27ZM180.38 65.001C181.46 65.001 182.264 64.644 182.792 63.93C183.32 63.21 183.584 62.277 183.584 61.131C183.584 59.955 183.317 59.019 182.783 58.323C182.255 57.627 181.454 57.279 180.38 57.279C179.654 57.279 179.054 57.444 178.58 57.774C178.112 58.098 177.761 58.551 177.527 59.133C177.299 59.709 177.185 60.375 177.185 61.131C177.185 62.301 177.455 63.24 177.995 63.948C178.535 64.65 179.33 65.001 180.38 65.001ZM186.973 66V56.28H188.161V58.62L187.927 58.314C188.035 58.026 188.176 57.762 188.35 57.522C188.524 57.276 188.713 57.075 188.917 56.919C189.169 56.697 189.463 56.529 189.799 56.415C190.135 56.295 190.474 56.226 190.816 56.208C191.158 56.184 191.47 56.208 191.752 56.28V57.522C191.398 57.432 191.011 57.411 190.591 57.459C190.171 57.507 189.784 57.675 189.43 57.963C189.106 58.215 188.863 58.518 188.701 58.872C188.539 59.22 188.431 59.592 188.377 59.988C188.323 60.378 188.296 60.765 188.296 61.149V66H186.973ZM197.396 66.27C196.448 66.27 195.626 66.06 194.93 65.64C194.24 65.22 193.703 64.629 193.319 63.867C192.935 63.105 192.743 62.211 192.743 61.185C192.743 60.123 192.932 59.205 193.31 58.431C193.688 57.657 194.219 57.06 194.903 56.64C195.593 56.22 196.406 56.01 197.342 56.01C198.302 56.01 199.121 56.232 199.799 56.676C200.477 57.114 200.99 57.744 201.338 58.566C201.686 59.388 201.845 60.369 201.815 61.509H200.465V61.041C200.441 59.781 200.168 58.83 199.646 58.188C199.13 57.546 198.374 57.225 197.378 57.225C196.334 57.225 195.533 57.564 194.975 58.242C194.423 58.92 194.147 59.886 194.147 61.14C194.147 62.364 194.423 63.315 194.975 63.993C195.533 64.665 196.322 65.001 197.342 65.001C198.038 65.001 198.644 64.842 199.16 64.524C199.682 64.2 200.093 63.735 200.393 63.129L201.626 63.606C201.242 64.452 200.675 65.109 199.925 65.577C199.181 66.039 198.338 66.27 197.396 66.27ZM193.679 61.509V60.402H201.104V61.509H193.679ZM210.863 66V54.309H206.336V53.04H216.713V54.309H212.186V66H210.863ZM220.977 66.243C220.395 66.243 219.885 66.153 219.447 65.973C219.015 65.793 218.646 65.55 218.34 65.244C218.04 64.938 217.797 64.59 217.611 64.2C217.425 63.804 217.29 63.387 217.206 62.949C217.122 62.505 217.08 62.064 217.08 61.626V56.28H218.412V61.239C218.412 61.773 218.463 62.268 218.565 62.724C218.667 63.18 218.829 63.579 219.051 63.921C219.279 64.257 219.57 64.518 219.924 64.704C220.284 64.89 220.719 64.983 221.229 64.983C221.697 64.983 222.108 64.902 222.462 64.74C222.822 64.578 223.122 64.347 223.362 64.047C223.608 63.741 223.794 63.372 223.92 62.94C224.046 62.502 224.109 62.01 224.109 61.464L225.045 61.671C225.045 62.667 224.871 63.504 224.523 64.182C224.175 64.86 223.695 65.373 223.083 65.721C222.471 66.069 221.769 66.243 220.977 66.243ZM224.244 66V63.606H224.109V56.28H225.432V66H224.244ZM227.948 66V56.28H229.136V58.62L228.902 58.314C229.01 58.026 229.151 57.762 229.325 57.522C229.499 57.276 229.688 57.075 229.892 56.919C230.144 56.697 230.438 56.529 230.774 56.415C231.11 56.295 231.449 56.226 231.791 56.208C232.133 56.184 232.445 56.208 232.727 56.28V57.522C232.373 57.432 231.986 57.411 231.566 57.459C231.146 57.507 230.759 57.675 230.405 57.963C230.081 58.215 229.838 58.518 229.676 58.872C229.514 59.22 229.406 59.592 229.352 59.988C229.298 60.378 229.271 60.765 229.271 61.149V66H227.948ZM238.799 66.27C237.905 66.27 237.149 66.045 236.531 65.595C235.913 65.139 235.445 64.524 235.127 63.75C234.809 62.97 234.65 62.097 234.65 61.131C234.65 60.147 234.809 59.271 235.127 58.503C235.451 57.729 235.925 57.12 236.549 56.676C237.173 56.232 237.941 56.01 238.853 56.01C239.741 56.01 240.503 56.235 241.139 56.685C241.775 57.135 242.261 57.747 242.597 58.521C242.939 59.295 243.11 60.165 243.11 61.131C243.11 62.103 242.939 62.976 242.597 63.75C242.255 64.524 241.763 65.139 241.121 65.595C240.479 66.045 239.705 66.27 238.799 66.27ZM234.425 66V53.04H235.757V58.683H235.613V66H234.425ZM238.664 65.037C239.342 65.037 239.906 64.866 240.356 64.524C240.806 64.182 241.142 63.717 241.364 63.129C241.592 62.535 241.706 61.869 241.706 61.131C241.706 60.399 241.595 59.739 241.373 59.151C241.151 58.563 240.812 58.098 240.356 57.756C239.906 57.414 239.333 57.243 238.637 57.243C237.959 57.243 237.395 57.408 236.945 57.738C236.501 58.068 236.168 58.527 235.946 59.115C235.724 59.697 235.613 60.369 235.613 61.131C235.613 61.881 235.724 62.553 235.946 63.147C236.168 63.735 236.504 64.197 236.954 64.533C237.404 64.869 237.974 65.037 238.664 65.037ZM249.145 66.27C248.179 66.27 247.354 66.051 246.67 65.613C245.986 65.175 245.461 64.569 245.095 63.795C244.729 63.021 244.546 62.133 244.546 61.131C244.546 60.111 244.732 59.217 245.104 58.449C245.476 57.681 246.004 57.084 246.688 56.658C247.378 56.226 248.197 56.01 249.145 56.01C250.117 56.01 250.945 56.229 251.629 56.667C252.319 57.099 252.844 57.702 253.204 58.476C253.57 59.244 253.753 60.129 253.753 61.131C253.753 62.151 253.57 63.048 253.204 63.822C252.838 64.59 252.31 65.19 251.62 65.622C250.93 66.054 250.105 66.27 249.145 66.27ZM249.145 65.001C250.225 65.001 251.029 64.644 251.557 63.93C252.085 63.21 252.349 62.277 252.349 61.131C252.349 59.955 252.082 59.019 251.548 58.323C251.02 57.627 250.219 57.279 249.145 57.279C248.419 57.279 247.819 57.444 247.345 57.774C246.877 58.098 246.526 58.551 246.292 59.133C246.064 59.709 245.95 60.375 245.95 61.131C245.95 62.301 246.22 63.24 246.76 63.948C247.3 64.65 248.095 65.001 249.145 65.001ZM258.113 66V54.309H253.586V53.04H263.963V54.309H259.436V66H258.113ZM270.653 66.27C269.363 66.27 268.274 65.985 267.386 65.415C266.498 64.839 265.826 64.044 265.37 63.03C264.914 62.016 264.686 60.846 264.686 59.52C264.686 58.194 264.914 57.024 265.37 56.01C265.826 54.996 266.498 54.204 267.386 53.634C268.274 53.058 269.363 52.77 270.653 52.77C271.949 52.77 273.038 53.058 273.92 53.634C274.808 54.204 275.48 54.996 275.936 56.01C276.398 57.024 276.629 58.194 276.629 59.52C276.629 60.846 276.398 62.016 275.936 63.03C275.48 64.044 274.808 64.839 273.92 65.415C273.038 65.985 271.949 66.27 270.653 66.27ZM270.653 65.001C271.667 65.001 272.513 64.77 273.191 64.308C273.869 63.846 274.376 63.204 274.712 62.382C275.054 61.554 275.225 60.6 275.225 59.52C275.225 58.44 275.054 57.489 274.712 56.667C274.376 55.845 273.869 55.203 273.191 54.741C272.513 54.279 271.667 54.045 270.653 54.039C269.639 54.039 268.796 54.27 268.124 54.732C267.452 55.194 266.945 55.839 266.603 56.667C266.267 57.489 266.096 58.44 266.09 59.52C266.084 60.6 266.249 61.551 266.585 62.373C266.927 63.189 267.437 63.831 268.115 64.299C268.793 64.761 269.639 64.995 270.653 65.001ZM278.432 66V53.04H279.764L286.901 63.66V53.04H288.233V66H286.901L279.764 55.371V66H278.432ZM299.65 66C299.104 66.114 298.564 66.159 298.03 66.135C297.502 66.111 297.028 65.997 296.608 65.793C296.194 65.589 295.879 65.271 295.663 64.839C295.489 64.479 295.393 64.116 295.375 63.75C295.363 63.378 295.357 62.955 295.357 62.481V53.58H296.671V62.427C296.671 62.835 296.674 63.177 296.68 63.453C296.692 63.723 296.755 63.963 296.869 64.173C297.085 64.575 297.427 64.815 297.895 64.893C298.369 64.971 298.954 64.953 299.65 64.839V66ZM293.278 57.414V56.28H299.65V57.414H293.278ZM305.272 66.27C304.306 66.27 303.481 66.051 302.797 65.613C302.113 65.175 301.588 64.569 301.222 63.795C300.856 63.021 300.673 62.133 300.673 61.131C300.673 60.111 300.859 59.217 301.231 58.449C301.603 57.681 302.131 57.084 302.815 56.658C303.505 56.226 304.324 56.01 305.272 56.01C306.244 56.01 307.072 56.229 307.756 56.667C308.446 57.099 308.971 57.702 309.331 58.476C309.697 59.244 309.88 60.129 309.88 61.131C309.88 62.151 309.697 63.048 309.331 63.822C308.965 64.59 308.437 65.19 307.747 65.622C307.057 66.054 306.232 66.27 305.272 66.27ZM305.272 65.001C306.352 65.001 307.156 64.644 307.684 63.93C308.212 63.21 308.476 62.277 308.476 61.131C308.476 59.955 308.209 59.019 307.675 58.323C307.147 57.627 306.346 57.279 305.272 57.279C304.546 57.279 303.946 57.444 303.472 57.774C303.004 58.098 302.653 58.551 302.419 59.133C302.191 59.709 302.077 60.375 302.077 61.131C302.077 62.301 302.347 63.24 302.887 63.948C303.427 64.65 304.222 65.001 305.272 65.001ZM311.856 66L311.865 53.04H313.197V60.96L317.535 56.28H319.299L314.745 61.14L319.893 66H317.967L313.197 61.32V66H311.856ZM324.732 66.27C323.784 66.27 322.962 66.06 322.266 65.64C321.576 65.22 321.039 64.629 320.655 63.867C320.271 63.105 320.079 62.211 320.079 61.185C320.079 60.123 320.268 59.205 320.646 58.431C321.024 57.657 321.555 57.06 322.239 56.64C322.929 56.22 323.742 56.01 324.678 56.01C325.638 56.01 326.457 56.232 327.135 56.676C327.813 57.114 328.326 57.744 328.674 58.566C329.022 59.388 329.181 60.369 329.151 61.509H327.801V61.041C327.777 59.781 327.504 58.83 326.982 58.188C326.466 57.546 325.71 57.225 324.714 57.225C323.67 57.225 322.869 57.564 322.311 58.242C321.759 58.92 321.483 59.886 321.483 61.14C321.483 62.364 321.759 63.315 322.311 63.993C322.869 64.665 323.658 65.001 324.678 65.001C325.374 65.001 325.98 64.842 326.496 64.524C327.018 64.2 327.429 63.735 327.729 63.129L328.962 63.606C328.578 64.452 328.011 65.109 327.261 65.577C326.517 66.039 325.674 66.27 324.732 66.27ZM321.015 61.509V60.402H328.44V61.509H321.015ZM337.905 66V61.041C337.905 60.501 337.854 60.006 337.752 59.556C337.65 59.1 337.485 58.704 337.257 58.368C337.035 58.026 336.744 57.762 336.384 57.576C336.03 57.39 335.598 57.297 335.088 57.297C334.62 57.297 334.206 57.378 333.846 57.54C333.492 57.702 333.192 57.936 332.946 58.242C332.706 58.542 332.523 58.908 332.397 59.34C332.271 59.772 332.208 60.264 332.208 60.816L331.272 60.609C331.272 59.613 331.446 58.776 331.794 58.098C332.142 57.42 332.622 56.907 333.234 56.559C333.846 56.211 334.548 56.037 335.34 56.037C335.922 56.037 336.429 56.127 336.861 56.307C337.299 56.487 337.668 56.73 337.968 57.036C338.274 57.342 338.52 57.693 338.706 58.089C338.892 58.479 339.027 58.896 339.111 59.34C339.195 59.778 339.237 60.216 339.237 60.654V66H337.905ZM330.876 66V56.28H332.073V58.674H332.208V66H330.876ZM345.2 66.261C344.06 66.261 343.121 66.015 342.383 65.523C341.651 65.031 341.201 64.347 341.033 63.471L342.383 63.246C342.527 63.798 342.854 64.239 343.364 64.569C343.88 64.893 344.516 65.055 345.271 65.055C346.01 65.055 346.592 64.902 347.018 64.596C347.444 64.284 347.657 63.861 347.657 63.327C347.657 63.027 347.588 62.784 347.45 62.598C347.318 62.406 347.045 62.229 346.631 62.067C346.217 61.905 345.599 61.713 344.777 61.491C343.895 61.251 343.205 61.011 342.707 60.771C342.209 60.531 341.855 60.255 341.645 59.943C341.435 59.625 341.33 59.238 341.33 58.782C341.33 58.23 341.486 57.747 341.798 57.333C342.11 56.913 342.542 56.589 343.094 56.361C343.646 56.127 344.288 56.01 345.02 56.01C345.752 56.01 346.406 56.13 346.982 56.37C347.564 56.604 348.032 56.934 348.386 57.36C348.74 57.786 348.95 58.281 349.016 58.845L347.666 59.088C347.576 58.518 347.291 58.068 346.811 57.738C346.337 57.402 345.734 57.228 345.002 57.216C344.312 57.198 343.751 57.33 343.319 57.612C342.887 57.888 342.671 58.257 342.671 58.719C342.671 58.977 342.749 59.199 342.905 59.385C343.061 59.565 343.343 59.736 343.751 59.898C344.165 60.06 344.753 60.237 345.515 60.429C346.409 60.657 347.111 60.897 347.621 61.149C348.131 61.401 348.494 61.698 348.71 62.04C348.926 62.382 349.034 62.805 349.034 63.309C349.034 64.227 348.692 64.95 348.008 65.478C347.33 66 346.394 66.261 345.2 66.261ZM351.282 66V64.461H352.821V66H351.282Z" fill="white"/>
</svg>
