<svg width="669" height="47" viewBox="0 0 669 47" fill="none" xmlns="http://www.w3.org/2000/svg">
<path d="M12.0821 43L0.37807 2.68H6.51007L14.9941 33.172L23.4781 2.708L29.6381 2.68L38.1221 33.172L46.6061 2.68H52.7661L41.0341 43H35.2101L26.5581 12.844L17.9061 43H12.0821ZM67.54 43.84C64.5347 43.84 61.8933 43.1867 59.616 41.88C57.3573 40.5547 55.5933 38.716 54.324 36.364C53.0733 33.9933 52.448 31.2493 52.448 28.132C52.448 24.828 53.064 21.9627 54.296 19.536C55.5467 17.1093 57.2827 15.2333 59.504 13.908C61.7253 12.5827 64.3107 11.92 67.26 11.92C70.34 11.92 72.9627 12.6387 75.128 14.076C77.2933 15.4947 78.908 17.52 79.972 20.152C81.0547 22.784 81.484 25.9107 81.26 29.532H75.408V27.404C75.3707 23.8947 74.6987 21.3 73.392 19.62C72.104 17.94 70.1347 17.1 67.484 17.1C64.5533 17.1 62.3507 18.024 60.876 19.872C59.4013 21.72 58.664 24.3893 58.664 27.88C58.664 31.2027 59.4013 33.7787 60.876 35.608C62.3507 37.4187 64.4787 38.324 67.26 38.324C69.0893 38.324 70.6667 37.9133 71.992 37.092C73.336 36.252 74.3813 35.0573 75.128 33.508L80.868 35.328C79.692 38.0347 77.9093 40.1347 75.52 41.628C73.1307 43.1027 70.4707 43.84 67.54 43.84ZM56.76 29.532V24.968H78.348V29.532H56.76ZM88.1021 43V1.84H93.9541V43H88.1021ZM115.298 43.84C112.2 43.84 109.568 43.1493 107.402 41.768C105.237 40.3867 103.576 38.492 102.418 36.084C101.28 33.676 100.701 30.9413 100.682 27.88C100.701 24.7627 101.298 22.0093 102.474 19.62C103.65 17.212 105.33 15.3267 107.514 13.964C109.698 12.6013 112.321 11.92 115.382 11.92C118.686 11.92 121.505 12.7413 123.838 14.384C126.19 16.0267 127.74 18.276 128.486 21.132L122.662 22.812C122.084 21.1133 121.132 19.7973 119.806 18.864C118.5 17.912 116.997 17.436 115.298 17.436C113.376 17.436 111.798 17.8933 110.566 18.808C109.334 19.704 108.42 20.936 107.822 22.504C107.225 24.072 106.917 25.864 106.898 27.88C106.917 30.9973 107.626 33.5173 109.026 35.44C110.445 37.3627 112.536 38.324 115.298 38.324C117.184 38.324 118.705 37.8947 119.862 37.036C121.038 36.1587 121.934 34.908 122.55 33.284L128.486 34.684C127.497 37.6333 125.864 39.9013 123.586 41.488C121.309 43.056 118.546 43.84 115.298 43.84ZM146.502 43.84C143.478 43.84 140.856 43.1587 138.634 41.796C136.413 40.4333 134.696 38.5573 133.482 36.168C132.288 33.76 131.69 30.988 131.69 27.852C131.69 24.6973 132.306 21.9253 133.538 19.536C134.77 17.128 136.497 15.2613 138.718 13.936C140.94 12.592 143.534 11.92 146.502 11.92C149.526 11.92 152.149 12.6013 154.37 13.964C156.592 15.3267 158.309 17.2027 159.522 19.592C160.736 21.9813 161.342 24.7347 161.342 27.852C161.342 31.0067 160.726 33.788 159.494 36.196C158.281 38.5853 156.564 40.4613 154.342 41.824C152.121 43.168 149.508 43.84 146.502 43.84ZM146.502 38.324C149.396 38.324 151.552 37.3533 152.97 35.412C154.408 33.452 155.126 30.932 155.126 27.852C155.126 24.6973 154.398 22.1773 152.942 20.292C151.505 18.388 149.358 17.436 146.502 17.436C144.542 17.436 142.928 17.884 141.658 18.78C140.389 19.6573 139.446 20.88 138.83 22.448C138.214 23.9973 137.906 25.7987 137.906 27.852C137.906 31.0253 138.634 33.564 140.09 35.468C141.546 37.372 143.684 38.324 146.502 38.324ZM203.727 43L203.755 24.156C203.755 21.972 203.195 20.2733 202.075 19.06C200.955 17.828 199.481 17.212 197.651 17.212C196.531 17.212 195.505 17.4733 194.571 17.996C193.657 18.5 192.91 19.2653 192.331 20.292C191.771 21.3 191.491 22.5693 191.491 24.1L188.663 22.672C188.626 20.544 189.074 18.6773 190.007 17.072C190.959 15.4667 192.247 14.2253 193.871 13.348C195.495 12.452 197.315 12.004 199.331 12.004C202.598 12.004 205.127 12.984 206.919 14.944C208.711 16.904 209.607 19.508 209.607 22.756L209.579 43H203.727ZM167.467 43V12.76H172.675V21.496H173.347V43H167.467ZM185.611 43L185.639 24.268C185.639 22.0653 185.079 20.3387 183.959 19.088C182.858 17.8373 181.374 17.212 179.507 17.212C177.659 17.212 176.166 17.8467 175.027 19.116C173.907 20.3853 173.347 22.0467 173.347 24.1L170.547 22.308C170.547 20.3293 171.023 18.5653 171.975 17.016C172.927 15.4667 174.215 14.244 175.839 13.348C177.463 12.452 179.302 12.004 181.355 12.004C183.502 12.004 185.331 12.4613 186.843 13.376C188.355 14.272 189.503 15.532 190.287 17.156C191.09 18.78 191.491 20.6653 191.491 22.812L191.463 43H185.611ZM229.907 43.84C226.902 43.84 224.261 43.1867 221.983 41.88C219.725 40.5547 217.961 38.716 216.691 36.364C215.441 33.9933 214.815 31.2493 214.815 28.132C214.815 24.828 215.431 21.9627 216.663 19.536C217.914 17.1093 219.65 15.2333 221.871 13.908C224.093 12.5827 226.678 11.92 229.627 11.92C232.707 11.92 235.33 12.6387 237.495 14.076C239.661 15.4947 241.275 17.52 242.339 20.152C243.422 22.784 243.851 25.9107 243.627 29.532H237.775V27.404C237.738 23.8947 237.066 21.3 235.759 19.62C234.471 17.94 232.502 17.1 229.851 17.1C226.921 17.1 224.718 18.024 223.243 19.872C221.769 21.72 221.031 24.3893 221.031 27.88C221.031 31.2027 221.769 33.7787 223.243 35.608C224.718 37.4187 226.846 38.324 229.627 38.324C231.457 38.324 233.034 37.9133 234.359 37.092C235.703 36.252 236.749 35.0573 237.495 33.508L243.235 35.328C242.059 38.0347 240.277 40.1347 237.887 41.628C235.498 43.1027 232.838 43.84 229.907 43.84ZM219.127 29.532V24.968H240.715V29.532H219.127ZM278.424 43C276.52 43.3733 274.654 43.532 272.824 43.476C270.995 43.42 269.362 43.0653 267.924 42.412C266.487 41.7587 265.404 40.732 264.676 39.332C264.023 38.0813 263.668 36.812 263.612 35.524C263.575 34.2173 263.556 32.7427 263.556 31.1V4.36H269.436V30.82C269.436 32.0333 269.446 33.088 269.464 33.984C269.502 34.88 269.698 35.636 270.052 36.252C270.724 37.4093 271.788 38.072 273.244 38.24C274.719 38.3893 276.446 38.324 278.424 38.044V43ZM257.76 17.464V12.76H278.424V17.464H257.76ZM296.51 43.84C293.486 43.84 290.863 43.1587 288.642 41.796C286.421 40.4333 284.703 38.5573 283.49 36.168C282.295 33.76 281.698 30.988 281.698 27.852C281.698 24.6973 282.314 21.9253 283.546 19.536C284.778 17.128 286.505 15.2613 288.726 13.936C290.947 12.592 293.542 11.92 296.51 11.92C299.534 11.92 302.157 12.6013 304.378 13.964C306.599 15.3267 308.317 17.2027 309.53 19.592C310.743 21.9813 311.35 24.7347 311.35 27.852C311.35 31.0067 310.734 33.788 309.502 36.196C308.289 38.5853 306.571 40.4613 304.35 41.824C302.129 43.168 299.515 43.84 296.51 43.84ZM296.51 38.324C299.403 38.324 301.559 37.3533 302.978 35.412C304.415 33.452 305.134 30.932 305.134 27.852C305.134 24.6973 304.406 22.1773 302.95 20.292C301.513 18.388 299.366 17.436 296.51 17.436C294.55 17.436 292.935 17.884 291.666 18.78C290.397 19.6573 289.454 20.88 288.838 22.448C288.222 23.9973 287.914 25.7987 287.914 27.852C287.914 31.0253 288.642 33.564 290.098 35.468C291.554 37.372 293.691 38.324 296.51 38.324ZM346.018 43C344.114 43.3733 342.247 43.532 340.418 43.476C338.589 43.42 336.955 43.0653 335.518 42.412C334.081 41.7587 332.998 40.732 332.27 39.332C331.617 38.0813 331.262 36.812 331.206 35.524C331.169 34.2173 331.15 32.7427 331.15 31.1V4.36H337.03V30.82C337.03 32.0333 337.039 33.088 337.058 33.984C337.095 34.88 337.291 35.636 337.646 36.252C338.318 37.4093 339.382 38.072 340.838 38.24C342.313 38.3893 344.039 38.324 346.018 38.044V43ZM325.354 17.464V12.76H346.018V17.464H325.354ZM373.618 43V28.132C373.618 26.956 373.515 25.752 373.31 24.52C373.123 23.2693 372.75 22.112 372.19 21.048C371.648 19.984 370.874 19.1253 369.866 18.472C368.876 17.8187 367.579 17.492 365.974 17.492C364.928 17.492 363.939 17.6693 363.006 18.024C362.072 18.36 361.251 18.9107 360.542 19.676C359.851 20.4413 359.3 21.4493 358.89 22.7C358.498 23.9507 358.302 25.472 358.302 27.264L354.662 25.892C354.662 23.148 355.175 20.7307 356.202 18.64C357.228 16.5307 358.703 14.888 360.626 13.712C362.548 12.536 364.872 11.948 367.598 11.948C369.688 11.948 371.443 12.284 372.862 12.956C374.28 13.628 375.428 14.5147 376.306 15.616C377.202 16.6987 377.883 17.884 378.35 19.172C378.816 20.46 379.134 21.72 379.302 22.952C379.47 24.184 379.554 25.2667 379.554 26.2V43H373.618ZM352.366 43V2.68H357.602V24.436H358.302V43H352.366ZM400.259 43.84C397.253 43.84 394.612 43.1867 392.335 41.88C390.076 40.5547 388.312 38.716 387.043 36.364C385.792 33.9933 385.167 31.2493 385.167 28.132C385.167 24.828 385.783 21.9627 387.015 19.536C388.265 17.1093 390.001 15.2333 392.223 13.908C394.444 12.5827 397.029 11.92 399.979 11.92C403.059 11.92 405.681 12.6387 407.847 14.076C410.012 15.4947 411.627 17.52 412.691 20.152C413.773 22.784 414.203 25.9107 413.979 29.532H408.127V27.404C408.089 23.8947 407.417 21.3 406.111 19.62C404.823 17.94 402.853 17.1 400.203 17.1C397.272 17.1 395.069 18.024 393.595 19.872C392.12 21.72 391.383 24.3893 391.383 27.88C391.383 31.2027 392.12 33.7787 393.595 35.608C395.069 37.4187 397.197 38.324 399.979 38.324C401.808 38.324 403.385 37.9133 404.711 37.092C406.055 36.252 407.1 35.0573 407.847 33.508L413.587 35.328C412.411 38.0347 410.628 40.1347 408.239 41.628C405.849 43.1027 403.189 43.84 400.259 43.84ZM389.479 29.532V24.968H411.067V29.532H389.479ZM431.472 43V2.68H455.356V8.532H437.324V19.9H451.996V25.78H437.324V43H431.472ZM467.848 43.84C465.608 43.84 463.732 43.4293 462.22 42.608C460.708 41.768 459.56 40.6667 458.776 39.304C458.01 37.9227 457.628 36.4107 457.628 34.768C457.628 33.2373 457.898 31.8933 458.44 30.736C458.981 29.5787 459.784 28.5987 460.848 27.796C461.912 26.9747 463.218 26.312 464.768 25.808C466.112 25.416 467.633 25.0707 469.332 24.772C471.03 24.4733 472.813 24.1933 474.68 23.932C476.565 23.6707 478.432 23.4093 480.28 23.148L478.152 24.324C478.189 21.9533 477.685 20.1987 476.64 19.06C475.613 17.9027 473.84 17.324 471.32 17.324C469.733 17.324 468.277 17.6973 466.952 18.444C465.626 19.172 464.702 20.3853 464.18 22.084L458.72 20.404C459.466 17.8093 460.885 15.7467 462.976 14.216C465.085 12.6853 467.885 11.92 471.376 11.92C474.082 11.92 476.434 12.3867 478.432 13.32C480.448 14.2347 481.922 15.6907 482.856 17.688C483.341 18.6773 483.64 19.7227 483.752 20.824C483.864 21.9253 483.92 23.1107 483.92 24.38V43H478.74V36.084L479.748 36.98C478.497 39.2947 476.901 41.0213 474.96 42.16C473.037 43.28 470.666 43.84 467.848 43.84ZM468.884 39.052C470.545 39.052 471.973 38.7627 473.168 38.184C474.362 37.5867 475.324 36.8307 476.052 35.916C476.78 35.0013 477.256 34.0493 477.48 33.06C477.797 32.164 477.974 31.156 478.012 30.036C478.068 28.916 478.096 28.02 478.096 27.348L480 28.048C478.152 28.328 476.472 28.58 474.96 28.804C473.448 29.028 472.076 29.252 470.844 29.476C469.63 29.6813 468.548 29.9333 467.596 30.232C466.793 30.512 466.074 30.848 465.44 31.24C464.824 31.632 464.329 32.108 463.956 32.668C463.601 33.228 463.424 33.9093 463.424 34.712C463.424 35.496 463.62 36.224 464.012 36.896C464.404 37.5493 465.001 38.072 465.804 38.464C466.606 38.856 467.633 39.052 468.884 39.052ZM527.423 43L527.451 24.156C527.451 21.972 526.891 20.2733 525.771 19.06C524.651 17.828 523.176 17.212 521.347 17.212C520.227 17.212 519.2 17.4733 518.267 17.996C517.352 18.5 516.605 19.2653 516.027 20.292C515.467 21.3 515.187 22.5693 515.187 24.1L512.359 22.672C512.321 20.544 512.769 18.6773 513.703 17.072C514.655 15.4667 515.943 14.2253 517.567 13.348C519.191 12.452 521.011 12.004 523.027 12.004C526.293 12.004 528.823 12.984 530.615 14.944C532.407 16.904 533.303 19.508 533.303 22.756L533.275 43H527.423ZM491.163 43V12.76H496.371V21.496H497.043V43H491.163ZM509.307 43L509.335 24.268C509.335 22.0653 508.775 20.3387 507.655 19.088C506.553 17.8373 505.069 17.212 503.203 17.212C501.355 17.212 499.861 17.8467 498.723 19.116C497.603 20.3853 497.043 22.0467 497.043 24.1L494.243 22.308C494.243 20.3293 494.719 18.5653 495.671 17.016C496.623 15.4667 497.911 14.244 499.535 13.348C501.159 12.452 502.997 12.004 505.051 12.004C507.197 12.004 509.027 12.4613 510.539 13.376C512.051 14.272 513.199 15.532 513.983 17.156C514.785 18.78 515.187 20.6653 515.187 22.812L515.159 43H509.307ZM543.373 43V37.316H549.225V43H543.373ZM543.373 32.92V2.68H549.225V32.92H543.373ZM567.169 46.22H613.169V0.22H567.169V46.22ZM622.378 46.22H668.378V0.22H622.378V46.22Z" fill="white"/>
</svg>
