<svg width="103" height="19" viewBox="0 0 103 19" fill="none" xmlns="http://www.w3.org/2000/svg">
<path d="M4.34366 14L0.554656 1.04H2.83166L5.41466 10.4L7.98866 1.058L10.2657 1.04L12.8487 10.4L15.4227 1.04H17.6997L13.9197 14H11.7777L9.12266 4.784L6.48566 14H4.34366ZM25.8912 14V9.32C25.8912 9.014 25.8702 8.675 25.8282 8.303C25.7862 7.931 25.6872 7.574 25.5312 7.232C25.3812 6.884 25.1532 6.599 24.8472 6.377C24.5472 6.155 24.1392 6.044 23.6232 6.044C23.3472 6.044 23.0742 6.089 22.8042 6.179C22.5342 6.269 22.2882 6.425 22.0662 6.647C21.8502 6.863 21.6762 7.163 21.5442 7.547C21.4122 7.925 21.3462 8.411 21.3462 9.005L20.0592 8.456C20.0592 7.628 20.2182 6.878 20.5362 6.206C20.8602 5.534 21.3342 5 21.9582 4.604C22.5822 4.202 23.3502 4.001 24.2622 4.001C24.9822 4.001 25.5762 4.121 26.0442 4.361C26.5122 4.601 26.8842 4.907 27.1602 5.279C27.4362 5.651 27.6402 6.047 27.7722 6.467C27.9042 6.887 27.9882 7.286 28.0242 7.664C28.0662 8.036 28.0872 8.339 28.0872 8.573V14H25.8912ZM19.1502 14V1.04H21.0852V7.862H21.3462V14H19.1502ZM30.6158 2.804V0.815H32.7848V2.804H30.6158ZM30.6158 14V4.28H32.7848V14H30.6158ZM41.1777 14C40.5357 14.12 39.9057 14.171 39.2877 14.153C38.6757 14.141 38.1267 14.03 37.6407 13.82C37.1547 13.604 36.7857 13.265 36.5337 12.803C36.3117 12.383 36.1947 11.954 36.1827 11.516C36.1707 11.078 36.1647 10.583 36.1647 10.031V1.58H38.3247V9.905C38.3247 10.295 38.3277 10.637 38.3337 10.931C38.3457 11.225 38.4087 11.465 38.5227 11.651C38.7387 12.011 39.0837 12.212 39.5577 12.254C40.0317 12.296 40.5717 12.272 41.1777 12.182V14ZM34.4007 5.981V4.28H41.1777V5.981H34.4007ZM47.1946 14.27C46.2106 14.27 45.3466 14.057 44.6026 13.631C43.8586 13.205 43.2766 12.614 42.8566 11.858C42.4426 11.102 42.2356 10.232 42.2356 9.248C42.2356 8.186 42.4396 7.265 42.8476 6.485C43.2556 5.699 43.8226 5.09 44.5486 4.658C45.2746 4.226 46.1146 4.01 47.0686 4.01C48.0766 4.01 48.9316 4.247 49.6336 4.721C50.3416 5.189 50.8666 5.852 51.2086 6.71C51.5506 7.568 51.6796 8.579 51.5956 9.743H49.4446V8.951C49.4386 7.895 49.2526 7.124 48.8866 6.638C48.5206 6.152 47.9446 5.909 47.1586 5.909C46.2706 5.909 45.6106 6.185 45.1786 6.737C44.7466 7.283 44.5306 8.084 44.5306 9.14C44.5306 10.124 44.7466 10.886 45.1786 11.426C45.6106 11.966 46.2406 12.236 47.0686 12.236C47.6026 12.236 48.0616 12.119 48.4456 11.885C48.8356 11.645 49.1356 11.3 49.3456 10.85L51.4876 11.498C51.1156 12.374 50.5396 13.055 49.7596 13.541C48.9856 14.027 48.1306 14.27 47.1946 14.27ZM43.8466 9.743V8.105H50.5336V9.743H43.8466ZM58.0111 14.27C57.0631 14.27 56.2681 14.045 55.6261 13.595C54.9841 13.145 54.5011 12.533 54.1771 11.759C53.8531 10.979 53.6911 10.106 53.6911 9.14C53.6911 8.162 53.8531 7.286 54.1771 6.512C54.5011 5.738 54.9751 5.129 55.5991 4.685C56.2291 4.235 57.0061 4.01 57.9301 4.01C58.8481 4.01 59.6431 4.235 60.3151 4.685C60.9931 5.129 61.5181 5.738 61.8901 6.512C62.2621 7.28 62.4481 8.156 62.4481 9.14C62.4481 10.112 62.2651 10.985 61.8991 11.759C61.5331 12.533 61.0171 13.145 60.3511 13.595C59.6851 14.045 58.9051 14.27 58.0111 14.27ZM53.3221 18.32V4.28H55.2391V11.102H55.5091V18.32H53.3221ZM57.6781 12.326C58.2421 12.326 58.7071 12.185 59.0731 11.903C59.4391 11.621 59.7091 11.24 59.8831 10.76C60.0631 10.274 60.1531 9.734 60.1531 9.14C60.1531 8.552 60.0631 8.018 59.8831 7.538C59.7031 7.052 59.4241 6.668 59.0461 6.386C58.6681 6.098 58.1881 5.954 57.6061 5.954C57.0541 5.954 56.6041 6.089 56.2561 6.359C55.9081 6.623 55.6501 6.995 55.4821 7.475C55.3201 7.949 55.2391 8.504 55.2391 9.14C55.2391 9.77 55.3201 10.325 55.4821 10.805C55.6501 11.285 55.9111 11.66 56.2651 11.93C56.6251 12.194 57.0961 12.326 57.6781 12.326ZM67.1499 14.27C66.4479 14.27 65.8539 14.138 65.3679 13.874C64.8819 13.604 64.5129 13.247 64.2609 12.803C64.0149 12.359 63.8919 11.87 63.8919 11.336C63.8919 10.868 63.9699 10.448 64.1259 10.076C64.2819 9.698 64.5219 9.374 64.8459 9.104C65.1699 8.828 65.5899 8.603 66.1059 8.429C66.4959 8.303 66.9519 8.189 67.4739 8.087C68.0019 7.985 68.5719 7.892 69.1839 7.808C69.8019 7.718 70.4469 7.622 71.1189 7.52L70.3449 7.961C70.3509 7.289 70.2009 6.794 69.8949 6.476C69.5889 6.158 69.0729 5.999 68.3469 5.999C67.9089 5.999 67.4859 6.101 67.0779 6.305C66.6699 6.509 66.3849 6.86 66.2229 7.358L64.2429 6.737C64.4829 5.915 64.9389 5.255 65.6109 4.757C66.2889 4.259 67.2009 4.01 68.3469 4.01C69.2109 4.01 69.9699 4.151 70.6239 4.433C71.2839 4.715 71.7729 5.177 72.0909 5.819C72.2649 6.161 72.3699 6.512 72.4059 6.872C72.4419 7.226 72.4599 7.613 72.4599 8.033V14H70.5609V11.894L70.8759 12.236C70.4379 12.938 69.9249 13.454 69.3369 13.784C68.7549 14.108 68.0259 14.27 67.1499 14.27ZM67.5819 12.542C68.0739 12.542 68.4939 12.455 68.8419 12.281C69.1899 12.107 69.4659 11.894 69.6699 11.642C69.8799 11.39 70.0209 11.153 70.0929 10.931C70.2069 10.655 70.2699 10.34 70.2819 9.986C70.2999 9.626 70.3089 9.335 70.3089 9.113L70.9749 9.311C70.3209 9.413 69.7599 9.503 69.2919 9.581C68.8239 9.659 68.4219 9.734 68.0859 9.806C67.7499 9.872 67.4529 9.947 67.1949 10.031C66.9429 10.121 66.7299 10.226 66.5559 10.346C66.3819 10.466 66.2469 10.604 66.1509 10.76C66.0609 10.916 66.0159 11.099 66.0159 11.309C66.0159 11.549 66.0759 11.762 66.1959 11.948C66.3159 12.128 66.4899 12.272 66.7179 12.38C66.9519 12.488 67.2399 12.542 67.5819 12.542ZM79.474 14.27C78.526 14.27 77.731 14.045 77.089 13.595C76.447 13.145 75.964 12.533 75.64 11.759C75.316 10.979 75.154 10.106 75.154 9.14C75.154 8.162 75.316 7.286 75.64 6.512C75.964 5.738 76.438 5.129 77.062 4.685C77.692 4.235 78.469 4.01 79.393 4.01C80.311 4.01 81.106 4.235 81.778 4.685C82.456 5.129 82.981 5.738 83.353 6.512C83.725 7.28 83.911 8.156 83.911 9.14C83.911 10.112 83.728 10.985 83.362 11.759C82.996 12.533 82.48 13.145 81.814 13.595C81.148 14.045 80.368 14.27 79.474 14.27ZM74.785 18.32V4.28H76.702V11.102H76.972V18.32H74.785ZM79.141 12.326C79.705 12.326 80.17 12.185 80.536 11.903C80.902 11.621 81.172 11.24 81.346 10.76C81.526 10.274 81.616 9.734 81.616 9.14C81.616 8.552 81.526 8.018 81.346 7.538C81.166 7.052 80.887 6.668 80.509 6.386C80.131 6.098 79.651 5.954 79.069 5.954C78.517 5.954 78.067 6.089 77.719 6.359C77.371 6.623 77.113 6.995 76.945 7.475C76.783 7.949 76.702 8.504 76.702 9.14C76.702 9.77 76.783 10.325 76.945 10.805C77.113 11.285 77.374 11.66 77.728 11.93C78.088 12.194 78.559 12.326 79.141 12.326ZM90.3138 14.27C89.3298 14.27 88.4658 14.057 87.7218 13.631C86.9778 13.205 86.3958 12.614 85.9758 11.858C85.5618 11.102 85.3548 10.232 85.3548 9.248C85.3548 8.186 85.5588 7.265 85.9668 6.485C86.3748 5.699 86.9418 5.09 87.6678 4.658C88.3938 4.226 89.2338 4.01 90.1878 4.01C91.1958 4.01 92.0508 4.247 92.7528 4.721C93.4608 5.189 93.9858 5.852 94.3278 6.71C94.6698 7.568 94.7988 8.579 94.7148 9.743H92.5638V8.951C92.5578 7.895 92.3718 7.124 92.0058 6.638C91.6398 6.152 91.0638 5.909 90.2778 5.909C89.3898 5.909 88.7298 6.185 88.2978 6.737C87.8658 7.283 87.6498 8.084 87.6498 9.14C87.6498 10.124 87.8658 10.886 88.2978 11.426C88.7298 11.966 89.3598 12.236 90.1878 12.236C90.7218 12.236 91.1808 12.119 91.5648 11.885C91.9548 11.645 92.2548 11.3 92.4648 10.85L94.6068 11.498C94.2348 12.374 93.6588 13.055 92.8788 13.541C92.1048 14.027 91.2498 14.27 90.3138 14.27ZM86.9658 9.743V8.105H93.6528V9.743H86.9658ZM96.7229 14V4.28H98.6399V6.647L98.4059 6.341C98.5259 6.017 98.6849 5.723 98.8829 5.459C99.0869 5.189 99.3299 4.967 99.6119 4.793C99.8519 4.631 100.116 4.505 100.404 4.415C100.698 4.319 100.998 4.262 101.304 4.244C101.61 4.22 101.907 4.232 102.195 4.28V6.305C101.907 6.221 101.574 6.194 101.196 6.224C100.824 6.254 100.488 6.359 100.188 6.539C99.8879 6.701 99.6419 6.908 99.4499 7.16C99.2639 7.412 99.1259 7.7 99.0359 8.024C98.9459 8.342 98.9009 8.687 98.9009 9.059V14H96.7229Z" fill="white"/>
</svg>
