<svg width="220" height="58" viewBox="0 0 220 58" fill="none" xmlns="http://www.w3.org/2000/svg">
<g filter="url(#filter0_d_832_2847)">
<path d="M14.6992 43V42.34L29.3992 18.14H15.4992V14.2H36.5792V14.88L21.9592 39.04H36.3192V43H14.6992ZM50.9777 43.6C48.831 43.6 46.9443 43.1333 45.3177 42.2C43.7043 41.2533 42.4443 39.94 41.5377 38.26C40.6443 36.5667 40.1977 34.6067 40.1977 32.38C40.1977 30.02 40.6377 27.9733 41.5177 26.24C42.411 24.5067 43.651 23.1667 45.2377 22.22C46.8243 21.2733 48.671 20.8 50.7777 20.8C52.9777 20.8 54.851 21.3133 56.3977 22.34C57.9443 23.3533 59.0977 24.8 59.8577 26.68C60.631 28.56 60.9377 30.7933 60.7777 33.38H56.5977V31.86C56.571 29.3533 56.091 27.5 55.1577 26.3C54.2377 25.1 52.831 24.5 50.9377 24.5C48.8443 24.5 47.271 25.16 46.2177 26.48C45.1643 27.8 44.6377 29.7067 44.6377 32.2C44.6377 34.5733 45.1643 36.4133 46.2177 37.72C47.271 39.0133 48.791 39.66 50.7777 39.66C52.0843 39.66 53.211 39.3667 54.1577 38.78C55.1177 38.18 55.8643 37.3267 56.3977 36.22L60.4977 37.52C59.6577 39.4533 58.3843 40.9533 56.6777 42.02C54.971 43.0733 53.071 43.6 50.9777 43.6ZM43.2777 33.38V30.12H58.6977V33.38H43.2777ZM65.2648 43V21.4H68.9848V26.64L68.4648 25.96C68.7315 25.2667 69.0782 24.6333 69.5048 24.06C69.9315 23.4733 70.4248 22.9933 70.9848 22.62C71.5315 22.22 72.1382 21.9133 72.8048 21.7C73.4848 21.4733 74.1782 21.34 74.8848 21.3C75.5915 21.2467 76.2715 21.28 76.9248 21.4V25.32C76.2182 25.1333 75.4315 25.08 74.5648 25.16C73.7115 25.24 72.9248 25.5133 72.2048 25.98C71.5248 26.42 70.9848 26.9533 70.5848 27.58C70.1982 28.2067 69.9182 28.9067 69.7448 29.68C69.5715 30.44 69.4848 31.2467 69.4848 32.1V43H65.2648ZM89.723 43.6C87.563 43.6 85.6896 43.1133 84.103 42.14C82.5163 41.1667 81.2896 39.8267 80.423 38.12C79.5696 36.4 79.143 34.42 79.143 32.18C79.143 29.9267 79.583 27.9467 80.463 26.24C81.343 24.52 82.5763 23.1867 84.163 22.24C85.7496 21.28 87.603 20.8 89.723 20.8C91.883 20.8 93.7563 21.2867 95.343 22.26C96.9296 23.2333 98.1563 24.5733 99.023 26.28C99.8896 27.9867 100.323 29.9533 100.323 32.18C100.323 34.4333 99.883 36.42 99.003 38.14C98.1363 39.8467 96.9096 41.1867 95.323 42.16C93.7363 43.12 91.8696 43.6 89.723 43.6ZM89.723 39.66C91.7896 39.66 93.3296 38.9667 94.343 37.58C95.3696 36.18 95.883 34.38 95.883 32.18C95.883 29.9267 95.363 28.1267 94.323 26.78C93.2963 25.42 91.763 24.74 89.723 24.74C88.323 24.74 87.1696 25.06 86.263 25.7C85.3563 26.3267 84.683 27.2 84.243 28.32C83.803 29.4267 83.583 30.7133 83.583 32.18C83.583 34.4467 84.103 36.26 85.143 37.62C86.183 38.98 87.7096 39.66 89.723 39.66ZM112.726 43V14.2H124.366C124.646 14.2 124.992 14.2133 125.406 14.24C125.819 14.2533 126.212 14.2933 126.586 14.36C128.186 14.6133 129.519 15.16 130.586 16C131.666 16.84 132.472 17.9 133.006 19.18C133.539 20.46 133.806 21.8733 133.806 23.42C133.806 25.7133 133.219 27.6933 132.046 29.36C130.872 31.0133 129.112 32.0467 126.766 32.46L125.066 32.66H116.906V43H112.726ZM129.566 43L123.886 31.28L128.106 30.2L134.346 43H129.566ZM116.906 28.7H124.206C124.472 28.7 124.766 28.6867 125.086 28.66C125.419 28.6333 125.732 28.5867 126.026 28.52C126.879 28.32 127.566 27.9533 128.086 27.42C128.606 26.8733 128.979 26.2467 129.206 25.54C129.432 24.8333 129.546 24.1267 129.546 23.42C129.546 22.7133 129.432 22.0133 129.206 21.32C128.979 20.6133 128.606 19.9933 128.086 19.46C127.566 18.9133 126.879 18.54 126.026 18.34C125.732 18.26 125.419 18.2067 125.086 18.18C124.766 18.1533 124.472 18.14 124.206 18.14H116.906V28.7ZM144.841 43.6C143.241 43.6 141.901 43.3067 140.821 42.72C139.741 42.12 138.921 41.3333 138.361 40.36C137.815 39.3733 137.541 38.2933 137.541 37.12C137.541 36.0267 137.735 35.0667 138.121 34.24C138.508 33.4133 139.081 32.7133 139.841 32.14C140.601 31.5533 141.535 31.08 142.641 30.72C143.601 30.44 144.688 30.1933 145.901 29.98C147.115 29.7667 148.388 29.5667 149.721 29.38C151.068 29.1933 152.401 29.0067 153.721 28.82L152.201 29.66C152.228 27.9667 151.868 26.7133 151.121 25.9C150.388 25.0733 149.121 24.66 147.321 24.66C146.188 24.66 145.148 24.9267 144.201 25.46C143.255 25.98 142.595 26.8467 142.221 28.06L138.321 26.86C138.855 25.0067 139.868 23.5333 141.361 22.44C142.868 21.3467 144.868 20.8 147.361 20.8C149.295 20.8 150.975 21.1333 152.401 21.8C153.841 22.4533 154.895 23.4933 155.561 24.92C155.908 25.6267 156.121 26.3733 156.201 27.16C156.281 27.9467 156.321 28.7933 156.321 29.7V43H152.621V38.06L153.341 38.7C152.448 40.3533 151.308 41.5867 149.921 42.4C148.548 43.2 146.855 43.6 144.841 43.6ZM145.581 40.18C146.768 40.18 147.788 39.9733 148.641 39.56C149.495 39.1333 150.181 38.5933 150.701 37.94C151.221 37.2867 151.561 36.6067 151.721 35.9C151.948 35.26 152.075 34.54 152.101 33.74C152.141 32.94 152.161 32.3 152.161 31.82L153.521 32.32C152.201 32.52 151.001 32.7 149.921 32.86C148.841 33.02 147.861 33.18 146.981 33.34C146.115 33.4867 145.341 33.6667 144.661 33.88C144.088 34.08 143.575 34.32 143.121 34.6C142.681 34.88 142.328 35.22 142.061 35.62C141.808 36.02 141.681 36.5067 141.681 37.08C141.681 37.64 141.821 38.16 142.101 38.64C142.381 39.1067 142.808 39.48 143.381 39.76C143.955 40.04 144.688 40.18 145.581 40.18ZM176.675 43V32.38C176.675 31.54 176.602 30.68 176.455 29.8C176.322 28.9067 176.055 28.08 175.655 27.32C175.268 26.56 174.715 25.9467 173.995 25.48C173.288 25.0133 172.362 24.78 171.215 24.78C170.468 24.78 169.762 24.9067 169.095 25.16C168.428 25.4 167.842 25.7933 167.335 26.34C166.842 26.8867 166.448 27.6067 166.155 28.5C165.875 29.3933 165.735 30.48 165.735 31.76L163.135 30.78C163.135 28.82 163.502 27.0933 164.235 25.6C164.968 24.0933 166.022 22.92 167.395 22.08C168.768 21.24 170.428 20.82 172.375 20.82C173.868 20.82 175.122 21.06 176.135 21.54C177.148 22.02 177.968 22.6533 178.595 23.44C179.235 24.2133 179.722 25.06 180.055 25.98C180.388 26.9 180.615 27.8 180.735 28.68C180.855 29.56 180.915 30.3333 180.915 31V43H176.675ZM161.495 43V21.4H165.235V27.64H165.735V43H161.495ZM186.104 43L186.124 14.2H190.364V31.8L198.844 21.4H204.164L195.204 32.2L205.084 43H199.404L190.364 32.6V43H186.104Z" fill="white"/>
</g>
<defs>
<filter id="filter0_d_832_2847" x="0.699219" y="0.200195" width="218.387" height="57.3994" filterUnits="userSpaceOnUse" color-interpolation-filters="sRGB">
<feFlood flood-opacity="0" result="BackgroundImageFix"/>
<feColorMatrix in="SourceAlpha" type="matrix" values="0 0 0 0 0 0 0 0 0 0 0 0 0 0 0 0 0 0 127 0" result="hardAlpha"/>
<feOffset/>
<feGaussianBlur stdDeviation="7"/>
<feComposite in2="hardAlpha" operator="out"/>
<feColorMatrix type="matrix" values="0 0 0 0 1 0 0 0 0 1 0 0 0 0 1 0 0 0 0.45 0"/>
<feBlend mode="normal" in2="BackgroundImageFix" result="effect1_dropShadow_832_2847"/>
<feBlend mode="normal" in="SourceGraphic" in2="effect1_dropShadow_832_2847" result="shape"/>
</filter>
</defs>
</svg>
