<svg viewBox="0 0 100 103" xmlns="http://www.w3.org/2000/svg">
<g filter="url(#filter0_d_832_2176)">
<path fill-rule="evenodd" clip-rule="evenodd" d="M57.7475 38.7141C53.5634 38.7141 50.1715 42.0788 50.1715 46.2295C50.1715 50.3802 53.5634 53.7449 57.7475 53.7449C61.9316 53.7449 65.3234 50.3802 65.3234 46.2295C65.3234 42.0788 61.9316 38.7141 57.7475 38.7141ZM44.6617 46.2295C44.6617 39.0602 50.5204 33.2483 57.7475 33.2483C64.9745 33.2483 70.8332 39.0602 70.8332 46.2295C70.8332 53.3988 64.9745 59.2107 57.7475 59.2107C50.5204 59.2107 44.6617 53.3988 44.6617 46.2295Z" fill="white"/>
<path fill-rule="evenodd" clip-rule="evenodd" d="M43.973 28.4658C39.7889 28.4658 36.397 31.8305 36.397 35.9812C36.397 38.5926 37.7374 40.8947 39.7857 42.2457C41.0527 43.0814 41.3969 44.7777 40.5545 46.0346C39.7121 47.2914 38.0021 47.6329 36.7351 46.7972C33.2161 44.4762 30.8872 40.4991 30.8872 35.9812C30.8872 28.8119 36.7459 23 43.973 23C47.8488 23 51.3339 24.675 53.7261 27.3264C54.7408 28.451 54.6443 30.1788 53.5106 31.1854C52.3769 32.1919 50.6352 32.0962 49.6205 30.9716C48.2294 29.4297 46.2165 28.4658 43.973 28.4658Z" fill="white"/>
<path fill-rule="evenodd" clip-rule="evenodd" d="M57.7482 67.7509C49.6388 67.7509 45.7612 73.4649 44.8655 76.1306C44.3843 77.5625 42.8242 78.3363 41.3808 77.859C39.9373 77.3817 39.1573 75.834 39.6384 74.4022C41.0384 70.2356 46.5734 62.2852 57.7482 62.2852C69.0528 62.2852 73.8833 70.4229 75.7086 74.0442C76.389 75.3942 75.8374 77.0357 74.4765 77.7107C73.1157 78.3857 71.4609 77.8385 70.7804 76.4886C69.162 73.2776 65.7279 67.7509 57.7482 67.7509Z" fill="white"/>
<path fill-rule="evenodd" clip-rule="evenodd" d="M40.3324 52.9365C40.7168 54.3969 39.835 55.8899 38.3629 56.2712C32.8944 57.6878 30.1008 61.9973 29.3692 64.1748C28.888 65.6067 27.3279 66.3805 25.8845 65.9032C24.4411 65.4259 23.661 63.8782 24.1421 62.4464C25.3074 58.9784 29.27 52.9777 36.9708 50.9828C38.4429 50.6014 39.948 51.4761 40.3324 52.9365Z" fill="white"/>
</g>
<defs>
<filter id="filter0_d_832_2176" x="0" y="0" width="100" height="103" filterUnits="userSpaceOnUse" color-interpolation-filters="sRGB">
<feFlood flood-opacity="0" result="BackgroundImageFix"/>
<feColorMatrix in="SourceAlpha" type="matrix" values="0 0 0 0 0 0 0 0 0 0 0 0 0 0 0 0 0 0 127 0" result="hardAlpha"/>
<feOffset dy="1"/>
<feGaussianBlur stdDeviation="12"/>
<feComposite in2="hardAlpha" operator="out"/>
<feColorMatrix type="matrix" values="0 0 0 0 1 0 0 0 0 1 0 0 0 0 1 0 0 0 0.45 0"/>
<feBlend mode="normal" in2="BackgroundImageFix" result="effect1_dropShadow_832_2176"/>
<feBlend mode="normal" in="SourceGraphic" in2="effect1_dropShadow_832_2176" result="shape"/>
</filter>
</defs>
</svg>
